<?xml version="1.0" encoding="UTF-8"?>
<svg width="51px" height="56px" viewBox="0 0 51 56" version="1.1" xmlns="http://www.w3.org/2000/svg" xmlns:xlink="http://www.w3.org/1999/xlink">
    <!-- Generator: Sketch 50.2 (55047) - http://www.bohemiancoding.com/sketch -->
    <title>Icons/Accident</title>
    <desc>Created with Sketch.</desc>
    <defs>
        <path d="M27.8895196,18.4490665 C29.1673567,18.4490665 30.2070427,19.4733399 30.2070427,20.7324025 C30.2070427,21.9913895 29.1673567,23.0157385 27.8895196,23.0157385 C26.6116826,23.0157385 25.5719966,21.9913895 25.5719966,20.7324025 C25.5719966,19.4733399 26.6116826,18.4490665 27.8895196,18.4490665 M27.8895196,25.4346867 C25.2578121,25.4346867 23.1168308,23.3252127 23.1168308,20.7324025 C23.1168308,18.1395168 25.2578121,16.0301183 27.8895196,16.0301183 C30.5212272,16.0301183 32.6622084,18.1395168 32.6622084,20.7324025 C32.6622084,23.3252127 30.5212272,25.4346867 27.8895196,25.4346867 Z M62.9636709,28.1368107 C63.2425376,28.3684545 63.3657631,28.7370861 63.2820034,29.0887849 C63.1982438,29.44056 62.9217528,29.7149171 62.5680926,29.7972166 L54.5484734,31.6640197 C54.4751358,31.681105 54.4017216,31.6892663 54.3295336,31.6892663 C53.894566,31.6892663 53.5009801,31.3924847 53.3976025,30.9527658 C53.2771358,30.4400528 53.5970776,29.9271873 54.112203,29.8072848 L60.2612164,28.3759293 L56.659323,25.3846206 C56.4641393,25.2224623 56.3416802,24.9896745 56.3189969,24.7375893 C56.2963136,24.4855042 56.3752453,24.2347919 56.5384731,24.0406749 L60.0559938,19.8569768 L55.5086053,20.542145 C55.2107338,20.5869177 54.9086474,20.4897448 54.6936925,20.2793815 C54.4786609,20.0690181 54.3757431,19.7702534 54.4157454,19.4728615 L55.0468163,14.7841541 L50.3196473,17.7954465 C50.0671424,17.9562319 49.7534844,17.9903263 49.4720889,17.8870515 C49.1906934,17.7839292 48.9741292,17.5555652 48.8869211,17.2700721 L47.7671631,13.6083923 L44.8216294,16.5401312 C44.5428394,16.8176918 44.1216657,16.8967878 43.7602655,16.7394348 L40.2723251,15.2205932 L42.9314822,19.693293 C43.2008463,20.1464361 43.0501863,20.7312279 42.594911,20.9993306 C42.1394059,21.2672807 41.5520923,21.1175551 41.2826515,20.6643357 L37.1112234,13.6479022 C36.8994871,13.2917795 36.942708,12.8403907 37.2182028,12.53049 C37.4937742,12.2207418 37.9386274,12.1231112 38.3194923,12.2888543 L43.9292408,14.7316014 L47.541403,11.1364324 C47.7793477,10.8995258 48.1248849,10.8044122 48.4510339,10.8856439 C48.7774895,10.9668756 49.037198,11.21263 49.1351346,11.5329803 L50.3516032,15.5111966 L55.7542134,12.0696432 C56.0684077,11.8695006 56.4707297,11.8691192 56.7853073,12.0685754 C57.0998848,12.2681841 57.2694731,12.6312477 57.2200449,12.9992692 L56.4841405,18.4665804 L62.2712172,17.5946937 C62.6644966,17.5355052 63.0544808,17.7246644 63.2495878,18.070185 C63.4446948,18.4156294 63.4047691,18.8452801 63.1491989,19.1492315 L58.6233442,24.5321838 L62.9636709,28.1368107 Z M60.5346881,48.3469852 C60.53645,48.3492469 60.5377524,48.351584 60.5394378,48.3537703 C61.2895849,49.3260106 61.4497726,50.5817957 60.9669879,51.716277 C60.4879571,52.8420884 59.4257082,53.6355769 58.1951512,53.7871125 C58.0482168,53.8052063 57.9014355,53.8141024 57.7557268,53.8141024 C56.6745557,53.8141024 55.6468572,53.325419 54.9971433,52.4817202 C54.9961474,52.4805139 54.9950749,52.4794584 54.994079,52.4782522 L49.2273992,45.0110915 L42.8815617,45.1118136 L46.7045391,49.3577501 C46.7051519,49.3584286 46.7056116,49.3591825 46.7062244,49.359861 C46.7069139,49.3606149 46.70768,49.3612181 46.7083695,49.361972 C47.7107107,50.4858232 48.116734,52.0531987 47.7947499,53.5550595 L47.7945201,53.5562657 L45.8231621,62.7476903 C45.8222428,62.7522137 45.8207873,62.7567372 45.8197913,62.7612606 C45.8119773,62.795865 45.8028609,62.8298663 45.792289,62.8631137 C45.7916762,62.8651492 45.7912931,62.8671848 45.7906036,62.8691449 C45.3402242,64.2522652 44.0142135,65.1427818 42.5395062,65.1428571 C42.2898402,65.1428571 42.036114,65.117375 41.7814684,65.0644507 C40.0417736,64.7027254 38.807616,63.0932065 39.0072569,61.4618242 C39.0079464,61.4551144 39.0087891,61.44848 39.0095551,61.4417702 C39.0107043,61.4326479 39.0113171,61.4235256 39.0126195,61.4144034 C39.0146113,61.4001545 39.0182119,61.3864334 39.0206633,61.3723353 C39.0231148,61.358388 39.0244171,61.3444407 39.0274048,61.330418 L40.7762927,53.1401083 L37.2696304,49.2042544 C37.2694772,49.2041036 37.269324,49.2039528 37.2691708,49.203802 C36.899613,48.789454 36.4383552,48.4317998 35.9354226,48.1695151 C35.934963,48.169289 35.9345799,48.1690628 35.9341203,48.1688366 C35.933584,48.168535 35.9330478,48.1683089 35.9324349,48.1680073 L35.4475818,47.9134879 C35.4468923,47.9131109 35.4462029,47.9125832 35.4453602,47.9121308 C33.9875067,47.1500802 32.8374649,45.8956521 32.2069031,44.3792409 C32.2067499,44.3788639 32.2066733,44.3784869 32.2065201,44.3781854 C32.2065201,44.37811 32.2064435,44.3780346 32.2064435,44.3780346 L28.5613503,35.5845229 C28.5543023,35.5780393 28.5429643,35.5701986 28.5347672,35.5670322 L28.5345374,35.5669568 L20.356156,32.449395 L20.3560027,32.449395 C19.4409948,32.100637 18.6317827,31.470068 18.0767566,30.6736392 C18.0762969,30.6728853 18.0757606,30.6722822 18.0752244,30.6715283 L18.0739987,30.6697943 C18.0739221,30.6696435 18.0738454,30.6695681 18.0737688,30.6694927 C18.0737688,30.6694173 18.0737688,30.6694173 18.0736922,30.669342 L14.0990307,24.9770323 C14.0987243,24.9765799 14.0984178,24.9759768 14.0981114,24.9755245 C14.0972687,24.9743936 14.096426,24.9734135 14.0956599,24.9722827 C13.1459485,23.5980585 13.5224776,21.7062009 14.9350556,20.7549193 C16.3353763,19.8118553 18.2584711,20.1648352 19.2221253,21.5419242 C19.2224317,21.5423766 19.2226615,21.5428289 19.2229679,21.5433567 C19.2231978,21.5435828 19.2234276,21.543809 19.2235808,21.5441106 L22.9554711,26.9024388 L25.2190126,27.7824007 C26.0906603,28.1141957 27.0628945,28.0952726 27.9569885,27.7293255 C27.9576013,27.7290994 27.9582142,27.7289486 27.9587504,27.7287224 C27.9593633,27.7284962 27.9599762,27.7281193 27.9606656,27.7278177 L32.7449989,25.7872576 C32.7455351,25.7870314 32.7460714,25.786956 32.7466077,25.7867299 C32.7469907,25.7865037 32.7473737,25.7862775 32.7478334,25.7861267 C33.7462676,25.3840674 34.8619124,25.2585417 35.9741863,25.4225167 C35.9748758,25.4226675 35.9755653,25.4226675 35.9761782,25.4227429 L41.7633889,26.2584503 L46.0890691,22.6140573 C46.0942018,22.6096846 46.0997176,22.6062167 46.1049269,22.6019948 C46.1102129,22.5976221 46.114886,22.5928725 46.1202486,22.5885752 C47.4182974,21.5661247 49.3449928,21.7412576 50.414979,22.978572 C51.4913238,24.2230485 51.3649203,26.1277226 50.1329844,27.2244331 C50.1279282,27.2288812 50.1225657,27.2325753 50.1175095,27.2370234 C50.1128364,27.2409437 50.1088528,27.2453164 50.1041797,27.2493121 L45.3844271,31.1940622 C45.3839675,31.1945899 45.383278,31.1949669 45.3827418,31.1954192 C44.4359414,31.9874753 43.2466762,32.4143382 42.0327432,32.4143382 C41.7796298,32.4143382 41.5255206,32.3958675 41.272254,32.3581721 C41.271258,32.3580213 41.2702621,32.3577197 41.2693428,32.3575689 C41.2678107,32.3573428 41.2662785,32.3572674 41.264823,32.3570412 L39.4915737,32.0825432 L41.74891,37.5158099 C41.7490632,37.5160361 41.7492164,37.5163377 41.749293,37.5165638 C41.9384386,37.9715475 42.3767905,38.2627069 42.8697641,38.2627069 C42.8765056,38.2627069 42.8831705,38.2626316 42.8899886,38.2624808 L42.8903717,38.2624808 L50.1292306,38.1352964 C50.129537,38.1352964 50.1300733,38.1352964 50.1300733,38.1352964 C50.1304563,38.1352964 50.1306861,38.135221 50.1309926,38.135221 C51.696174,38.1103421 53.1923315,38.8233132 54.1336927,40.0434385 C54.1337693,40.0435139 54.1338459,40.0436647 54.1339225,40.0437401 L54.1339991,40.0438908 L60.5346881,48.3469852 Z M58.7058213,50.7843709 C58.8490019,50.4477508 58.8049523,50.092283 58.5847804,49.809115 C58.5842441,49.8085119 58.5838611,49.807758 58.5833248,49.8070795 C58.5828652,49.806401 58.5821757,49.8058732 58.5816394,49.8051193 L52.1814101,41.5025527 L52.1812569,41.5024019 C51.7101933,40.8917362 50.9565988,40.5340067 50.1712884,40.5474262 L50.1707522,40.5474262 L42.9315102,40.674686 L42.9304377,40.674686 L42.9300547,40.674686 C42.9096003,40.6750629 42.8888395,40.6752137 42.8684617,40.6752137 C41.3748323,40.6752137 40.0496642,39.7993984 39.4803889,38.43015 C39.4803123,38.4299238 39.4803123,38.429773 39.4802357,38.4296223 L36.7980306,31.9738296 C36.7978007,31.9733019 36.7975709,31.9728495 36.7974177,31.9723972 C36.5491306,31.3756787 36.6510961,30.684194 37.0634013,30.1678421 C37.462683,29.6680763 38.0974583,29.4287858 38.7612681,29.5273216 C38.7625704,29.5274724 38.7637961,29.5278493 38.7650985,29.5280755 C38.7663242,29.5283017 38.7675499,29.5283017 38.7687757,29.5284524 L41.6396667,29.9728814 C42.4070507,30.08642 43.1928207,29.8618307 43.7965697,29.356109 C43.7967229,29.3560336 43.7967995,29.3559582 43.7968761,29.3558828 C43.7971825,29.3556566 43.7973357,29.3554305 43.7975656,29.3552797 L48.4937228,25.4301312 C48.7433888,25.2022247 48.768976,24.7975267 48.5481912,24.5422533 C48.3333819,24.2939913 47.9279715,24.2608193 47.658464,24.4676164 L43.1899096,28.2324086 C43.1894499,28.2327855 43.1889903,28.2330871 43.1885306,28.233464 C43.188071,28.233841 43.1877646,28.2342933 43.1873049,28.2346703 C43.1772692,28.2430387 43.1663143,28.2502008 43.1561254,28.258343 C43.1369733,28.2734212 43.1179745,28.2888009 43.0982096,28.3025221 C42.7565372,28.5554583 42.3327408,28.6920665 41.8891029,28.6920665 C41.8012333,28.6920665 41.7125211,28.6853567 41.6236556,28.6745758 C41.605193,28.6727664 41.5868071,28.671334 41.5682679,28.66862 L35.62018,27.8096922 C35.6194139,27.8095414 35.6185712,27.8093152 35.6177285,27.8091644 C35.6168092,27.8090136 35.6160432,27.809089 35.6152005,27.8089383 C34.9379843,27.7082915 34.2675862,27.7808929 33.6765542,28.0188263 L28.894749,29.958331 C28.8936765,29.9588587 28.8924508,29.9591603 28.8912251,29.9596126 C28.1208533,30.2738416 27.3124073,30.4315593 26.5080216,30.4315593 C25.7684463,30.4315593 25.0322419,30.298419 24.3321964,30.0315355 C24.3309707,30.0311585 24.3298982,30.03048 24.3287491,30.0300277 C24.3272935,30.0294999 24.3259146,30.0291984 24.324459,30.0285952 L21.7059919,29.0105928 C21.7031574,29.0094619 21.7006293,29.0080295 21.6978714,29.0068986 C21.6273153,28.979004 21.5592106,28.9445504 21.4945533,28.9036886 C21.489727,28.9006729 21.4848241,28.8977327 21.4799978,28.8946417 C21.4506568,28.8754924 21.422082,28.8551369 21.3943498,28.8334243 C21.3883744,28.8287501 21.3826288,28.8239251 21.3768066,28.8191001 C21.352675,28.7996492 21.3292329,28.7792183 21.3066335,28.7576565 C21.3028031,28.7541132 21.2988194,28.7507206 21.2950656,28.7471018 C21.2716235,28.7242584 21.249254,28.7000579 21.2274206,28.6751036 C21.2204493,28.6670367 21.2136312,28.6588945 21.206813,28.6506769 C21.1878908,28.6277581 21.1695049,28.6041608 21.1520382,28.5795834 C21.1493569,28.5758138 21.1464458,28.5721951 21.1438411,28.5684255 L17.2035001,22.9107203 C17.2033468,22.9104941 17.2031936,22.9103433 17.2030404,22.9101925 C17.0038592,22.6255921 16.6075651,22.5518599 16.319595,22.7458405 C16.0244238,22.9446461 15.9343326,23.3428605 16.1227886,23.6154738 C16.1228653,23.6156246 16.1228653,23.6157 16.1229419,23.6157754 L20.0956116,29.3052202 C20.0958414,29.3055217 20.0959946,29.3058233 20.0962244,29.3062003 C20.0965309,29.3065772 20.0968373,29.3068788 20.0969905,29.3072557 C20.375308,29.7075811 20.7817143,30.0245241 21.2414399,30.199657 C21.2414399,30.199657 21.2414399,30.199657 21.2415165,30.1997324 L29.4200512,33.3172943 C29.4202811,33.3173697 29.4205109,33.3175205 29.4206641,33.3175958 C30.0602657,33.5615606 30.5713954,34.0483592 30.8229,34.6534461 C30.8230532,34.6537476 30.8231298,34.6540492 30.823283,34.6543508 C30.823283,34.6544262 30.8233596,34.6545015 30.8233596,34.6545769 L34.4754242,43.4646746 C34.4755008,43.4649762 34.4757306,43.4652778 34.4758072,43.4655793 C34.8902574,44.4623969 35.6441584,45.2855141 36.5985429,45.7833952 C36.5990026,45.7836213 36.5993856,45.7839229 36.5997686,45.7841491 C36.6003049,45.7844506 36.6008411,45.7846014 36.6013774,45.784903 L37.0830896,46.0377639 L37.0833194,46.0378392 C37.0835492,46.0379146 37.0837024,46.0380654 37.0839322,46.0381408 L37.0862305,46.0394225 C37.0867667,46.0396486 37.087303,46.0400256 37.0878393,46.0403271 C37.8490946,46.4380892 38.548757,46.9814309 39.1115206,47.6122261 C39.1116738,47.6123769 39.1117504,47.612603 39.1119036,47.6127538 L43.02344,52.002913 C43.0290324,52.0091704 43.0336289,52.0158802 43.0389915,52.0222884 C43.0536237,52.0393267 43.0674897,52.056742 43.0810494,52.0745343 C43.0925406,52.0896124 43.1038786,52.104766 43.1146038,52.1202211 C43.1256353,52.136204 43.136054,52.1524884 43.1463195,52.1689236 C43.1574277,52.1868666 43.1683827,52.2047342 43.1784184,52.2230542 C43.1869219,52.2382832 43.1945827,52.2539644 43.2023967,52.2695704 C43.2122026,52.289172 43.2217786,52.308849 43.2303587,52.3288275 C43.23733,52.3449612 43.2433821,52.3613964 43.249664,52.377907 C43.2570949,52.3975086 43.2645259,52.4171856 43.2708844,52.4370888 C43.2767832,52.4555595 43.2816862,52.4743319 43.2867423,52.4931042 C43.291492,52.5113488 43.2963949,52.529518 43.3003786,52.5479887 C43.3049751,52.568872 43.3083458,52.5901322 43.3117932,52.6113924 C43.3143979,52.6282046 43.3172324,52.6449413 43.3191476,52.6618289 C43.3217522,52.6839184 43.3231312,52.7062341 43.3244335,52.7285498 C43.3253528,52.7453619 43.3264253,52.7621741 43.3267318,52.7789862 C43.3270382,52.8003218 43.3264253,52.8217328 43.325506,52.8432946 C43.3248932,52.8619915 43.3239739,52.8806885 43.3223651,52.89931 C43.3207563,52.9185347 43.3183815,52.9376839 43.3157002,52.9569086 C43.3127891,52.978395 43.3094949,52.9997306 43.3054347,53.0210662 C43.3038259,53.0294346 43.3031365,53.037803 43.3013745,53.0462467 L41.4400258,61.7633875 C41.4035603,62.1447898 41.8155591,62.6057293 42.2881549,62.704039 C42.7887892,62.8080783 43.2852868,62.5745175 43.4415674,62.1701965 L45.3959184,53.0580831 C45.395995,53.0579323 45.395995,53.0578569 45.395995,53.0577061 C45.5595534,52.2956556 45.3614447,51.5090276 44.8658665,50.9534725 L44.8658665,50.9533971 L40.3439162,45.9312366 C40.3432267,45.9304073 40.3426138,45.9295026 40.3418478,45.9286733 C40.3413115,45.9280702 40.3406986,45.9276178 40.340239,45.9270147 C39.8438947,45.3706303 39.7266076,44.5591988 40.0412373,43.8598734 C40.3486659,43.1772848 41.0353049,42.7284831 41.7910445,42.7162698 L41.7914275,42.7162698 L49.8080891,42.5890101 C49.8148306,42.5889347 49.8215722,42.5888593 49.8282371,42.5888593 C49.8358213,42.5888593 49.8431757,42.5898394 49.8506833,42.5899901 C49.8722102,42.5903671 49.8937371,42.5916487 49.9151873,42.5931566 C49.9349523,42.5945136 49.9547172,42.5960214 49.9741756,42.5982831 C49.992485,42.6004695 50.0106411,42.6034097 50.0287973,42.6064253 C50.0507072,42.6099687 50.0723873,42.6135875 50.0938376,42.6182617 C50.1100019,42.6218051 50.126013,42.6261777 50.1420241,42.6303242 C50.1642405,42.6360539 50.1863803,42.6419344 50.208137,42.6489458 C50.2242247,42.6541477 50.2400826,42.660179 50.2560171,42.6659841 C50.2765481,42.6735232 50.2970024,42.6810623 50.3169972,42.6895814 C50.3345405,42.6971205 50.3514709,42.7054889 50.3686311,42.7137819 C50.3861744,42.7223011 50.4037942,42.7306694 50.4209545,42.7400179 C50.4394936,42.7501203 50.45742,42.7612027 50.4754229,42.7722098 C50.4905147,42.7814075 50.5055299,42.7905298 50.5200854,42.8003306 C50.5382416,42.8125439 50.5557082,42.8257373 50.5733281,42.8389307 C50.5871942,42.8494854 50.6012135,42.8600401 50.6146965,42.871198 C50.6307842,42.8844668 50.6463357,42.8984894 50.6618871,42.9126629 C50.6762895,42.9258563 50.6903854,42.9391251 50.7040982,42.9529216 C50.7172749,42.9662658 50.730145,42.9799869 50.7427854,42.9940096 C50.7578006,43.0107464 50.7723561,43.0277093 50.7865286,43.0452 C50.792121,43.0520606 50.7982497,43.0582426 50.8037655,43.065254 L56.9457486,51.0184594 C56.9463615,51.0192133 56.9467446,51.0199672 56.9473574,51.0207212 C56.9478937,51.0213997 56.9485065,51.0220028 56.9489662,51.0226813 C57.1622433,51.3010997 57.5151005,51.4394419 57.890787,51.3933027 C58.252684,51.3487467 58.5649389,51.115412 58.7058213,50.7843709 Z" id="path-1"></path>
    </defs>
    <g id="Page-1" stroke="none" stroke-width="1" fill="none" fill-rule="evenodd">
        <g id="Policy-Dashboard" transform="translate(-79.000000, -1253.000000)">
            <g id="Icons/Accident" transform="translate(66.000000, 1243.000000)">
                <mask id="mask-2" fill="white">
                    <use xlink:href="#path-1"></use>
                </mask>
                <use id="Mask" fill="#FFFFFF" fill-rule="evenodd" xlink:href="#path-1"></use>
                <g id="Fill/Primary/SCB-Purple" mask="url(#mask-2)" fill="#4E2683" fill-rule="evenodd">
                    <rect id="SCB-Purple" x="0" y="0" width="76" height="76"></rect>
                </g>
            </g>
        </g>
    </g>
</svg>