<?xml version="1.0" encoding="UTF-8"?>
<svg width="35px" height="27px" viewBox="0 0 35 27" version="1.1" xmlns="http://www.w3.org/2000/svg" xmlns:xlink="http://www.w3.org/1999/xlink">
    <!-- Generator: Sketch 50.2 (55047) - http://www.bohemiancoding.com/sketch -->
    <title>Icon 1 Copy</title>
    <desc>Created with Sketch.</desc>
    <defs></defs>
    <g id="Icon-1-Copy" stroke="none" stroke-width="1" fill="none" fill-rule="evenodd">
        <g id="ICON" transform="translate(6.000000, 1.000000)" fill="#FFFFFF">
            <g id="Group-8" transform="translate(0.429782, 0.000000)">
                <path d="M6.50268993,3.37181859 C7.06637375,3.37181859 7.52500355,3.82364955 7.52500355,4.37905149 C7.52500355,4.93442009 7.06637375,5.38628439 6.50268993,5.38628439 C5.93900612,5.38628439 5.48037632,4.93442009 5.48037632,4.37905149 C5.48037632,3.82364955 5.93900612,3.37181859 6.50268993,3.37181859 M6.50268993,6.45333904 C7.66359768,6.45333904 8.60803459,5.5228007 8.60803459,4.37905149 C8.60803459,3.23526894 7.66359768,2.30476394 6.50268993,2.30476394 C5.34178219,2.30476394 4.39734528,3.23526894 4.39734528,4.37905149 C4.39734528,5.5228007 5.34178219,6.45333904 6.50268993,6.45333904" id="Fill-1"></path>
                <path d="M21.9747184,7.64530912 L20.0600987,6.05522387 L22.0565591,3.68067774 C22.1692971,3.54659767 22.1869093,3.35706869 22.100843,3.2046851 C22.0147767,3.05226786 21.8427456,2.96882532 21.6692608,2.99493476 L19.1164459,3.37954434 L19.4410706,0.967785521 C19.4628745,0.805442659 19.3880652,0.645286799 19.2492977,0.557234723 C19.1105302,0.469249939 18.9330565,0.46941817 18.794458,0.55770577 L16.4112403,2.07585546 L15.8746276,0.320971184 C15.8314254,0.179657191 15.716862,0.0712491697 15.5728548,0.0354159785 C15.4289828,-0.000417212743 15.2765583,0.0415395849 15.1715953,0.146044648 L13.5781861,1.73195776 L11.1035948,0.654404917 C10.9355864,0.581291748 10.7393512,0.62435887 10.6177902,0.760996043 C10.496263,0.897700509 10.4771973,1.09681866 10.5705991,1.25391271 L12.4107136,4.34902563 C12.5295703,4.54895129 12.788648,4.61499876 12.989582,4.4967997 C13.1904146,4.37853334 13.2568742,4.12056801 13.1380514,3.920676 L11.965035,1.94766348 L13.5036471,2.61766004 C13.6630692,2.68707213 13.8488588,2.65218103 13.9718395,2.52974255 L15.2711834,1.23648399 L15.7651348,2.85173658 C15.8036043,2.97767426 15.8991359,3.07841095 16.023266,3.1239006 C16.1473962,3.16945754 16.285758,3.15441769 16.3971438,3.08349153 L18.4824086,1.75513999 L18.2040285,3.82343852 C18.1863826,3.95462501 18.231782,4.08641713 18.3266375,4.17921332 C18.4214591,4.27200951 18.5547165,4.31487475 18.6861146,4.29512444 L20.692074,3.99288072 L19.1404133,5.83840783 C19.0684097,5.92403738 19.0335911,6.03463241 19.0435972,6.14583306 C19.0536034,6.25703372 19.107623,6.35972188 19.193723,6.43125368 L20.7826025,7.75078992 L18.0701289,8.3821943 C17.842895,8.43508611 17.7017612,8.66132309 17.7549018,8.88749277 C17.8005041,9.08146305 17.9741241,9.21238037 18.1659984,9.21238037 C18.1978423,9.21238037 18.230227,9.20878023 18.2625779,9.20124348 L21.8002195,8.37775301 C21.9562273,8.34144877 22.078194,8.22042343 22.1151423,8.0652472 C22.1520906,7.91010463 22.097733,7.74749259 21.9747184,7.64530912 M20.0964813,17.6356776 C20.0343348,17.7817076 19.8965918,17.8846369 19.7369506,17.9042916 C19.5712265,17.9246447 19.415573,17.8636187 19.3214914,17.7408019 C19.3212887,17.7405026 19.3210183,17.7402365 19.3207818,17.7399372 C19.3205114,17.7396046 19.3203425,17.7392721 19.3200721,17.7389395 L16.6106997,14.2305946 C16.6082665,14.2275017 16.605563,14.2247747 16.6030961,14.2217483 C16.5968443,14.2140328 16.5904235,14.20655 16.5837999,14.199167 C16.578224,14.1929813 16.5725466,14.1869286 16.5667341,14.1810422 C16.5606851,14.1749562 16.554467,14.169103 16.5481138,14.1632831 C16.5412537,14.1570309 16.5343936,14.1508451 16.5272969,14.1449919 C16.5213493,14.14007 16.515165,14.135414 16.5090484,14.1307581 C16.5012758,14.1249382 16.4935709,14.1191183 16.4855618,14.1137307 C16.479141,14.1094073 16.4725174,14.1053833 16.4658601,14.1013259 C16.4579186,14.0964705 16.4500109,14.0915817 16.4418328,14.0871253 C16.434263,14.0830015 16.4264905,14.07931 16.4187517,14.075552 C16.4111819,14.0718938 16.4037135,14.0682023 16.3959748,14.0648766 C16.3871547,14.0611186 16.3781318,14.057793 16.3690751,14.0544673 C16.362046,14.0519065 16.3550507,14.049246 16.347954,14.0469513 C16.3383566,14.0438584 16.3285903,14.0412644 16.3187901,14.0387369 C16.3117272,14.0369078 16.3046643,14.0349789 16.2975339,14.0334158 C16.2880717,14.0313539 16.2785081,14.0297576 16.2688431,14.0281945 C16.260834,14.0268643 16.2528249,14.0255673 16.2447482,14.0246028 C16.2361646,14.0236051 16.2274458,14.02294 16.2187271,14.0223414 C16.2092649,14.0216762 16.1997688,14.0211109 16.1902728,14.0209446 C16.1869611,14.0208781 16.1837169,14.0204457 16.1803713,14.0204457 C16.1774312,14.0204457 16.1744574,14.020479 16.1714836,14.0205123 L12.6351466,14.0766495 L12.6349777,14.0766495 C12.3016033,14.0820371 11.9987107,14.280014 11.8630968,14.5811198 C11.7243063,14.8896086 11.7760443,15.24755 11.9949934,15.4929842 C11.9951962,15.4932502 11.9954665,15.4934498 11.9957031,15.4937158 C11.996041,15.4940816 11.9963114,15.4944807 11.9966155,15.4948466 L13.9913535,17.710239 L13.9913535,17.7102723 C14.2099647,17.9553406 14.2973551,18.3023406 14.2252056,18.6384989 C14.2252056,18.6385655 14.2252056,18.6385987 14.2251718,18.6386652 L13.3630619,22.6582315 C13.2941229,22.836587 13.0751062,22.9396162 12.8542647,22.893722 C12.6457916,22.8503553 12.4640494,22.647024 12.4801351,22.4787786 L13.3012195,18.6334439 C13.3019968,18.6297192 13.3023009,18.6260277 13.3030106,18.6223362 C13.3048017,18.6129246 13.3062548,18.6035129 13.307539,18.5940348 C13.3087217,18.5855543 13.3097693,18.5771071 13.310479,18.5686267 C13.3111887,18.5604123 13.3115942,18.5521646 13.3118645,18.543917 C13.3122701,18.5344056 13.3125404,18.5249607 13.3124052,18.5155491 C13.3122701,18.5081328 13.311797,18.5007166 13.3113914,18.4933004 C13.3108169,18.4834564 13.3102087,18.4736124 13.3090597,18.4638682 C13.3082148,18.4564187 13.3069645,18.4490357 13.3058155,18.4416195 C13.3042948,18.4322411 13.3028078,18.4228627 13.3007802,18.4136507 C13.299023,18.4055028 13.2968602,18.3974879 13.294765,18.3894398 C13.2925346,18.3811589 13.2903718,18.372878 13.2877697,18.3647301 C13.2849648,18.3559503 13.2816868,18.3472704 13.2784088,18.3386236 C13.2756377,18.3313404 13.2729681,18.3240905 13.2698928,18.3169735 C13.2661079,18.3081605 13.2618837,18.2994805 13.2575581,18.2908338 C13.2541112,18.2839497 13.2507318,18.2770323 13.2469807,18.2703144 C13.2425538,18.2622331 13.2377213,18.2543512 13.2328212,18.2464362 C13.2282928,18.2391862 13.2236969,18.2320028 13.2188306,18.2249524 C13.2140995,18.2181347 13.209098,18.2114502 13.204029,18.2047988 C13.1980475,18.1969503 13.1919309,18.189268 13.1854763,18.181752 C13.1831107,18.1789251 13.1810831,18.1759653 13.1786162,18.173205 L11.453146,16.2366031 C11.4530784,16.2365366 11.4530446,16.2364368 11.452977,16.2363703 C11.2047288,15.9581118 10.8960914,15.7184311 10.5602838,15.5429689 C10.5600473,15.5428359 10.5598107,15.5426696 10.5595742,15.5425699 L10.5585604,15.5420045 C10.558459,15.5419712 10.5583914,15.5419047 10.55829,15.5418715 L10.5581886,15.5418382 L10.3456941,15.4302954 C10.3454576,15.4301623 10.345221,15.4300958 10.3449845,15.4299628 C10.3448155,15.429863 10.3446465,15.42973 10.3444438,15.4296302 C9.92344244,15.2100032 9.59087908,14.846907 9.40805542,14.4071875 C9.40802162,14.4070544 9.40792024,14.4069214 9.40788645,14.4067884 L7.79687537,10.5204482 C7.79687537,10.520415 7.79684158,10.5203817 7.79684158,10.5203485 C7.79677399,10.5202154 7.79674019,10.5200824 7.79667261,10.5199494 C7.68572804,10.2530314 7.46025678,10.0382932 7.17811356,9.93067461 C7.17804597,9.93064135 7.17794459,9.93057484 7.17784321,9.93054158 L3.57010029,8.55531214 C3.57006649,8.55527888 3.57006649,8.55527888 3.57006649,8.55527888 C3.36727077,8.47802366 3.18799544,8.33821266 3.06522309,8.16161979 C3.06515551,8.16145351 3.06502033,8.16132048 3.06488516,8.1611542 C3.06478378,8.16098791 3.06471619,8.16085489 3.06461481,8.16072186 L1.31217729,5.65097469 C1.31214349,5.65094143 1.31214349,5.65090817 1.3121097,5.65084166 C1.22897731,5.53058557 1.26871865,5.35492389 1.3989256,5.26722608 C1.52595594,5.18165669 1.70077051,5.2141817 1.78863402,5.3397256 C1.7887016,5.33979211 1.78876919,5.33985862 1.78883678,5.33995839 L3.52701338,7.83570451 C3.52816236,7.83736735 3.52944652,7.83896367 3.5306293,7.8406265 C3.53833425,7.85146817 3.54644473,7.8618775 3.55479176,7.87198753 C3.5577994,7.87561251 3.56080703,7.87920422 3.56388225,7.88276269 C3.57351344,7.89377064 3.58338119,7.90444603 3.59372205,7.9145228 C3.59537794,7.91611912 3.59713521,7.91761567 3.59882489,7.91917873 C3.60879402,7.92869014 3.61913488,7.93770269 3.62977988,7.94628291 C3.6323482,7.94841134 3.63488272,7.95053976 3.63751863,7.95260168 C3.64975193,7.96217959 3.66235696,7.97115889 3.67529993,7.97960608 C3.67742893,7.98096961 3.67959173,7.98226662 3.68172073,7.98359688 C3.71024257,8.00162199 3.74028513,8.01682029 3.77140908,8.02912525 C3.77262566,8.0296241 3.77374085,8.03025598 3.77499121,8.03075483 L4.93005831,8.47981952 C4.93070039,8.48008557 4.93130867,8.4802186 4.93195075,8.4804514 C4.93245766,8.48065094 4.93293077,8.48095025 4.93347147,8.48111653 C5.24227788,8.59884511 5.5670349,8.65757637 5.89327883,8.65757637 C6.2481122,8.65757637 6.60473663,8.58800344 6.94456562,8.44938968 C6.94510632,8.44919014 6.94564702,8.44905711 6.94612013,8.44882431 L9.05548622,7.59326345 C9.31620426,7.48830543 9.61193253,7.45627927 9.91066843,7.50067691 C9.91104016,7.50074342 9.9113781,7.50071017 9.91178362,7.50077668 C9.91215535,7.50084319 9.91252708,7.50094296 9.91286502,7.50100948 L12.5367057,7.87990261 C12.5448838,7.88109985 12.5529942,7.88173173 12.5611385,7.88252989 C12.6003392,7.88728559 12.6394722,7.89024544 12.6782335,7.89024544 C12.8739326,7.89024544 13.0608791,7.82998437 13.2115988,7.71840827 C13.2203175,7.71235556 13.2286984,7.7055712 13.2371468,7.69891987 C13.2416413,7.69532815 13.2464738,7.69216876 13.2509008,7.68847727 C13.2511036,7.68831099 13.2512387,7.68811145 13.2514415,7.68794517 C13.2516443,7.68777888 13.251847,7.68764586 13.2520498,7.68747957 L15.2232336,6.0267417 C15.3421197,5.93551868 15.5209557,5.95015161 15.6157131,6.05966579 C15.7131064,6.17227285 15.7018194,6.3507946 15.5916858,6.45132949 L13.520101,8.18280428 C13.5199997,8.1828708 13.5199321,8.18297057 13.5197969,8.18307034 C13.5197631,8.18310359 13.5197293,8.18313685 13.5196617,8.18317011 C13.2533339,8.40625579 12.9067124,8.50532738 12.5682014,8.45524285 L11.3017842,8.25919483 C11.3012435,8.25912832 11.3007028,8.25912832 11.3001621,8.25902855 C11.2995876,8.25892878 11.2990469,8.2587625 11.2984724,8.25869598 C11.0056504,8.21522953 10.7256362,8.32078617 10.5495037,8.54124457 C10.3676262,8.76901944 10.3226469,9.07404954 10.4321721,9.33727601 C10.4322397,9.33747555 10.4323411,9.33767509 10.4324425,9.33790789 L11.6156259,12.185709 C11.6156597,12.1857755 11.6156597,12.185842 11.6156935,12.1859418 C11.8668141,12.7899493 12.4513767,13.1762919 13.1102516,13.1762919 C13.1192407,13.1762919 13.1283988,13.1762254 13.1374217,13.1760591 L13.1375907,13.1760591 L13.1380638,13.1760591 L16.3314627,13.1199219 L16.3316993,13.1199219 C16.678118,13.1140022 17.0105462,13.2718051 17.2183434,13.541184 L17.218411,13.5412505 L20.0417018,17.2037068 C20.0419384,17.2040394 20.0422425,17.2042722 20.0424453,17.2045715 C20.0426818,17.2048708 20.0428508,17.2052034 20.0430873,17.2054694 C20.1402103,17.3303814 20.1596416,17.4871866 20.0964813,17.6356776 M20.9032372,16.5604897 L18.0797436,12.8978006 L18.0797098,12.8977341 C18.079676,12.8977009 18.0796422,12.8976344 18.0796084,12.8976011 C17.664352,12.3593753 17.004362,12.0448671 16.3139238,12.0558418 C16.3137886,12.0558418 16.3136873,12.055875 16.3135183,12.055875 C16.3135183,12.055875 16.3132817,12.055875 16.3131466,12.055875 L13.1199166,12.111979 L13.1197476,12.111979 C13.11674,12.1120455 13.1137999,12.1120788 13.1108261,12.1120788 C12.8933639,12.1120788 12.6999966,11.9836415 12.6165601,11.7829376 C12.6165263,11.7828378 12.6164587,11.7827048 12.6163911,11.782605 L11.6206273,9.38586399 L12.402849,9.50695149 C12.4034911,9.50705126 12.404167,9.50708452 12.4048429,9.50718429 C12.4052484,9.5072508 12.4056877,9.50738383 12.406127,9.50745034 C12.5178488,9.52407867 12.6299424,9.53222656 12.7415966,9.53222656 C13.2770909,9.53222656 13.8017036,9.34392734 14.2193593,8.99453286 C14.2195959,8.99433332 14.2199,8.99416704 14.2201028,8.99393424 L16.302096,7.25381272 C16.3041574,7.25205011 16.3059147,7.25012123 16.3079761,7.24839188 C16.3102065,7.24642974 16.3125721,7.24480016 16.3148024,7.24283802 C16.8582382,6.75905337 16.9139977,5.91885709 16.4391969,5.36988939 C15.9672009,4.82408107 15.1172905,4.74682585 14.5446908,5.19785268 C14.5423253,5.19974831 14.5402639,5.20184348 14.5379321,5.20377237 C14.5356341,5.20563474 14.533201,5.20716455 14.5309368,5.20909343 L12.6227781,6.81672042 L10.0699041,6.44807034 C10.0696338,6.44803708 10.0693296,6.44803708 10.0690255,6.44797057 C9.57837543,6.37563733 9.08623845,6.43100967 8.64580575,6.60836744 C8.64560299,6.60843395 8.64543402,6.60853372 8.64526506,6.60863349 C8.6450285,6.60873326 8.64479194,6.60876652 8.64455539,6.60886629 L6.5340741,7.46489274 C6.53376996,7.46502577 6.53349961,7.46519205 6.53322926,7.46529182 C6.5329927,7.46539159 6.53272236,7.46545811 6.53245201,7.46555788 C6.13804627,7.62698571 5.709171,7.63533313 5.32466681,7.48897057 L4.32616571,7.10079882 L2.67994164,4.7371149 C2.67987406,4.73698187 2.67977267,4.7368821 2.67967129,4.73678233 C2.67953612,4.73654954 2.67943474,4.73635 2.67929956,4.73615046 C2.25420919,4.12868429 1.40588709,3.9729766 0.788172885,4.38898417 C0.165051697,4.80861672 -0.00104411329,5.64315937 0.417895817,6.24936179 C0.418233753,6.24986064 0.418605484,6.25029297 0.418977214,6.25079182 C0.419112388,6.25099136 0.419247563,6.25125742 0.419382738,6.25145696 L2.17269889,8.76246788 C2.17273269,8.76250114 2.17273269,8.76250114 2.17273269,8.7625344 C2.17276648,8.76256765 2.17280028,8.76260091 2.17283407,8.76266742 L2.17337477,8.76343233 C2.17361132,8.76376489 2.17384788,8.76403095 2.17405064,8.76436351 C2.41888566,9.11568688 2.77584803,9.39384559 3.17947944,9.5476909 L3.17954703,9.5476909 L6.78722236,10.9229203 L6.78732375,10.9229536 C6.79093967,10.9243504 6.79594113,10.9278091 6.79905014,10.9306691 L8.406986,14.8096928 C8.406986,14.8096928 8.40701979,14.8097261 8.40701979,14.8097593 C8.40708738,14.8098924 8.40712117,14.8100586 8.40718876,14.8102249 C8.68534433,15.4791494 9.19265466,16.032507 9.8357479,16.3686653 C9.83611963,16.3688649 9.83642378,16.3690977 9.83672792,16.3692639 L10.050608,16.4815384 C10.0508783,16.4816714 10.0511149,16.4817712 10.0513514,16.4819042 C10.0515542,16.482004 10.0517231,16.4821038 10.0519259,16.4822036 C10.2737812,16.5979035 10.4772528,16.7556731 10.6402734,16.9384517 C10.640341,16.9385182 10.6404086,16.9385847 10.6404762,16.9386512 L12.1873469,18.6748485 L11.4158716,22.2877856 C11.4145536,22.2939713 11.4139791,22.3001238 11.4128977,22.3062763 C11.4118163,22.3124953 11.410228,22.318548 11.4093494,22.3248335 C11.4087749,22.3288576 11.4085046,22.3328816 11.4079977,22.3369057 C11.4076597,22.3398655 11.407288,22.3427921 11.4069839,22.345752 C11.3189176,23.0653928 11.8633334,23.7753893 12.6307534,23.9349548 C12.7430836,23.9583009 12.8550081,23.9695417 12.9651417,23.9695417 C13.6156695,23.9695084 14.2006039,23.5766807 14.3992767,22.966554 C14.3995809,22.9656894 14.3997499,22.9647914 14.4000202,22.9638935 C14.4046837,22.9492273 14.4087052,22.9342286 14.4121521,22.9189638 C14.4125914,22.9169684 14.4132335,22.914973 14.4136391,22.9129776 L15.2832512,18.8584252 L15.2833525,18.8578931 C15.4253873,18.1953872 15.2462809,17.5039812 14.8041247,17.0082242 C14.8038206,17.0078916 14.8034826,17.0076255 14.8031785,17.007293 C14.8029082,17.0069937 14.8027054,17.0066611 14.802435,17.0063618 L13.1160303,15.1333799 L15.9153277,15.088949 L18.459145,18.3828882 C18.4595843,18.3834203 18.4600574,18.3838859 18.4604967,18.384418 C18.7471007,18.7565933 19.2004426,18.972163 19.6773724,18.972163 C19.7416479,18.972163 19.8063966,18.9682387 19.8712128,18.9602571 C20.4140403,18.8934112 20.8826231,18.5433849 21.0939348,18.0467632 C21.3069024,17.5463169 21.2362399,16.9923607 20.9053324,16.5634828 C20.904589,16.5625184 20.9040145,16.5614874 20.9032372,16.5604897" id="Fill-6"></path>
            </g>
        </g>
    </g>
</svg>