<?xml version="1.0" encoding="UTF-8"?>
<svg width="35px" height="27px" viewBox="0 0 35 27" version="1.1" xmlns="http://www.w3.org/2000/svg" xmlns:xlink="http://www.w3.org/1999/xlink">
    <!-- Generator: Sketch 50.2 (55047) - http://www.bohemiancoding.com/sketch -->
    <title>Icon 1</title>
    <desc>Created with Sketch.</desc>
    <defs></defs>
    <g id="Icon-1" stroke="none" stroke-width="1" fill="none" fill-rule="evenodd">
        <g id="Group-19" transform="translate(6.000000, 2.000000)" fill="#D5D5D5">
            <path d="M6.93247231,3.37181859 C7.49615612,3.37181859 7.95478592,3.82364955 7.95478592,4.37905149 C7.95478592,4.93442009 7.49615612,5.38628439 6.93247231,5.38628439 C6.3687885,5.38628439 5.9101587,4.93442009 5.9101587,4.37905149 C5.9101587,3.82364955 6.3687885,3.37181859 6.93247231,3.37181859 M6.93247231,6.45333904 C8.09338005,6.45333904 9.03781696,5.5228007 9.03781696,4.37905149 C9.03781696,3.23526894 8.09338005,2.30476394 6.93247231,2.30476394 C5.77156457,2.30476394 4.82712766,3.23526894 4.82712766,4.37905149 C4.82712766,5.5228007 5.77156457,6.45333904 6.93247231,6.45333904" id="Fill-1"></path>
            <path d="M22.4045007,7.64530912 L20.4898811,6.05522387 L22.4863415,3.68067774 C22.5990795,3.54659767 22.6166916,3.35706869 22.5306254,3.2046851 C22.4445591,3.05226786 22.2725279,2.96882532 22.0990432,2.99493476 L19.5462283,3.37954434 L19.870853,0.967785521 C19.8926569,0.805442659 19.8178475,0.645286799 19.67908,0.557234723 C19.5403125,0.469249939 19.3628389,0.46941817 19.2242404,0.55770577 L16.8410227,2.07585546 L16.30441,0.320971184 C16.2612078,0.179657191 16.1466443,0.0712491697 16.0026371,0.0354159785 C15.8587652,-0.000417212743 15.7063406,0.0415395849 15.6013777,0.146044648 L14.0079684,1.73195776 L11.5333772,0.654404917 C11.3653688,0.581291748 11.1691336,0.62435887 11.0475726,0.760996043 C10.9260454,0.897700509 10.9069797,1.09681866 11.0003815,1.25391271 L12.840496,4.34902563 C12.9593527,4.54895129 13.2184304,4.61499876 13.4193644,4.4967997 C13.620197,4.37853334 13.6866566,4.12056801 13.5678338,3.920676 L12.3948174,1.94766348 L13.9334295,2.61766004 C14.0928516,2.68707213 14.2786411,2.65218103 14.4016219,2.52974255 L15.7009657,1.23648399 L16.1949172,2.85173658 C16.2333867,2.97767426 16.3289182,3.07841095 16.4530484,3.1239006 C16.5771785,3.16945754 16.7155404,3.15441769 16.8269262,3.08349153 L18.912191,1.75513999 L18.6338109,3.82343852 C18.6161649,3.95462501 18.6615644,4.08641713 18.7564198,4.17921332 C18.8512415,4.27200951 18.9844988,4.31487475 19.115897,4.29512444 L21.1218564,3.99288072 L19.5701957,5.83840783 C19.4981921,5.92403738 19.4633735,6.03463241 19.4733796,6.14583306 C19.4833857,6.25703372 19.5374053,6.35972188 19.6235054,6.43125368 L21.2123848,7.75078992 L18.4999112,8.3821943 C18.2726774,8.43508611 18.1315435,8.66132309 18.1846842,8.88749277 C18.2302865,9.08146305 18.4039064,9.21238037 18.5957808,9.21238037 C18.6276247,9.21238037 18.6600094,9.20878023 18.6923603,9.20124348 L22.2300019,8.37775301 C22.3860097,8.34144877 22.5079763,8.22042343 22.5449247,8.0652472 C22.581873,7.91010463 22.5275153,7.74749259 22.4045007,7.64530912 M20.5262637,17.6356776 C20.4641172,17.7817076 20.3263742,17.8846369 20.166733,17.9042916 C20.0010089,17.9246447 19.8453553,17.8636187 19.7512738,17.7408019 C19.7510711,17.7405026 19.7508007,17.7402365 19.7505641,17.7399372 C19.7502938,17.7396046 19.7501248,17.7392721 19.7498545,17.7389395 L17.0404821,14.2305946 C17.0380489,14.2275017 17.0353454,14.2247747 17.0328785,14.2217483 C17.0266267,14.2140328 17.0202059,14.20655 17.0135823,14.199167 C17.0080064,14.1929813 17.002329,14.1869286 16.9965165,14.1810422 C16.9904674,14.1749562 16.9842494,14.169103 16.9778962,14.1632831 C16.9710361,14.1570309 16.964176,14.1508451 16.9570793,14.1449919 C16.9511316,14.14007 16.9449474,14.135414 16.9388307,14.1307581 C16.9310582,14.1249382 16.9233533,14.1191183 16.9153442,14.1137307 C16.9089234,14.1094073 16.9022998,14.1053833 16.8956425,14.1013259 C16.8877009,14.0964705 16.8797932,14.0915817 16.8716152,14.0871253 C16.8640454,14.0830015 16.8562728,14.07931 16.8485341,14.075552 C16.8409643,14.0718938 16.8334959,14.0682023 16.8257572,14.0648766 C16.816937,14.0611186 16.8079141,14.057793 16.7988574,14.0544673 C16.7918284,14.0519065 16.7848331,14.049246 16.7777364,14.0469513 C16.768139,14.0438584 16.7583726,14.0412644 16.7485725,14.0387369 C16.7415096,14.0369078 16.7344467,14.0349789 16.7273163,14.0334158 C16.717854,14.0313539 16.7082904,14.0297576 16.6986255,14.0281945 C16.6906164,14.0268643 16.6826073,14.0255673 16.6745306,14.0246028 C16.665947,14.0236051 16.6572282,14.02294 16.6485095,14.0223414 C16.6390472,14.0216762 16.6295512,14.0211109 16.6200552,14.0209446 C16.6167434,14.0208781 16.6134992,14.0204457 16.6101537,14.0204457 C16.6072136,14.0204457 16.6042398,14.020479 16.6012659,14.0205123 L13.064929,14.0766495 L13.06476,14.0766495 C12.7313856,14.0820371 12.4284931,14.280014 12.2928792,14.5811198 C12.1540886,14.8896086 12.2058267,15.24755 12.4247758,15.4929842 C12.4249786,15.4932502 12.4252489,15.4934498 12.4254855,15.4937158 C12.4258234,15.4940816 12.4260938,15.4944807 12.4263979,15.4948466 L14.4211359,17.710239 L14.4211359,17.7102723 C14.6397471,17.9553406 14.7271375,18.3023406 14.654988,18.6384989 C14.654988,18.6385655 14.654988,18.6385987 14.6549542,18.6386652 L13.7928443,22.6582315 C13.7239053,22.836587 13.5048886,22.9396162 13.2840471,22.893722 C13.075574,22.8503553 12.8938317,22.647024 12.9099175,22.4787786 L13.7310019,18.6334439 C13.7317792,18.6297192 13.7320833,18.6260277 13.732793,18.6223362 C13.734584,18.6129246 13.7360372,18.6035129 13.7373213,18.5940348 C13.7385041,18.5855543 13.7395517,18.5771071 13.7402614,18.5686267 C13.740971,18.5604123 13.7413766,18.5521646 13.7416469,18.543917 C13.7420524,18.5344056 13.7423228,18.5249607 13.7421876,18.5155491 C13.7420524,18.5081328 13.7415793,18.5007166 13.7411738,18.4933004 C13.7405993,18.4834564 13.739991,18.4736124 13.738842,18.4638682 C13.7379972,18.4564187 13.7367468,18.4490357 13.7355979,18.4416195 C13.7340771,18.4322411 13.7325902,18.4228627 13.7305626,18.4136507 C13.7288053,18.4055028 13.7266425,18.3974879 13.7245473,18.3894398 C13.722317,18.3811589 13.7201542,18.372878 13.717552,18.3647301 C13.7147472,18.3559503 13.7114692,18.3472704 13.7081912,18.3386236 C13.7054201,18.3313404 13.7027504,18.3240905 13.6996752,18.3169735 C13.6958903,18.3081605 13.6916661,18.2994805 13.6873405,18.2908338 C13.6838936,18.2839497 13.6805142,18.2770323 13.6767631,18.2703144 C13.6723361,18.2622331 13.6675036,18.2543512 13.6626036,18.2464362 C13.6580752,18.2391862 13.6534793,18.2320028 13.648613,18.2249524 C13.6438819,18.2181347 13.6388804,18.2114502 13.6338114,18.2047988 C13.6278299,18.1969503 13.6217132,18.189268 13.6152587,18.181752 C13.6128931,18.1789251 13.6108655,18.1759653 13.6083985,18.173205 L11.8829284,16.2366031 C11.8828608,16.2365366 11.882827,16.2364368 11.8827594,16.2363703 C11.6345112,15.9581118 11.3258738,15.7184311 10.9900662,15.5429689 C10.9898297,15.5428359 10.9895931,15.5426696 10.9893566,15.5425699 L10.9883427,15.5420045 C10.9882414,15.5419712 10.9881738,15.5419047 10.9880724,15.5418715 L10.987971,15.5418382 L10.7754765,15.4302954 C10.77524,15.4301623 10.7750034,15.4300958 10.7747669,15.4299628 C10.7745979,15.429863 10.7744289,15.42973 10.7742262,15.4296302 C10.3532248,15.2100032 10.0206615,14.846907 9.83783779,14.4071875 C9.837804,14.4070544 9.83770262,14.4069214 9.83766882,14.4067884 L8.22665775,10.5204482 C8.22665775,10.520415 8.22662395,10.5203817 8.22662395,10.5203485 C8.22655636,10.5202154 8.22652257,10.5200824 8.22645498,10.5199494 C8.11551042,10.2530314 7.89003916,10.0382932 7.60789594,9.93067461 C7.60782835,9.93064135 7.60772697,9.93057484 7.60762559,9.93054158 L3.99988266,8.55531214 C3.99984887,8.55527888 3.99984887,8.55527888 3.99984887,8.55527888 C3.79705315,8.47802366 3.61777782,8.33821266 3.49500547,8.16161979 C3.49493788,8.16145351 3.49480271,8.16132048 3.49466753,8.1611542 C3.49456615,8.16098791 3.49449856,8.16085489 3.49439718,8.16072186 L1.74195966,5.65097469 C1.74192587,5.65094143 1.74192587,5.65090817 1.74189207,5.65084166 C1.65875969,5.53058557 1.69850102,5.35492389 1.82870797,5.26722608 C1.95573832,5.18165669 2.13055289,5.2141817 2.21841639,5.3397256 C2.21848398,5.33979211 2.21855157,5.33985862 2.21861915,5.33995839 L3.95679575,7.83570451 C3.95794474,7.83736735 3.9592289,7.83896367 3.96041167,7.8406265 C3.96811663,7.85146817 3.9762271,7.8618775 3.98457414,7.87198753 C3.98758177,7.87561251 3.99058941,7.87920422 3.99366463,7.88276269 C4.00329582,7.89377064 4.01316357,7.90444603 4.02350443,7.9145228 C4.02516032,7.91611912 4.02691759,7.91761567 4.02860727,7.91917873 C4.0385764,7.92869014 4.04891725,7.93770269 4.05956226,7.94628291 C4.06213057,7.94841134 4.0646651,7.95053976 4.067301,7.95260168 C4.07953431,7.96217959 4.09213934,7.97115889 4.10508231,7.97960608 C4.10721131,7.98096961 4.1093741,7.98226662 4.1115031,7.98359688 C4.14002495,8.00162199 4.1700675,8.01682029 4.20119146,8.02912525 C4.20240803,8.0296241 4.20352322,8.03025598 4.20477359,8.03075483 L5.35984069,8.47981952 C5.36048276,8.48008557 5.36109105,8.4802186 5.36173313,8.4804514 C5.36224003,8.48065094 5.36271315,8.48095025 5.36325384,8.48111653 C5.67206026,8.59884511 5.99681727,8.65757637 6.32306121,8.65757637 C6.67789458,8.65757637 7.03451901,8.58800344 7.37434799,8.44938968 C7.37488869,8.44919014 7.37542939,8.44905711 7.3759025,8.44882431 L9.4852686,7.59326345 C9.74598664,7.48830543 10.0417149,7.45627927 10.3404508,7.50067691 C10.3408225,7.50074342 10.3411605,7.50071017 10.341566,7.50077668 C10.3419377,7.50084319 10.3423095,7.50094296 10.3426474,7.50100948 L12.9664881,7.87990261 C12.9746661,7.88109985 12.9827766,7.88173173 12.9909209,7.88252989 C13.0301215,7.88728559 13.0692546,7.89024544 13.1080159,7.89024544 C13.303715,7.89024544 13.4906615,7.82998437 13.6413812,7.71840827 C13.6500999,7.71235556 13.6584807,7.7055712 13.6669292,7.69891987 C13.6714237,7.69532815 13.6762562,7.69216876 13.6806832,7.68847727 C13.6808859,7.68831099 13.6810211,7.68811145 13.6812239,7.68794517 C13.6814266,7.68777888 13.6816294,7.68764586 13.6818322,7.68747957 L15.653016,6.0267417 C15.7719021,5.93551868 15.9507381,5.95015161 16.0454955,6.05966579 C16.1428888,6.17227285 16.1316017,6.3507946 16.0214682,6.45132949 L13.9498834,8.18280428 C13.949782,8.1828708 13.9497145,8.18297057 13.9495793,8.18307034 C13.9495455,8.18310359 13.9495117,8.18313685 13.9494441,8.18317011 C13.6831163,8.40625579 13.3364948,8.50532738 12.9979838,8.45524285 L11.7315666,8.25919483 C11.7310259,8.25912832 11.7304852,8.25912832 11.7299445,8.25902855 C11.72937,8.25892878 11.7288293,8.2587625 11.7282548,8.25869598 C11.4354328,8.21522953 11.1554186,8.32078617 10.979286,8.54124457 C10.7974086,8.76901944 10.7524292,9.07404954 10.8619545,9.33727601 C10.8620221,9.33747555 10.8621234,9.33767509 10.8622248,9.33790789 L12.0454082,12.185709 C12.045442,12.1857755 12.045442,12.185842 12.0454758,12.1859418 C12.2965965,12.7899493 12.8811591,13.1762919 13.540034,13.1762919 C13.5490231,13.1762919 13.5581812,13.1762254 13.5672041,13.1760591 L13.567373,13.1760591 L13.5678462,13.1760591 L16.7612451,13.1199219 L16.7614816,13.1199219 C17.1079004,13.1140022 17.4403286,13.2718051 17.6481258,13.541184 L17.6481933,13.5412505 L20.4714842,17.2037068 C20.4717207,17.2040394 20.4720249,17.2042722 20.4722276,17.2045715 C20.4724642,17.2048708 20.4726332,17.2052034 20.4728697,17.2054694 C20.5699927,17.3303814 20.589424,17.4871866 20.5262637,17.6356776 M21.3330196,16.5604897 L18.509526,12.8978006 L18.5094922,12.8977341 C18.5094584,12.8977009 18.5094246,12.8976344 18.5093908,12.8976011 C18.0941344,12.3593753 17.4341443,12.0448671 16.7437062,12.0558418 C16.743571,12.0558418 16.7434696,12.055875 16.7433007,12.055875 C16.7433007,12.055875 16.7430641,12.055875 16.7429289,12.055875 L13.549699,12.111979 L13.54953,12.111979 C13.5465224,12.1120455 13.5435823,12.1120788 13.5406085,12.1120788 C13.3231463,12.1120788 13.129779,11.9836415 13.0463425,11.7829376 C13.0463087,11.7828378 13.0462411,11.7827048 13.0461735,11.782605 L12.0504097,9.38586399 L12.8326314,9.50695149 C12.8332735,9.50705126 12.8339494,9.50708452 12.8346252,9.50718429 C12.8350308,9.5072508 12.8354701,9.50738383 12.8359094,9.50745034 C12.9476312,9.52407867 13.0597248,9.53222656 13.171379,9.53222656 C13.7068733,9.53222656 14.2314859,9.34392734 14.6491417,8.99453286 C14.6493783,8.99433332 14.6496824,8.99416704 14.6498852,8.99393424 L16.7318784,7.25381272 C16.7339398,7.25205011 16.7356971,7.25012123 16.7377585,7.24839188 C16.7399889,7.24642974 16.7423544,7.24480016 16.7445848,7.24283802 C17.2880206,6.75905337 17.3437801,5.91885709 16.8689793,5.36988939 C16.3969833,4.82408107 15.5470729,4.74682585 14.9744732,5.19785268 C14.9721077,5.19974831 14.9700463,5.20184348 14.9677145,5.20377237 C14.9654165,5.20563474 14.9629834,5.20716455 14.9607192,5.20909343 L13.0525605,6.81672042 L10.4996865,6.44807034 C10.4994162,6.44803708 10.499112,6.44803708 10.4988079,6.44797057 C10.0081578,6.37563733 9.51602082,6.43100967 9.07558813,6.60836744 C9.07538537,6.60843395 9.0752164,6.60853372 9.07504743,6.60863349 C9.07481088,6.60873326 9.07457432,6.60876652 9.07433776,6.60886629 L6.96385648,7.46489274 C6.96355233,7.46502577 6.96328199,7.46519205 6.96301164,7.46529182 C6.96277508,7.46539159 6.96250473,7.46545811 6.96223438,7.46555788 C6.56782865,7.62698571 6.13895338,7.63533313 5.75444918,7.48897057 L4.75594809,7.10079882 L3.10972402,4.7371149 C3.10965643,4.73698187 3.10955505,4.7368821 3.10945367,4.73678233 C3.1093185,4.73654954 3.10921711,4.73635 3.10908194,4.73615046 C2.68399156,4.12868429 1.83566947,3.9729766 1.21795526,4.38898417 C0.594834073,4.80861672 0.428738263,5.64315937 0.847678193,6.24936179 C0.84801613,6.24986064 0.84838786,6.25029297 0.84875959,6.25079182 C0.848894765,6.25099136 0.849029939,6.25125742 0.849165114,6.25145696 L2.60248127,8.76246788 C2.60251506,8.76250114 2.60251506,8.76250114 2.60251506,8.7625344 C2.60254886,8.76256765 2.60258265,8.76260091 2.60261645,8.76266742 L2.60315714,8.76343233 C2.6033937,8.76376489 2.60363025,8.76403095 2.60383302,8.76436351 C2.84866804,9.11568688 3.20563041,9.39384559 3.60926181,9.5476909 L3.6093294,9.5476909 L7.21700474,10.9229203 L7.21710612,10.9229536 C7.22072204,10.9243504 7.2257235,10.9278091 7.22883252,10.9306691 L8.83676838,14.8096928 C8.83676838,14.8096928 8.83680217,14.8097261 8.83680217,14.8097593 C8.83686976,14.8098924 8.83690355,14.8100586 8.83697114,14.8102249 C9.11512671,15.4791494 9.62243704,16.032507 10.2655303,16.3686653 C10.265902,16.3688649 10.2662062,16.3690977 10.2665103,16.3692639 L10.4803903,16.4815384 C10.4806607,16.4816714 10.4808972,16.4817712 10.4811338,16.4819042 C10.4813366,16.482004 10.4815055,16.4821038 10.4817083,16.4822036 C10.7035636,16.5979035 10.9070352,16.7556731 11.0700558,16.9384517 C11.0701234,16.9385182 11.070191,16.9385847 11.0702586,16.9386512 L12.6171293,18.6748485 L11.845654,22.2877856 C11.844336,22.2939713 11.8437615,22.3001238 11.8426801,22.3062763 C11.8415987,22.3124953 11.8400104,22.318548 11.8391318,22.3248335 C11.8385573,22.3288576 11.8382869,22.3328816 11.83778,22.3369057 C11.8374421,22.3398655 11.8370704,22.3427921 11.8367662,22.345752 C11.7487,23.0653928 12.2931157,23.7753893 13.0605358,23.9349548 C13.1728659,23.9583009 13.2847905,23.9695417 13.394924,23.9695417 C14.0454519,23.9695084 14.6303862,23.5766807 14.8290591,22.966554 C14.8293633,22.9656894 14.8295322,22.9647914 14.8298026,22.9638935 C14.8344661,22.9492273 14.8384876,22.9342286 14.8419345,22.9189638 C14.8423738,22.9169684 14.8430159,22.914973 14.8434214,22.9129776 L15.7130335,18.8584252 L15.7131349,18.8578931 C15.8551696,18.1953872 15.6760633,17.5039812 15.2339071,17.0082242 C15.233603,17.0078916 15.233265,17.0076255 15.2329609,17.007293 C15.2326905,17.0069937 15.2324878,17.0066611 15.2322174,17.0063618 L13.5458127,15.1333799 L16.34511,15.088949 L18.8889274,18.3828882 C18.8893667,18.3834203 18.8898398,18.3838859 18.8902791,18.384418 C19.1768831,18.7565933 19.6302249,18.972163 20.1071548,18.972163 C20.1714303,18.972163 20.236179,18.9682387 20.3009952,18.9602571 C20.8438227,18.8934112 21.3124055,18.5433849 21.5237172,18.0467632 C21.7366848,17.5463169 21.6660223,16.9923607 21.3351148,16.5634828 C21.3343713,16.5625184 21.3337968,16.5614874 21.3330196,16.5604897" id="Fill-6"></path>
        </g>
    </g>
</svg>