<?xml version="1.0" encoding="UTF-8"?>
<svg width="17px" height="19px" viewBox="0 0 17 19" version="1.1" xmlns="http://www.w3.org/2000/svg" xmlns:xlink="http://www.w3.org/1999/xlink">
    <!-- Generator: Sketch 50.2 (55047) - http://www.bohemiancoding.com/sketch -->
    <title>LM1.2.Menu-Registered-NotSCBCustomer Copy</title>
    <desc>Created with Sketch.</desc>
    <defs></defs>
    <g id="LM1.2.Menu-Registered-NotSCBCustomer-Copy" stroke="none" stroke-width="1" fill="none" fill-rule="evenodd">
        <path d="M14.8333333,14.271113 C14.8333333,14.5531192 14.6142917,14.7818305 14.3442083,14.7818305 L11.8982917,14.7818305 C11.2542917,14.7818305 10.731625,14.2363952 10.731625,13.5636611 L10.731625,13.2307963 L11.5795,12.3454916 L14.8333333,12.3454916 L14.8333333,14.271113 Z M7.268375,13.5636611 C7.268375,14.2363952 6.74570833,14.7818305 6.10170833,14.7818305 L3.65579167,14.7818305 C3.38570833,14.7818305 3.16666667,14.5531192 3.16666667,14.271113 L3.16666667,12.3454916 L6.4205,12.3454916 L7.268375,13.2307963 L7.268375,13.5636611 Z M13.032875,3.61091199 C12.8870417,3.24119755 12.5417083,3 12.15875,3 L11.625,3 L10.9322917,3 C10.6102917,3 10.3489583,3.27256542 10.3489583,3.60908473 C10.3489583,3.94529951 10.6102917,4.21816947 10.9322917,4.21816947 L12.1059583,4.21816947 L14.8333333,11.1273221 L11.0962083,11.1273221 L9.86595833,12.4121864 L8.13404167,12.4121864 L6.90379167,11.1273221 L3.16666667,11.1273221 L5.89433333,4.21816947 L7.06770833,4.21816947 C7.38970833,4.21816947 7.65104167,3.94529951 7.65104167,3.60908473 C7.65104167,3.27256542 7.38970833,3 7.06770833,3 L6.375,3 L5.84125,3 C5.45829167,3 5.11295833,3.24119755 4.967125,3.61091199 L2,11.1273221 L2,14.271113 C2,15.2261578 2.74141667,16 3.65579167,16 L6.10170833,16 C7.36870833,16 8.39770833,14.9447607 8.43183333,13.6303558 L9.56845833,13.6303558 C9.60229167,14.9447607 10.6312917,16 11.8982917,16 L14.3442083,16 C15.2585833,16 16,15.2261578 16,14.271113 L16,11.1273221 L13.032875,3.61091199 Z" id="Page-1" fill="#4E2683"></path>
    </g>
</svg>