<?xml version="1.0" encoding="UTF-8"?>
<svg width="32px" height="32px" viewBox="0 0 32 32" version="1.1" xmlns="http://www.w3.org/2000/svg" xmlns:xlink="http://www.w3.org/1999/xlink">
    <!-- Generator: Sketch 50.2 (55047) - http://www.bohemiancoding.com/sketch -->
    <title>call_us</title>
    <desc>Created with Sketch.</desc>
    <defs></defs>
    <g id="call_us" stroke="none" stroke-width="1" fill="none" fill-rule="evenodd">
        <g id="noun_373695_cc" fill="#4E2683" fill-rule="nonzero">
            <path d="M28.9786489,28.2187872 C30.3404504,26.8275862 30.3404504,24.9726516 28.9786489,23.6171225 L25.2516135,19.9072533 C24.6065497,19.2294887 23.8181383,18.8727705 22.9580532,18.8727705 C22.133805,18.8727705 21.3453936,19.2294887 20.6644929,19.9072533 L18.5142802,22.0475624 C18.3350958,21.940547 18.1559114,21.8692033 17.976727,21.7621879 C17.7258688,21.6551724 17.5108476,21.5124851 17.2958263,21.4054697 C15.288961,20.156956 13.4612802,18.4803805 11.74111,16.3757432 C10.8810249,15.3055886 10.3076348,14.4137931 9.91342914,13.4863258 C10.4509823,12.9869203 10.9885355,12.451843 11.4902518,11.9524376 C11.6694362,11.7740785 11.8844575,11.5600476 12.0636419,11.3816885 C12.7445426,10.7039239 13.1387483,9.88347206 13.1387483,9.06302021 C13.1387483,8.24256837 12.7803795,7.45778835 12.0636419,6.74435196 L10.2359611,4.88941736 C10.0209398,4.67538644 9.8059185,4.46135553 9.62673411,4.24732461 C9.23252844,3.81926278 8.80248588,3.39120095 8.37244333,2.99881094 C7.7273795,2.35671819 6.93896816,2 6.11471993,2 C5.29047171,2 4.50206037,2.35671819 3.82115966,2.99881094 L1.4917625,5.31747919 C0.631677399,6.17360285 0.129961088,7.20808561 0.0224504505,8.42092747 C-0.120897067,10.3828775 0.452493002,12.2021403 0.882535554,13.4149822 C1.95764193,16.3400713 3.60613838,19.0868014 6.04304618,22.0118906 C9.01750716,25.5434007 12.5653582,28.2901308 16.6149256,30.2520809 C18.1559114,31.0011891 20.2344504,31.8573127 22.5638475,32 C22.7071951,32 22.8505426,32 22.9938901,32 C24.5348759,32 25.8608404,31.4292509 26.8642731,30.3234245 C26.8642731,30.3234245 26.9001099,30.2877527 26.9001099,30.2877527 C27.2584787,29.8596908 27.6526844,29.4673008 28.082727,29.0749108 C28.4052589,28.8252081 28.6919539,28.5398335 28.9786489,28.2187872 Z M26.691195,28.5222672 C26.2677581,28.9595142 25.8090348,29.3967611 25.4208843,29.9068826 C24.7504425,30.6720648 23.938855,31 22.9155491,31 C22.8096899,31 22.7038307,31 22.5979714,31 C20.6219324,30.8178138 18.7870391,30.0526316 17.3755827,29.3603239 C13.5999367,27.465587 10.3183006,24.805668 7.56596053,21.417004 C5.30763025,18.611336 3.7903146,15.9878543 2.76700869,13.1821862 C2.13185331,11.4696356 1.92013484,10.1214575 2.02599407,8.88259109 C2.09656689,8.08097166 2.41414459,7.42510121 2.94344075,6.84210526 L5.20177102,4.51012146 C5.51934872,4.18218623 5.87221282,4 6.22507693,4 C6.64851385,4 7.00137796,4.25506073 7.24838283,4.51012146 C7.67181976,4.91093117 8.02468387,5.31174089 8.44812079,5.74898785 C8.65983926,5.96761134 8.87155772,6.18623482 9.08327618,6.4048583 L10.8828831,8.26315789 C11.2357472,8.62753036 11.4121793,8.99190283 11.4121793,9.3562753 C11.4121793,9.72064777 11.2357472,10.0850202 10.8828831,10.4493927 C10.7064511,10.6315789 10.4947326,10.8502024 10.3183006,11.0323887 C9.75371798,11.6153846 9.22442182,12.1619433 8.65983926,12.708502 C8.65983926,12.708502 8.62455285,12.7449393 8.62455285,12.7449393 C8.05997028,13.3279352 8.16582951,13.9109312 8.27168874,14.2753036 C8.27168874,14.3117409 8.27168874,14.3117409 8.30697515,14.3481781 C8.76569849,15.51417 9.43614029,16.6437247 10.4594462,17.9554656 C12.2943395,20.2874494 14.2350921,22.1093117 16.3522768,23.4939271 C16.634568,23.6761134 16.9168593,23.8218623 17.1638642,23.9676113 C17.4108691,24.0769231 17.6225875,24.2226721 17.834306,24.3319838 C17.8695924,24.3319838 17.8695924,24.3684211 17.9048788,24.3684211 C18.1165973,24.4777328 18.3283157,24.5506073 18.5400342,24.5506073 C19.0693304,24.5506073 19.4221945,24.1862348 19.5280537,24.0769231 L21.8216704,21.708502 C22.0333889,21.4898785 22.4215394,21.1983806 22.8449763,21.1983806 C23.2684132,21.1983806 23.5859909,21.4898785 23.8329958,21.708502 L27.5027825,25.4979757 C28.3496563,26.3724696 27.9615058,27.1740891 27.4674961,27.6842105 C27.2557776,27.9757085 26.9734863,28.2307692 26.691195,28.5222672 Z M17.0213799,6.76614828 C17.09577,6.24488246 17.5793055,5.909783 18.1000361,6.02148282 C20.3317387,6.39381555 22.340271,7.4363472 23.9396578,9.07461121 C25.5390446,10.7128752 26.5805058,12.723472 26.9896513,14.9202351 C27.0640414,15.4415009 26.729286,15.9255335 26.2457504,16 C26.2085554,16 26.1341653,16 26.0969702,16 C25.6506297,16 25.2414843,15.6649005 25.1670942,15.2181013 C24.8695338,13.3936709 23.9768528,11.6809403 22.6378313,10.3777758 C21.2988098,9.03737794 19.6250329,8.18101266 17.8024758,7.8459132 C17.2445502,7.77144666 16.9097948,7.28741411 17.0213799,6.76614828 Z M30.247803,14.2858142 C29.7144446,11.1552771 28.2210412,8.30933422 25.9809362,6.03257993 C23.7052738,3.75582563 20.8606959,2.29727992 17.7316603,1.76366563 C17.2338591,1.69251706 16.9138441,1.23005134 17.0205158,0.732011339 C17.1271874,0.233971338 17.5538741,-0.0861972347 18.0516753,0.0205256228 C21.500726,0.589714196 24.7008761,2.22613134 27.225439,4.75190564 C29.7500019,7.27767993 31.4211914,10.4793657 31.990107,13.9656457 C32.0612214,14.4636857 31.7412064,14.9261514 31.2789625,14.9973 C31.2434053,14.9973 31.1722908,14.9973 31.1367336,14.9973 C30.7100469,15.0328742 30.3189174,14.7127057 30.247803,14.2858142 Z" id="Shape"></path>
        </g>
    </g>
</svg>