<?xml version="1.0" encoding="UTF-8"?>
<svg width="32px" height="32px" viewBox="0 0 32 32" version="1.1" xmlns="http://www.w3.org/2000/svg" xmlns:xlink="http://www.w3.org/1999/xlink">
    <!-- Generator: Sketch 50.2 (55047) - http://www.bohemiancoding.com/sketch -->
    <title>call_us</title>
    <desc>Created with Sketch.</desc>
    <defs></defs>
    <g id="call_us" stroke="none" stroke-width="1" fill="none" fill-rule="evenodd">
        <g id="Group-5" transform="translate(2.000000, 0.000000)" fill="#4E2683" fill-rule="nonzero">
            <g id="Group-2">
                <path d="M22.7920308,23.8934962 L20.1642222,20.9587026 C19.8723895,20.6324629 19.3803053,20.6133793 19.0652487,20.9159915 L18.0442725,21.8997086 C17.972848,21.7465849 17.8856487,21.5961876 17.7791692,21.4544233 C17.7791692,21.4544233 15.3472302,18.9044833 14.6435016,17.9684754 C13.9393348,17.0320132 12.1449582,13.9663602 12.1449582,13.9663602 C12.0958812,13.9009305 12.0437369,13.8395902 11.9898399,13.7809761 C12.1524073,13.7950616 12.3193567,13.7596206 12.4683403,13.6628392 L13.6711642,12.8772287 C14.0339832,12.6400461 14.1430918,12.1425079 13.9152345,11.7658329 L11.856631,8.37666648 C11.6283355,7.99999146 11.1485205,7.88685265 10.7857015,8.12403523 L9.58200122,8.90964573 C9.48603822,8.97234917 9.40891727,9.05368189 9.35020019,9.14637394 L8.85592502,9.51850523 C7.92959728,10.2150587 7.82355597,11.1692415 8.21266621,12.4878312 C8.21266621,12.4878312 9.12409559,15.3917275 11.6568176,19.0135328 C14.0878802,22.4885757 16.0623518,24.6990991 17.9250856,26.1444589 C19.0113516,26.9882291 19.8916697,27.3194669 20.8188738,26.622459 L21.3381257,26.2321528 C21.4735255,26.2035274 21.6027907,26.1399152 21.7114612,26.0363182 L22.7534703,25.0330631 C23.066336,24.7290877 23.0838635,24.2197359 22.7920308,23.8934962 Z" id="Shape"></path>
                <g id="Group">
                    <path d="M14.3749811,30.4604263 C14.3704487,30.4604263 14.3659163,30.4617924 14.3618371,30.4617924 L14.3609307,30.4617924 C7.25411694,30.4267297 1.50022662,24.5899195 1.53467291,17.4494123 C1.56730624,10.5579873 6.98035957,4.9342858 13.7472428,4.58138145 L13.7304729,7.58084071 L18,3.81455446 L13.772171,0 L13.7563076,3.0404417 C10.6774437,3.18251416 7.84650249,4.30179014 5.56262275,6.09454421 C5.51050008,6.124598 5.45973712,6.15966076 5.41667926,6.20292 C5.41124037,6.20838432 5.40761444,6.21430401 5.4026288,6.2202237 C4.61761595,6.85499616 3.89877625,7.5694567 3.26016015,8.35358739 C3.22752682,8.38227509 3.19625321,8.41187352 3.16815229,8.44648092 C3.13551896,8.48791872 3.1069648,8.53163332 3.08384952,8.57716937 C2.46245656,9.37086262 1.91992748,10.2292171 1.47257894,11.1435808 C1.46351413,11.1595185 1.45218311,11.1727239 1.44402478,11.1900276 C1.43677293,11.2055099 1.43360024,11.2214475 1.42725487,11.2373851 C0.974920683,12.1786151 0.624565644,13.1772206 0.382535126,14.2181746 C0.379362441,14.2286479 0.374830035,14.2382104 0.372110591,14.2491391 C0.369391147,14.259157 0.370297628,14.2691749 0.368484665,14.2796482 C0.136425442,15.2978342 0.00725185073,16.3551811 0.00181296268,17.4421265 C0.00181296268,17.4457694 0.00271944402,17.4494123 0.00271944402,17.4525998 C0.00181296268,17.4585195 0,17.4639838 0,17.4699035 C0,17.4790107 0.00271944402,17.4872072 0.00271944402,17.4958591 C0.00181296268,18.5682329 0.120562018,19.6132851 0.339930503,20.6205424 C0.343556428,20.6451319 0.343556428,20.6697214 0.348995317,20.6943108 C0.355340686,20.7229985 0.365765221,20.7498648 0.375736516,20.7767311 C0.610515184,21.7958278 0.948632724,22.7753081 1.38600997,23.7001451 C1.39326182,23.7192703 1.39734099,23.7383954 1.4064058,23.7570652 C1.41365765,23.7725475 1.42589515,23.7839315 1.43405348,23.798503 C1.88276175,24.7306258 2.42982324,25.6058286 3.05846805,26.4140934 C3.07705091,26.4459686 3.0947273,26.4782992 3.11874906,26.508353 C3.13642544,26.531121 3.15863423,26.5484247 3.17903006,26.568916 C3.8113008,27.3594217 4.52379514,28.0820787 5.30427557,28.7245923 C5.33101677,28.7541907 5.35821121,28.7833338 5.38993806,28.8092894 C5.42801027,28.8402539 5.46789545,28.865754 5.50959359,28.8880667 C6.30185829,29.5164641 7.15984288,30.0651735 8.07402931,30.5178017 C8.08807977,30.5264536 8.10077051,30.5369269 8.11663393,30.544668 C8.12977791,30.5510431 8.14428161,30.5533199 8.15742559,30.5587842 C9.0947273,31.0150554 10.0900438,31.3693258 11.1266052,31.6138543 C11.1388427,31.6170419 11.1497205,31.6229616 11.161958,31.6256937 C11.1714761,31.6275152 11.1805409,31.6270598 11.1909654,31.6288812 C12.2080375,31.8643026 13.2659012,31.994991 14.3532256,32 C14.3550385,32 14.355945,32 14.3568515,32 C14.3613839,32 14.3650098,31.9990893 14.3681825,31.9990893 C14.3699955,31.9990893 14.3709019,31.9990893 14.3709019,31.9990893 C14.7933223,31.9990893 15.1373319,31.6603011 15.1373319,31.233173 C15.1368787,30.8105985 14.7960417,30.4640692 14.3749811,30.4604263 Z" id="Shape"></path>
                    <path d="M24.2899408,8.27950588 C24.1047337,8.46584313 24,8.72659622 24,8.9938979 C24,9.25524632 24.1053254,9.51719006 24.2899408,9.70293198 C24.4745562,9.88867391 24.7349112,10 25.0005917,10 C25.260355,10 25.5207101,9.88926924 25.7053254,9.70293198 C25.8899408,9.51659473 26,9.25524632 26,8.9938979 C26,8.72719155 25.8899408,8.46584313 25.7053254,8.27950588 C25.3301775,7.90683137 24.6609467,7.90683137 24.2899408,8.27950588 Z" id="Shape"></path>
                    <path d="M27.0024383,13 C27.1419556,13 27.2909317,12.9651133 27.4322225,12.9000702 C27.9264447,12.6653239 28.1410412,12.065154 27.9022066,11.5708268 C27.6621895,11.0711779 27.0674676,10.8612662 26.5673336,11.0960125 C26.0731113,11.3360805 25.8585148,11.9303375 26.0985319,12.4299864 C26.2681991,12.7900883 26.6270422,13 27.0024383,13 Z" id="Shape"></path>
                    <path d="M27.024126,15.2196021 C27.1293384,15.6849987 27.5436862,16 27.9970453,16 C28.0721126,16 28.1424513,15.9952631 28.2175186,15.9751315 C28.7565845,15.8549336 29.095865,15.3244051 28.9758755,14.7844029 C28.8558861,14.2444007 28.3215488,13.9039387 27.7818918,14.0241366 C27.243417,14.1437424 26.9041365,14.6795998 27.024126,15.2196021 Z" id="Shape"></path>
                    <path d="M17.7799655,30.0240639 C17.2405443,30.1486299 16.9010402,30.6775928 17.0258405,31.2165918 C17.1263905,31.680615 17.5410114,32 17.9964437,32 C18.0703776,32 18.1454943,31.9899639 18.2158793,31.9752049 C18.7553005,31.8553617 19.0959876,31.321676 18.975919,30.782677 C18.8558505,30.243678 18.3205696,29.9042207 17.7799655,30.0240639 Z" id="Shape"></path>
                    <path d="M20.5691127,29.0991943 C20.0686818,29.3342052 19.8598732,29.9297239 20.0988496,30.4299359 C20.2698006,30.7898518 20.6288568,31 20.9985605,31 C21.1440759,31 21.2931404,30.9698097 21.4285998,30.9046933 C21.9290307,30.6649467 22.1390224,30.0646923 21.9035951,29.569216 C21.6646186,29.069004 21.0636283,28.8594477 20.5691127,29.0991943 Z" id="Shape"></path>
                    <path d="M27.4357083,23.1000653 C26.9401384,22.8604285 26.340487,23.0651552 26.1003899,23.5651381 C25.8602928,24.0603873 26.0654989,24.6603667 26.5598861,24.9000034 C26.7053636,24.9698235 26.8496585,25 26.999867,25 C27.3694746,25 27.7254807,24.7946816 27.8993441,24.4349307 C28.1400326,23.9402731 27.9348264,23.3402937 27.4357083,23.1000653 Z" id="Shape"></path>
                    <path d="M28.2249315,20.0261405 C27.6907896,19.9013324 27.1507391,20.235534 27.0260666,20.770848 C26.9013941,21.3108941 27.2358236,21.8450251 27.7752833,21.9751567 C27.8503231,21.9899444 27.925363,22 28.0004028,22 C28.4553688,22 28.8648382,21.6853182 28.9741482,21.2251256 C29.0982298,20.6862625 28.7638003,20.1509485 28.2249315,20.0261405 Z" id="Shape"></path>
                    <path d="M22.3787884,27.2176421 C21.9482199,27.5582389 21.8730037,28.1890834 22.2135496,28.6191239 C22.4137313,28.8690924 22.7039357,29 22.998878,29 C23.2197887,29 23.4347768,28.9295113 23.6201522,28.7843874 C24.0548664,28.4437906 24.1259369,27.8135385 23.7842065,27.3775746 C23.4395148,26.9469417 22.8135026,26.8723066 22.3787884,27.2176421 Z" id="Shape"></path>
                    <path d="M28.0050467,17.0000374 C27.4496001,16.9953038 27.0000374,17.4402659 27.0000374,17.9952851 C26.9953052,18.5449789 27.4401357,18.9952664 27.9949907,19 C27.9949907,19 27.9949907,19 27.9997229,19 C28.5498457,19 28.9946762,18.5550379 29,18.0047523 C28.9994085,17.4497331 28.554578,17.0053628 28.0050467,17.0000374 Z" id="Shape"></path>
                    <path d="M25.6292987,25.2209513 C25.1978001,24.8762569 24.5680134,24.9412936 24.2235249,25.3711269 C23.8731172,25.8009602 23.9435539,26.4306335 24.3726849,26.7800578 C24.5579511,26.9249122 24.7787315,27 24.9983282,27 C25.2942806,27 25.5843139,26.8705179 25.7784587,26.6304734 C26.1241311,26.195319 26.0584296,25.5656457 25.6292987,25.2209513 Z" id="Shape"></path>
                </g>
            </g>
        </g>
    </g>
</svg>