<?xml version="1.0" encoding="UTF-8"?>
<svg width="56px" height="56px" viewBox="0 0 56 56" version="1.1" xmlns="http://www.w3.org/2000/svg" xmlns:xlink="http://www.w3.org/1999/xlink">
    <!-- Generator: Sketch 50.2 (55047) - http://www.bohemiancoding.com/sketch -->
    <title>Camera</title>
    <desc>Created with Sketch.</desc>
    <defs>
        <path d="M21.2181232,10 L33.9121601,10 C34.7826873,10 35.9249664,10.5534769 36.4607935,11.2359485 L39.9490437,16.2607391 C40.289885,16.7497188 40.8564186,17.0467064 41.4613352,17.0467064 L48.9629153,17.0467064 C50.7131817,17.0467064 52.1287479,18.4416483 52.1287479,20.1710762 L52.1287479,42.8741302 C52.1287479,44.6005583 50.7131817,46 48.9629153,46 L6.16736795,46 C4.41710161,46 3,44.6035582 3,42.8741302 L3,20.1710762 C3,18.4446481 4.41710161,17.0467064 6.16736795,17.0467064 L13.6996545,17.0467064 C14.2846119,17.0467064 14.8327217,16.7617183 15.1643511,16.287738 L18.6679544,11.2359485 C19.2053169,10.5549769 20.3522019,10 21.2181232,10 Z M39.846561,22.601725 C39.846561,24.5888836 41.4960872,26.2 43.5312171,26.2 C45.5699173,26.2 47.2158731,24.5888836 47.2158731,22.601725 C47.2158731,20.6145664 45.5699173,19 43.5312171,19 C41.4960872,19 39.846561,20.6145664 39.846561,22.601725 Z M16.9880463,32.5 C16.9880463,38.2991512 21.7996532,43 27.7357036,43 C33.671754,43 38.4818735,38.2991512 38.4818735,32.5 C38.4818735,26.6994113 33.671754,22 27.7357036,22 C21.7996532,22 16.9880463,26.6994113 16.9880463,32.5 Z M7.57125674,11.3333333 L11.25859,11.3333333 C12.2759085,11.3333333 13.0986871,12.2226481 13.0986871,13.3342916 L13.0986871,15.3333333 L5.72937489,15.3333333 L5.72937489,13.3342916 C5.72937489,12.228398 6.54858397,11.3333333 7.57125674,11.3333333 Z M20.058593,32.5 C20.058593,28.3559854 23.4945008,25 27.7349599,25 C31.975419,25 35.4113268,28.3559854 35.4113268,32.5 C35.4113268,36.6427078 31.975419,40 27.7349599,40 C23.4945008,40 20.058593,36.6427078 20.058593,32.5 Z" id="path-1"></path>
    </defs>
    <g id="Camera" stroke="none" stroke-width="1" fill="none" fill-rule="evenodd">
        <mask id="mask-2" fill="white">
            <use xlink:href="#path-1"></use>
        </mask>
        <use id="Camera-Icon" fill="#4E2683" xlink:href="#path-1"></use>
    </g>
</svg>