<?xml version="1.0" encoding="UTF-8"?>
<svg width="35px" height="27px" viewBox="0 0 35 27" version="1.1" xmlns="http://www.w3.org/2000/svg" xmlns:xlink="http://www.w3.org/1999/xlink">
    <!-- Generator: Sketch 50.2 (55047) - http://www.bohemiancoding.com/sketch -->
    <title>Icon 1 Copy</title>
    <desc>Created with Sketch.</desc>
    <defs></defs>
    <g id="Icon-1-Copy" stroke="none" stroke-width="1" fill="none" fill-rule="evenodd">
        <path d="M21.5621622,16.7711824 C21.3676154,16.4686013 20.980314,16.3915729 20.6967575,16.5994644 C20.4135994,16.8073559 20.3417146,17.2214367 20.5360623,17.5240178 L23.6016178,22.2938196 L21.1836223,24.0680259 L19.0119465,20.6892035 C18.8175989,20.3866224 18.4300983,20.309594 18.146741,20.5174855 C17.8633837,20.725377 17.791499,21.1394578 17.9862449,21.4420389 L20.5099767,25.3687842 C20.6304484,25.5566739 20.8251943,25.6575342 21.0233253,25.6575342 C21.1447926,25.6575342 21.2674547,25.6196584 21.3751822,25.540715 L24.8188793,23.0136733 C24.955082,22.9136641 25.0484724,22.7602456 25.0785406,22.5868254 C25.1088078,22.4136179 25.072965,22.2344524 24.9797737,22.0891199 L21.5621622,16.7711824 Z M25.566087,6.87877145 L22.6587526,1.33035905 C22.5519321,1.12624658 22.3508468,1 22.1329561,1 L12.5111881,1 C12.2931042,1 12.0922121,1.12624658 11.9851984,1.33035905 L9.07767086,6.87877145 C8.96466903,7.09430425 8.97567946,7.3605018 9.10606619,7.56440663 L13.2029138,13.9764037 C13.3914434,14.2716712 13.7669572,14.3470454 14.042218,14.1437635 C14.3170926,13.9413122 14.3866322,13.5372401 14.1979094,13.2419726 L10.3143166,7.16303389 L12.8639083,2.29776496 L21.7802358,2.29776496 L24.3296344,7.16303389 L13.504252,24.1066532 L11.1586431,22.3749156 L20.7666963,7.33620764 C20.897083,7.13230281 20.9080935,6.86610526 20.7950916,6.65036482 L20.2899638,5.68669647 C20.1829501,5.48279164 19.9818648,5.35633742 19.7641672,5.35633742 L14.8795906,5.3567527 C14.6616999,5.3567527 14.4606146,5.48299928 14.3536009,5.68731939 L13.8486662,6.65098774 C13.7356643,6.86672819 13.7468679,7.13251045 13.8770615,7.33641528 L15.6516732,10.1140476 C15.8403959,10.4095227 16.2157165,10.484274 16.4911706,10.281615 C16.7658519,10.0787484 16.8355847,9.67488392 16.646862,9.3794088 L15.0853119,6.93525018 L15.232504,6.65451766 L19.4112538,6.65410238 L19.5586391,6.93504254 L9.82174447,22.1751637 C9.73114983,22.3169834 9.6965732,22.4918183 9.7257412,22.6608392 C9.75510236,22.8300678 9.84550383,22.9797779 9.97762904,23.0773699 L13.3182336,25.5435386 C13.4227362,25.6205739 13.5417262,25.6575342 13.6595571,25.6575342 C13.8517568,25.6575342 14.0406727,25.5591118 14.157731,25.3759712 L25.5376916,7.56440663 C25.6680784,7.3605018 25.679282,7.09430425 25.566087,6.87877145 Z" id="Fill-1" fill="#FFFFFF"></path>
    </g>
</svg>