<?xml version="1.0" encoding="UTF-8"?>
<svg width="35px" height="27px" viewBox="0 0 35 27" version="1.1" xmlns="http://www.w3.org/2000/svg" xmlns:xlink="http://www.w3.org/1999/xlink">
    <!-- Generator: Sketch 50.2 (55047) - http://www.bohemiancoding.com/sketch -->
    <title>Icon 1</title>
    <desc>Created with Sketch.</desc>
    <defs></defs>
    <g id="Icon-1" stroke="none" stroke-width="1" fill="none" fill-rule="evenodd">
        <path d="M21.8309821,16.9902266 C21.6322722,16.683443 21.2366828,16.6053448 20.9470585,16.8161237 C20.657841,17.0269026 20.584418,17.4467344 20.7829245,17.7535181 L23.9140804,22.5895671 L21.4443418,24.3884151 L19.226194,20.9626646 C19.0276874,20.655881 18.6318947,20.5777828 18.3424738,20.7885617 C18.0530529,20.9993406 17.9796299,21.4191725 18.1785432,21.7259561 L20.7562807,25.7072395 C20.8793304,25.8977388 21.0782437,26 21.2806146,26 C21.4046812,26 21.5299681,25.9615981 21.6400009,25.8815582 L25.1573903,23.3194187 C25.2965076,23.2180205 25.3918965,23.0624713 25.4226081,22.8866424 C25.453523,22.7110293 25.4169132,22.5293754 25.3217277,22.3820243 L21.8309821,16.9902266 Z M25.9205876,6.96042105 L22.9510387,1.33494737 C22.8419323,1.128 22.6365439,1 22.4139905,1 L12.5863246,1 C12.3635739,1 12.1583828,1.128 12.0490791,1.33494737 L9.07933295,6.96042105 C8.96391297,7.17894737 8.97515902,7.44884211 9.10833592,7.65557895 L13.2928527,14.1566316 C13.4854167,14.456 13.8689661,14.5324211 14.1501174,14.3263158 C14.430874,14.1210526 14.5019017,13.7113684 14.3091404,13.412 L10.3424418,7.24863158 L12.9465928,2.31578947 L22.0537224,2.31578947 L24.657676,7.24863158 L13.6006393,24.4275789 L11.2048363,22.6717895 L21.0184939,7.42421053 C21.1516708,7.21747368 21.1629169,6.94757895 21.0474969,6.72884211 L20.5315597,5.75178947 C20.422256,5.54505263 20.2168676,5.41684211 19.9945116,5.41684211 L15.005409,5.41726316 C14.7828556,5.41726316 14.5774672,5.54526316 14.4681635,5.75242105 L13.9524236,6.72947368 C13.8370037,6.94821053 13.848447,7.21768421 13.9814266,7.42442105 L15.7940135,10.2406316 C15.9867748,10.5402105 16.3701269,10.616 16.6514755,10.4105263 C16.9320348,10.2048421 17.0032598,9.79536842 16.8104985,9.49578947 L15.2155325,7.01768421 L15.3658745,6.73305263 L19.6340461,6.73263158 L19.7845853,7.01747368 L9.83932912,22.4692632 C9.74679584,22.6130526 9.7114793,22.7903158 9.74127146,22.9616842 C9.77126093,23.1332632 9.86359691,23.2850526 9.9985495,23.384 L13.4106403,25.8844211 C13.5173791,25.9625263 13.6389154,26 13.7592678,26 C13.9555804,26 14.148539,25.9002105 14.2681022,25.7145263 L25.8915846,7.65557895 C26.0247615,7.44884211 26.0362049,7.17894737 25.9205876,6.96042105 Z" id="Fill-1" fill="#D5D5D5"></path>
    </g>
</svg>