<?xml version="1.0" encoding="UTF-8"?>
<svg width="56px" height="56px" viewBox="0 0 56 56" version="1.1" xmlns="http://www.w3.org/2000/svg" xmlns:xlink="http://www.w3.org/1999/xlink">
    <!-- Generator: Sketch 50.2 (55047) - http://www.bohemiancoding.com/sketch -->
    <title>cancle</title>
    <desc>Created with Sketch.</desc>
    <defs></defs>
    <g id="cancle" stroke="none" stroke-width="1" fill="none" fill-rule="evenodd">
        <path d="M35.4164805,34.1427988 C35.0693226,33.6028596 34.3782047,33.4654068 33.872214,33.8363776 C33.366934,34.2073485 33.2386597,34.9462526 33.5854623,35.4861918 L39.0557758,43.9976381 L34.7409972,47.1636106 L30.8657624,41.1342898 C30.5189598,40.5943506 29.8274866,40.4568977 29.3218512,40.8278686 C28.8162159,41.1988395 28.6879416,41.9377436 29.0354548,42.4776828 L33.538914,49.4847416 C33.753889,49.8200203 34.1014022,50 34.4549561,50 C34.6717077,50 34.8905913,49.9324127 35.0828251,49.7915425 L41.2279114,45.282177 C41.4709574,45.1037161 41.6376075,44.8299494 41.6912624,44.5204906 C41.7452726,44.2114115 41.6813131,43.8917007 41.5150184,43.6323628 L35.4164805,34.1427988 Z M42.5612618,16.4903411 L37.3732853,6.58950737 C37.1826699,6.22528 36.8238444,6 36.4350305,6 L19.2655201,6 C18.8763615,6 18.5178806,6.22528 18.3269206,6.58950737 L13.1385993,16.4903411 C12.9369538,16.8749474 12.9566014,17.3499621 13.1892692,17.7138189 L20.4998662,29.1556716 C20.8362867,29.68256 21.5063702,29.8170611 21.997558,29.4543158 C22.4880563,29.0930526 22.6121458,28.3720084 22.2753806,27.84512 L15.3453249,16.9975916 L19.8949298,8.31578947 L35.8056208,8.31578947 L40.354881,16.9975916 L21.0375875,47.2325389 L16.8519786,44.1423495 L33.9970159,17.3066105 C34.2296837,16.9427537 34.2493312,16.4677389 34.0476858,16.0827621 L33.1463132,14.3631495 C32.9553532,13.9992926 32.5965276,13.7736421 32.2080584,13.7736421 L23.4918028,13.7743832 C23.1029889,13.7743832 22.7441633,13.9996632 22.5532033,14.3642611 L21.6521754,16.0838737 C21.4505299,16.4688505 21.4705221,16.9431242 21.7028453,17.3069811 L24.8695413,22.2635116 C25.2063065,22.7907705 25.8760453,22.92416 26.3675777,22.5625263 C26.8577314,22.2005221 26.9821656,21.4798484 26.6454004,20.9525895 L23.858901,16.5911242 L24.1215571,16.0901726 L31.578304,16.0894316 L31.8413049,16.5907537 L14.4663573,43.7859032 C14.3046963,44.0389726 14.2429962,44.3509558 14.2950449,44.6525642 C14.3474382,44.9545432 14.5087546,45.2216926 14.7445247,45.39584 L20.705648,49.7965811 C20.892127,49.9340463 21.104458,50 21.3147208,50 C21.6576905,50 21.9948004,49.8243705 22.2036845,49.4975663 L42.510592,17.7138189 C42.7432598,17.3499621 42.763252,16.8749474 42.5612618,16.4903411 Z" id="Fill-1" fill="#333333"></path>
    </g>
</svg>