<?xml version="1.0" encoding="UTF-8"?>
<svg width="123px" height="123px" viewBox="0 0 123 123" version="1.1" xmlns="http://www.w3.org/2000/svg" xmlns:xlink="http://www.w3.org/1999/xlink">
    <!-- Generator: Sketch 52.2 (67145) - http://www.bohemiancoding.com/sketch -->
    <title>Cashback</title>
    <desc>Created with Sketch.</desc>
    <g id="Cashback" stroke="none" stroke-width="1" fill="none" fill-rule="evenodd">
        <path d="M78.4717813,44.4719538 C80.2026469,48.6259013 80.2026469,53.2990923 78.4717813,57.4530399 C74.8872167,66.0560925 65.0069875,70.1243649 56.4039349,66.5398002 C47.8008823,62.9552355 43.7326099,53.0750063 47.3171746,44.4719538 L47.3171746,30.192759 L49.9133918,30.192759 L49.9133918,40.1946859 C51.0614066,38.8195021 52.4195528,37.6344912 53.9375285,36.6833021 L53.8077177,36.6833021 L53.8077177,32.7889762 L56.4039349,32.7889762 L56.4039349,35.3851934 C57.2455961,35.0398966 58.1138685,34.7633994 59.0001521,34.5582983 L59.0001521,25.0003245 L61.5963694,25.0003245 L61.5963694,34.1532884 C62.0260433,34.1195375 62.4557173,34.0870848 62.894478,34.0870848 C65.6078495,34.086598 68.2808174,34.7453882 70.6831297,36.0069875 L70.6831297,30.192759 L73.2793469,30.192759 L73.2793469,37.6880381 C74.231185,38.4290959 75.1015669,39.269459 75.8755641,40.1946859 L75.8755641,34.0870848 L78.4717813,34.0870848 L78.4717813,44.4719538 Z M72.6091983,61.3178338 C78.3499214,55.9472339 78.6497845,46.9399828 73.2793469,41.1994219 L73.2793469,45.7700624 L70.6831297,45.7700624 L70.6831297,39.0160032 C65.1921302,35.4199179 57.9540388,36.0451194 53.160935,40.5292734 C47.420212,45.899711 47.1203489,54.9071244 52.4907865,60.6476852 C57.8612241,66.388246 66.8686375,66.6882714 72.6091983,61.3178338 Z M94.0286395,33.8706252 C94.1482278,34.5774454 93.6719842,35.2474317 92.965164,35.3670199 C90.8497338,35.7197809 89.1918868,37.3771411 88.8384768,39.4924091 C88.746311,40.0371279 88.3197201,40.4637189 87.7750013,40.5558846 C87.0681811,40.6754728 86.3981948,40.1992292 86.2786066,39.4924091 C85.9251965,37.3771411 84.2673495,35.7197809 82.1519193,35.3670199 C81.6072004,35.2748542 81.1806095,34.8482633 81.0884438,34.3035444 C80.9688555,33.5967243 81.4450991,32.926738 82.1519193,32.8071497 C84.2673495,32.4543887 85.9251965,30.7970285 86.2786066,28.6817606 C86.3707723,28.1370417 86.7973632,27.7104508 87.342082,27.6182851 C88.0489022,27.4986968 88.7188885,27.9749404 88.8384768,28.6817606 C89.1918868,30.7970285 90.8497338,32.4543887 92.965164,32.8071497 C93.5098829,32.8993155 93.9364738,33.3259064 94.0286395,33.8706252 Z M87.5585417,35.9407839 C88.0646418,35.2203337 88.6919527,34.5931849 89.4122408,34.0870848 C88.6919527,33.5809847 88.0646418,32.9536737 87.5585417,32.2333857 C87.0524416,32.9536737 86.4251306,33.5809847 85.7048426,34.0870848 C86.4251306,34.5931849 87.0524416,35.2204959 87.5585417,35.9407839 Z M100.885574,74.7933371 C102.598266,77.3194564 101.938989,80.7555499 99.4128695,82.4684042 L79.2013184,95.9427717 C78.1362203,96.6554333 76.8832209,97.0349678 75.6016632,97.0331829 L23.9512195,97.0331829 C22.6504065,96.3782871 22,95.7818603 22,95.2439024 C22,94.7059446 22.6504065,94.4369657 23.9512195,94.4369657 L39.5285229,94.4369657 L39.5285229,74.9653364 L23.9512195,74.9653364 C23.0425217,74.89679 22.5881728,74.5018404 22.5881728,73.7804878 C22.5881728,73.0591352 23.0425217,72.588679 23.9512195,72.3691192 L40.3865727,72.3691192 C45.950104,67.8654936 53.9052381,67.8654936 59.4687693,72.3691192 L73.9284012,72.3691192 C74.8820242,72.3692815 75.8212058,72.602941 76.6638406,73.0496527 C79.5141626,74.5609756 80.5997059,78.096699 79.0883829,80.9470209 L93.8115309,73.0181735 C94.605162,72.5927184 95.4916079,72.3697683 96.3921708,72.3691192 C98.1958927,72.3954059 99.8732113,73.3003499 100.885574,74.7933371 Z M97.9732671,80.3083515 C99.1788855,79.4908676 99.5928198,77.9070128 98.9413316,76.6041986 C98.2236398,75.1693018 96.478495,74.5877491 95.0434359,75.3054409 L79.0870848,83.8976218 C78.8978855,83.9991988 78.6864561,84.052259 78.4717813,84.0520967 L60.2982607,84.0520967 C59.5813803,84.0520967 59.0001521,83.4708686 59.0001521,82.7539881 C59.0001521,82.0371077 59.5813803,81.4558795 60.2982607,81.4558795 L73.9284012,81.4558795 C75.7207647,81.4558795 77.1736727,80.0029715 77.1736727,78.210608 C77.1736727,76.4182445 75.7207647,74.9653364 73.9284012,74.9653364 L59.0001521,74.9653364 C58.690391,74.965661 58.3905279,74.8551595 58.1550834,74.6537904 C53.591258,70.7039704 46.8665686,70.5483596 42.1247401,74.2825313 L42.1247401,94.4369906 L75.6016632,94.4369657 C76.3701435,94.4397242 77.1220729,94.213691 77.7617159,93.7879114 L97.9732671,80.3083515 Z M33.0379798,84.0520967 C35.1887835,84.0520967 36.9323057,85.7956189 36.9323057,87.9464226 C36.9323057,90.0972263 35.1887835,91.8407484 33.0379798,91.8407484 C30.8871761,91.8407484 29.143654,90.0972263 29.143654,87.9464226 C29.143654,85.7956189 30.8871761,84.0520967 33.0379798,84.0520967 Z M33.0379798,89.2445312 C33.7548603,89.2445312 34.3360884,88.6633031 34.3360884,87.9464226 C34.3360884,87.2295421 33.7548603,86.648314 33.0379798,86.648314 C32.3210993,86.648314 31.7398712,87.2295421 31.7398712,87.9464226 C31.7398712,88.6633031 32.3210993,89.2445312 33.0379798,89.2445312 Z M60.6198898,59.3500554 L57.5633315,59.3500554 C57.4079995,59.3500554 57.3035963,59.2477826 57.3035963,59.0964523 L57.3035963,42.3253879 C57.3035963,42.1723946 57.4079995,42.0717849 57.5633315,42.0717849 L60.6198898,42.0717849 L60.6198898,40.1843127 C60.6198898,39.3810975 61.2836579,38.7308759 62.1027578,38.7308759 C62.9218576,38.7308759 63.5864745,39.3810975 63.5864745,40.1843127 L63.5864745,42.0717849 L64.1254678,42.0717849 C67.8610726,42.0717849 69.6240472,43.9010532 69.6240472,46.6707317 C69.6240472,48.6280489 68.6912071,49.7447339 67.5758731,50.3292683 L67.5758731,50.3799889 C68.6657428,50.7874169 69.9355599,52.159368 69.9355599,54.2688471 C69.9355599,57.6978935 67.731205,59.3500554 63.8657323,59.3500554 L63.5864745,59.3500554 L63.5864745,60.527439 C63.5864745,61.3306542 62.9218576,61.9808758 62.1027578,61.9808758 C61.2836579,61.9808758 60.6198898,61.3306542 60.6198898,60.527439 L60.6198898,59.3500554 Z M64.0482262,49.2616408 C65.6040915,49.2616408 66.5649424,48.3478381 66.5649424,47.0008314 C66.5649424,45.6288803 65.6040915,44.7134145 64.0482262,44.7134145 L60.5197305,44.7134145 C60.4170246,44.7134145 60.3643986,44.7649667 60.3643986,44.8655764 L60.3643986,49.1094789 C60.3643986,49.2109202 60.4170246,49.2616408 60.5197305,49.2616408 L64.0482262,49.2616408 Z M60.5197305,56.7075943 L64.2035581,56.7075943 C65.9156042,56.7075943 66.8747574,55.7414079 66.8747574,54.2937916 C66.8747574,52.8702882 65.9156042,51.9041019 64.2035581,51.9041019 L60.5197305,51.9041019 C60.4170246,51.9041019 60.3643986,51.9548227 60.3643986,52.0570952 L60.3643986,56.5546009 C60.3643986,56.6568737 60.4170246,56.7075943 60.5197305,56.7075943 Z M70.6831297,25.0003245 L73.2793469,25.0003245 L73.2793469,27.5965418 L70.6831297,27.5965418 L70.6831297,25.0003245 Z M53.8077177,27.5965418 L56.4039349,27.5965418 L56.4039349,30.192759 L53.8077177,30.192759 L53.8077177,27.5965418 Z" id="Cash-back" fill="#000000"></path>
    </g>
</svg>