<?xml version="1.0" encoding="UTF-8"?>
<svg width="22px" height="18px" viewBox="0 0 22 18" version="1.1" xmlns="http://www.w3.org/2000/svg" xmlns:xlink="http://www.w3.org/1999/xlink">
    <!-- Generator: Sketch 50.2 (55047) - http://www.bohemiancoding.com/sketch -->
    <title>Icon</title>
    <desc>Created with Sketch.</desc>
    <defs></defs>
    <g id="Icon" stroke="none" stroke-width="1" fill="none" fill-rule="evenodd">
        <g id="Cash" transform="translate(1.000000, 0.000000)" fill="#A1A1A1">
            <g id="Group">
                <g id="Cash-icon">
                    <path d="M18.9153864,9.59803689 L17.1099028,10.320778 L17.1099028,6.55409485 C17.1099028,6.33853108 16.9357901,6.16384588 16.7210414,6.16384588 L16.7148196,6.16384588 L15.8908222,4.08694081 C15.881684,4.06957473 15.8710389,4.05313549 15.8589356,4.03776944 C15.8172302,3.84981577 15.643798,3.72152142 15.4525754,3.73727773 C14.6681447,3.80903476 13.9007753,3.47737191 13.4137749,2.85609553 C13.292596,2.70594724 13.0795971,2.66862968 12.9148657,2.76867976 C12.8963948,2.77087491 12.8780697,2.77424081 12.8600362,2.77882623 L4.91093096,5.95545292 C4.81473637,5.99325829 4.73779041,6.06838122 4.69744604,6.16384588 L2.2833943,6.16384588 L15.4626858,0.897435906 L18.9153864,9.59803689 Z M12.9992486,3.56205593 C13.5803534,4.17499074 14.3855396,4.52343429 15.2285912,4.52675141 L15.8779898,6.16579712 L6.48815291,6.16579712 L12.9992486,3.56205593 Z M0.777722854,16.3103193 L16.3321799,16.3103193 L16.3321799,6.94434383 L0.777722854,6.94434383 L0.777722854,16.3103193 Z M0.388861427,17.0908173 L16.7210414,17.0908173 C16.9357901,17.0908173 17.1099028,16.9160833 17.1099028,16.7005683 L17.1099028,11.1590328 L19.5643961,10.1779469 C19.763882,10.0980434 19.8610488,9.87101605 19.781478,9.67086711 C19.7814294,9.67076954 19.7814294,9.67067198 19.7813808,9.6706232 L16.0413116,0.246110361 C15.9619352,0.0458150724 15.7357637,-0.0519422968 15.5362292,0.0277660571 C15.5360834,0.0278148382 15.5359376,0.0278636194 15.5357917,0.0279611816 L0.362807711,6.09125957 C0.300930137,6.1180404 0.24726726,6.16087023 0.207263141,6.21535874 C0.0810776075,6.28111569 0.00140962267,6.41141007 0,6.55409485 L0,16.7005683 C0,16.9160833 0.174112704,17.0908173 0.388861427,17.0908173 Z" id="Fill-1"></path>
                    <path d="M3.94072829,8.63019093 L13.0336695,8.63019093 C13.350091,9.40633119 13.9743557,10.0214842 14.7619048,10.3332158 L14.7619048,13.1115506 C13.9746989,13.4235721 13.3506793,14.0386285 13.0340616,14.8145755 L3.94072829,14.8145755 C3.62411064,14.0386285 3.00009104,13.4235721 2.21288515,13.1115506 L2.21288515,10.3332158 C3.00033613,10.0214842 3.62445378,9.40633119 3.94072829,8.63019093 Z M1.70857143,13.7512479 C2.46994398,13.973016 3.06572829,14.5595179 3.29170868,15.3097128 C3.34126751,15.4734057 3.49406162,15.5856426 3.66739496,15.5856909 C3.6877381,15.5844347 3.70793417,15.5814392 3.72778711,15.5768009 C3.74538515,15.5817291 3.76337535,15.5853527 3.78151261,15.5876235 L13.1932773,15.5876235 C13.2094538,15.585546 13.2254342,15.5823088 13.2411204,15.5779604 C13.4370518,15.6249231 13.6345028,15.5064535 13.6821989,15.3133364 C13.6823459,15.31266 13.682542,15.3119353 13.6826891,15.3112589 C13.9080812,14.5603393 14.5039636,13.973016 15.2658263,13.7508613 C15.4505812,13.6951536 15.5653852,13.5137288 15.5348459,13.3256849 C15.540091,13.3068902 15.5438655,13.2878055 15.5462185,13.2684793 L15.5462185,10.1762871 C15.5439146,10.1569125 15.539993,10.1377796 15.5344538,10.1190815 C15.5651891,9.93098925 15.4503361,9.74941958 15.2654342,9.69390507 C14.5035714,9.4717987 13.9078361,8.88418553 13.6830812,8.13312102 C13.6263165,7.94976368 13.4403852,7.83631887 13.2485714,7.86796553 C13.2304342,7.86298903 13.2119538,7.85936537 13.1932773,7.85714286 L3.78151261,7.85714286 C3.7617577,7.85941369 3.74219888,7.86327893 3.72308123,7.86873858 C3.53234594,7.83878297 3.34832633,7.95188956 3.29170868,8.13389407 C3.06616947,8.88462037 2.47033613,9.4717987 1.70857143,9.69390507 C1.52381653,9.74956453 1.40901261,9.93103756 1.43955182,10.1190815 C1.43445378,10.1378279 1.43077731,10.1569609 1.42857143,10.1762871 L1.42857143,13.2684793 C1.43082633,13.2865977 1.4345028,13.304571 1.43955182,13.3222062 C1.40739496,13.511458 1.52244398,13.694912 1.70857143,13.7512479 Z" id="Fill-4"></path>
                    <path d="M8.78151261,10.070028 C9.64783613,10.070028 10.3501401,10.7722829 10.3501401,11.6386555 C10.3501401,12.504979 9.64783613,13.2072829 8.78151261,13.2072829 C7.91518908,13.2072829 7.21288515,12.504979 7.21288515,11.6386555 C7.21288515,10.7722829 7.91518908,10.070028 8.78151261,10.070028 Z M8.78151261,13.9915966 C10.0810224,13.9915966 11.1344538,12.9381162 11.1344538,11.6386555 C11.1344538,10.3391457 10.0810224,9.28571429 8.78151261,9.28571429 C7.4820028,9.28571429 6.42857143,10.3391457 6.42857143,11.6386555 C6.42984594,12.937577 7.48254202,13.9902731 8.78151261,13.9915966 Z" id="Fill-5"></path>
                    <path d="M4.07563025,11.0504202 C4.16844538,11.0504202 4.24369748,11.1256303 4.24369748,11.2184874 C4.24369748,11.3113025 4.16844538,11.3865546 4.07563025,11.3865546 C3.98281513,11.3865546 3.90756303,11.3113025 3.90756303,11.2184874 C3.90756303,11.1256303 3.98281513,11.0504202 4.07563025,11.0504202 Z M4.07563025,11.7226891 C4.35407563,11.7226891 4.57983193,11.4969328 4.57983193,11.2184874 C4.57983193,10.94 4.35407563,10.7142857 4.07563025,10.7142857 C3.79718487,10.7142857 3.57142857,10.94 3.57142857,11.2184874 C3.57142857,11.4969328 3.79718487,11.7226891 4.07563025,11.7226891 Z" id="Fill-6"></path>
                    <path d="M12.6470588,11.0504202 C12.7398739,11.0504202 12.8151261,11.1256303 12.8151261,11.2184874 C12.8151261,11.3113025 12.7398739,11.3865546 12.6470588,11.3865546 C12.5542437,11.3865546 12.4789916,11.3113025 12.4789916,11.2184874 C12.4789916,11.1256303 12.5542437,11.0504202 12.6470588,11.0504202 Z M12.6470588,11.7226891 C12.9255042,11.7226891 13.1512605,11.4969328 13.1512605,11.2184874 C13.1512605,10.94 12.9255042,10.7142857 12.6470588,10.7142857 C12.3686134,10.7142857 12.1428571,10.94 12.1428571,11.2184874 C12.1428571,11.4969328 12.3686134,11.7226891 12.6470588,11.7226891 Z" id="Fill-7"></path>
                </g>
            </g>
        </g>
    </g>
</svg>