<?xml version="1.0" encoding="UTF-8"?>
<svg width="56px" height="56px" viewBox="0 0 56 56" version="1.1" xmlns="http://www.w3.org/2000/svg" xmlns:xlink="http://www.w3.org/1999/xlink">
    <!-- Generator: Sketch 50.2 (55047) - http://www.bohemiancoding.com/sketch -->
    <title>Challenge</title>
    <desc>Created with Sketch.</desc>
    <defs></defs>
    <g id="Challenge" stroke="none" stroke-width="1" fill="none" fill-rule="evenodd">
        <path d="M35.999192,32.6200894 C38.0588936,31.4290019 40.5088111,30.485987 43.3489445,29.7910448 L43.3489445,48 L12,48 C15.0551331,44.8981608 17.4992613,42.6553215 19.3323845,41.2714822 C19.0498789,41.0648734 19.0556682,40.5713942 19.3497525,39.7910448 C20.5497121,33.0248756 21.1996903,29.2935323 21.2996869,28.5970149 C21.4496818,27.5522388 21.1496919,21.7313433 21.2996869,18.8955224 C21.4496818,16.5074627 22.4996465,15.761194 24.2995859,15.761194 C25.7995354,15.761194 26.0995253,16.0597015 26.6995051,16.6567164 C27.0994916,17.0547264 28.5494428,18.5472637 31.0493586,21.1343284 L34.1992526,19.2537313 L34.1992526,9.34328358 L35.999192,9.34328358 L44.848894,9.34328358 L42.2989799,13.0746269 L45,16.3598913 L35.999192,16.3598913 L35.999192,32.6200894 Z M32.1941665,35.5404568 C31.8631534,34.9434604 31.1315626,33.6240047 29.999394,31.5820896 L23.849601,30.3880597 C23.068138,35.7340692 22.5729429,38.7537761 22.3640159,39.4471802 C26.080681,37.724955 29.7169671,37.5453227 30.4493788,37.7014925 C30.9568147,36.9340014 31.5384106,36.2136562 32.1941665,35.5404568 Z M34.1992526,22.0578358 C33.5992728,22.4123134 32.999293,22.8507463 32.3993132,23.3731343 C31.5993401,24.0696517 30.7993671,24.0696517 29.999394,23.3731343 L27.4494798,20.8358209 L27.1869887,28 C28.3619491,28.3638423 29.3994142,28.5628473 30.2993839,28.5970149 C31.1993536,28.6311825 31.89933,28.92969 32.3993132,29.4925373 L34.1992526,32.6975648 L34.1992526,22.0578358 Z M24.6745733,14.119403 C22.9763548,14.119403 21.5996768,12.749528 21.5996768,11.0597015 C21.5996768,9.36987502 22.9763548,8 24.6745733,8 C26.3727917,8 27.7494697,9.36987502 27.7494697,11.0597015 C27.7494697,12.749528 26.3727917,14.119403 24.6745733,14.119403 Z" id="Combined-Shape" fill="#4E2683"></path>
    </g>
</svg>