<?xml version="1.0" encoding="UTF-8"?>
<svg width="40px" height="36px" viewBox="0 0 40 36" version="1.1" xmlns="http://www.w3.org/2000/svg" xmlns:xlink="http://www.w3.org/1999/xlink">
    <!-- Generator: Sketch 50.2 (55047) - http://www.bohemiancoding.com/sketch -->
    <title>Icons/Computer</title>
    <desc>Created with Sketch.</desc>
    <defs></defs>
    <g id="Icons/Computer" stroke="none" stroke-width="1" fill="none" fill-rule="evenodd">
        <path d="M36.4516129,21.6461538 L3.5483871,21.6461538 L3.5483871,7.03076923 C3.5483871,3.90769231 5.98709677,3.56923077 7.03225806,3.56923077 L32.9677419,3.56923077 C34.0129032,3.56923077 36.4516129,3.90769231 36.4516129,7.03076923 L36.4516129,21.6461538 Z M36.4516129,24.2769231 C36.4516129,25.3153846 36.1109677,27.7384615 32.9677419,27.7384615 L7.03225806,27.7384615 C5.98709677,27.7384615 3.5483871,27.4 3.5483871,24.2769231 L3.5483871,23.1769231 L36.4516129,23.1769231 L36.4516129,24.2769231 Z M18.1806452,32.4615385 L21.8193548,32.4615385 L21.8193548,29.2769231 L18.1806452,29.2769231 L18.1806452,32.4615385 Z M32.9677419,2 L7.03225806,2 C4.60129032,2 2,3.31538462 2,7 L2,24.2769231 C2,27.9615385 4.60129032,29.2769231 7.03225806,29.2769231 L16.6322581,29.2769231 L16.6322581,32.4615385 L15.0374194,32.4615385 C14.609871,32.4615385 14.2632258,32.8059615 14.2632258,33.2307692 C14.2632258,33.6555769 14.609871,34 15.0374194,34 L25.2567742,34 C25.6843226,34 26.0309677,33.6555769 26.0309677,33.2307692 C26.0309677,32.8059615 25.6843226,32.4615385 25.2567742,32.4615385 L23.3677419,32.4615385 L23.3677419,29.2769231 L32.9677419,29.2769231 C36.676129,29.2769231 38,26.6923077 38,24.2769231 L38,7 C38,3.31538462 35.3987097,2 32.9677419,2 Z" id="Fill-1" fill="#4E2683"></path>
    </g>
</svg>