<?xml version="1.0" encoding="UTF-8"?>
<svg width="56px" height="56px" viewBox="0 0 56 56" version="1.1" xmlns="http://www.w3.org/2000/svg" xmlns:xlink="http://www.w3.org/1999/xlink">
    <!-- Generator: Sketch 50.2 (55047) - http://www.bohemiancoding.com/sketch -->
    <title>debt</title>
    <desc>Created with Sketch.</desc>
    <defs></defs>
    <g id="debt" stroke="none" stroke-width="1" fill="none" fill-rule="evenodd">
        <g id="Group-16" transform="translate(10.000000, 9.000000)" stroke="#4E2683">
            <g id="Page-1">
                <path d="M30.1222553,37.8219362 C29.7475745,36.393 30.4733191,35.8270426 31.6403404,35.2123617 C33.9773617,33.9817234 34.0418298,30.6164043 31.8622553,29.0823617 C31.1499149,28.5808723 30.291617,28.2912979 29.5231064,27.8636383 C28.881617,27.5068298 28.125234,27.205766 27.7001277,26.6610851 C27.3909787,26.2649149 27.3260851,25.4108723 27.5458723,24.9476809 C27.7439574,24.5304468 28.490766,24.1312979 28.970766,24.1585319 C29.4554468,24.185766 29.988,24.6795957 30.350766,25.0978936 C30.5997021,25.3849149 30.594383,25.8923617 30.7048085,26.3085319 L33.3390638,26.3085319 C33.3965106,24.7778936 32.9258723,23.3717234 31.7548085,22.773 C30.5065106,22.1344894 29.6954468,21.4432128 30.1150213,19.8849149 L27.6388511,19.8849149 C27.6388511,20.5595957 27.8539574,21.3144894 27.578,21.7751277 C27.3050213,22.2310851 26.5337447,22.3855532 25.9869362,22.6832128 C25.8650213,22.749383 25.7645957,22.8574681 25.6594894,22.9521489 C23.6154468,24.7942766 24.2460851,28.0900213 26.895234,29.3436383 C27.7860851,29.7653404 28.7377872,30.0691702 29.5971489,30.5440638 C30.5597021,31.0759787 30.8411915,32.0559787 30.4094894,32.8889574 C30.0184255,33.6434255 28.9688511,34.1021489 28.1220426,33.5915106 C27.4337447,33.176617 26.9931064,32.3508723 26.3028936,31.5438511 L24.1205532,31.5438511 C23.9409787,33.7747021 24.7928936,34.8576809 27.7126809,36.0885319 L27.7126809,37.8219362 L30.1222553,37.8219362 Z M8.37119149,25.7978936 C8.23417021,25.8195957 8.0973617,25.8412979 7.96034043,25.863 L7.96034043,39.733 L4.05395745,39.733 L4.05395745,25.8640638 L0.00842553191,25.8640638 C0.00842553191,23.5851277 -0.0149787234,21.4672553 0.0158723404,19.3504468 C0.0394893617,17.7268298 -0.0696595745,16.0651277 0.237361702,14.490234 C0.769276596,11.7625745 3.11417021,10.0206596 5.89204255,9.98619149 C7.13268085,9.97087234 8.37374468,9.97725532 9.61459574,9.9817234 C13.1518298,9.9942766 15.6094894,12.0527872 15.8199149,15.5749149 C16.0199149,18.923 15.8628936,22.2923617 15.8628936,25.7710851 L12.4441702,25.7710851 C13.2035319,28.7610851 13.9205532,31.5836383 14.6373617,34.405766 C15.3399149,32.4827872 15.3411915,30.2387447 17.9073617,29.7719362 C17.9558723,23.866617 21.1558723,19.6217234 26.545234,18.2500213 C32.4177872,16.7551277 38.5382128,20.7125745 39.5886383,26.6836383 C40.6250213,32.5761915 37.7467234,37.7023617 32.5005532,39.3078936 C26.7977872,41.0532128 20.9441702,38.2338511 18.6831064,32.6740638 C18.5420426,32.3274681 18.2267234,32.0517234 17.9924681,31.743 C17.7386383,32.0883191 17.3905532,32.4000213 17.2511915,32.786617 C16.9775745,33.5464043 16.835234,34.3523617 16.608,35.1306596 C16.4901277,35.5347021 16.3418298,35.9381064 16.1473617,36.3106596 C15.5122553,37.5272553 15.501617,37.5219362 15.570766,38.8515106 C14.4041702,39.1527872 13.2224681,39.4578936 11.9039574,39.7983191 C10.7088511,35.0621489 9.53991489,30.4300213 8.37119149,25.7978936 Z" id="Fill-1"></path>
                <path d="M4.02363899,3.96524696 C4.03483876,1.69542836 5.77317176,-0.0134158422 8.05663187,0.000192700948 C10.2104331,0.0131532182 12.0097187,1.81812126 12.023503,3.97950353 C12.0375028,6.16680683 10.1858798,8.0100084 7.9846949,8.000072 C5.71437299,7.98970359 4.01222384,6.25601839 4.02363899,3.96524696" id="Fill-4"></path>
            </g>
        </g>
    </g>
</svg>