<?xml version="1.0" encoding="UTF-8"?>
<svg width="51px" height="63px" viewBox="0 0 51 63" version="1.1" xmlns="http://www.w3.org/2000/svg" xmlns:xlink="http://www.w3.org/1999/xlink">
    <!-- Generator: Sketch 50.2 (55047) - http://www.bohemiancoding.com/sketch -->
    <title>Icons/Document</title>
    <desc>Created with Sketch.</desc>
    <defs>
        <path d="M18.8958773,48.2216113 C18.8958773,49.0388307 18.1783884,49.7014109 17.2934453,49.7014109 L11.2186259,49.7014109 C10.3336829,49.7014109 9.61619399,49.0388307 9.61619399,48.2216113 C9.61619399,47.404392 10.3336829,46.7418117 11.2186259,46.7418117 L17.2934453,46.7418117 C18.1783884,46.7418117 18.8958773,47.404392 18.8958773,48.2216113 Z M29.1660638,20.2491445 L35.2410835,20.2491445 C36.1258263,20.2491445 36.8435155,19.5865642 36.8435155,18.7693449 C36.8435155,17.9521255 36.1258263,17.2895453 35.2410835,17.2895453 L29.1660638,17.2895453 C28.2811208,17.2895453 27.5636319,17.9521255 27.5636319,18.7693449 C27.5636319,19.5865642 28.2811208,20.2491445 29.1660638,20.2491445 Z M29.1660638,26.5166507 L35.2410835,26.5166507 C36.1258263,26.5166507 36.8435155,25.8548103 36.8435155,25.0368511 C36.8435155,24.2196318 36.1258263,23.5570515 35.2410835,23.5570515 L29.1660638,23.5570515 C28.2811208,23.5570515 27.5636319,24.2196318 27.5636319,25.0368511 C27.5636319,25.8548103 28.2811208,26.5166507 29.1660638,26.5166507 Z M22.2071025,29.7601864 L11.2186259,29.7601864 C10.3336829,29.7601864 9.61619399,30.4227667 9.61619399,31.239986 C9.61619399,32.0572054 10.3336829,32.7197856 11.2186259,32.7197856 L22.2071025,32.7197856 C23.0920456,32.7197856 23.8095345,32.0572054 23.8095345,31.239986 C23.8095345,30.4227667 23.0920456,29.7601864 22.2071025,29.7601864 Z M22.1031448,40.5046414 L11.2186259,40.5046414 C10.3336829,40.5046414 9.61619399,41.1672217 9.61619399,41.984441 C9.61619399,42.8016603 10.3336829,43.4642406 11.2186259,43.4642406 L22.1031448,43.4642406 C22.9880878,43.4642406 23.7055767,42.8016603 23.7055767,41.984441 C23.7055767,41.1672217 22.9880878,40.5046414 22.1031448,40.5046414 Z M51,42.7872323 L51,52.4412599 C51,58.2637164 45.8704151,63 39.5654464,63 C36.5821187,63 33.8615899,61.9393536 31.8232965,60.2052135 L1.60243193,60.2052135 C0.717488895,60.2052135 0,59.5426332 0,58.7254139 L0,1.47992125 C0,0.662701924 0.717488895,0.000121653134 1.60243193,0.000121653134 L33.8559814,0.000121653134 C34.2716122,-0.00487267052 34.6830366,0.144032164 34.9921057,0.424269214 C34.9929069,0.425009113 34.9945093,0.426488913 34.9953105,0.427228813 L45.9907978,10.5812437 C45.991599,10.5819836 45.9924002,10.5827235 45.9940027,10.5842033 L45.9972075,10.5871629 C45.9972075,10.5877178 45.9980087,10.5877178 45.9980087,10.5877178 C46.2225495,10.7980344 46.3687714,11.0595889 46.4290629,11.3370514 L46.4290629,11.3377913 C46.4290629,11.3407509 46.4298641,11.3435255 46.4306654,11.3464851 C46.4306654,11.3479649 46.4314666,11.3494447 46.4314666,11.3507395 C46.4508961,11.4454467 46.4611116,11.5423736 46.4595091,11.6398554 L46.4595091,40.8832851 C47.5455574,41.0038888 48.6213901,41.1535335 49.6832016,41.3312944 C50.4461595,41.4583722 51,42.0717492 51,42.7872323 Z M35.4718337,10.1478474 L40.9888065,10.1478474 L35.4718337,5.05234246 L35.4718337,10.1478474 Z M28.1308928,52.4412599 L28.1308928,42.7872323 C28.1308928,42.0717492 28.6857348,41.4583722 29.4478915,41.3312944 C32.7254657,40.7821038 36.1298323,40.5046414 39.5654464,40.5046414 C40.8009214,40.5046414 42.0325906,40.5399716 43.2546453,40.6115569 L43.2546453,13.1074466 L33.8694018,13.1074466 C32.9844588,13.1074466 32.2669699,12.4448663 32.2669699,11.627647 L32.2669699,2.95972085 L3.20486385,2.95972085 L3.20486385,57.2456143 L29.3843951,57.2456143 C28.5831792,55.8033646 28.1308928,54.1704057 28.1308928,52.4412599 Z M47.7951361,44.0393277 C45.1138669,43.6571695 42.3518752,43.4642406 39.5654464,43.4642406 C36.7792179,43.4642406 34.0172261,43.6571695 31.3357566,44.0393277 L31.3357566,52.4412599 C31.3357566,56.6313125 35.0273592,60.0404008 39.5654464,60.0404008 C44.1037339,60.0404008 47.7951361,56.6313125 47.7951361,52.4412599 L47.7951361,44.0393277 Z M37.9630145,47.7107105 L37.9630145,50.2727986 L35.1894051,50.2727986 C34.3044621,50.2727986 33.5869732,50.9353788 33.5869732,51.7525982 C33.5869732,52.5698175 34.3044621,53.2323978 35.1894051,53.2323978 L37.9630145,53.2323978 L37.9630145,55.7939309 C37.9630145,56.6111502 38.6805034,57.2737305 39.5654464,57.2737305 C40.4503894,57.2737305 41.1678783,56.6111502 41.1678783,55.7939309 L41.1678783,53.2323978 L43.9424892,53.2323978 C44.8274322,53.2323978 45.5449211,52.5698175 45.5449211,51.7525982 C45.5449211,50.9353788 44.8274322,50.2727986 43.9424892,50.2727986 L41.1678783,50.2727986 L41.1678783,47.7107105 C41.1678783,46.8934912 40.4503894,46.2309109 39.5654464,46.2309109 C38.6805034,46.2309109 37.9630145,46.8934912 37.9630145,47.7107105 Z M35.2410835,32.7197856 C36.1258263,32.7197856 36.8435155,32.0572054 36.8435155,31.239986 C36.8435155,30.4227667 36.1258263,29.7601864 35.2410835,29.7601864 L29.1660638,29.7601864 C28.2811208,29.7601864 27.5636319,30.4227667 27.5636319,31.239986 C27.5636319,32.0572054 28.2811208,32.7197856 29.1660638,32.7197856 L35.2410835,32.7197856 Z M22.2071025,23.5570515 L11.2186259,23.5570515 C10.3336829,23.5570515 9.61619399,24.2196318 9.61619399,25.0368511 C9.61619399,25.8548103 10.3336829,26.5166507 11.2186259,26.5166507 L22.2071025,26.5166507 C23.0920456,26.5166507 23.8095345,25.8548103 23.8095345,25.0368511 C23.8095345,24.2196318 23.0920456,23.5570515 22.2071025,23.5570515 Z M22.2071025,17.2895453 L11.2186259,17.2895453 C10.3336829,17.2895453 9.61619399,17.9521255 9.61619399,18.7693449 C9.61619399,19.5865642 10.3336829,20.2491445 11.2186259,20.2491445 L22.2071025,20.2491445 C23.0920456,20.2491445 23.8095345,19.5865642 23.8095345,18.7693449 C23.8095345,17.9521255 23.0920456,17.2895453 22.2071025,17.2895453 Z" id="path-1"></path>
    </defs>
    <g id="Page-1" stroke="none" stroke-width="1" fill="none" fill-rule="evenodd">
        <g id="Policy-Dashboard" transform="translate(-78.000000, -2069.000000)">
            <g id="Icons/Document" transform="translate(78.000000, 2069.000000)">
                <mask id="mask-2" fill="white">
                    <use xlink:href="#path-1"></use>
                </mask>
                <use id="Mask" fill="#000000" xlink:href="#path-1"></use>
                <g id="Fill/Primary/SCB-Purple" mask="url(#mask-2)" fill="#4E2683">
                    <g transform="translate(-16.500000, -10.500000)" id="SCB-Purple">
                        <rect x="0" y="0" width="85" height="86"></rect>
                    </g>
                </g>
            </g>
        </g>
    </g>
</svg>