<?xml version="1.0" encoding="UTF-8"?>
<svg width="44px" height="44px" viewBox="0 0 44 44" version="1.1" xmlns="http://www.w3.org/2000/svg" xmlns:xlink="http://www.w3.org/1999/xlink">
    <!-- Generator: Sketch 50.2 (55047) - http://www.bohemiancoding.com/sketch -->
    <title>Document</title>
    <desc>Created with Sketch.</desc>
    <defs></defs>
    <g id="Document" stroke="none" stroke-width="1" fill="none" fill-rule="evenodd">
        <g id="Group-19" transform="translate(8.000000, 2.000000)" fill="#4E2683">
            <g id="document">
                <path d="M0.5,25.8571429 L0.5,23.4693878 L22.1,23.4693878 L22.1,25.8571429 L0.5,25.8571429 Z M0.5,20.1020408 L0.5,17.7142857 L22.1,17.7142857 L22.1,20.1020408 L0.5,20.1020408 Z M0.5,32.4285714 L0.5,30.0408163 L22.1,30.0408163 L22.1,32.4285714 L0.5,32.4285714 Z M0.5,14.3265306 L0.5,11.9387755 L22.1,11.9387755 L22.1,14.3265306 L0.5,14.3265306 Z" id="Fill-5"></path>
                <path d="M33,27.0471741 L33,30.7129249 C33,32.3704861 31.7477785,33.770484 30.0304462,34.2244898 L30.0304462,8.36427042 C30.0304462,5.19176357 27.0923768,2.60958999 23.4831166,2.60958999 L2.4,2.60958999 C4,1 6.11265176,0 8,0 L28,0 C30.3032289,0 33,2.43760186 33,6 L33,27.0471741 Z" id="Path"></path>
            </g>
        </g>
        <rect id="Rectangle-15" stroke="#4E2683" stroke-width="2" x="4" y="8" width="31" height="33" rx="5"></rect>
    </g>
</svg>