<?xml version="1.0" encoding="UTF-8"?>
<svg width="56px" height="56px" viewBox="0 0 56 56" version="1.1" xmlns="http://www.w3.org/2000/svg" xmlns:xlink="http://www.w3.org/1999/xlink">
    <!-- Generator: Sketch 50.2 (55047) - http://www.bohemiancoding.com/sketch -->
    <title>Edit</title>
    <desc>Created with Sketch.</desc>
    <defs></defs>
    <g id="Edit" stroke="none" stroke-width="1" fill="none" fill-rule="evenodd">
        <path d="M45.9004121,10.5893175 C42.41188,7.13689416 36.7390893,7.13689416 33.2505573,10.5893175 L10.0578255,33.4755932 C9.87617272,33.6544846 9.76402938,33.8846249 9.72938259,34.1319191 L8.01129053,46.6956588 C7.95948225,47.0535482 8.08889502,47.4114376 8.33940963,47.6587318 C8.55527747,47.8718247 8.85749243,48 9.15981532,48 C9.2112998,48 9.26310808,48 9.31502429,47.9912632 L16.9825417,46.9682046 C17.6217263,46.8832871 18.0707314,46.303568 17.9842764,45.6726002 C17.8978213,45.0420585 17.3109846,44.5988255 16.6718,44.6841691 L10.5237762,45.502339 L11.7241093,36.7397491 L20.5417199,45.6726002 C20.7575877,45.885693 21.0594789,46.0134422 21.3618018,46.0134422 C21.6641247,46.0134422 21.9664476,45.8940036 22.1823154,45.6726002 L45.3750472,22.7863245 C47.067343,21.1156768 48,18.8995114 48,16.5383364 C48,14.1772679 47.592708,12.2511219 45.9004121,10.5893175 Z M33.2296379,14 L42,22.7469203 L21.75,43 L14.2776084,35.5531246 L12.9793131,34.2535133 L33.2296379,14 Z M44.6044657,20 L36,11.3955343 C37.0926037,10.4945175 38.45624,10 39.8918461,10 C41.5264155,10 43.0575159,10.6381579 44.2139155,11.7864833 C45.3700159,12.9348086 46,14.4739833 46,16.1085526 C46,17.5520335 45.5058812,18.9077951 44.6044657,20 Z" id="Fill-1" fill="#4E2683"></path>
    </g>
</svg>