<?xml version="1.0" encoding="UTF-8"?>
<svg width="47px" height="47px" viewBox="0 0 47 47" version="1.1" xmlns="http://www.w3.org/2000/svg" xmlns:xlink="http://www.w3.org/1999/xlink">
    <!-- Generator: Sketch 51.2 (57519) - http://www.bohemiancoding.com/sketch -->
    <title>Send email</title>
    <desc>Created with Sketch.</desc>
    <defs></defs>
    <g id="Send-email" stroke="none" stroke-width="1" fill="none" fill-rule="evenodd">
        <path d="M46.541674,19.1527305 L37.2316124,13.1521998 C37.1585824,13.1057817 37.0783574,13.0874304 36.9999311,13.0622422 L36.9999311,10.9917784 C36.9999311,10.4394389 36.5527575,9.99252968 35.9990968,9.99252968 L32.2864404,9.99252968 L24.5308737,5.14309622 C24.2060163,4.94087157 23.7944583,4.94087157 23.4696008,5.14309622 L15.7140342,9.99252968 L11.0005435,9.99252968 C10.4468828,9.99252968 10.0000689,10.4394389 10.0000689,10.9917784 L10.0000689,13.0622422 C9.92128287,13.0874304 9.84105783,13.1057817 9.76802786,13.1521998 L0.457966244,19.1527305 C0.172681695,19.338043 0,19.6543339 0,19.9947334 L0,45.9993119 C0,46.5516514 0.446813885,47 1.00047457,47 L45.9991657,47 C46.5528264,47 47,46.5516514 47,45.9993119 L47,19.9947334 C47,19.6543339 46.8269586,19.338043 46.541674,19.1527305 Z M23.9993189,6.39171348 L29.7607726,9.99252968 L18.239702,9.99252968 L23.9993189,6.39171348 Z M11.2476531,11.4398472 L35.7519636,11.4398472 L35.7519636,34.9571796 C35.7519636,34.9601877 35.7534967,34.9616918 35.7534967,34.9662041 L32.1499442,37.1121423 L23.4768119,32.4720725 C23.1533277,32.300232 22.7612372,32.3017361 22.4392862,32.482225 L14.5250385,36.9181166 L11.2465033,34.9662041 C11.2465033,34.9631959 11.2491862,34.9601877 11.2491862,34.9571796 L11.2476531,11.4398472 Z M1.3203917,20.3350851 L9.748854,14.903446 L9.748854,33.7708858 L1.3203917,28.6531354 L1.3203917,20.3350851 Z M1.3960396,30.4168437 L13.0917907,37.5188094 L1.3960396,44.2034142 L1.3960396,30.4168437 Z M1.3960396,45.5997143 L23.066476,33.6765003 L45.7673918,45.5997143 L1.3960396,45.5997143 Z M45.7673918,43.8601205 L33.6481075,37.6670806 L45.7673918,30.7727315 L45.7673918,43.8601205 Z M45.7673918,28.7430381 L37.1633625,33.9673925 L37.1633625,14.7069393 L45.7673918,20.2532687 L45.7673918,28.7430381 Z M15,27.336413 L15,25.9361272 L30.8217822,25.9361272 L30.8217822,27.336413 L15,27.336413 Z M15,31.3485792 L15,29.9482935 L30.8217822,29.9482935 L30.8217822,31.3485792 L15,31.3485792 Z M25.0119511,13.5082923 C27.7137088,14.9028658 28.7789247,18.2344584 27.3913763,20.949599 L27.3913763,20.9977986 C27.069943,21.5683607 26.5483759,21.9980395 25.9285903,22.2027872 C25.8092893,22.2201591 25.6881898,22.2201591 25.5688888,22.2027872 C25.1685211,22.2177491 24.7863383,22.0346913 24.545738,21.7127585 C24.3688848,21.4639283 24.2712658,21.166999 24.2659702,20.8612331 L24.2659702,20.8210669 C23.7756771,21.2342775 23.155292,21.4592088 22.5154231,21.4556943 C20.878082,21.411913 19.5825572,20.04887 19.6138312,18.4030564 C19.6085356,18.3012349 19.6085356,18.1993129 19.6138312,18.0974914 C19.6978615,16.4936516 21.0596313,15.2619523 22.6555068,15.3463016 C24.2513823,15.4307512 25.4769651,16.7993171 25.3930348,18.4031568 L25.3930348,20.6042693 C25.3930348,20.6042693 25.4010282,21.0460985 25.5688888,21.0460985 L25.6887893,21.0460985 C25.9862425,20.9121439 26.228941,20.6795811 26.3762188,20.3873714 C26.7032474,19.7723251 26.8710082,19.084377 26.8638141,18.3870903 C26.8594178,15.9735986 24.9089366,14.0206133 22.5074297,14.0250316 C20.1059228,14.0294499 18.1626356,15.9896651 18.167032,18.4031568 C18.1714284,20.8166486 20.1219096,22.7696339 22.5234164,22.7652156 C22.886615,22.779073 23.2499135,22.7412162 23.6025208,22.6527499 C23.7700818,22.6090692 23.9483338,22.641403 24.0901161,22.7411158 C24.1929308,22.8180342 24.2595755,22.934416 24.2739636,23.0624461 C24.3242219,23.2095552 24.3066364,23.3715257 24.2260034,23.5042752 C24.1440714,23.644556 24.0026887,23.7393485 23.8423218,23.7613394 C23.4088815,23.8738051 22.9630516,23.93054 22.5154231,23.9300379 C19.4830398,23.9345566 17.017586,21.4746728 17.0000006,18.4272566 C16.9996009,17.548117 17.2078281,16.6816298 17.6074964,15.8995922 C18.9951447,13.1843512 22.3101934,12.1137188 25.0119511,13.5082923 Z M22.6659525,20.3625344 C23.6861965,20.3219257 24.4830436,19.4552938 24.4506598,18.4216455 C24.4789314,17.3851859 23.688047,16.5139725 22.6659525,16.4557667 C21.6455029,16.5095993 20.8593475,17.387789 20.9059185,18.4216455 C20.905096,18.4366396 20.9044792,18.4517376 20.904068,18.4668357 C20.8737403,19.4877808 21.6662696,20.3401475 22.6741769,20.3708644 L22.6659525,20.3625344 Z M43.8656475,11.0593326 C43.7151289,11.0593326 43.5646103,10.98588 43.4496573,10.8376097 C43.2197512,10.5410689 43.2197512,10.0610334 43.4496573,9.76449268 L45.5302435,7.08088094 C45.7601495,6.7843402 46.1323179,6.7843402 46.3622239,7.08088094 C46.59213,7.37742168 46.59213,7.85718417 46.3622239,8.15372491 L44.2816377,10.8376097 C44.1666847,10.98588 44.0161661,11.0593326 43.8656475,11.0593326 Z M3.04023983,10.8376097 L0.66172132,8.15372491 C0.399888273,7.85718417 0.399888273,7.37742168 0.66172132,7.08088094 C0.924522327,6.7843402 1.35090849,6.7843402 1.6137095,7.08088094 L3.99101806,9.76449268 C4.25381906,10.0610334 4.25381906,10.5410689 3.99101806,10.8376097 C3.85961755,10.98588 3.68756275,11.0593326 3.51550795,11.0593326 C3.34369513,11.0593326 3.17164033,10.98588 3.04023983,10.8376097 Z M34.8744247,7.20207639 C34.5163081,7.03992335 34.3425236,6.47890603 34.4859209,5.94857217 L35.881722,0.780074913 C36.0251193,0.246862335 36.4342161,-0.0483403123 36.7893191,0.1130947 C37.1461801,0.275398369 37.3209691,0.836295195 37.1775718,1.36662905 L35.7817708,6.53548615 C35.6727787,6.93898728 35.4098418,7.20838163 35.1333436,7.24154775 C35.0469536,7.25191028 34.9585545,7.23984383 34.8744247,7.20207639 Z M12.8560483,6.49254804 L11.2266668,1.27882321 C11.059716,0.743937632 11.2632789,0.188565256 11.6809488,0.0378353302 C12.095104,-0.1122727 12.5722319,0.19743139 12.7394756,0.73379451 L14.3673926,5.9469688 C14.5343434,6.48185439 14.3307805,7.03722676 13.9131106,7.18795669 C13.8146975,7.22300242 13.7130625,7.23243909 13.6111346,7.21916705 C13.288363,7.17713889 12.9831652,6.90097721 12.8560483,6.49254804 Z" id="Sent-email" fill="#4E2A81" fill-rule="nonzero"></path>
    </g>
</svg>