<?xml version="1.0" encoding="UTF-8"?>
<svg width="17px" height="19px" viewBox="0 0 17 19" version="1.1" xmlns="http://www.w3.org/2000/svg" xmlns:xlink="http://www.w3.org/1999/xlink">
    <!-- Generator: Sketch 50.2 (55047) - http://www.bohemiancoding.com/sketch -->
    <title>LM1.2.Menu-Registered-NotSCBCustomer Copy</title>
    <desc>Created with Sketch.</desc>
    <defs>
        <polygon id="path-1" points="3.18181818e-05 0 13.7740909 0 13.7740909 15 3.18181818e-05 15"></polygon>
    </defs>
    <g id="LM1.2.Menu-Registered-NotSCBCustomer-Copy" stroke="none" stroke-width="1" fill="none" fill-rule="evenodd">
        <g id="icon_feedback" transform="translate(2.000000, 2.000000)">
            <g id="Group-3">
                <mask id="mask-2" fill="white">
                    <use xlink:href="#path-1"></use>
                </mask>
                <g id="Clip-2"></g>
                <path d="M6.88548636,1.25 C3.79053182,1.25 1.27275909,3.724375 1.27275909,6.765625 C1.27275909,8.00875 1.68575909,9.183125 2.46721364,10.16125 C2.52098636,10.2284375 2.56012273,10.3059375 2.58207727,10.3890625 C2.86430455,11.45125 2.82230455,12.4809375 2.45830455,13.465625 C3.18757727,13.1965625 3.76730455,12.7646875 4.21307727,12.16125 C4.37980455,11.935 4.67889545,11.8446875 4.94648636,11.9409375 C5.57012273,12.1646875 6.22271364,12.278125 6.88548636,12.278125 C9.98203182,12.278125 12.5013955,9.8053125 12.5013955,6.765625 C12.5013955,3.724375 9.98203182,1.25 6.88548636,1.25 M1.27212273,15 C1.05225909,15 0.845440909,14.888125 0.728986364,14.700625 C0.599804545,14.4925 0.605531818,14.229375 0.743940909,14.026875 C1.44107727,13.0059375 1.65012273,11.9571875 1.38062273,10.8240625 C0.476986364,9.645625 3.18181818e-05,8.245625 3.18181818e-05,6.765625 C3.18181818e-05,3.035 3.08862273,0 6.88548636,0 C10.6839409,0 13.7741227,3.035 13.7741227,6.765625 C13.7741227,10.4946875 10.6839409,13.528125 6.88548636,13.528125 C6.22780455,13.528125 5.57871364,13.4371875 4.94998636,13.256875 C4.07785,14.236875 2.86812273,14.8209375 1.34625909,14.995625 C1.32144091,14.9984375 1.29662273,15 1.27212273,15" id="Fill-1" fill="#4E2A81" mask="url(#mask-2)"></path>
            </g>
            <path d="M8.51938481,6 L4.48061519,6 C4.21499519,6 4,5.776 4,5.5 C4,5.224 4.21499519,5 4.48061519,5 L8.51938481,5 C8.78500481,5 9,5.224 9,5.5 C9,5.776 8.78500481,6 8.51938481,6" id="Fill-4" fill="#4E2A81"></path>
            <path d="M10.4904149,8 L4.50958505,8 C4.22795438,8 4,7.776 4,7.5 C4,7.224 4.22795438,7 4.50958505,7 L10.4904149,7 C10.7720456,7 11,7.224 11,7.5 C11,7.776 10.7720456,8 10.4904149,8" id="Fill-6" fill="#4E2A81"></path>
        </g>
    </g>
</svg>