<?xml version="1.0" encoding="UTF-8"?>
<svg width="126px" height="126px" viewBox="0 0 126 126" version="1.1" xmlns="http://www.w3.org/2000/svg" xmlns:xlink="http://www.w3.org/1999/xlink">
    <!-- Generator: Sketch 50.2 (55047) - http://www.bohemiancoding.com/sketch -->
    <title>Artboard</title>
    <desc>Created with Sketch.</desc>
    <defs></defs>
    <g id="Artboard" stroke="none" stroke-width="1" fill="none" fill-rule="evenodd" stroke-linecap="round">
        <g id="Glyphs/Touch-ID" transform="translate(3.000000, 3.000000)" stroke-width="2.5">
            <g id="Touch-ID" transform="translate(0.000000, 0.710526)">
                <path d="M118.807291,48.0134856 C112.258494,15.6225261 80.6236844,-5.33893373 48.1455608,1.19201726 M39.4418504,3.62650777 C12.0140061,13.5651346 -4.74796153,42.2681696 1.19525489,71.6638712 M120,57.8732757 C119.88877,54.6106389 119.507792,51.313396 118.839526,48.0074943 M1.22766935,71.6579694 C1.40162247,72.5168697 1.59261224,73.367722 1.80153532,74.2105263" id="Stroke-1" stroke="#4E2683"></path>
                <path d="M44.2105263,118.421053 C46.5995007,115.762708 48.7726582,112.928337 50.7104831,109.946596 M53.4250798,105.391303 C60.7335006,91.9639664 63.507133,76.0731072 60.1922754,60" id="Stroke-7" stroke="#4E2683"></path>
                <path d="M52.2046656,118.421053 C58.3336524,110.543428 62.8679231,101.450992 65.4449433,91.6902929 M66.8722428,85.0709757 C68.335235,76.3696753 68.2648188,67.2572221 66.4243939,58.0903079 C65.6376674,54.0506883 61.7274075,51.4404385 57.7126329,52.2536777 C53.6987403,53.0669169 51.1004262,56.9944725 51.9100841,61.027448 C55.9711627,80.9885729 49.4833152,100.636539 36.3157895,114.199384" id="Stroke-9" stroke="#A68CCC"></path>
                <path d="M62.7135432,118.421053 C65.3835807,114.615336 67.7248319,110.591376 69.7070315,106.393444 M71.6695831,101.887354 C77.2952848,87.8150783 78.9889702,72.0587307 75.7009917,56.1536787 C74.0536256,48.0949373 66.0119139,42.8828844 57.7559809,44.5069653 M52.5123613,46.5782529 C47.3909733,49.7963809 44.5446751,55.8504347 45.8219006,62.0271641 C48.5362311,74.9159084 46.0582882,87.6593014 39.8146017,98.2285744 M37.1952022,102.23103 C35.0916411,105.14475 32.6817746,107.850398 30,110.297543" id="Stroke-11" stroke="#4E2683"></path>
                <path d="M71.4246468,118.421053 C82.1266585,100.195245 86.4184724,78.1231111 81.908694,55.7808968 L81.9193481,55.7764619 C79.4844495,43.7132893 67.7232459,35.90622 55.6486352,38.3387226 C43.5735804,40.7712251 35.7588213,52.5208555 38.1941638,64.5844716 L38.2350044,64.5773759 C41.5279993,80.8944345 35.4414189,96.9245597 23.6842105,107.097166" id="Stroke-13" stroke="#4E2683"></path>
                <path d="M81.6831224,115.263158 C90.7772836,96.8652665 94.0470336,75.4897099 89.6261981,53.8808636 C86.3348061,37.7692112 70.4157408,27.3449391 54.0724014,30.592776 C37.7281604,33.8410572 27.1506184,49.5305664 30.4460683,65.6391083 C33.3424933,79.6164934 27.8377529,93.3450362 17.3684211,101.796344" id="Stroke-15" stroke="#4E2683"></path>
                <path d="M12.6315789,96.5092048 C20.4233562,90.2830376 24.8613805,80.4060695 23.8103239,70.0512104 M22.784138,63.5335089 C20.7844144,44.4954267 33.6386849,26.7140798 52.885955,22.8537151 C64.6870851,20.4867472 76.3112133,23.8710512 84.8236064,31.0669352 M89.1029925,35.3145317 C93.1328539,40.0124698 96.0522433,45.7665637 97.3667066,52.2500073 C99.2615518,61.5925078 99.8468605,70.8945902 99.2492504,79.9691266 M98.8046765,84.9131774 C97.7948355,93.7644663 95.6595089,102.361806 92.5197345,110.526316" id="Stroke-17" stroke="#4E2683"></path>
                <path d="M102.015015,101.052632 C105.186362,89.2035594 106.435814,76.701551 105.471184,63.9741506 M104.75359,57.2287125 C104.430756,54.8737713 104.03116,52.5137454 103.552978,50.1513013 C98.6367817,25.9047335 74.9291343,10.2144394 50.5899996,15.1026553 M43.2742684,17.2206746 C23.1913465,24.9205161 11.0091307,46.1345525 15.4054055,67.8540751 C17.1086299,76.1498106 13.9525368,84.3023393 7.89473684,89.4154033" id="Stroke-19" stroke="#4E2683"></path>
                <path d="M112.770864,88.4210526 C113.480005,82.73295 113.783466,76.9498225 113.655757,71.1084181 M113.225318,63.2610585 C112.836388,58.8363616 112.197385,54.3879947 111.297481,49.931568 C109.877221,42.9162272 107.115515,36.5132252 103.333056,30.9354793 M98.3710358,24.70179 C86.354798,11.76486 68.0834874,5.19591553 49.4964947,8.93832768 C31.9961897,12.4619932 18.3008326,24.303117 11.7060469,39.5087223 M9.02609011,47.3280803 C7.12982808,54.7249242 6.83073055,62.6529309 8.44336924,70.6393321 C9.4544439,75.5560338 7.91207347,80.3971351 4.73684211,83.8179356" id="Stroke-21" stroke="#A68CCC"></path>
            </g>
        </g>
    </g>
</svg>