<?xml version="1.0" encoding="UTF-8"?>
<svg width="21px" height="22px" viewBox="0 0 21 22" version="1.1" xmlns="http://www.w3.org/2000/svg" xmlns:xlink="http://www.w3.org/1999/xlink">
    <!-- Generator: Sketch 51.2 (57519) - http://www.bohemiancoding.com/sketch -->
    <title>Fitsense</title>
    <desc>Created with Sketch.</desc>
    <defs></defs>
    <g id="Symbols" stroke="none" stroke-width="1" fill="none" fill-rule="evenodd">
        <g id="Navigation/fitness" transform="translate(-177.000000, -11.000000)" fill="#4E2A81">
            <g id="fitness" transform="translate(177.000000, 11.000000)">
                <path d="M9.35831228,6.91509857 C10.7194506,7.48617446 12.4451795,8.16707263 14.535499,8.95779309 C16.8202668,7.42028109 18.2300172,6.45384497 18.7647501,6.05848474 C19.5668495,5.46544439 20.7335394,6.98099194 20.1501944,7.50813892 C19.5668495,8.03528589 15.8421944,11.066381 15.3375983,11.4617412 C14.8330023,11.8571015 14.1709084,11.9888882 13.2958909,11.6594213 C12.4208734,11.3299545 9.35831228,10.012087 8.41037669,9.55083344 C7.46244109,9.08957984 7.53535922,8.16707263 7.75411358,7.63992566 C7.97286795,7.11277868 8.7749673,6.65152508 9.35831228,6.91509857 Z M6.76923077,5.92307692 C6.41476385,7.02504472 6.23753038,7.7137746 6.41476385,8.67799642 C5.56404323,8.67799642 4.6187981,8.67799642 3.57902846,8.67799642 C3.76807748,9.27489565 3.98075764,9.84883721 4.21706892,10.3998211 C4.57153584,11.226297 4.2879623,11.8461538 3.93349538,11.8461538 C3.57902846,11.8461538 2.87009461,11.7084079 2.30294753,10.950805 C1.73580045,10.1932021 0.743293065,8.8157424 0.247039372,8.19588551 C-0.249214322,7.57602862 -0.0365341673,6.74955277 1.23954676,6.54293381 C2.51562768,6.33631485 4.85510938,6.0608229 6.76923077,5.92307692 Z M5.44218016,10.1538462 C9.00704186,11.5321176 11.1366995,12.3935373 11.8311531,12.7381051 C12.8728334,13.2549569 13.0811695,14.8793483 11.8311531,15.3223641 C10.9978088,15.617708 9.09963567,16.1591718 6.13663374,16.9467554 C4.37735134,19.5556264 3.28937407,21.1307938 2.87270193,21.6722575 C2.24769371,22.4844532 0.442114407,21.6722575 0.928231911,20.490882 C1.25231025,19.7032983 2.75695966,16.2576197 5.44218016,10.1538462 Z M9.73076923,5.92307692 C8.0951567,5.92307692 6.76923077,4.59715099 6.76923077,2.96153846 C6.76923077,1.32592593 8.0951567,-2.09610107e-13 9.73076923,-2.09610107e-13 C11.3663818,-2.09610107e-13 12.6923077,1.32592593 12.6923077,2.96153846 C12.6923077,4.59715099 11.3663818,5.92307692 9.73076923,5.92307692 Z" id="Fitsense"></path>
            </g>
        </g>
    </g>
</svg>