<?xml version="1.0" encoding="utf-8"?>
<!-- Generator: Adobe Illustrator 22.0.1, SVG Export Plug-In . SVG Version: 6.00 Build 0)  -->
<svg version="1.1" id="Layer_1" xmlns="http://www.w3.org/2000/svg" xmlns:xlink="http://www.w3.org/1999/xlink" x="0px" y="0px"
	 viewBox="0 0 40 40" style="enable-background:new 0 0 40 40;" xml:space="preserve">
<style type="text/css">
	.st0{fill:url(#SVGID_1_);}
	.st1{fill:url(#SVGID_2_);}
	.st2{fill:url(#SVGID_3_);}
	.st3{fill:url(#SVGID_4_);enable-background:new    ;}
	.st4{enable-background:new    ;}
	.st5{fill:url(#SVGID_5_);enable-background:new    ;}
	.st6{fill:url(#SVGID_6_);enable-background:new    ;}
	.st7{fill:#6C301E;}
	.st8{fill:url(#SVGID_7_);}
	.st9{fill:url(#SVGID_8_);}
	.st10{fill:url(#SVGID_9_);}
	.st11{fill:url(#SVGID_10_);enable-background:new    ;}
	.st12{fill:url(#SVGID_11_);enable-background:new    ;}
	.st13{fill:url(#SVGID_12_);enable-background:new    ;}
	.st14{fill:#A38029;}
	.st15{fill:url(#SVGID_13_);}
	.st16{fill:url(#SVGID_14_);}
	.st17{fill:url(#SVGID_15_);}
	.st18{fill:url(#SVGID_16_);enable-background:new    ;}
	.st19{fill:url(#SVGID_17_);enable-background:new    ;}
	.st20{fill:url(#SVGID_18_);enable-background:new    ;}
	.st21{fill:#5A5A5A;}
</style>
<g>
	<g>
		<g>
			<linearGradient id="SVGID_1_" gradientUnits="userSpaceOnUse" x1="5" y1="19.8851" x2="35" y2="19.8851">
				<stop  offset="0" style="stop-color:#E9C89C"/>
				<stop  offset="7.172941e-02" style="stop-color:#E7C598"/>
				<stop  offset="0.1477" style="stop-color:#E2BA8B"/>
				<stop  offset="0.2255" style="stop-color:#D9AA76"/>
				<stop  offset="0.3047" style="stop-color:#CC9258"/>
				<stop  offset="0.3843" style="stop-color:#BC7432"/>
				<stop  offset="0.3983" style="stop-color:#B96E2B"/>
				<stop  offset="0.6619" style="stop-color:#6C301E"/>
			</linearGradient>
			<path class="st0" d="M27.2,5.9C22.5,4.2,20,1.6,20,1.6s-2.5,2.5-7.2,4.2C8.2,7.5,5,7.3,5,7.3s0,12.4,0,15.3
				c0,2.9,1.5,6.7,5.1,9.6c3.6,3,9.3,5.9,9.9,5.9c0.7,0,6.3-3,9.9-5.9c3.6-3,5.1-6.8,5.1-9.6c0-2.9,0-15.3,0-15.3S31.8,7.5,27.2,5.9
				z"/>
			<linearGradient id="SVGID_2_" gradientUnits="userSpaceOnUse" x1="20.1196" y1="19.9334" x2="35" y2="19.9334">
				<stop  offset="0" style="stop-color:#6C301E"/>
				<stop  offset="0.1077" style="stop-color:#72351F"/>
				<stop  offset="0.2549" style="stop-color:#844322"/>
				<stop  offset="0.424" style="stop-color:#A05A27"/>
				<stop  offset="0.5436" style="stop-color:#B96E2B"/>
				<stop  offset="1" style="stop-color:#BD8648"/>
			</linearGradient>
			<path class="st1" d="M27.2,5.9c-4.1-1.5-6.5-3.6-7-4.1v36.4c1-0.2,6.3-3.1,9.8-5.9c3.6-3,5.1-6.8,5.1-9.6c0-2.9,0-15.3,0-15.3
				S31.8,7.5,27.2,5.9z"/>
			<linearGradient id="SVGID_3_" gradientUnits="userSpaceOnUse" x1="6.6578" y1="19.8216" x2="33.3423" y2="19.8216">
				<stop  offset="0" style="stop-color:#B96E2B"/>
				<stop  offset="0.298" style="stop-color:#E9C89C"/>
				<stop  offset="0.5165" style="stop-color:#6C301E"/>
				<stop  offset="0.5551" style="stop-color:#7B3C21"/>
				<stop  offset="0.678" style="stop-color:#A86028"/>
				<stop  offset="0.7401" style="stop-color:#B96E2B"/>
				<stop  offset="1" style="stop-color:#E9C89C"/>
			</linearGradient>
			<path class="st2" d="M20,36c-0.7,0-5.8-2.7-8.8-5.2c-3.3-2.8-4.5-6.3-4.5-8.6V8.7l0.3,0c0,0,2.7,0.2,6.7-1.3
				c4-1.4,6.1-3.6,6.1-3.6L20,3.6l0.2,0.2c0,0,2.2,2.2,6.1,3.6c4,1.4,6.7,1.3,6.7,1.3l0.3,0v13.6c0,2.3-1.2,5.8-4.5,8.6
				C25.8,33.3,20.7,36,20,36z M7.1,9.3v12.8c0,2.2,1.2,5.6,4.4,8.3c3.1,2.5,7.9,5.1,8.5,5.2c0.6,0,5.4-2.6,8.5-5.2
				c3.2-2.7,4.4-6,4.4-8.3V9.3c-0.8,0-3.3-0.1-6.7-1.3c-3.5-1.2-5.6-3-6.2-3.6C19.4,5,17.3,6.8,13.8,8C10.4,9.2,7.9,9.3,7.1,9.3z"/>
			<linearGradient id="SVGID_4_" gradientUnits="userSpaceOnUse" x1="8.0971" y1="19.8851" x2="31.9029" y2="19.8851">
				<stop  offset="0" style="stop-color:#E9C89C"/>
				<stop  offset="1" style="stop-color:#B96E2B"/>
			</linearGradient>
			<path class="st3" d="M25.7,8.7C22,7.4,20,5.4,20,5.4s-2,2-5.7,3.4c-3.7,1.3-6.2,1.2-6.2,1.2s0,9.8,0,12.1c0,2.3,1.2,5.3,4,7.6
				c2.9,2.4,7.3,4.7,7.9,4.7c0.5,0,5-2.3,7.9-4.7c2.9-2.4,4-5.4,4-7.6c0-2.3,0-12.1,0-12.1S29.4,10.1,25.7,8.7z"/>
		</g>
		<g class="st4">
			<linearGradient id="SVGID_5_" gradientUnits="userSpaceOnUse" x1="9.0352" y1="20.2344" x2="33.6958" y2="20.2344">
				<stop  offset="0" style="stop-color:#E9C89C"/>
				<stop  offset="1" style="stop-color:#BD8648"/>
			</linearGradient>
			<path class="st5" d="M14.5,19.9c0-4.5,0.5-8.5,1.3-11.7c-0.4,0.2-0.9,0.4-1.4,0.6c-3.7,1.3-6.2,1.2-6.2,1.2s0,9.8,0,12.1
				c0,2.3,1.2,5.3,4,7.6c1.1,0.9,2.5,1.9,3.8,2.6C15,29,14.5,24.7,14.5,19.9z"/>
			<linearGradient id="SVGID_6_" gradientUnits="userSpaceOnUse" x1="9.0352" y1="20.2473" x2="33.6958" y2="20.2473">
				<stop  offset="0" style="stop-color:#E9C89C"/>
				<stop  offset="1" style="stop-color:#BD8648"/>
			</linearGradient>
			<path class="st6" d="M25.7,8.7c-0.6-0.2-1.1-0.4-1.6-0.7c0.8,3.2,1.3,7.3,1.3,11.8c0,4.8-0.6,9.2-1.5,12.5
				c1.3-0.8,2.8-1.8,3.9-2.7c2.9-2.4,4-5.4,4-7.6c0-2.3,0-12.1,0-12.1S29.4,10.1,25.7,8.7z"/>
		</g>
	</g>
	<path id="Combined-Shape" class="st7" d="M21,15.5c-1.3,0-2.4-1.1-2.4-2.4s1.1-2.4,2.4-2.4c1.3,0,2.4,1.1,2.4,2.4
		S22.3,15.5,21,15.5z M29,16.2c0.4,0.4,0.3,1-0.1,1.4l-3.5,3c-0.1,0.1-0.2,0.1-0.3,0.2c-0.3,0.2-0.7,0.2-1,0.1l-4.3-2.4
		c-0.4-0.3-0.6-0.8-0.3-1.2l0.2-0.3c0.2-0.4,0.8-0.6,1.2-0.3l3.8,2.1l3-2.6C28,15.8,28.7,15.8,29,16.2z M15.9,21
		c-0.5,0.3-1.3-0.4-1.9-1.1c-0.5-0.7-1.9-2.3-1.5-3c0.4-0.6,5.4-1,5.4-1l-0.1,2.4l-2.5,0.1c0,0,0.3,0.7,0.5,1.3
		C16,20.1,16.4,20.7,15.9,21z M21.1,21.1c1.3,0.5,2.4,1.1,2.3,1.6c0,0.5-0.7,0.9-1.5,1.1c-0.8,0.2-4,1.1-4,1.1s-1.2,1.4-1.8,2.2
		c-0.6,0.9-1.7,2-2.2,1.7c-0.6-0.3-0.6-1.1,0-2.2c0.6-1.1,3.3-7,3.3-7S19.8,20.6,21.1,21.1z"/>
</g>
</svg>
