<svg id="Layer_1" data-name="Layer 1" xmlns="http://www.w3.org/2000/svg" xmlns:xlink="http://www.w3.org/1999/xlink" viewBox="0 0 40 40"><defs><style>.cls-1{fill:url(#linear-gradient);}.cls-2{fill:url(#linear-gradient-2);}.cls-3{fill:url(#linear-gradient-3);}.cls-4,.cls-5,.cls-6,.cls-7{isolation:isolate;}.cls-4{fill:url(#linear-gradient-4);}.cls-6{fill:url(#linear-gradient-5);}.cls-7{fill:url(#linear-gradient-6);}.cls-8{fill:#5a5a5a;}</style><linearGradient id="linear-gradient" x1="5" y1="19.89" x2="35" y2="19.89" gradientUnits="userSpaceOnUse"><stop offset="0" stop-color="#f5f5f5"/><stop offset="0.06" stop-color="#f1f1f1"/><stop offset="0.13" stop-color="#e4e4e4"/><stop offset="0.2" stop-color="#cfcfcf"/><stop offset="0.27" stop-color="#b1b1b1"/><stop offset="0.34" stop-color="#8b8b8b"/><stop offset="0.4" stop-color="#696969"/><stop offset="0.66"/></linearGradient><linearGradient id="linear-gradient-2" x1="20.12" y1="19.93" x2="35" y2="19.93" gradientUnits="userSpaceOnUse"><stop offset="0"/><stop offset="0.27" stop-color="#4e4e4e"/><stop offset="0.54" stop-color="#a1a1a1"/><stop offset="1" stop-color="#ababab"/></linearGradient><linearGradient id="linear-gradient-3" x1="6.66" y1="19.82" x2="33.34" y2="19.82" gradientUnits="userSpaceOnUse"><stop offset="0" stop-color="#545454"/><stop offset="0.3" stop-color="#f2f2f2"/><stop offset="0.52" stop-color="#454545"/><stop offset="0.59" stop-color="#626262"/><stop offset="0.79" stop-color="#aaa"/><stop offset="0.93" stop-color="#d7d7d7"/><stop offset="1" stop-color="#e8e8e8"/></linearGradient><linearGradient id="linear-gradient-4" x1="8.1" y1="19.89" x2="31.9" y2="19.89" gradientUnits="userSpaceOnUse"><stop offset="0" stop-color="#e3e3e3"/><stop offset="1" stop-color="#a6a6a6"/></linearGradient><linearGradient id="linear-gradient-5" x1="10.06" y1="20.23" x2="32.84" y2="20.23" gradientUnits="userSpaceOnUse"><stop offset="0" stop-color="#e3e3e3"/><stop offset="1" stop-color="#bfbfbf"/></linearGradient><linearGradient id="linear-gradient-6" x1="10.06" y1="20.25" x2="32.84" y2="20.25" xlink:href="#linear-gradient-5"/></defs><title>Fitsense-bages</title><path class="cls-1" d="M27.17,5.85A20.34,20.34,0,0,1,20,1.63a20.34,20.34,0,0,1-7.17,4.22A21.16,21.16,0,0,1,5,7.31V22.57a13,13,0,0,0,5.1,9.63c3.59,3,9.25,5.94,9.9,5.94s6.31-3,9.9-5.94A13,13,0,0,0,35,22.57V7.31A21.16,21.16,0,0,1,27.17,5.85Z"/><path class="cls-2" d="M27.17,5.85a20.91,20.91,0,0,1-7-4.1V38.12A42,42,0,0,0,29.9,32.2,13,13,0,0,0,35,22.57V7.31A21.16,21.16,0,0,1,27.17,5.85Z"/><path class="cls-3" d="M20,36.05c-.74,0-5.79-2.74-8.81-5.24a11.7,11.7,0,0,1-4.53-8.59V8.65l.3,0a18.65,18.65,0,0,0,6.7-1.25,17.5,17.5,0,0,0,6.13-3.61L20,3.6l.21.21a17.5,17.5,0,0,0,6.13,3.61A18.43,18.43,0,0,0,33,8.67l.3,0V22.22a11.7,11.7,0,0,1-4.53,8.59C25.79,33.31,20.74,36.05,20,36.05ZM7.1,9.32V22.09a11.25,11.25,0,0,0,4.38,8.26c3.08,2.55,8,5.11,8.53,5.15a36.66,36.66,0,0,0,8.51-5.15,11.25,11.25,0,0,0,4.38-8.26V9.32A19.81,19.81,0,0,1,26.2,8,18.78,18.78,0,0,1,20,4.43,18.78,18.78,0,0,1,13.8,8,19.81,19.81,0,0,1,7.1,9.32Z"/><path class="cls-4" d="M25.69,8.75A16,16,0,0,1,20,5.4a16,16,0,0,1-5.69,3.35A16.89,16.89,0,0,1,8.1,9.91V22a10.38,10.38,0,0,0,4,7.64C15,32,19.48,34.37,20,34.37s5-2.35,7.86-4.71a10.38,10.38,0,0,0,4-7.64V9.91A16.89,16.89,0,0,1,25.69,8.75Z"/><g class="cls-5"><path class="cls-6" d="M14.47,19.89A49.37,49.37,0,0,1,15.75,8.17c-.45.2-.92.4-1.44.58A16.89,16.89,0,0,1,8.1,9.91V22a10.38,10.38,0,0,0,4,7.64,33.19,33.19,0,0,0,3.79,2.64A48.32,48.32,0,0,1,14.47,19.89Z"/><path class="cls-7" d="M25.69,8.75c-.57-.2-1.1-.43-1.58-.65A49.82,49.82,0,0,1,25.4,19.89,48,48,0,0,1,23.91,32.4a33.77,33.77,0,0,0,3.95-2.74,10.38,10.38,0,0,0,4-7.64V9.91A16.89,16.89,0,0,1,25.69,8.75Z"/></g><path id="Combined-Shape" class="cls-8" d="M21,15.53a2.41,2.41,0,1,1,2.4-2.4A2.41,2.41,0,0,1,21,15.53Zm8,.69a1,1,0,0,1-.1,1.39l-3.54,3.05a1,1,0,0,1-.32.18.89.89,0,0,1-1,.06l-4.32-2.37a.92.92,0,0,1-.33-1.25l.19-.33a.91.91,0,0,1,1.24-.34l3.79,2.09,3-2.59A1,1,0,0,1,29,16.22ZM15.88,21c-.54.29-1.34-.44-1.86-1.09s-1.95-2.32-1.5-3,5.41-1,5.41-1l-.13,2.4-2.45.06a10.74,10.74,0,0,1,.54,1.28C16.05,20.08,16.43,20.68,15.88,21Zm5.21.09c1.34.46,2.36,1.13,2.33,1.64s-.66.87-1.51,1.11l-4,1.11s-1.21,1.37-1.79,2.23-1.65,2-2.22,1.73-.61-1.12,0-2.22,3.3-7,3.3-7S19.76,20.59,21.09,21.05Z"/></svg>