<?xml version="1.0" encoding="UTF-8"?>
<svg width="56px" height="56px" viewBox="0 0 56 56" version="1.1" xmlns="http://www.w3.org/2000/svg" xmlns:xlink="http://www.w3.org/1999/xlink">
    <!-- Generator: Sketch 50.2 (55047) - http://www.bohemiancoding.com/sketch -->
    <title>Fitsense</title>
    <desc>Created with Sketch.</desc>
    <defs></defs>
    <g id="Fitsense" stroke="none" stroke-width="1" fill="none" fill-rule="evenodd">
        <g id="Group" transform="translate(8.000000, 6.000000)" fill="#4E2683">
            <path d="M20.5454545,11.2727273 C23.6584056,11.2727273 26.1818182,8.74931466 26.1818182,5.63636364 C26.1818182,2.52341262 23.6584056,0 20.5454545,0 C17.4325035,0 14.9090909,2.52341262 14.9090909,5.63636364 C14.9090909,8.74931466 17.4325035,11.2727273 20.5454545,11.2727273" id="Fill-1"></path>
            <path d="M39.7978496,12.8274733 C38.9513679,11.835729 37.4494413,11.7186618 36.4603546,12.567264 L29.2231958,18.7756015 L20.1032924,13.7730021 C19.0616481,13.170223 17.7173942,13.531315 17.1161213,14.5755688 L16.6549422,15.3761573 C16.0534899,16.4202312 16.413859,17.7680324 17.4553239,18.3708115 L27.8482684,24.071678 C28.6274836,24.5226834 29.5756723,24.4340288 30.2558713,23.9238604 C30.5231435,23.8298111 30.7782181,23.6881076 31.0054892,23.4931754 L39.5382906,16.1733291 C40.5273773,15.3247268 40.6443313,13.8192176 39.7978496,12.8274733" id="Fill-3"></path>
            <path d="M8.22029628,24.2154579 C9.52081712,23.5528069 8.6085194,22.1586556 8.24015968,21.0624896 C7.76130979,19.6376182 6.94265383,18.080831 6.94265383,18.080831 L12.7943769,17.9575892 L13.0909091,12.3636364 C13.0909091,12.3636364 1.26739585,13.2671692 0.203284976,14.7729972 C-0.860825896,16.2788251 2.53865363,20.1372719 3.78525952,21.6644232 C5.03186541,23.1917551 6.91977544,24.8781089 8.22029628,24.2154579" id="Fill-6"></path>
            <path d="M21.5751353,25.1684254 C18.3065867,24.0637785 12.0821993,21.8181818 12.0821993,21.8181818 C12.0821993,21.8181818 5.47844122,35.9546932 3.99275374,38.5695785 C2.5068856,41.1844638 2.58944387,43.1455384 3.99275374,43.8808966 C5.39606361,44.6166125 8.03738617,41.7858767 9.4408767,39.7284115 C10.8441866,37.6707675 13.8157422,34.4020715 13.8157422,34.4020715 C13.8157422,34.4020715 21.5196749,32.3068727 23.5834509,31.7347883 C25.6470463,31.1628828 27.1881941,30.3164697 27.2707524,29.0907534 C27.3533107,27.865037 24.8375417,26.2709263 21.5751353,25.1684254" id="Fill-9"></path>
        </g>
    </g>
</svg>