<?xml version="1.0" encoding="UTF-8"?>
<svg width="24px" height="22px" viewBox="0 0 24 22" version="1.1" xmlns="http://www.w3.org/2000/svg" xmlns:xlink="http://www.w3.org/1999/xlink">
    <!-- Generator: Sketch 51.2 (57519) - http://www.bohemiancoding.com/sketch -->
    <title>Home</title>
    <desc>Created with Sketch.</desc>
    <defs></defs>
    <g id="Symbols" stroke="none" stroke-width="1" fill="none" fill-rule="evenodd">
        <g id="Navigation/home" transform="translate(-28.000000, -11.000000)" fill="#4E2A81">
            <path d="M51.6493725,21.1738144 L40.5398184,11.1896982 C40.391691,11.0624007 40.2111608,11 39.9959131,11 C39.7667786,11.0199682 39.5955063,11.0773769 39.4473789,11.1996823 L28.3609697,21.1638303 C27.9721353,21.4758339 27.8818702,22.0798729 28.1665525,22.4992058 C28.300793,22.7038802 28.4998392,22.8411618 28.7336027,22.8810983 C28.76832,22.8935784 28.8099809,22.9035625 28.8516417,22.9035625 L31.4971043,22.9085546 L31.4971043,32.0365328 C31.4971043,32.5656909 31.8975111,33 32.3904976,33 L37.4083128,33 C37.8758399,33 38.2646743,32.6056274 38.2947627,32.1189017 C38.2993917,32.0839573 38.3017062,32.0490129 38.3017062,32.0365328 L38.3017062,26.5028364 C38.3109641,26.4778761 38.3155931,26.4479238 38.3179076,26.4254595 C38.3711409,25.7665078 38.7437738,25.1849331 39.296937,24.9128659 C39.315453,24.9128659 39.3339689,24.9028818 39.3547993,24.8978897 C39.7552061,24.7081915 40.2389346,24.7031995 40.6555429,24.8978897 C40.6671154,24.9028818 40.6856313,24.9128659 40.7041472,24.9128659 C41.2573104,25.1849331 41.6322579,25.7665078 41.6808622,26.4204674 C41.6831767,26.4529158 41.6878057,26.4828682 41.7016926,26.5128205 L41.7016926,32.0365328 C41.7016926,32.0415248 41.7040071,32.1039256 41.7040071,32.1089176 C41.7387244,32.6056274 42.1275588,33 42.5927714,33 L47.6105867,33 C48.1035731,33 48.50398,32.5656909 48.50398,32.0365328 L48.50398,22.9085546 L51.1494426,22.9035625 C51.1887889,22.9035625 51.2211918,22.8935784 51.2582236,22.8810983 C51.4943016,22.8411618 51.6956623,22.7088722 51.8299027,22.5091899 C52.1145851,22.084865 52.0335779,21.485818 51.6493725,21.1738144" id="Home"></path>
        </g>
    </g>
</svg>