<?xml version="1.0" encoding="UTF-8"?>
<svg width="40px" height="40px" viewBox="0 0 40 40" version="1.1" xmlns="http://www.w3.org/2000/svg" xmlns:xlink="http://www.w3.org/1999/xlink">
    <!-- Generator: Sketch 50.2 (55047) - http://www.bohemiancoding.com/sketch -->
    <title>footer Dashboard Copy 2</title>
    <desc>Created with Sketch.</desc>
    <defs></defs>
    <g id="footer-Dashboard-Copy-2" stroke="none" stroke-width="1" fill="none" fill-rule="evenodd">
        <path d="M30.663982,19.2489222 L20.017326,10.1724529 C19.8753706,10.0567279 19.7023624,10 19.4960834,10 C19.2764962,10.0181529 19.1123602,10.0703426 18.9704048,10.1815294 L8.34592933,19.2398457 C7.97329637,19.5234854 7.88679229,20.0726118 8.15961285,20.4538235 C8.28825994,20.6398911 8.47901253,20.7646925 8.70303591,20.8009984 C8.73630671,20.812344 8.77623167,20.8214205 8.81615663,20.8214205 L11.3513916,20.8259587 L11.3513916,29.1241207 C11.3513916,29.6051736 11.7351148,30 12.2075602,30 L17.0162998,30 C17.4643466,30 17.8369795,29.6414795 17.8658142,29.1990016 C17.8702503,29.1672339 17.8724684,29.1354663 17.8724684,29.1241207 L17.8724684,24.0934876 C17.8813406,24.0707965 17.8857767,24.0435671 17.8879948,24.023145 C17.93901,23.424098 18.2961166,22.8953937 18.8262313,22.6480599 C18.8439758,22.6480599 18.8617202,22.6389834 18.8816827,22.6344452 C19.2654059,22.4619923 19.728979,22.4574541 20.1282286,22.6344452 C20.1393189,22.6389834 20.1570633,22.6480599 20.1748078,22.6480599 C20.7049225,22.8953937 21.0642471,23.424098 21.1108263,24.0186068 C21.1130443,24.0481053 21.1174804,24.0753347 21.1307887,24.1025641 L21.1307887,29.1241207 C21.1307887,29.128659 21.1330068,29.1853869 21.1330068,29.1899251 C21.1662776,29.6414795 21.5389106,30 21.9847393,30 L26.7934789,30 C27.2659243,30 27.6496475,29.6051736 27.6496475,29.1241207 L27.6496475,20.8259587 L30.1848824,20.8214205 C30.2225894,20.8214205 30.2536421,20.812344 30.289131,20.8009984 C30.5153724,20.7646925 30.708343,20.6444293 30.8369901,20.4628999 C31.1098107,20.07715 31.0321788,19.5325618 30.663982,19.2489222" id="Fill-1" fill="#4E2683"></path>
    </g>
</svg>