<?xml version="1.0" encoding="UTF-8"?>
<svg width="60px" height="56px" viewBox="0 0 60 56" version="1.1" xmlns="http://www.w3.org/2000/svg" xmlns:xlink="http://www.w3.org/1999/xlink">
    <!-- Generator: Sketch 50.2 (55047) - http://www.bohemiancoding.com/sketch -->
    <title>Icons/Hospital</title>
    <desc>Created with Sketch.</desc>
    <defs>
        <path d="M48.8307514,42.9228782 C48.8307514,48.9315484 43.7922164,53.8204144 37.5984906,53.8204144 C31.4057559,53.8204144 26.3672209,48.9315484 26.3672209,42.9228782 C26.3672209,36.9137272 31.4057559,32.025342 37.5984906,32.025342 C43.7922164,32.025342 48.8307514,36.9137272 48.8307514,42.9228782 Z M23.2698624,42.9228782 C23.2698624,50.5888971 29.6975007,56.8254708 37.5984906,56.8254708 C45.499976,56.8254708 51.9281099,50.5888971 51.9281099,42.9228782 C51.9281099,35.2573401 45.499976,29.0202856 37.5984906,29.0202856 C29.6975007,29.0202856 23.2698624,35.2573401 23.2698624,42.9228782 Z M36.0498113,37.5551264 L36.0498113,41.42035 L32.0232453,41.42035 C31.1678788,41.42035 30.474566,42.0930018 30.474566,42.9228782 C30.474566,43.7527546 31.1678788,44.4254064 32.0232453,44.4254064 L36.0498113,44.4254064 L36.0498113,48.29063 C36.0498113,49.1205064 36.743124,49.7931582 37.5984906,49.7931582 C38.4543527,49.7931582 39.1471698,49.1205064 39.1471698,48.29063 L39.1471698,44.4254064 L43.1737358,44.4254064 C44.0295979,44.4254064 44.7224151,43.7527546 44.7224151,42.9228782 C44.7224151,42.0930018 44.0295979,41.42035 43.1737358,41.42035 L39.1471698,41.42035 L39.1471698,37.5551264 C39.1471698,36.72525 38.4543527,36.0525982 37.5984906,36.0525982 C36.743124,36.0525982 36.0498113,36.72525 36.0498113,37.5551264 Z M46.4326526,20.4565963 L28.7653197,20.4565963 L28.7653197,17.8333024 C28.7653197,15.6662962 30.5821063,13.9031695 32.8156735,13.9031695 L42.3813077,13.9031695 C44.6153704,13.9031695 46.4326526,15.6662962 46.4326526,17.8333024 L46.4326526,20.4565963 Z M61.8520465,20.4565963 L49.530011,20.4565963 L49.530011,17.8333024 C49.530011,14.0094283 46.32313,10.8981132 42.3813077,10.8981132 L32.8156735,10.8981132 C28.8738512,10.8981132 25.6679612,14.0094283 25.6679612,17.8333024 L25.6679612,20.4565963 L13.3454302,20.4565963 C10.4938781,20.4565963 8.17358491,22.7077441 8.17358491,25.4743192 L8.17358491,60.3709564 C8.17358491,63.1375315 10.4938781,65.3886792 13.3454302,65.3886792 L61.2325748,65.3886792 C62.0884369,65.3886792 62.781254,64.7160274 62.781254,63.8861511 C62.781254,63.0562747 62.0884369,62.3836229 61.2325748,62.3836229 L13.3454302,62.3836229 C12.2016377,62.3836229 11.2709434,61.4811444 11.2709434,60.3709564 L11.2709434,25.4743192 C11.2709434,24.364612 12.2016377,23.4616527 13.3454302,23.4616527 L61.8520465,23.4616527 C62.995839,23.4616527 63.9260377,24.364612 63.9260377,25.4743192 L63.9260377,59.7699451 C63.9260377,60.5998215 64.6193505,61.2724733 65.474717,61.2724733 C66.3305791,61.2724733 67.0233962,60.5998215 67.0233962,59.7699451 L67.0233962,25.4743192 C67.0233962,22.7077441 64.7035986,20.4565963 61.8520465,20.4565963 Z" id="path-1"></path>
    </defs>
    <g id="Page-1" stroke="none" stroke-width="1" fill="none" fill-rule="evenodd">
        <g id="Policy-Dashboard" transform="translate(-74.000000, -228.000000)">
            <g id="Icons/Hospital" transform="translate(66.000000, 218.000000)">
                <mask id="mask-2" fill="white">
                    <use xlink:href="#path-1"></use>
                </mask>
                <use id="Mask" fill="#A1A1A1" fill-rule="evenodd" xlink:href="#path-1"></use>
                <g id="Fill/Primary/SCB-Purple" mask="url(#mask-2)" fill="#4E2683" fill-rule="evenodd">
                    <rect id="SCB-Purple" x="0" y="0" width="75.9025641" height="75.9025641"></rect>
                </g>
            </g>
        </g>
    </g>
</svg>