<?xml version="1.0" encoding="UTF-8"?>
<svg width="35px" height="27px" viewBox="0 0 35 27" version="1.1" xmlns="http://www.w3.org/2000/svg" xmlns:xlink="http://www.w3.org/1999/xlink">
    <!-- Generator: Sketch 50.2 (55047) - http://www.bohemiancoding.com/sketch -->
    <title>Icon 1 Copy</title>
    <desc>Created with Sketch.</desc>
    <defs></defs>
    <g id="Icon-1-Copy" stroke="none" stroke-width="1" fill="none" fill-rule="evenodd">
        <path d="M22.3430252,15.4484017 C22.3430252,18.1592937 20.0698227,20.3649711 17.2754403,20.3649711 C14.4815051,20.3649711 12.2083026,18.1592937 12.2083026,15.4484017 C12.2083026,12.7372927 14.4815051,10.5318322 17.2754403,10.5318322 C20.0698227,10.5318322 22.3430252,12.7372927 22.3430252,15.4484017 Z M10.8108878,15.4484017 C10.8108878,18.9070288 13.7108029,21.7207425 17.2754403,21.7207425 C20.8403013,21.7207425 23.74044,18.9070288 23.74044,15.4484017 C23.74044,11.9899915 20.8403013,9.17606083 17.2754403,9.17606083 C13.7108029,9.17606083 10.8108878,11.9899915 10.8108878,15.4484017 Z M16.5767329,13.0266686 L16.5767329,14.770516 L14.7600937,14.770516 C14.3741837,14.770516 14.0613863,15.0739918 14.0613863,15.4484017 C14.0613863,15.8228115 14.3741837,16.1262874 14.7600937,16.1262874 L16.5767329,16.1262874 L16.5767329,17.8701348 C16.5767329,18.2445446 16.8895303,18.5480205 17.2754403,18.5480205 C17.661574,18.5480205 17.9741477,18.2445446 17.9741477,17.8701348 L17.9741477,16.1262874 L19.7907869,16.1262874 C20.1769205,16.1262874 20.4894943,15.8228115 20.4894943,15.4484017 C20.4894943,15.0739918 20.1769205,14.770516 19.7907869,14.770516 L17.9741477,14.770516 L17.9741477,13.0266686 C17.9741477,12.6522587 17.661574,12.3487828 17.2754403,12.3487828 C16.8895303,12.3487828 16.5767329,12.6522587 16.5767329,13.0266686 Z M21.2610908,5.3124377 L13.290237,5.3124377 L13.290237,4.12890349 C13.290237,3.15122961 14.1099046,2.35577141 15.1176083,2.35577141 L19.4332723,2.35577141 C20.4411996,2.35577141 21.2610908,3.15122961 21.2610908,4.12890349 L21.2610908,5.3124377 Z M28.2177569,5.3124377 L22.6585056,5.3124377 L22.6585056,4.12890349 C22.6585056,2.40371149 21.2116782,1 19.4332723,1 L15.1176083,1 C13.3392024,1 11.8928222,2.40371149 11.8928222,4.12890349 L11.8928222,5.3124377 L6.33334729,5.3124377 C5.04683135,5.3124377 4,6.32807318 4,7.57625057 L4,23.3203359 C4,24.5685133 5.04683135,25.5841487 6.33334729,25.5841487 L27.938274,25.5841487 C28.3244076,25.5841487 28.6369814,25.2806729 28.6369814,24.906263 C28.6369814,24.5318532 28.3244076,24.2283773 27.938274,24.2283773 L6.33334729,24.2283773 C5.81730996,24.2283773 5.39741477,23.821212 5.39741477,23.3203359 L5.39741477,7.57625057 C5.39741477,7.0755913 5.81730996,6.66820911 6.33334729,6.66820911 L28.2177569,6.66820911 C28.7337943,6.66820911 29.1534659,7.0755913 29.1534659,7.57625057 L29.1534659,23.0491816 C29.1534659,23.4235914 29.4662632,23.7270673 29.8521732,23.7270673 C30.2383069,23.7270673 30.5508806,23.4235914 30.5508806,23.0491816 L30.5508806,7.57625057 C30.5508806,6.32807318 29.5042729,5.3124377 28.2177569,5.3124377 Z" id="Fill-1" fill="#FFFFFF"></path>
    </g>
</svg>