<?xml version="1.0" encoding="UTF-8"?>
<svg width="35px" height="27px" viewBox="0 0 35 27" version="1.1" xmlns="http://www.w3.org/2000/svg" xmlns:xlink="http://www.w3.org/1999/xlink">
    <!-- Generator: Sketch 50.2 (55047) - http://www.bohemiancoding.com/sketch -->
    <title>Icon 1</title>
    <desc>Created with Sketch.</desc>
    <defs></defs>
    <g id="Icon-1" stroke="none" stroke-width="1" fill="none" fill-rule="evenodd">
        <path d="M22.6533053,15.6928025 C22.6533053,18.4495504 20.3416505,20.6925378 17.5,20.6925378 C14.6588042,20.6925378 12.3471495,18.4495504 12.3471495,15.6928025 C12.3471495,12.935834 14.6588042,10.6930672 17.5,10.6930672 C20.3416505,10.6930672 22.6533053,12.935834 22.6533053,15.6928025 Z M10.9260968,15.6928025 C10.9260968,19.2099337 13.8750653,22.0712426 17.5,22.0712426 C21.1251621,22.0712426 24.0743579,19.2099337 24.0743579,15.6928025 C24.0743579,12.1758919 21.1251621,9.31436235 17.5,9.31436235 C13.8750653,9.31436235 10.9260968,12.1758919 10.9260968,15.6928025 Z M16.7894737,13.2301047 L16.7894737,15.0034501 L14.9421053,15.0034501 C14.5496674,15.0034501 14.2315789,15.3120594 14.2315789,15.6928025 C14.2315789,16.0735456 14.5496674,16.3821549 14.9421053,16.3821549 L16.7894737,16.3821549 L16.7894737,18.1555003 C16.7894737,18.5362434 17.1075621,18.8448527 17.5,18.8448527 C17.8926653,18.8448527 18.2105263,18.5362434 18.2105263,18.1555003 L18.2105263,16.3821549 L20.0578947,16.3821549 C20.45056,16.3821549 20.7684211,16.0735456 20.7684211,15.6928025 C20.7684211,15.3120594 20.45056,15.0034501 20.0578947,15.0034501 L18.2105263,15.0034501 L18.2105263,13.2301047 C18.2105263,12.8493616 17.8926653,12.5407523 17.5,12.5407523 C17.1075621,12.5407523 16.7894737,12.8493616 16.7894737,13.2301047 Z M21.5530695,5.3853844 L13.4473853,5.3853844 L13.4473853,4.18183021 C13.4473853,3.18761857 14.2809179,2.37870486 15.3056674,2.37870486 L19.6943326,2.37870486 C20.7193095,2.37870486 21.5530695,3.18761857 21.5530695,4.18183021 L21.5530695,5.3853844 Z M28.6274105,5.3853844 L22.9741221,5.3853844 L22.9741221,4.18183021 C22.9741221,2.42745586 21.5028211,1 19.6943326,1 L15.3056674,1 C13.4971789,1 12.0263326,2.42745586 12.0263326,4.18183021 L12.0263326,5.3853844 L6.37281684,5.3853844 C5.06453895,5.3853844 4,6.41819979 4,7.68749062 L4,23.6978938 C4,24.9671846 5.06453895,26 6.37281684,26 L28.3432,26 C28.7358653,26 29.0537263,25.6913907 29.0537263,25.3106476 C29.0537263,24.9299044 28.7358653,24.6212951 28.3432,24.6212951 L6.37281684,24.6212951 C5.84805053,24.6212951 5.42105263,24.2072425 5.42105263,23.6978938 L5.42105263,7.68749062 C5.42105263,7.1783625 5.84805053,6.76408926 6.37281684,6.76408926 L28.6274105,6.76408926 C29.1521768,6.76408926 29.5789474,7.1783625 29.5789474,7.68749062 L29.5789474,23.4221528 C29.5789474,23.8028959 29.8970358,24.1115052 30.2894737,24.1115052 C30.6821389,24.1115052 31,23.8028959 31,23.4221528 L31,7.68749062 C31,6.41819979 29.9356884,5.3853844 28.6274105,5.3853844 Z" id="Fill-1" fill="#D5D5D5"></path>
    </g>
</svg>