<?xml version="1.0" encoding="UTF-8" standalone="no"?>
<!-- Created with Inkscape (http://www.inkscape.org/) -->

<svg
   xmlns:dc="http://purl.org/dc/elements/1.1/"
   xmlns:cc="http://creativecommons.org/ns#"
   xmlns:rdf="http://www.w3.org/1999/02/22-rdf-syntax-ns#"
   xmlns:svg="http://www.w3.org/2000/svg"
   xmlns="http://www.w3.org/2000/svg"
   xmlns:sodipodi="http://sodipodi.sourceforge.net/DTD/sodipodi-0.dtd"
   xmlns:inkscape="http://www.inkscape.org/namespaces/inkscape"
   version="1.1"
   id="svg3745"
   xml:space="preserve"
   width="34.666668"
   height="48"
   viewBox="0 0 34.666668 48"
   sodipodi:docname="icon-terms.svg"
   inkscape:version="0.92.3 (2405546, 2018-03-11)"><metadata
     id="metadata3751"><rdf:RDF><cc:Work
         rdf:about=""><dc:format>image/svg+xml</dc:format><dc:type
           rdf:resource="http://purl.org/dc/dcmitype/StillImage" /><dc:title></dc:title></cc:Work></rdf:RDF></metadata><defs
     id="defs3749"><clipPath
       clipPathUnits="userSpaceOnUse"
       id="clipPath3763"><path
         d="M 3.058824,3 V 33 H 13.76471 v -7.5135 c 0,-0.828 0.68517,-1.5 1.52941,-1.5 h 7.64706 V 3 Z M 16.82353,30.87825 20.79159,26.9865 h -3.96806 z m 8.72835,-4.31775 -9.17647,9 C 16.08865,35.84175 15.69941,36 15.29412,36 H 1.529412 C 0.6851765,36 0,35.328 0,34.5 V 1.5 C 0,0.672 0.6851765,0 1.529412,0 H 24.47059 C 25.31482,0 26,0.672 26,1.5 v 24 c 0,0.3975 -0.16135,0.77925 -0.44812,1.0605 z"
         id="path3761"
         inkscape:connector-curvature="0"
         style="clip-rule:evenodd" /></clipPath><clipPath
       clipPathUnits="userSpaceOnUse"
       id="clipPath3773"><path
         d="m 11.4015,13.85442 h -0.17027 z m 0,4.84386 v -0.0014 h -0.17027 z m 2.31023,-0.06811 c 0.94126,0 1.52563,-0.52579 1.52563,-1.37034 0,-0.835 -0.58437,-1.35263 -1.52563,-1.35263 H 11.4015 v 2.72297 z m 0.10489,-7.73846 H 11.4015 v 2.8946 h 2.41512 c 1.02026,0 1.63051,-0.53806 1.63051,-1.43845 0,-0.91129 -0.61025,-1.45615 -1.63051,-1.45615 z M 9.344628,8.772178 H 11.23395 V 8.149668 C 11.23395,7.514899 11.75839,7 12.40133,7 c 0.64566,0 1.17146,0.514899 1.17146,1.149668 v 0.62251 h 0.01635 c 2.78563,0 4.25813,1.242292 4.25813,3.592032 0,1.30904 -0.69607,2.24485 -1.42619,2.65214 0.60344,0.39775 1.21641,1.13059 1.21641,2.46552 0,2.07594 -1.4112,3.26783 -3.87263,3.26783 h -0.19207 v 1.10063 C 13.57279,22.48374 13.04699,23 12.40133,23 11.75839,23 11.23395,22.48374 11.23395,21.85033 V 20.7497 H 9.344628 C 9.145752,20.7497 9,20.60667 9,20.40916 V 9.112719 C 9,8.915205 9.145752,8.772178 9.344628,8.772178 Z"
         id="path3771"
         inkscape:connector-curvature="0"
         style="clip-rule:evenodd" /></clipPath></defs><sodipodi:namedview
     pagecolor="#ffffff"
     bordercolor="#666666"
     borderopacity="1"
     objecttolerance="10"
     gridtolerance="10"
     guidetolerance="10"
     inkscape:pageopacity="0"
     inkscape:pageshadow="2"
     inkscape:window-width="640"
     inkscape:window-height="480"
     id="namedview3747"
     showgrid="false"
     inkscape:zoom="4.9166667"
     inkscape:cx="17.333334"
     inkscape:cy="24"
     inkscape:window-x="1160"
     inkscape:window-y="166"
     inkscape:window-maximized="0"
     inkscape:current-layer="g3753" /><g
     id="g3753"
     inkscape:groupmode="layer"
     inkscape:label="iconTerms"
     transform="matrix(1.3333333,0,0,-1.3333333,0,48)"><g
       id="g3755" /><g
       id="g3757"><g
         id="g3759"
         clip-path="url(#clipPath3763)"><path
           d="M -5,-5 H 31 V 41 H -5 Z"
           style="fill:#4e2a81;fill-opacity:1;fill-rule:nonzero;stroke:none"
           id="path3765"
           inkscape:connector-curvature="0" /></g></g><g
       id="g3767"><g
         id="g3769"
         clip-path="url(#clipPath3773)"><path
           d="M 4,2 H 22.84727 V 28 H 4 Z"
           style="fill:#4e2a81;fill-opacity:1;fill-rule:nonzero;stroke:none"
           id="path3775"
           inkscape:connector-curvature="0" /></g></g></g></svg>