<?xml version="1.0" encoding="UTF-8"?>
<svg width="35px" height="27px" viewBox="0 0 35 27" version="1.1" xmlns="http://www.w3.org/2000/svg" xmlns:xlink="http://www.w3.org/1999/xlink">
    <!-- Generator: Sketch 50.2 (55047) - http://www.bohemiancoding.com/sketch -->
    <title>Icon 1</title>
    <desc>Created with Sketch.</desc>
    <defs></defs>
    <g id="Icon-1" stroke="none" stroke-width="1" fill="none" fill-rule="evenodd">
        <path d="M20.8401661,20.3456842 L22.0498436,20.3456842 C22.3991935,20.3456842 22.681991,20.0513684 22.681991,19.6877895 C22.681991,19.3244211 22.3991935,19.0298947 22.0498436,19.0298947 L20.8401661,19.0298947 C20.4910184,19.0298947 20.2080187,19.3244211 20.2080187,19.6877895 C20.2080187,20.0513684 20.4910184,20.3456842 20.8401661,20.3456842 M20.8401661,18.1477895 L22.0498436,18.1477895 C22.3991935,18.1477895 22.681991,17.8530526 22.681991,17.4898947 C22.681991,17.1265263 22.3991935,16.832 22.0498436,16.832 L20.8401661,16.832 C20.4910184,16.832 20.2080187,17.1265263 20.2080187,17.4898947 C20.2080187,17.8530526 20.4910184,18.1477895 20.8401661,18.1477895 M17.5,6.68778947 C17.0810632,6.68778947 16.741423,7.04147368 16.741423,7.47726316 C16.741423,7.91326316 17.0810632,8.26673684 17.5,8.26673684 C17.9189368,8.26673684 18.258577,7.91326316 18.258577,7.47726316 C18.258577,7.04147368 17.9189368,6.68778947 17.5,6.68778947 M22.1404682,3.64905263 L19.8056694,3.64905263 C19.4565217,3.64905263 19.173522,3.94357895 19.173522,4.30694737 C19.173522,4.67031579 19.4565217,4.96484211 19.8056694,4.96484211 L22.1404682,4.96484211 C23.0202152,4.96484211 23.735705,5.70968421 23.735705,6.62526316 L23.735705,9.89284211 L11.264295,10.1073684 L11.264295,6.62526316 C11.264295,5.70968421 11.9799871,4.96484211 12.8595318,4.96484211 L17.4799736,4.96484211 C17.8184,4.96484211 18.0920946,4.68757895 18.1088845,4.33978947 C18.1224377,4.28589474 18.1321475,4.23031579 18.1321475,4.172 L18.1321475,1.65789474 C18.1321475,1.29452632 17.8491477,1 17.5,1 C17.1508523,1 16.8678525,1.29452632 16.8678525,1.65789474 L16.8678525,3.64905263 L12.8595318,3.64905263 C11.2829054,3.64905263 10,4.98421053 10,6.62526316 L10,20.3065263 C10,21.9473684 11.2829054,23.2825263 12.8595318,23.2825263 L15.8143408,23.2825263 L15.8143408,25.3421053 C15.8143408,25.7054737 16.0973406,26 16.4464883,26 C16.795636,26 17.0786358,25.7054737 17.0786358,25.3421053 L17.0786358,22.6246316 C17.0786358,22.2614737 16.795636,21.9667368 16.4464883,21.9667368 C16.4402174,21.9667368 16.4341488,21.9686316 16.4278779,21.9688421 C16.4214047,21.9686316 16.4155384,21.9667368 16.4092675,21.9667368 L12.8595318,21.9667368 C11.9799871,21.9667368 11.264295,21.2221053 11.264295,20.3065263 L11.264295,11.4235789 L23.735705,11.2090526 L23.735705,20.3065263 C23.735705,21.2221053 23.0202152,21.9667368 22.1404682,21.9667368 L18.6067132,21.9667368 C18.5547254,21.9667368 18.5049628,21.9751579 18.4566161,21.9875789 C18.1537922,22.0362105 17.9213642,22.3063158 17.9213642,22.6351579 L17.9213642,25.3421053 C17.9213642,25.7054737 18.204364,26 18.5535117,26 C18.9026594,26 19.1856592,25.7054737 19.1856592,25.3421053 L19.1856592,23.2825263 L22.1404682,23.2825263 C23.7172969,23.2825263 25,21.9473684 25,20.3065263 L25,6.62526316 C25,4.98421053 23.7172969,3.64905263 22.1404682,3.64905263 M20.8401661,15.8717895 L22.0498436,15.8717895 C22.3991935,15.8717895 22.681991,15.5774737 22.681991,15.2138947 C22.681991,14.8503158 22.3991935,14.556 22.0498436,14.556 L20.8401661,14.556 C20.4910184,14.556 20.2080187,14.8503158 20.2080187,15.2138947 C20.2080187,15.5774737 20.4910184,15.8717895 20.8401661,15.8717895 M20.8401661,13.6736842 L22.0498436,13.6736842 C22.3991935,13.6736842 22.681991,13.3789474 22.681991,13.0157895 C22.681991,12.6522105 22.3991935,12.3578947 22.0498436,12.3578947 L20.8401661,12.3578947 C20.4910184,12.3578947 20.2080187,12.6522105 20.2080187,13.0157895 C20.2080187,13.3789474 20.4910184,13.6736842 20.8401661,13.6736842" id="Fill-1" fill="#D5D5D5"></path>
    </g>
</svg>