<?xml version="1.0" encoding="UTF-8"?>
<svg width="35px" height="27px" viewBox="0 0 35 27" version="1.1" xmlns="http://www.w3.org/2000/svg" xmlns:xlink="http://www.w3.org/1999/xlink">
    <!-- Generator: Sketch 50.2 (55047) - http://www.bohemiancoding.com/sketch -->
    <title>Icon 1 Copy</title>
    <desc>Created with Sketch.</desc>
    <defs></defs>
    <g id="Icon-1-Copy" stroke="none" stroke-width="1" fill="none" fill-rule="evenodd">
        <path d="M20.6598503,20.0238871 L21.8494059,20.0238871 C22.1929447,20.0238871 22.4710382,19.734467 22.4710382,19.3769358 C22.4710382,19.0196117 22.1929447,18.7299846 21.8494059,18.7299846 L20.6598503,18.7299846 C20.3165103,18.7299846 20.038218,19.0196117 20.038218,19.3769358 C20.038218,19.734467 20.3165103,20.0238871 20.6598503,20.0238871 M20.6598503,17.8625523 L21.8494059,17.8625523 C22.1929447,17.8625523 22.4710382,17.5727181 22.4710382,17.215601 C22.4710382,16.8582769 22.1929447,16.5686497 21.8494059,16.5686497 L20.6598503,16.5686497 C20.3165103,16.5686497 20.038218,16.8582769 20.038218,17.215601 C20.038218,17.5727181 20.3165103,17.8625523 20.6598503,17.8625523 M17.3752446,6.59317849 C16.9632765,6.59317849 16.6292858,6.9409795 16.6292858,7.36952003 C16.6292858,7.79826759 16.9632765,8.14586157 17.3752446,8.14586157 C17.7872128,8.14586157 18.1212034,7.79826759 18.1212034,7.36952003 C18.1212034,6.9409795 17.7872128,6.59317849 17.3752446,6.59317849 M21.9385231,3.60498816 L19.6425614,3.60498816 C19.2992215,3.60498816 19.0209291,3.89461531 19.0209291,4.25193944 C19.0209291,4.60926357 19.2992215,4.89889072 19.6425614,4.89889072 L21.9385231,4.89889072 C22.8036363,4.89889072 23.5072246,5.63134308 23.5072246,6.53169224 L23.5072246,9.74491812 L11.2432646,9.95587599 L11.2432646,6.53169224 C11.2432646,5.63134308 11.9470518,4.89889072 12.8119662,4.89889072 L17.3555513,4.89889072 C17.6883484,4.89889072 17.9574903,4.62623957 17.9740009,4.28423525 C17.9873287,4.231237 17.9968769,4.17658255 17.9968769,4.11923679 L17.9968769,1.64695128 C17.9968769,1.28962715 17.7185846,1 17.3752446,1 C17.0319047,1 16.7536123,1.28962715 16.7536123,1.64695128 L16.7536123,3.60498816 L12.8119662,3.60498816 C11.2615655,3.60498816 10,4.91793697 10,6.53169224 L10,19.9853806 C10,21.5989288 11.2615655,22.9118776 12.8119662,22.9118776 L15.7176248,22.9118776 L15.7176248,24.9371974 C15.7176248,25.2945216 15.9959171,25.5841487 16.3392571,25.5841487 C16.682597,25.5841487 16.9608894,25.2945216 16.9608894,24.9371974 L16.9608894,22.2649264 C16.9608894,21.9078092 16.682597,21.6179751 16.3392571,21.6179751 C16.3330905,21.6179751 16.3271228,21.6198383 16.3209562,21.6200453 C16.3145907,21.6198383 16.308822,21.6179751 16.3026554,21.6179751 L12.8119662,21.6179751 C11.9470518,21.6179751 11.2432646,20.8857297 11.2432646,19.9853806 L11.2432646,11.2501926 L23.5072246,11.0392347 L23.5072246,19.9853806 C23.5072246,20.8857297 22.8036363,21.6179751 21.9385231,21.6179751 L18.4635487,21.6179751 C18.4124257,21.6179751 18.3634908,21.6262561 18.3159484,21.6384705 C18.0181616,21.6862931 17.7895998,21.9519054 17.7895998,22.2752776 L17.7895998,24.9371974 C17.7895998,25.2945216 18.0678922,25.5841487 18.4112322,25.5841487 C18.7545721,25.5841487 19.0328645,25.2945216 19.0328645,24.9371974 L19.0328645,22.9118776 L21.9385231,22.9118776 C23.4891227,22.9118776 24.7504892,21.5989288 24.7504892,19.9853806 L24.7504892,6.53169224 C24.7504892,4.91793697 23.4891227,3.60498816 21.9385231,3.60498816 M20.6598503,15.6244114 L21.8494059,15.6244114 C22.1929447,15.6244114 22.4710382,15.3349912 22.4710382,14.9774601 C22.4710382,14.6199289 22.1929447,14.3305088 21.8494059,14.3305088 L20.6598503,14.3305088 C20.3165103,14.3305088 20.038218,14.6199289 20.038218,14.9774601 C20.038218,15.3349912 20.3165103,15.6244114 20.6598503,15.6244114 M20.6598503,13.4628695 L21.8494059,13.4628695 C22.1929447,13.4628695 22.4710382,13.1730353 22.4710382,12.8159182 C22.4710382,12.4583871 22.1929447,12.1689669 21.8494059,12.1689669 L20.6598503,12.1689669 C20.3165103,12.1689669 20.038218,12.4583871 20.038218,12.8159182 C20.038218,13.1730353 20.3165103,13.4628695 20.6598503,13.4628695" id="Fill-1" fill="#FFFFFF"></path>
    </g>
</svg>