<?xml version="1.0" encoding="UTF-8"?>
<svg width="56px" height="56px" viewBox="0 0 56 56" version="1.1" xmlns="http://www.w3.org/2000/svg" xmlns:xlink="http://www.w3.org/1999/xlink">
    <!-- Generator: Sketch 50.2 (55047) - http://www.bohemiancoding.com/sketch -->
    <title>Illness</title>
    <desc>Created with Sketch.</desc>
    <defs></defs>
    <g id="Illness" stroke="none" stroke-width="1" fill="none" fill-rule="evenodd">
        <path d="M34.0786924,40.0484042 L36.2077247,40.0484042 C36.8225806,40.0484042 37.3203042,39.5304084 37.3203042,38.8905095 C37.3203042,38.2509811 36.8225806,37.7326147 36.2077247,37.7326147 L34.0786924,37.7326147 C33.4641925,37.7326147 32.9661128,38.2509811 32.9661128,38.8905095 C32.9661128,39.5304084 33.4641925,40.0484042 34.0786924,40.0484042 M34.0786924,36.1801095 L36.2077247,36.1801095 C36.8225806,36.1801095 37.3203042,35.6613726 37.3203042,35.0222147 C37.3203042,34.3826863 36.8225806,33.86432 36.2077247,33.86432 L34.0786924,33.86432 C33.4641925,33.86432 32.9661128,34.3826863 32.9661128,35.0222147 C32.9661128,35.6613726 33.4641925,36.1801095 34.0786924,36.1801095 M28.2,16.0105095 C27.4626713,16.0105095 26.8649045,16.6329937 26.8649045,17.3999832 C26.8649045,18.1673432 27.4626713,18.7894568 28.2,18.7894568 C28.9373287,18.7894568 29.5350955,18.1673432 29.5350955,17.3999832 C29.5350955,16.6329937 28.9373287,16.0105095 28.2,16.0105095 M36.3672241,10.6623326 L32.2579782,10.6623326 C31.6434783,10.6623326 31.1453986,11.1806989 31.1453986,11.8202274 C31.1453986,12.4597558 31.6434783,12.9781221 32.2579782,12.9781221 L36.3672241,12.9781221 C37.9155788,12.9781221 39.1748409,14.2890442 39.1748409,15.9004632 L39.1748409,21.6514021 L17.2251591,22.0289684 L17.2251591,15.9004632 C17.2251591,14.2890442 18.4847772,12.9781221 20.0327759,12.9781221 L28.1647535,12.9781221 C28.7603841,12.9781221 29.2420865,12.4901389 29.2716366,11.8780295 C29.2954903,11.7831747 29.3125796,11.6853558 29.3125796,11.58272 L29.3125796,7.15789474 C29.3125796,6.51836632 28.8144999,6 28.2,6 C27.5855001,6 27.0874204,6.51836632 27.0874204,7.15789474 L27.0874204,10.6623326 L20.0327759,10.6623326 C17.2579135,10.6623326 15,13.0122105 15,15.9004632 L15,39.9794863 C15,42.8673684 17.2579135,45.2172463 20.0327759,45.2172463 L25.2332398,45.2172463 L25.2332398,48.8421053 C25.2332398,49.4816337 25.7313195,50 26.3458194,50 C26.9603193,50 27.458399,49.4816337 27.458399,48.8421053 L27.458399,44.0593516 C27.458399,43.4201937 26.9603193,42.9014568 26.3458194,42.9014568 C26.3347826,42.9014568 26.3241018,42.9047916 26.3130651,42.9051621 C26.3016722,42.9047916 26.2913475,42.9014568 26.2803107,42.9014568 L20.0327759,42.9014568 C18.4847772,42.9014568 17.2251591,41.5909053 17.2251591,39.9794863 L17.2251591,24.3454989 L39.1748409,23.9679326 L39.1748409,39.9794863 C39.1748409,41.5909053 37.9155788,42.9014568 36.3672241,42.9014568 L30.1478153,42.9014568 C30.0563168,42.9014568 29.9687345,42.9162779 29.8836444,42.9381389 C29.3506743,43.0237305 28.941601,43.4991158 28.941601,44.0778779 L28.941601,48.8421053 C28.941601,49.4816337 29.4396807,50 30.0541806,50 C30.6686805,50 31.1667602,49.4816337 31.1667602,48.8421053 L31.1667602,45.2172463 L36.3672241,45.2172463 C39.1424426,45.2172463 41.4,42.8673684 41.4,39.9794863 L41.4,15.9004632 C41.4,13.0122105 39.1424426,10.6623326 36.3672241,10.6623326 M34.0786924,32.1743495 L36.2077247,32.1743495 C36.8225806,32.1743495 37.3203042,31.6563537 37.3203042,31.0164547 C37.3203042,30.3765558 36.8225806,29.85856 36.2077247,29.85856 L34.0786924,29.85856 C33.4641925,29.85856 32.9661128,30.3765558 32.9661128,31.0164547 C32.9661128,31.6563537 33.4641925,32.1743495 34.0786924,32.1743495 M34.0786924,28.3056842 L36.2077247,28.3056842 C36.8225806,28.3056842 37.3203042,27.7869474 37.3203042,27.1477895 C37.3203042,26.5078905 36.8225806,25.9898947 36.2077247,25.9898947 L34.0786924,25.9898947 C33.4641925,25.9898947 32.9661128,26.5078905 32.9661128,27.1477895 C32.9661128,27.7869474 33.4641925,28.3056842 34.0786924,28.3056842" id="Fill-1" fill="#333333"></path>
    </g>
</svg>