<?xml version="1.0" encoding="UTF-8"?>
<svg width="76px" height="56px" viewBox="0 0 76 56" version="1.1" xmlns="http://www.w3.org/2000/svg" xmlns:xlink="http://www.w3.org/1999/xlink">
    <!-- Generator: Sketch 50.2 (55047) - http://www.bohemiancoding.com/sketch -->
    <title>ID Card</title>
    <desc>Created with Sketch.</desc>
    <defs>
        <path d="M70.65625,0 L5.34375,0 C2.394,0 0,2.394 0,5.34375 L0,50.3943333 C0,53.33775 2.394,55.73175 5.34375,55.73175 L70.65625,55.73175 C73.606,55.73175 76,53.33775 76,50.3943333 L76,5.34375 C76,2.394 73.606,0 70.65625,0 Z M73.4635,50.3943333 C73.4635,51.94125 72.2079167,53.2031667 70.65625,53.2031667 L5.34375,53.2031667 C3.79208333,53.2031667 2.5365,51.94125 2.5365,50.3943333 L2.5365,5.34375 C2.5365,3.79208333 3.79208333,2.5365 5.34375,2.5365 L70.65625,2.5365 C72.2079167,2.5365 73.4635,3.79208333 73.4635,5.34375 L73.4635,50.3943333 Z M28.6725833,35.7801667 L24.0650833,33.4225833 L24.0650833,32.9349167 C26.1313333,31.8091667 27.5785,29.9535 28.3891667,27.4059167 C29.6130833,26.7551667 30.3984167,25.4885 30.3984167,24.0650833 L30.3984167,22.7968333 C30.3984167,21.6283333 29.85375,20.5405833 28.9385833,19.8233333 C28.15325,15.0353333 24.8076667,12.61125 19,12.61125 C18.7276667,12.61125 18.4553333,12.6175833 18.1956667,12.6413333 C17.1015833,12.7284167 15.49925,12.635 14.1075,11.7024167 C13.5945,11.3556667 13.1986667,11.01525 12.9516667,10.7001667 C12.5241667,10.1555 11.81325,9.96391667 11.17675,10.2235833 C10.5386667,10.4895833 10.1681667,11.11975 10.2489167,11.8069167 C10.298,12.2771667 10.37875,12.8281667 10.50225,13.433 C10.7429167,14.6711667 10.7429167,14.6711667 10.4025,15.4058333 C10.2726667,15.6845 10.11275,16.03125 9.9275,16.4888333 C9.50633333,17.5148333 9.20866667,18.6405833 9.03608333,19.84075 C8.13991667,20.558 7.60158333,21.641 7.60158333,22.7968333 L7.60158333,24.0650833 C7.60158333,25.4885 8.38691667,26.7551667 9.61083333,27.4059167 C10.4215,29.9535 11.8686667,31.8091667 13.9349167,32.9349167 L13.9349167,33.4115 L9.15958333,35.7675 C7.41633333,36.71275 6.33333333,38.5383333 6.33333333,40.5238333 L6.33333333,42.2053333 C6.33333333,43.22025 6.33333333,45.6015833 19,45.6015833 C31.6666667,45.6015833 31.6666667,43.22025 31.6666667,42.2053333 L31.6666667,40.6283333 C31.6666667,38.5620833 30.5219167,36.7016667 28.6725833,35.7801667 Z M29.1301667,41.9155833 C28.3448333,42.3969167 25.1290833,43.0650833 19,43.0650833 C12.8709167,43.0650833 9.65516667,42.3969167 8.86983333,41.9155833 L8.86983333,40.5238333 C8.86983333,39.4661667 9.44458333,38.494 10.3280833,38.0126667 L15.2079167,35.606 C15.9758333,35.2355 16.4635,34.4438333 16.4635,33.59675 L16.4635,31.30725 L15.6971667,30.9795 C13.77975,30.1514167 12.5305,28.5744167 11.8813333,26.1503333 L11.7024167,25.4758333 L11.03425,25.26525 C10.50225,25.10375 10.1301667,24.60975 10.1301667,24.0650833 L10.1301667,22.7968333 C10.1301667,22.33925 10.3961667,21.9133333 10.8173333,21.6900833 L11.4110833,21.375 L11.4855,20.7005 C11.609,19.513 11.875,18.4189167 12.2708333,17.4483333 C12.4370833,17.0398333 12.5795833,16.7295 12.6983333,16.4761667 C13.1305833,15.5546667 13.28575,15.0780833 13.1733333,14.1011667 C14.6648333,14.9545833 16.45875,15.314 18.3999167,15.1651667 C18.5915,15.1525 18.79575,15.1398333 19,15.1398333 C23.7436667,15.1398333 26.0569167,16.8593333 26.5081667,20.7131667 L26.5889167,21.375 L27.1763333,21.68375 C27.6038333,21.9133333 27.8698333,22.33925 27.8698333,22.7968333 L27.8698333,24.0650833 C27.8698333,24.60975 27.49775,25.10375 26.96575,25.26525 L26.2975833,25.4758333 L26.1186667,26.1503333 C25.4695,28.5744167 24.22025,30.1514167 22.2965,30.9795 L21.5365,31.30725 L21.5365,33.6030833 C21.5365,34.4501667 22.0004167,35.2165 22.7540833,35.5996667 L27.53575,38.04275 C28.519,38.532 29.1301667,39.5279167 29.1301667,40.6283333 L29.1301667,41.9155833 Z M38,19 L50.6666667,19 C51.3649167,19 51.9349167,18.4315833 51.9349167,17.73175 C51.9349167,17.0335 51.3649167,16.4635 50.6666667,16.4635 L38,16.4635 C37.30175,16.4635 36.73175,17.0335 36.73175,17.73175 C36.73175,18.4315833 37.30175,19 38,19 Z M55.73175,19 L57,19 C57.69825,19 58.26825,18.4315833 58.26825,17.73175 C58.26825,17.0335 57.69825,16.4635 57,16.4635 L55.73175,16.4635 C55.0335,16.4635 54.4635,17.0335 54.4635,17.73175 C54.4635,18.4315833 55.0335,19 55.73175,19 Z M39.26825,38 L38,38 C37.30175,38 36.73175,38.5684167 36.73175,39.26825 C36.73175,39.9665 37.30175,40.5365 38,40.5365 L39.26825,40.5365 C39.9665,40.5365 40.5365,39.9665 40.5365,39.26825 C40.5365,38.5684167 39.9665,38 39.26825,38 Z M46.8698333,38 L44.3333333,38 C43.6350833,38 43.0650833,38.5684167 43.0650833,39.26825 C43.0650833,39.9665 43.6350833,40.5365 44.3333333,40.5365 L46.8698333,40.5365 C47.5680833,40.5365 48.1301667,39.9665 48.1301667,39.26825 C48.1301667,38.5684167 47.5680833,38 46.8698333,38 Z M53.2031667,38 L51.9349167,38 C51.2350833,38 50.6666667,38.5684167 50.6666667,39.26825 C50.6666667,39.9665 51.2350833,40.5365 51.9349167,40.5365 L53.2031667,40.5365 C53.9014167,40.5365 54.4635,39.9665 54.4635,39.26825 C54.4635,38.5684167 53.9014167,38 53.2031667,38 Z M60.7968333,38 L58.26825,38 C57.5684167,38 57,38.5684167 57,39.26825 C57,39.9665 57.5684167,40.5365 58.26825,40.5365 L60.7968333,40.5365 C61.503,40.5365 62.0650833,39.9665 62.0650833,39.26825 C62.0650833,38.5684167 61.503,38 60.7968333,38 Z M64.96575,38.3641667 C64.73775,38.6064167 64.6015833,38.9405 64.6015833,39.26825 C64.6015833,39.596 64.73775,39.92375 64.96575,40.1644167 C65.208,40.394 65.53575,40.5365 65.8698333,40.5365 C66.1975833,40.5365 66.5253333,40.394 66.766,40.1644167 C66.994,39.92375 67.1301667,39.596 67.1301667,39.26825 C67.1301667,38.9405 66.994,38.6064167 66.766,38.3641667 C66.2830833,37.90025 65.436,37.90025 64.96575,38.3641667 Z M65.8698333,24.0650833 L38,24.0650833 C37.30175,24.0650833 36.73175,24.6350833 36.73175,25.3333333 C36.73175,26.0315833 37.30175,26.6015833 38,26.6015833 L65.8698333,26.6015833 C66.5680833,26.6015833 67.1301667,26.0315833 67.1301667,25.3333333 C67.1301667,24.6350833 66.5680833,24.0650833 65.8698333,24.0650833 Z M65.8698333,31.6666667 L38,31.6666667 C37.30175,31.6666667 36.73175,32.2350833 36.73175,32.9349167 C36.73175,33.6331667 37.30175,34.2031667 38,34.2031667 L65.8698333,34.2031667 C66.5680833,34.2031667 67.1301667,33.6331667 67.1301667,32.9349167 C67.1301667,32.2350833 66.5680833,31.6666667 65.8698333,31.6666667 Z" id="path-1"></path>
    </defs>
    <g id="Page-1" stroke="none" stroke-width="1" fill="none" fill-rule="evenodd">
        <g id="Policy-Dashboard" transform="translate(-66.000000, -2277.000000)">
            <g id="ID-Card" transform="translate(66.000000, 2277.000000)">
                <mask id="mask-2" fill="white">
                    <use xlink:href="#path-1"></use>
                </mask>
                <use id="Mask" fill="#000000" xlink:href="#path-1"></use>
                <g id="Fill/Primary/SCB-Purple" mask="url(#mask-2)" fill="#4E2683">
                    <g transform="translate(-6.333333, -15.833333)" id="SCB-Purple">
                        <rect x="0" y="0" width="89" height="89"></rect>
                    </g>
                </g>
            </g>
        </g>
    </g>
</svg>