<?xml version="1.0" encoding="UTF-8"?>
<svg width="35px" height="27px" viewBox="0 0 35 27" version="1.1" xmlns="http://www.w3.org/2000/svg" xmlns:xlink="http://www.w3.org/1999/xlink">
    <!-- Generator: Sketch 50.2 (55047) - http://www.bohemiancoding.com/sketch -->
    <title>Icon 1</title>
    <desc>Created with Sketch.</desc>
    <defs></defs>
    <g id="Icon-1" stroke="none" stroke-width="1" fill="none" fill-rule="evenodd">
        <path d="M12.3798612,2.31577839 C12.6385831,2.31577839 12.8493863,2.54061861 12.8493863,2.81703733 C12.8493863,3.09324553 12.6385831,3.31829627 12.3798612,3.31829627 C12.1211393,3.31829627 11.9105333,3.09324553 11.9105333,2.81703733 C11.9105333,2.54061861 12.1211393,2.31577839 12.3798612,2.31577839 M17.2902534,3.31829627 C17.0313343,3.31829627 16.8207283,3.09324553 16.8207283,2.81703733 C16.8207283,2.54061861 17.0313343,2.31577839 17.2902534,2.31577839 C17.5491725,2.31577839 17.7595813,2.54061861 17.7595813,2.81703733 C17.7595813,3.09324553 17.5491725,3.31829627 17.2902534,3.31829627 M26.5829453,21.8122458 L26.5829453,19.8358414 C26.5829453,17.9148049 25.1193523,16.3520812 23.3199334,16.3520812 L23.0990732,16.3520812 C21.2996544,16.3520812 19.8360613,17.9148049 19.8360613,19.8358414 L19.8360613,22.4263459 C19.8360613,23.6219148 18.9246187,24.5945382 17.8049365,24.5945382 L17.5846679,24.5945382 C16.4647885,24.5945382 15.5535431,23.6219148 15.5535431,22.4263459 L15.5535431,18.0771194 C16.1991647,17.8520686 16.7006356,17.2878628 16.8757462,16.5826056 C20.1482235,15.804928 20.8520181,11.3241236 21.4199443,7.70373302 C21.4654967,7.41236705 21.5104575,7.12668525 21.5556156,6.84900338 C21.8180842,5.23638538 21.6279867,3.99429057 20.990253,3.15661342 C20.2992761,2.24967369 19.3669307,2.19072681 19.2421052,2.18672685 L18.8843906,2.18672685 C18.6436136,1.49515373 18.0206696,1 17.2902534,1 C16.3517949,1 15.5882497,1.81536155 15.5882497,2.81703733 C15.5882497,3.81892363 16.3517949,4.63407466 17.2902534,4.63407466 C18.0015415,4.63407466 18.6114705,4.16544703 18.8656569,3.50250524 L19.2213996,3.50250524 C19.2912072,3.50945255 19.7266172,3.5698731 20.0468645,4.0039747 C20.4333698,4.52775977 20.5351232,5.4338574 20.3414762,6.62353159 C20.2957266,6.90373976 20.2503714,7.19236891 20.2044246,7.48647169 C19.7132079,10.6188664 19.106434,14.475676 16.8014031,15.2405117 C16.5050166,14.4462026 15.7787416,13.8826284 14.9304019,13.8826284 C14.0645117,13.8826284 13.326602,14.4699918 13.0422446,15.290406 C10.5926686,14.6579902 9.96952735,10.6976025 9.46608446,7.48689274 C9.41974326,7.19278996 9.37458525,6.90395028 9.32863844,6.62353159 C9.13499139,5.4338574 9.23694203,4.52775977 9.62325014,4.0039747 C9.9434974,3.5698731 10.3789075,3.50945255 10.4485179,3.50250524 L10.8048521,3.50250524 C11.0588413,4.16544703 11.6687703,4.63407466 12.3798612,4.63407466 C13.3183198,4.63407466 14.081865,3.81892363 14.081865,2.81703733 C14.081865,1.81536155 13.3183198,1 12.3798612,1 C11.6492479,1 11.026501,1.49515373 10.785724,2.18693737 L10.407501,2.1871479 C10.303184,2.19072681 9.37064131,2.24967369 8.67966448,3.15661342 C8.04193072,3.99429057 7.85163601,5.2365959 8.11449906,6.84900338 C8.15985428,7.12689577 8.2046179,7.4127881 8.25036751,7.70415407 C8.84412643,11.4898064 9.58321923,16.2011351 13.2299757,16.663026 C13.2548225,16.6663944 13.2790777,16.6678681 13.3033328,16.6678681 C13.3228553,16.6678681 13.3417862,16.6640786 13.3613086,16.6621839 C13.4157349,16.6790259 13.4725275,16.6910258 13.5322781,16.6910258 C13.8724422,16.6910258 14.1485174,16.3965019 14.1485174,16.0331366 C14.1485174,15.5729299 14.4991329,15.1984068 14.9304019,15.1984068 C15.3616708,15.1984068 15.7122863,15.5729299 15.7122863,16.0331366 C15.7122863,16.4933432 15.3616708,16.8678664 14.9304019,16.8678664 C14.5898434,16.8678664 14.3141625,17.1623902 14.3141625,17.5257556 C14.3141625,17.551229 14.3185009,17.5750183 14.3210644,17.5998602 L14.3210644,22.4263459 C14.3210644,24.3473823 15.7852491,25.9103165 17.5846679,25.9103165 L17.8049365,25.9103165 C19.6043553,25.9103165 21.06854,24.3473823 21.06854,22.4263459 L21.06854,19.8358414 C21.06854,18.6402725 21.979391,17.6678596 23.0990732,17.6678596 L23.3199334,17.6678596 C24.4396156,17.6678596 25.3504667,18.6402725 25.3504667,19.8358414 L25.3504667,21.826772 C24.5502429,22.1116117 23.9708794,22.9172891 23.9708794,23.8663338 C23.9708794,24.919588 24.7056338,25.8334751 25.679785,25.9922106 C25.7113364,25.9974737 25.7426907,26 25.7734533,26 C26.0727978,26 26.3354636,25.7667388 26.382002,25.4412679 C26.4332731,25.082113 26.2021587,24.7463263 25.8657413,24.69159 C25.4883071,24.6301168 25.203358,24.2753829 25.203358,23.8663338 C25.203358,23.4061271 25.5541707,23.0313934 25.9852425,23.0313934 C26.4167086,23.0313934 26.7675213,23.4061271 26.7675213,23.8663338 C26.7675213,24.2296991 27.0432022,24.524223 27.3837607,24.524223 C27.724122,24.524223 28,24.2296991 28,23.8663338 C28,22.9025524 27.4030859,22.0848751 26.5829453,21.8122458" id="ICON" fill="#D5D5D5"></path>
    </g>
</svg>