<?xml version="1.0" encoding="UTF-8"?>
<svg width="35px" height="27px" viewBox="0 0 35 27" version="1.1" xmlns="http://www.w3.org/2000/svg" xmlns:xlink="http://www.w3.org/1999/xlink">
    <!-- Generator: Sketch 50.2 (55047) - http://www.bohemiancoding.com/sketch -->
    <title>Icon 1 Copy</title>
    <desc>Created with Sketch.</desc>
    <defs></defs>
    <g id="Icon-1-Copy" stroke="none" stroke-width="1" fill="none" fill-rule="evenodd">
        <path d="M12.3070064,2.29389167 C12.5614247,2.29389167 12.7687214,2.51499188 12.7687214,2.78681264 C12.7687214,3.05842638 12.5614247,3.27973361 12.3070064,3.27973361 C12.0525881,3.27973361 11.8454853,3.05842638 11.8454853,2.78681264 C11.8454853,2.51499188 12.0525881,2.29389167 12.3070064,2.29389167 M17.1357189,3.27973361 C16.8811066,3.27973361 16.6740039,3.05842638 16.6740039,2.78681264 C16.6740039,2.51499188 16.8811066,2.29389167 17.1357189,2.29389167 C17.3903311,2.29389167 17.5972399,2.51499188 17.5972399,2.78681264 C17.5972399,3.05842638 17.3903311,3.27973361 17.1357189,3.27973361 M26.2738357,21.4660538 L26.2738357,19.522525 C26.2738357,17.6334432 24.8345881,16.0967139 23.0651009,16.0967139 L22.8479145,16.0967139 C21.0784273,16.0967139 19.6391797,17.6334432 19.6391797,19.522525 L19.6391797,22.069939 C19.6391797,23.2456207 18.7428981,24.2020654 17.6418407,24.2020654 L17.4252361,24.2020654 C16.3239848,24.2020654 15.4278971,23.2456207 15.4278971,22.069939 L15.4278971,17.7930577 C16.0627794,17.5717504 16.5559088,17.0169297 16.7281066,16.3234038 C19.9461494,15.558662 20.638237,11.1523916 21.1967163,7.59222279 C21.241511,7.30570341 21.2857239,7.02477365 21.3301308,6.75171076 C21.5882335,5.16591713 21.4012981,3.94448339 20.7741724,3.1207402 C20.0946893,2.22888655 19.1778526,2.1709202 19.0551035,2.16698677 L18.7033391,2.16698677 C18.4665672,1.48691731 17.8539852,1 17.1357189,1 C16.2128707,1 15.4620263,1.80179879 15.4620263,2.78681264 C15.4620263,3.77203351 16.2128707,4.57362528 17.1357189,4.57362528 C17.8351753,4.57362528 18.4349588,4.11279282 18.684917,3.46087844 L19.0347422,3.46087844 C19.1033887,3.46771019 19.5315561,3.5271257 19.8464763,3.95400644 C20.2265525,4.46907883 20.3266134,5.36010439 20.1361874,6.52998948 C20.0911988,6.80553665 20.0465981,7.08936473 20.0014155,7.37857539 C19.5183698,10.4588657 18.921689,14.2515209 16.6550001,15.0036343 C16.3635437,14.2225377 15.6493496,13.6683381 14.8151212,13.6683381 C13.9636343,13.6683381 13.2379991,14.2459313 12.9583716,15.0526986 C10.549542,14.4308025 9.93676613,10.5362921 9.44169754,7.37898944 C9.39612718,7.08977877 9.35172033,6.80574367 9.3065378,6.52998948 C9.11611189,5.36010439 9.21636667,4.46907883 9.59624892,3.95400644 C9.91116916,3.5271257 10.3393366,3.46771019 10.4077891,3.46087844 L10.758196,3.46087844 C11.0079604,4.11279282 11.6077438,4.57362528 12.3070064,4.57362528 C13.2298546,4.57362528 13.9806989,3.77203351 13.9806989,2.78681264 C13.9806989,1.80179879 13.2298546,1 12.3070064,1 C11.5885461,1 10.9761581,1.48691731 10.7393861,2.1671938 L10.3674545,2.16740082 C10.2648727,2.1709202 9.347842,2.22888655 8.6683589,3.1207402 C8.04123324,3.94448339 7.85410391,5.16612415 8.11259448,6.75171076 C8.15719525,7.02498068 8.20121428,7.30611746 8.24620288,7.59263683 C8.83008519,11.3153184 9.55688388,15.9482787 13.14298,16.4024864 C13.1674135,16.4057988 13.1912652,16.4072479 13.2151169,16.4072479 C13.2343146,16.4072479 13.2529306,16.4035215 13.2721283,16.4016583 C13.3256493,16.4182201 13.3814972,16.4300204 13.4402539,16.4300204 C13.7747597,16.4300204 14.0462426,16.1403957 14.0462426,15.7830746 C14.0462426,15.3305231 14.391026,14.9622297 14.8151212,14.9622297 C15.2392164,14.9622297 15.5839998,15.3305231 15.5839998,15.7830746 C15.5839998,16.2356262 15.2392164,16.6039195 14.8151212,16.6039195 C14.4802276,16.6039195 14.2091324,16.8935442 14.2091324,17.2508653 C14.2091324,17.2759151 14.2133986,17.2993086 14.2159195,17.3237373 L14.2159195,22.069939 C14.2159195,23.9590208 15.6557488,25.4959571 17.4252361,25.4959571 L17.6418407,25.4959571 C19.4113279,25.4959571 20.8511572,23.9590208 20.8511572,22.069939 L20.8511572,19.522525 C20.8511572,18.3468433 21.7468571,17.3906056 22.8479145,17.3906056 L23.0651009,17.3906056 C24.1661582,17.3906056 25.0618581,18.3468433 25.0618581,19.522525 L25.0618581,21.4803384 C24.2749453,21.7604401 23.7052189,22.5527158 23.7052189,23.485974 C23.7052189,24.5217084 24.4277515,25.4203938 25.3856985,25.5764889 C25.4167252,25.5816645 25.4475579,25.5841487 25.4778088,25.5841487 C25.7721739,25.5841487 26.0304706,25.3547676 26.0762349,25.0347106 C26.1266531,24.6815299 25.8993831,24.3513287 25.5685617,24.2975029 C25.1974057,24.2370522 24.9171965,23.888219 24.9171965,23.485974 C24.9171965,23.0334224 25.2621738,22.6649221 25.686075,22.6649221 C26.1103641,22.6649221 26.4553414,23.0334224 26.4553414,23.485974 C26.4553414,23.8432951 26.7264366,24.1329198 27.0613302,24.1329198 C27.3960299,24.1329198 27.667319,23.8432951 27.667319,23.485974 C27.667319,22.5382242 27.080334,21.7341482 26.2738357,21.4660538" id="ICON" fill="#FFFFFF"></path>
    </g>
</svg>