<?xml version="1.0" encoding="UTF-8"?>
<svg width="56px" height="56px" viewBox="0 0 56 56" version="1.1" xmlns="http://www.w3.org/2000/svg" xmlns:xlink="http://www.w3.org/1999/xlink">
    <!-- Generator: Sketch 50.2 (55047) - http://www.bohemiancoding.com/sketch -->
    <title>IPD</title>
    <desc>Created with Sketch.</desc>
    <defs></defs>
    <g id="IPD" stroke="none" stroke-width="1" fill="none" fill-rule="evenodd">
        <path d="M17.7085557,8.31576997 C18.1639063,8.31576997 18.5349199,8.71148875 18.5349199,9.1979857 C18.5349199,9.68411213 18.1639063,10.0802014 17.7085557,10.0802014 C17.2532052,10.0802014 16.8825387,9.68411213 16.8825387,9.1979857 C16.8825387,8.71148875 17.2532052,8.31576997 17.7085557,8.31576997 M26.350846,10.0802014 C25.8951484,10.0802014 25.5244819,9.68411213 25.5244819,9.1979857 C25.5244819,8.71148875 25.8951484,8.31576997 26.350846,8.31576997 C26.8065436,8.31576997 27.1768631,8.71148875 27.1768631,9.1979857 C27.1768631,9.68411213 26.8065436,10.0802014 26.350846,10.0802014 M42.7059838,42.6295526 L42.7059838,39.1510808 C42.7059838,35.7700567 40.13006,33.019663 36.9630828,33.019663 L36.5743689,33.019663 C33.4073917,33.019663 30.831468,35.7700567 30.831468,39.1510808 L30.831468,43.7103688 C30.831468,45.81457 29.2273289,47.5263871 27.2566882,47.5263871 L26.8690155,47.5263871 C24.8980278,47.5263871 23.2942358,45.81457 23.2942358,43.7103688 L23.2942358,36.0557301 C24.4305299,35.6596408 25.3131187,34.6666386 25.6213133,33.4253859 C31.3808734,32.0566732 32.6195519,24.1704575 33.619102,17.7985701 C33.6992742,17.285766 33.7784053,16.782966 33.8578834,16.2942459 C34.3198282,13.4560383 33.9852566,11.2699514 32.8628452,9.79563962 C31.646726,8.19942569 30.005798,8.09567919 29.7861052,8.08863925 L29.1565275,8.08863925 C28.7327599,6.87147056 27.6363784,6 26.350846,6 C24.6991589,6 23.3553194,7.43503634 23.3553194,9.1979857 C23.3553194,10.9613056 24.6991589,12.3959714 26.350846,12.3959714 C27.602713,12.3959714 28.6761881,11.5711868 29.1235562,10.4044092 L29.7496633,10.4044092 C29.8725246,10.4166365 30.6388463,10.5229766 31.2024815,11.2869955 C31.8827308,12.2088572 32.0618169,13.803589 31.7209981,15.8974156 C31.6404788,16.390582 31.5606536,16.8985693 31.4797872,17.4161902 C30.6152458,22.9292048 29.5473238,29.7171897 25.4904694,31.0633005 C24.9688292,29.6653165 23.6905852,28.6734259 22.1975073,28.6734259 C20.6735405,28.6734259 19.3748196,29.7071856 18.8743504,31.1511145 C14.5630967,30.0380628 13.4663681,23.0677805 12.5803087,17.4169312 C12.4987481,16.8993103 12.41927,16.3909525 12.3384037,15.8974156 C11.9975849,13.803589 12.177018,12.2088572 12.8569202,11.2869955 C13.4205554,10.5229766 14.1868771,10.4166365 14.3093914,10.4044092 L14.9365397,10.4044092 C15.3835607,11.5711868 16.4570358,12.3959714 17.7085557,12.3959714 C19.3602428,12.3959714 20.7040823,10.9613056 20.7040823,9.1979857 C20.7040823,7.43503634 19.3602428,6 17.7085557,6 C16.4226762,6 15.3266418,6.87147056 14.9028743,8.08900978 L14.2372017,8.0893803 C14.0536038,8.09567919 12.4123287,8.19942569 11.1962095,9.79563962 C10.0737981,11.2699514 9.73887938,13.4564088 10.2015183,16.2942459 C10.2813435,16.7833366 10.3601275,17.2865071 10.4406468,17.7993112 C11.4856625,24.4620593 12.7864659,32.7539979 19.2047572,33.5669258 C19.2484875,33.5728541 19.2911767,33.5754478 19.3338658,33.5754478 C19.3682253,33.5754478 19.4015437,33.5687784 19.4359032,33.5654437 C19.5316934,33.5950855 19.6316484,33.6162053 19.7368094,33.6162053 C20.3354982,33.6162053 20.8213906,33.0978434 20.8213906,32.4583204 C20.8213906,31.6483566 21.438474,30.9891959 22.1975073,30.9891959 C22.9565406,30.9891959 23.5736239,31.6483566 23.5736239,32.4583204 C23.5736239,33.2682841 22.9565406,33.9274448 22.1975073,33.9274448 C21.5981243,33.9274448 21.1129261,34.4458068 21.1129261,35.0853298 C21.1129261,35.1301631 21.1205615,35.1720322 21.1250734,35.215754 L21.1250734,43.7103688 C21.1250734,47.0913929 23.7020384,49.8421571 26.8690155,49.8421571 L27.2566882,49.8421571 C30.4236654,49.8421571 33.0006304,47.0913929 33.0006304,43.7103688 L33.0006304,39.1510808 C33.0006304,37.0468796 34.6037282,35.335433 36.5743689,35.335433 L36.9630828,35.335433 C38.9337235,35.335433 40.5368213,37.0468796 40.5368213,39.1510808 L40.5368213,42.6551187 C39.1284275,43.1564366 38.1087477,44.5744288 38.1087477,46.2447474 C38.1087477,48.098475 39.4019155,49.7069162 41.1164215,49.9862906 C41.1719521,49.9955537 41.2271356,50 41.2812779,50 C41.8081241,50 42.270416,49.5894603 42.3523235,49.0166314 C42.4425607,48.3845189 42.0357994,47.7935344 41.4437048,47.6971983 C40.7794205,47.5890056 40.2779101,46.964674 40.2779101,46.2447474 C40.2779101,45.4347837 40.8953405,44.7752524 41.6540268,44.7752524 C42.4134072,44.7752524 43.0308376,45.4347837 43.0308376,46.2447474 C43.0308376,46.8842704 43.5160358,47.4026324 44.1154188,47.4026324 C44.7144547,47.4026324 45.2,46.8842704 45.2,46.2447474 C45.2,44.5484922 44.1494312,43.1093801 42.7059838,42.6295526" id="ICON" fill="#333333"></path>
    </g>
</svg>