<?xml version="1.0" encoding="UTF-8"?>
<svg width="35px" height="27px" viewBox="0 0 35 27" version="1.1" xmlns="http://www.w3.org/2000/svg" xmlns:xlink="http://www.w3.org/1999/xlink">
    <!-- Generator: Sketch 50.2 (55047) - http://www.bohemiancoding.com/sketch -->
    <title>Icon 1</title>
    <desc>Created with Sketch.</desc>
    <defs></defs>
    <g id="Icon-1" stroke="none" stroke-width="1" fill="none" fill-rule="evenodd">
        <path d="M29.0614316,12.0344147 C29.0440161,12.0338284 26.1077898,12.0338284 20.2527526,12.0344147 C19.9748975,12.0344147 19.7253243,12.2080941 19.6242861,12.4716911 L18.7006928,14.8814383 L15.962513,7.94965022 C15.8597476,7.68957077 15.6121175,7.51896919 15.3366372,7.51896919 C15.0598614,7.51940889 14.8120155,7.69088985 14.7098977,7.9518487 L13.1118526,12.0344147 L6.45066829,12.0344147 C5.25461718,8.01428536 6.6799474,4.3228279 10.0701262,2.76960612 C13.8519362,1.03698887 16.8148613,5.44580835 16.9385684,5.63333817 C17.0637868,5.82460539 17.2742831,5.93936573 17.4998921,5.93936573 C17.725501,5.93936573 17.9362132,5.82460539 18.0612157,5.63333817 C18.0914408,5.58717021 21.1329513,1.0301736 24.9296579,2.76960612 C27.5948657,3.99085834 29.1015878,6.5720865 28.9601774,9.67435297 C28.9429059,10.0533699 29.2306922,10.3747867 29.602893,10.3925944 C29.9761732,10.4042463 30.2907303,10.1171256 30.3082177,9.73810871 C30.4735923,6.10622989 28.6248945,2.9560367 25.4832094,1.51669586 C22.0954054,-0.0352068339 19.0515201,2.22768231 17.4998921,4.11243395 C15.948264,2.22768231 12.9039469,-0.0356465287 9.51635885,1.51669586 C5.64991855,3.2882261 3.88606701,7.53479821 5.04994995,12.0344147 L1.67466782,12.0344147 C1.30203529,12.0344147 1,12.3419811 1,12.7214377 C1,13.1008943 1.30203529,13.4084608 1.67466782,13.4084608 L13.5691154,13.4084608 C13.8454594,13.4084608 14.0935212,13.2371997 14.1958548,12.9758012 L15.3394438,10.0542492 L18.0843163,17.0027457 C18.1870817,17.263045 18.4349277,17.4334268 18.7101921,17.4334268 C18.9904222,17.4318878 19.2382681,17.2584282 19.3388746,16.9959305 L20.7136857,13.4084608 L28.0380954,13.4084608 C27.7785912,13.9998503 27.4711586,14.5910199 27.108673,15.174275 C24.0742871,20.0555465 18.8762144,23.6159749 17.4996762,24.5052576 C16.1233538,23.6170742 10.9298149,20.0623618 7.89154285,15.174275 C7.69248886,14.8537375 7.27538223,14.7583238 6.96082511,14.9612429 C6.6458362,15.164162 6.55213833,15.5886873 6.75162411,15.9092248 C10.4313164,21.8297149 16.8848109,25.7414595 17.1574846,25.9050259 C17.2632726,25.968342 17.3815823,26 17.4998921,26 C17.6184177,26 17.7365116,25.968342 17.8422995,25.9050259 C18.1151891,25.7414595 24.5684677,21.8297149 28.2485918,15.9092248 C28.7596122,15.0872155 29.1806049,14.248058 29.5057408,13.4084608 L33.3253322,13.4084608 C33.6981806,13.4084608 34,13.1008943 34,12.7214377 C34,12.3419811 33.6981806,12.0344147 33.3253322,12.0344147 L29.0614316,12.0344147 Z" id="Fill-1" fill="#D5D5D5"></path>
    </g>
</svg>