<?xml version="1.0" encoding="UTF-8"?>
<svg width="56px" height="56px" viewBox="0 0 56 56" version="1.1" xmlns="http://www.w3.org/2000/svg" xmlns:xlink="http://www.w3.org/1999/xlink">
    <!-- Generator: Sketch 50.2 (55047) - http://www.bohemiancoding.com/sketch -->
    <title>Life coverage</title>
    <desc>Created with Sketch.</desc>
    <defs></defs>
    <g id="Life-coverage" stroke="none" stroke-width="1" fill="none" fill-rule="evenodd">
        <path d="M46.9187062,25.6550634 C46.8902082,25.6541254 42.0854743,25.6541254 32.5045043,25.6550634 C32.0498322,25.6550634 31.6414398,25.9329505 31.4761045,26.3547058 L29.9647701,30.2103013 L25.4841122,19.1194404 C25.3159506,18.7033132 24.9107378,18.4303507 24.4599517,18.4303507 C24.007046,18.4310542 23.6014799,18.7054238 23.4343781,19.1229579 L20.8193951,25.6550634 L9.91927538,25.6550634 C7.96210084,19.2228566 10.2944594,13.3165246 15.8420247,10.8313698 C22.030441,8.05918219 26.878864,15.1132934 27.0812938,15.4133411 C27.2861965,15.7193686 27.6306451,15.9029852 27.9998234,15.9029852 C28.3690016,15.9029852 28.7138035,15.7193686 28.9183529,15.4133411 C28.9678122,15.3394723 33.9448293,8.04827776 40.157622,10.8313698 C44.5188711,12.7853734 46.9844164,16.9153384 46.7530176,21.8789647 C46.7247552,22.4853918 47.1956782,22.9996588 47.804734,23.028151 C48.4155561,23.0467941 48.930286,22.587401 48.9589017,21.9809739 C49.2295146,16.1699678 46.2043728,11.1296587 41.0634335,8.82671338 C35.5197543,6.34366907 30.5388511,9.9642917 27.9998234,12.9798943 C25.4607957,9.9642917 20.4791859,6.34296555 14.9358599,8.82671338 C8.60895763,11.6611618 5.7226551,18.4556771 7.62719083,25.6550634 L2.10400188,25.6550634 C1.49423956,25.6550634 1,26.1471698 1,26.7543004 C1,27.3614309 1.49423956,27.8535373 2.10400188,27.8535373 L21.5676434,27.8535373 C22.0198426,27.8535373 22.425762,27.5795195 22.593217,27.1612819 L24.4645444,22.4867988 L28.956154,33.6043932 C29.1243155,34.0208721 29.5298817,34.2934828 29.9803144,34.2934828 C30.4388726,34.2910205 30.8444388,34.0134852 31.0090675,33.5934887 L33.2587584,27.8535373 L45.2441562,27.8535373 C44.8195129,28.7997605 44.3164413,29.7456318 43.7232832,30.67884 C38.7579243,38.4888745 30.2519872,44.1855599 27.9994701,45.6084122 C25.7473062,44.1873187 17.2487881,38.4997789 12.2770701,30.67884 C11.9513454,30.1659801 11.2688073,30.013318 10.7540774,30.3379886 C10.238641,30.6626593 10.0853173,31.3418997 10.4117485,31.8547597 C16.4330631,41.3275439 26.9933269,47.5863352 27.4395203,47.8480415 C27.6126278,47.9493472 27.8062256,48 27.9998234,48 C28.1937744,48 28.3870189,47.9493472 28.5601264,47.8480415 C29.0066731,47.5863352 39.5665836,41.3275439 45.5886047,31.8547597 C46.4248199,30.5395447 47.1137171,29.1968928 47.6457577,27.8535373 L53.8959981,27.8535373 C54.5061137,27.8535373 55,27.3614309 55,26.7543004 C55,26.1471698 54.5061137,25.6550634 53.8959981,25.6550634 L46.9187062,25.6550634 Z" id="Fill-1" fill="#333333"></path>
    </g>
</svg>