<?xml version="1.0" encoding="UTF-8"?>
<svg width="35px" height="27px" viewBox="0 0 35 27" version="1.1" xmlns="http://www.w3.org/2000/svg" xmlns:xlink="http://www.w3.org/1999/xlink">
    <!-- Generator: Sketch 50.2 (55047) - http://www.bohemiancoding.com/sketch -->
    <title>Icon 1 Copy</title>
    <desc>Created with Sketch.</desc>
    <defs></defs>
    <g id="Icon-1-Copy" stroke="none" stroke-width="1" fill="none" fill-rule="evenodd">
        <path d="M29.430858,11.8508676 C29.4132133,11.8502911 26.4383318,11.8502911 20.5062135,11.8508676 C20.2247004,11.8508676 19.9718417,12.0216581 19.8694733,12.2808704 L18.933721,14.6505338 L16.1594932,7.83404939 C16.0553749,7.57829611 15.8044848,7.41053233 15.5253778,7.41053233 C15.2449583,7.41096471 14.9938495,7.57959325 14.8903874,7.83621129 L13.2713041,11.8508676 L6.52242589,11.8508676 C5.31062886,7.89760938 6.75472344,4.26755581 10.1895337,2.7401704 C14.0211309,1.03637359 17.0230627,5.37185654 17.1483984,5.55626698 C17.2752652,5.74435266 17.4885327,5.85720407 17.7171118,5.85720407 C17.9456908,5.85720407 18.1591771,5.74435266 18.2858252,5.55626698 C18.3164482,5.51086699 21.3979999,1.02967169 25.2446899,2.7401704 C27.9449849,3.94110826 29.4715429,6.47940013 29.3282708,9.53006334 C29.310772,9.90277565 29.602347,10.2188461 29.9794477,10.2363575 C30.3576421,10.2478156 30.6763404,9.96547087 30.694058,9.59275856 C30.8616097,6.0212926 28.988574,2.92349989 25.8055288,1.50810112 C22.3731247,-0.0179871508 19.2891669,2.20726098 17.7171118,4.06066156 C16.1450567,2.20726098 13.0606614,-0.0184195317 9.62847601,1.50810112 C5.71113434,3.25016363 3.92406184,7.42609804 5.10326721,11.8508676 L1.68354976,11.8508676 C1.30601156,11.8508676 1,12.1533181 1,12.5264627 C1,12.8996074 1.30601156,13.2020578 1.68354976,13.2020578 L13.7345868,13.2020578 C14.0145688,13.2020578 14.2658964,13.0336455 14.3695772,12.7765951 L15.5282214,9.90364041 L18.3092299,16.7365552 C18.4133482,16.9925247 18.6644571,17.1600723 18.9433454,17.1600723 C19.2272646,17.158559 19.4783734,16.9879847 19.5803044,16.7298533 L20.9732147,13.2020578 L28.3940497,13.2020578 C28.1311291,13.7836101 27.8196492,14.3649462 27.4523916,14.9384994 C24.3780581,19.7385756 19.1115533,23.2397797 17.716893,24.11427 C16.3224515,23.2408606 11.0605401,19.7452775 7.98226945,14.9384994 C7.78059492,14.6232938 7.35799712,14.5294671 7.03929888,14.7290109 C6.72016316,14.9285546 6.62523177,15.3460184 6.82734377,15.661224 C10.5554789,21.4832324 17.0939331,25.3299088 17.3701966,25.4907545 C17.4773772,25.5530173 17.5972445,25.5841487 17.7171118,25.5841487 C17.8371978,25.5841487 17.9568463,25.5530173 18.0640269,25.4907545 C18.3405092,25.3299088 24.8787447,21.4832324 28.6073172,15.661224 C29.1250652,14.852888 29.5516002,14.0276891 29.8810165,13.2020578 L33.7508925,13.2020578 C34.1286494,13.2020578 34.4344423,12.8996074 34.4344423,12.5264627 C34.4344423,12.1533181 34.1286494,11.8508676 33.7508925,11.8508676 L29.430858,11.8508676 Z" id="Fill-1" fill="#FFFFFF"></path>
    </g>
</svg>