<?xml version="1.0" encoding="UTF-8"?>
<svg width="26px" height="26px" viewBox="0 0 26 26" version="1.1" xmlns="http://www.w3.org/2000/svg" xmlns:xlink="http://www.w3.org/1999/xlink">
    <!-- Generator: Sketch 51.3 (57544) - http://www.bohemiancoding.com/sketch -->
    <title>information (1)</title>
    <desc>Created with Sketch.</desc>
    <defs></defs>
    <g id="USED-THIS-In-flow!!!!!" stroke="none" stroke-width="1" fill="none" fill-rule="evenodd">
        <g id="PL7.0-Policy-list-LoanEligibility-Existing-Default-2Criterias" transform="translate(-29.000000, -474.000000)" fill-rule="nonzero">
            <g id="Loanable-policies" transform="translate(20.000000, 334.000000)">
                <g id="Message" transform="translate(9.000000, 140.000000)">
                    <g id="information-(1)">
                        <path d="M13,0 C20.1773309,0 26,5.8226691 26,13 C26,20.1773309 20.1773309,26 13,26 C5.8226691,26 0,20.1773309 0,13 C0,5.8226691 5.8226691,0 13,0 Z" id="Shape" fill="#F5A623"></path>
                        <path d="M15.368932,17.452381 L14.8106796,17.452381 L14.8106796,11.6190476 C14.8106796,11.2857143 14.5436893,11 14.1796117,11 L11.631068,11 C11.2912621,11 11,11.2619048 11,11.6190476 L11,12.9047619 C11,13.2380952 11.2669903,13.5238095 11.631068,13.5238095 L12.1407767,13.5238095 L12.1407767,17.4761905 L11.631068,17.4761905 C11.2912621,17.4761905 11,17.7380952 11,18.0952381 L11,19.3809524 C11,19.7142857 11.2669903,20 11.631068,20 L15.368932,20 C15.7087379,20 16,19.7380952 16,19.3809524 L16,18.0952381 C16,17.7380952 15.7087379,17.452381 15.368932,17.452381 Z" id="Shape" fill="#FFFFFF"></path>
                        <path d="M12.1145038,8.09774436 C12.1603053,8.18796992 12.2061069,8.27819549 12.2519084,8.34586466 C12.2977099,8.41353383 12.3664122,8.48120301 12.4122137,8.54887218 C12.480916,8.61654135 12.5496183,8.68421053 12.6412214,8.7518797 C12.7099237,8.79699248 12.8015267,8.86466165 12.9160305,8.88721805 C13.0076336,8.93233083 13.0992366,8.95488722 13.2137405,8.97744361 C13.3282443,9 13.4198473,9 13.5114504,9 C13.6030534,9 13.7175573,9 13.8091603,8.97744361 C13.9007634,8.95488722 13.9923664,8.93233083 14.0610687,8.88721805 L14.0839695,8.88721805 C14.1755725,8.84210526 14.2671756,8.79699248 14.3587786,8.72932331 C14.4274809,8.68421053 14.4961832,8.61654135 14.5648855,8.54887218 L14.5877863,8.52631579 C14.6564885,8.45864662 14.7022901,8.39097744 14.7480916,8.32330827 C14.7938931,8.2556391 14.8396947,8.18796992 14.8625954,8.09774436 C14.8625954,8.07518797 14.8625954,8.07518797 14.8854962,8.05263158 C14.9312977,7.96240602 14.9541985,7.84962406 14.9770992,7.7593985 C15,7.66917293 15,7.55639098 15,7.46616541 C15,7.37593985 15,7.26315789 14.9770992,7.17293233 C14.9541985,7.08270677 14.9312977,6.9924812 14.8854962,6.87969925 C14.8167939,6.72180451 14.7251908,6.58646617 14.610687,6.47368421 C14.5877863,6.45112782 14.5877863,6.45112782 14.5648855,6.42857143 C14.4961832,6.36090226 14.4274809,6.31578947 14.3358779,6.2481203 C14.2442748,6.20300752 14.1755725,6.15789474 14.0839695,6.11278195 C13.9923664,6.06766917 13.9007634,6.04511278 13.8091603,6.02255639 C13.6946565,6 13.6030534,6 13.5114504,6 C13.4198473,6 13.3053435,6 13.2137405,6.02255639 C13.1221374,6.04511278 13.0305344,6.06766917 12.9389313,6.11278195 L12.9160305,6.11278195 C12.8244275,6.15789474 12.7328244,6.20300752 12.6641221,6.2481203 C12.5725191,6.31578947 12.5038168,6.36090226 12.4351145,6.42857143 C12.3664122,6.4962406 12.2977099,6.56390977 12.2519084,6.63157895 C12.2061069,6.69924812 12.1603053,6.78947368 12.1145038,6.87969925 C12.0687023,6.96992481 12.0458015,7.06015038 12.0229008,7.15037594 C12,7.26315789 12,7.35338346 12,7.44360902 C12,7.53383459 12,7.64661654 12.0229008,7.73684211 C12.0458015,7.91729323 12.0916031,8.0075188 12.1145038,8.09774436 Z" id="Shape" fill="#FFFFFF"></path>
                    </g>
                </g>
            </g>
        </g>
    </g>
</svg>