<?xml version="1.0" encoding="UTF-8"?>
<svg width="44px" height="31px" viewBox="0 0 44 31" version="1.1" xmlns="http://www.w3.org/2000/svg" xmlns:xlink="http://www.w3.org/1999/xlink">
    <!-- Generator: Sketch 51.3 (57544) - http://www.bohemiancoding.com/sketch -->
    <title>Loan-cash-icon</title>
    <desc>Created with Sketch.</desc>
    <defs></defs>
    <g id="USED-THIS-In-flow!!!!!" stroke="none" stroke-width="1" fill="none" fill-rule="evenodd">
        <g id="PL7.0-Policy-list-LoanEligibility-Existing-Default-2Criterias" transform="translate(-20.000000, -279.000000)" fill="#4E2A81" fill-rule="nonzero">
            <g id="Loan-cash-icon" transform="translate(20.000000, 279.000000)">
                <path d="M37.8617992,25.3559322 L0.917861799,25.3559322 C0.410951223,25.355907 2.53436281e-05,24.9464791 0,24.4414165 L0,0.914515747 C2.53436281e-05,0.409453106 0.410951223,2.52512383e-05 0.917861799,0 L37.8617992,0 C38.3687098,2.52512383e-05 38.7796357,0.409453106 38.779661,0.914515747 L38.779661,24.4414165 C38.7796357,24.9464791 38.3687098,25.355907 37.8617992,25.3559322 Z M1.8357236,23.5269007 L36.9439374,23.5269007 L36.9439374,1.82903149 L1.8357236,1.82903149 L1.8357236,23.5269007 Z" id="Shape"></path>
                <path d="M43.0821382,30.5762712 L6.13820078,30.5762712 C5.63129021,30.5762459 5.22036433,30.1668181 5.22033898,29.6617554 L5.22033898,24.3787306 C5.22033898,23.8736575 5.63127971,23.4642148 6.13820078,23.4642148 C6.64512186,23.4642148 7.05606258,23.8736575 7.05606258,24.3787306 L7.05606258,28.7472397 L42.1642764,28.7472397 L42.1642764,7.04937048 L37.8044329,7.04937048 C37.2975118,7.04937048 36.8865711,6.63992783 36.8865711,6.13485473 C36.8865711,5.62978163 37.2975118,5.22033898 37.8044329,5.22033898 L43.0821382,5.22033898 C43.5890488,5.22036423 43.9999747,5.62979209 44,6.13485473 L44,29.6617554 C43.9999747,30.1668181 43.5890488,30.5762459 43.0821382,30.5762712 Z" id="Shape"></path>
                <path d="M19.3898305,20.1355932 C15.2710968,20.1355932 11.9322034,16.7966998 11.9322034,12.6779661 C11.9322034,8.55923237 15.2710968,5.22033898 19.3898305,5.22033898 C23.5085642,5.22033898 26.8474576,8.55923237 26.8474576,12.6779661 C26.8427494,16.7947481 23.5066125,20.130885 19.3898305,20.1355932 Z M19.3898305,7.08474576 C16.3007802,7.08474576 13.7966102,9.58891581 13.7966102,12.6779661 C13.7966102,15.7670164 16.3007802,18.2711864 19.3898305,18.2711864 C22.4788808,18.2711864 24.9830508,15.7670164 24.9830508,12.6779661 C24.9796011,9.59034588 22.4774507,7.08819554 19.3898305,7.08474576 Z" id="Shape"></path>
                <path d="M18.573359,8.20338983 L19.4654827,8.20338983 L19.4654827,8.98540705 C20.3814549,9.03232831 21.1632681,9.6821067 21.4003429,10.5935026 L20.1722276,11.0726268 C19.9327836,10.4154369 19.5620317,10.0868419 19.0599719,10.0868419 C18.8379487,10.076039 18.620642,10.1551147 18.4546026,10.3071298 C18.3068453,10.4427894 18.2233976,10.6376006 18.2257802,10.8413226 C18.2157123,11.0321268 18.2981485,11.2156771 18.4459121,11.3314632 C18.741186,11.5148839 19.0586748,11.6574624 19.3901742,11.7555143 C19.817634,11.8960554 20.2340134,12.0700396 20.635666,12.2759433 C20.9297609,12.4326133 21.1785248,12.6662526 21.356895,12.9533226 C21.5404377,13.256003 21.6340611,13.6072365 21.6262684,13.9638922 C21.6419008,14.5136941 21.4414142,15.0467624 21.0701406,15.4425652 C20.6346985,15.8666935 20.0646422,16.1141811 19.4654827,16.1392209 L19.4654827,17.1525424 L18.573359,17.1525424 L18.573359,16.1447291 C17.4967642,16.1109681 16.5915482,15.3033365 16.4067797,14.2117121 L17.785512,13.8702706 C17.8085927,14.1911349 17.9559161,14.4890367 18.1944332,14.697148 C18.4329502,14.9052592 18.7426935,15.0061578 19.0541783,14.9772092 C19.3218815,15.0005278 19.5878773,14.9155787 19.7956806,14.7404012 C19.94988,14.5925274 20.0361476,14.3844991 20.0331935,14.1676555 C20.0451299,13.9623912 19.9558635,13.7647255 19.7956806,13.6417227 C19.4645462,13.4445596 19.1102142,13.2918678 18.7413439,13.1873787 C18.3442024,13.0653583 17.9591814,12.9049346 17.591434,12.7082545 C17.3154423,12.5505278 17.0839145,12.321886 16.9194465,12.0446435 C16.743608,11.7451553 16.6542006,11.4003931 16.6616603,11.0505985 C16.6589046,10.5629392 16.821798,10.0896031 17.1222019,9.71235566 C17.4933025,9.28197589 18.0151607,9.02055172 18.573346,8.98540705 L18.573359,8.20338983 Z" id="Shape"></path>
            </g>
        </g>
    </g>
</svg>