<?xml version="1.0" encoding="UTF-8"?>
<svg width="56px" height="56px" viewBox="0 0 56 56" version="1.1" xmlns="http://www.w3.org/2000/svg" xmlns:xlink="http://www.w3.org/1999/xlink">
    <!-- Generator: Sketch 50.2 (55047) - http://www.bohemiancoding.com/sketch -->
    <title>loan</title>
    <desc>Created with Sketch.</desc>
    <defs></defs>
    <g id="loan" stroke="none" stroke-width="1" fill="none" fill-rule="evenodd" stroke-linecap="round" stroke-linejoin="round">
        <g id="Group" transform="translate(9.000000, 8.000000)" stroke="#4E2683">
            <path d="M0,25.7905882 L14.6976471,23.5294118 L21.7564706,28.2352941 C21.7564706,28.2352941 31.2011765,25.8458824 33.6929412,25 C36.2164706,24.1423529 38.2952941,24.1835294 38.7411765,26.0047059 C39.3047059,28.3094118 34.6976471,30.5882353 31.1682353,32.9411765 C27.6388235,35.2941176 20.9329412,39.2670588 20.9329412,39.2670588 L10.7776471,34.9823529 L0.0694117647,36.3647059 L0,25.7905882 Z" id="Stroke-1" stroke-width="2"></path>
            <path d="M18.1941176,25.8823529 C18.1941176,25.8823529 21.2682353,27.9082353 22.0717647,28.4682353 C23.6894118,29.5952941 23.5952941,31.7517647 22.2035294,32.9094118 C20.9552941,33.9458824 19.1776471,32.4152941 17.9176471,31.6305882 C16.4929412,30.7423529 14.1176471,29.0729412 14.1176471,29.0729412" id="Stroke-3" stroke-width="2"></path>
            <path d="M8.23529412,24.7058824 L8.23529412,35.4764706" id="Stroke-5" stroke-width="2"></path>
            <path d="M26.8858824,8.73647059 C26.8858824,13.5623529 22.9741176,17.4741176 18.1482353,17.4741176 C13.3235294,17.4741176 9.41176471,13.5623529 9.41176471,8.73647059 C9.41176471,3.91176471 13.3235294,0 18.1482353,0 C22.9741176,0 26.8858824,3.91176471 26.8858824,8.73647059 Z" id="Stroke-7" stroke-width="1.91"></path>
            <path d="M22.1752941,5.22530832 C20,3 15,4.18941176 15,6 C15,7.80941176 23,8.49529412 23,11 C23,12.6388235 17,14 15,12" id="Stroke-9" stroke-width="2"></path>
            <path d="M18.8235294,2.35294118 L18.8235294,14.38" id="Stroke-11" stroke-width="2"></path>
        </g>
    </g>
</svg>