<?xml version="1.0" encoding="UTF-8"?>
<svg width="17px" height="19px" viewBox="0 0 17 19" version="1.1" xmlns="http://www.w3.org/2000/svg" xmlns:xlink="http://www.w3.org/1999/xlink">
    <!-- Generator: Sketch 50.2 (55047) - http://www.bohemiancoding.com/sketch -->
    <title>LM1.2.Menu-Registered-NotSCBCustomer Copy</title>
    <desc>Created with Sketch.</desc>
    <defs></defs>
    <g id="LM1.2.Menu-Registered-NotSCBCustomer-Copy" stroke="none" stroke-width="1" fill="none" fill-rule="evenodd">
        <g id="Page-1" transform="translate(2.000000, 3.000000)" fill="#4E2A81">
            <path d="M8.26307878,1.56665616 C8.26307878,1.78788591 8.3967822,1.99164273 8.6086507,2.07928917 C10.6341841,2.91742582 12.0120639,4.93301199 11.8037217,7.22224669 C11.58627,9.61321888 9.59776216,11.5727226 7.11058467,11.8398892 C3.90317182,12.1842749 1.17532816,9.77470251 1.17532816,6.76625977 C1.17532816,4.6675363 2.50237136,2.85993426 4.39331975,2.07844371 C4.60460054,1.99107909 4.73683469,1.78704045 4.73683469,1.56665616 C4.73683469,1.15998798 4.30134355,0.885494 3.91228128,1.04725945 C1.5543994,2.02856133 -0.0776639007,4.31187777 0.00285200592,6.95310731 C0.100117572,10.1419157 2.76683966,12.7913181 6.08679847,12.9877475 C9.86516901,13.2115137 13,10.3411634 13,6.76625977 C13,4.20450385 11.389388,2.00517016 9.08733833,1.04697762 C8.69827607,0.885494 8.26307878,1.1602698 8.26307878,1.56665616" id="Fill-1"></path>
            <path d="M6.5,7 C6.224,7 6,6.7677037 6,6.48148148 L6,0.518518519 C6,0.232296296 6.224,0 6.5,0 C6.776,0 7,0.232296296 7,0.518518519 L7,6.48148148 C7,6.7677037 6.776,7 6.5,7" id="Fill-3"></path>
        </g>
    </g>
</svg>