<?xml version="1.0" encoding="UTF-8"?>
<svg width="56px" height="56px" viewBox="0 0 56 56" version="1.1" xmlns="http://www.w3.org/2000/svg" xmlns:xlink="http://www.w3.org/1999/xlink">
    <!-- Generator: Sketch 50.2 (55047) - http://www.bohemiancoding.com/sketch -->
    <title>medicine</title>
    <desc>Created with Sketch.</desc>
    <defs></defs>
    <g id="medicine" stroke="none" stroke-width="1" fill="none" fill-rule="evenodd">
        <path d="M31.2565582,35.3556884 L31.2565582,39.8123789 C31.2565582,41.5990568 29.8209092,43.0522611 28.055815,43.0522611 L27.064551,43.0522611 C26.4323823,43.0522611 25.9206441,43.5706274 25.9206441,44.2101558 C25.9206441,44.8496842 26.4323823,45.3680505 27.064551,45.3680505 L28.055815,45.3680505 C31.0823183,45.3680505 33.5443722,42.8758905 33.5443722,39.8123789 L33.5443722,35.3556884 C33.5443722,34.71616 33.0326339,34.1977937 32.4004652,34.1977937 C31.7686625,34.1977937 31.2565582,34.71616 31.2565582,35.3556884 Z M38.12,16.1872505 C38.12,10.5700716 33.6051365,6 28.055815,6 L27.064551,6 C21.5148635,6 17,10.5700716 17,16.1872505 L17,23.8349137 C17,24.4744421 17.5117382,24.9928084 18.143907,24.9928084 C18.7753436,24.9928084 19.2878139,24.4744421 19.2878139,23.8349137 L19.2878139,16.1872505 C19.2878139,11.8469053 22.7762726,8.31578947 27.064551,8.31578947 L28.055815,8.31578947 C32.3440935,8.31578947 35.8321861,11.8469053 35.8321861,16.1872505 L35.8321861,26.8873095 L18.143907,26.8873095 C17.5117382,26.8873095 17,27.4053053 17,28.0452042 L17,39.8123789 C17,45.4299284 21.5148635,50 27.064551,50 L28.055815,50 C33.6051365,50 38.12,45.4299284 38.12,39.8123789 L38.12,32.1135832 C38.12,31.4740547 37.6082618,30.9556884 36.976093,30.9556884 C36.3442903,30.9556884 35.8321861,31.4740547 35.8321861,32.1135832 L35.8321861,39.8123789 C35.8321861,44.1530947 32.3440935,47.6842105 28.055815,47.6842105 L27.064551,47.6842105 C22.7762726,47.6842105 19.2878139,44.1530947 19.2878139,39.8123789 L19.2878139,29.2030989 L36.976093,29.2030989 C37.6082618,29.2030989 38.12,28.6843621 38.12,28.0452042 C38.12,28.0370526 38.1178037,28.0300126 38.1178037,28.0226021 C38.1178037,28.0148211 38.12,28.0077811 38.12,28 L38.12,16.1872505 Z" id="Fill-1" fill="#333333"></path>
    </g>
</svg>