<?xml version="1.0" encoding="UTF-8"?>
<svg width="35px" height="27px" viewBox="0 0 35 27" version="1.1" xmlns="http://www.w3.org/2000/svg" xmlns:xlink="http://www.w3.org/1999/xlink">
    <!-- Generator: Sketch 50.2 (55047) - http://www.bohemiancoding.com/sketch -->
    <title>Icon 1 Copy</title>
    <desc>Created with Sketch.</desc>
    <defs></defs>
    <g id="Icon-1-Copy" stroke="none" stroke-width="1" fill="none" fill-rule="evenodd">
        <path d="M19.9655761,17.401923 L19.9655761,19.8920126 C19.9655761,20.8902843 19.163435,21.702234 18.1772228,21.702234 L17.6233732,21.702234 C17.2701611,21.702234 16.9842373,21.9918612 16.9842373,22.3491853 C16.9842373,22.7065094 17.2701611,22.9961366 17.6233732,22.9961366 L18.1772228,22.9961366 C19.8682229,22.9961366 21.2438479,21.6036904 21.2438479,19.8920126 L21.2438479,17.401923 C21.2438479,17.0445988 20.957924,16.7549717 20.604712,16.7549717 C20.2517044,16.7549717 19.9655761,17.0445988 19.9655761,17.401923 Z M23.8003914,6.69192914 C23.8003914,3.55343908 21.2777988,1 18.1772228,1 L17.6233732,1 C14.5225926,1 12,3.55343908 12,6.69192914 L12,10.964913 C12,11.3222371 12.2859238,11.6118642 12.6391359,11.6118642 C12.9919389,11.6118642 13.2782718,11.3222371 13.2782718,10.964913 L13.2782718,6.69192914 C13.2782718,4.2668452 15.2273806,2.29390256 17.6233732,2.29390256 L18.1772228,2.29390256 C20.5732154,2.29390256 22.5221196,4.2668452 22.5221196,6.69192914 L22.5221196,12.6703801 L12.6391359,12.6703801 C12.2859238,12.6703801 12,12.9598002 12,13.3173313 L12,19.8920126 C12,23.0307097 14.5225926,25.5841487 17.6233732,25.5841487 L18.1772228,25.5841487 C21.2777988,25.5841487 23.8003914,23.0307097 23.8003914,19.8920126 L23.8003914,15.5904594 C23.8003914,15.2331352 23.5144676,14.9435081 23.1612555,14.9435081 C22.808248,14.9435081 22.5221196,15.2331352 22.5221196,15.5904594 L22.5221196,19.8920126 C22.5221196,22.3173035 20.5732154,24.2902462 18.1772228,24.2902462 L17.6233732,24.2902462 C15.2273806,24.2902462 13.2782718,22.3173035 13.2782718,19.8920126 L13.2782718,13.9642826 L23.1612555,13.9642826 C23.5144676,13.9642826 23.8003914,13.6744484 23.8003914,13.3173313 C23.8003914,13.3127768 23.7991642,13.3088433 23.7991642,13.3047029 C23.7991642,13.3003553 23.8003914,13.2964219 23.8003914,13.2920744 L23.8003914,6.69192914 Z" id="Fill-1" fill="#FFFFFF"></path>
    </g>
</svg>