<?xml version="1.0" encoding="UTF-8"?>
<svg width="35px" height="27px" viewBox="0 0 35 27" version="1.1" xmlns="http://www.w3.org/2000/svg" xmlns:xlink="http://www.w3.org/1999/xlink">
    <!-- Generator: Sketch 50.2 (55047) - http://www.bohemiancoding.com/sketch -->
    <title>Icon 1</title>
    <desc>Created with Sketch.</desc>
    <defs></defs>
    <g id="Icon-1" stroke="none" stroke-width="1" fill="none" fill-rule="evenodd">
        <path d="M20.1003172,17.6793684 L20.1003172,20.2115789 C20.1003172,21.2267368 19.2846075,22.0524211 18.2817131,22.0524211 L17.7184949,22.0524211 C17.3593081,22.0524211 17.0685478,22.3469474 17.0685478,22.7103158 C17.0685478,23.0736842 17.3593081,23.3682105 17.7184949,23.3682105 L18.2817131,23.3682105 C20.0013172,23.3682105 21.4002114,21.9522105 21.4002114,20.2115789 L21.4002114,17.6793684 C21.4002114,17.316 21.1094511,17.0214737 20.7502643,17.0214737 C20.3912855,17.0214737 20.1003172,17.316 20.1003172,17.6793684 Z M24,6.78821053 C24,3.59663158 21.4347366,1 18.2817131,1 L17.7184949,1 C14.5652634,1 12,3.59663158 12,6.78821053 L12,11.1334737 C12,11.4968421 12.2907604,11.7913684 12.6499471,11.7913684 C13.008718,11.7913684 13.2998943,11.4968421 13.2998943,11.1334737 L13.2998943,6.78821053 C13.2998943,4.32210526 15.2819731,2.31578947 17.7184949,2.31578947 L18.2817131,2.31578947 C20.7182349,2.31578947 22.7001057,4.32210526 22.7001057,6.78821053 L22.7001057,12.8677895 L12.6499471,12.8677895 C12.2907604,12.8677895 12,13.1621053 12,13.5256842 L12,20.2115789 C12,23.4033684 14.5652634,26 17.7184949,26 L18.2817131,26 C21.4347366,26 24,23.4033684 24,20.2115789 L24,15.8372632 C24,15.4738947 23.7092396,15.1793684 23.3500529,15.1793684 C22.9910741,15.1793684 22.7001057,15.4738947 22.7001057,15.8372632 L22.7001057,20.2115789 C22.7001057,22.6778947 20.7182349,24.6842105 18.2817131,24.6842105 L17.7184949,24.6842105 C15.2819731,24.6842105 13.2998943,22.6778947 13.2998943,20.2115789 L13.2998943,14.1835789 L23.3500529,14.1835789 C23.7092396,14.1835789 24,13.8888421 24,13.5256842 C24,13.5210526 23.9987521,13.5170526 23.9987521,13.5128421 C23.9987521,13.5084211 24,13.5044211 24,13.5 L24,6.78821053 Z" id="Fill-1" fill="#D5D5D5"></path>
    </g>
</svg>