<?xml version="1.0" encoding="UTF-8"?>
<svg width="24px" height="22px" viewBox="0 0 24 22" version="1.1" xmlns="http://www.w3.org/2000/svg" xmlns:xlink="http://www.w3.org/1999/xlink">
    <!-- Generator: Sketch 51.2 (57519) - http://www.bohemiancoding.com/sketch -->
    <title>Combined Shape</title>
    <desc>Created with Sketch.</desc>
    <defs></defs>
    <g id="Symbols" stroke="none" stroke-width="1" fill="none" fill-rule="evenodd">
        <g id="Navigation/more" transform="translate(-325.000000, -11.000000)" fill="#4E2A81">
            <g id="Group-4" transform="translate(325.000000, 11.000000)">
                <g id="Group-2">
                    <path d="M1.5,0 L22.5,0 C23.3284271,-1.52179594e-16 24,0.671572875 24,1.5 C24,2.32842712 23.3284271,3 22.5,3 L1.5,3 C0.671572875,3 1.01453063e-16,2.32842712 0,1.5 C-1.01453063e-16,0.671572875 0.671572875,5.96268804e-16 1.5,4.4408921e-16 Z M1.5,19 L22.5,19 C23.3284271,19 24,19.6715729 24,20.5 C24,21.3284271 23.3284271,22 22.5,22 L1.5,22 C0.671572875,22 1.01453063e-16,21.3284271 0,20.5 C-1.01453063e-16,19.6715729 0.671572875,19 1.5,19 Z M1.5,9.5 L22.5,9.5 C23.3284271,9.5 24,10.1715729 24,11 C24,11.8284271 23.3284271,12.5 22.5,12.5 L1.5,12.5 C0.671572875,12.5 1.01453063e-16,11.8284271 0,11 C-1.01453063e-16,10.1715729 0.671572875,9.5 1.5,9.5 Z" id="Combined-Shape"></path>
                </g>
            </g>
        </g>
    </g>
</svg>