<?xml version="1.0" encoding="UTF-8"?>
<svg width="17px" height="19px" viewBox="0 0 17 19" version="1.1" xmlns="http://www.w3.org/2000/svg" xmlns:xlink="http://www.w3.org/1999/xlink">
    <!-- Generator: Sketch 50.2 (55047) - http://www.bohemiancoding.com/sketch -->
    <title>LM1.2.Menu-Registered-NotSCBCustomer Copy</title>
    <desc>Created with Sketch.</desc>
    <defs></defs>
    <g id="LM1.2.Menu-Registered-NotSCBCustomer-Copy" stroke="none" stroke-width="1" fill="none" fill-rule="evenodd">
        <path d="M12.106888,10.8606096 C11.594885,10.5026876 11.0391612,10.2272001 10.4555118,10.0370379 C11.223284,9.44807188 11.719595,8.521986 11.719595,7.48177182 C11.719595,5.70645987 10.2753119,4.26217678 8.5,4.26217678 C6.72468805,4.26217678 5.28040496,5.70645987 5.28040496,7.48177182 C5.28040496,8.52203762 5.77671597,9.44807188 6.54448819,10.0370379 C5.96078722,10.2272518 5.40506342,10.5027908 4.89306042,10.8606613 C4.09524629,11.4181917 3.44604156,12.1419334 2.98261148,12.9815068 C2.34424661,11.9732445 1.97403938,10.7791042 1.97403938,9.5 C1.97403938,5.90152584 4.90157746,2.97398776 8.50005162,2.97398776 C12.0985258,2.97398776 15.0260122,5.90152584 15.0260122,9.5 C15.0260122,10.7791042 14.655805,11.9732445 14.0173885,12.9815068 C13.5539068,12.1418818 12.9047021,11.4181401 12.106888,10.8606096 M12.106888,10.8606096 C11.594885,10.5026876 11.0391612,10.2272001 10.4555118,10.0370379 C11.223284,9.44807188 11.719595,8.521986 11.719595,7.48177182 C11.719595,5.70645987 10.2753119,4.26217678 8.5,4.26217678 C6.72468805,4.26217678 5.28040496,5.70645987 5.28040496,7.48177182 C5.28040496,8.52203762 5.77671597,9.44807188 6.54448819,10.0370379 C5.96078722,10.2272518 5.40506342,10.5027908 4.89306042,10.8606613 C4.09524629,11.4181917 3.44604156,12.1419334 2.98261148,12.9815068 C2.34424661,11.9732445 1.97403938,10.7791042 1.97403938,9.5 C1.97403938,5.90152584 4.90157746,2.97398776 8.50005162,2.97398776 C12.0985258,2.97398776 15.0260122,5.90152584 15.0260122,9.5 C15.0260122,10.7791042 14.655805,11.9732445 14.0173885,12.9815068 C13.5539068,12.1418818 12.9047021,11.4181401 12.106888,10.8606096 M6.25439273,7.48166858 C6.25439273,6.24339456 7.2617776,5.23606131 8.5,5.23606131 C9.7382224,5.23606131 10.7456073,6.24339456 10.7456073,7.48166858 C10.7456073,8.7199426 9.73817078,9.72727586 8.5,9.72727586 C7.26182922,9.72727586 6.25439273,8.7199426 6.25439273,7.48166858 M8.5,16.0259606 C6.57024577,16.0259606 4.83369925,15.1838063 3.63790718,13.8479735 C4.0319105,12.9690668 4.65380909,12.2161607 5.45110704,11.65894 C6.34746072,11.032499 7.40181834,10.7013152 8.5,10.7013152 C9.59818166,10.7013152 10.6524877,11.032499 11.5489446,11.6589916 C12.3461909,12.2161091 12.9680379,12.9691184 13.3620412,13.8480251 C12.1662491,15.1838063 10.4297542,16.0259606 8.5,16.0259606 M8.5,2 C4.36448791,2 1,5.36448791 1,9.5 C1,13.6355121 4.36448791,17 8.5,17 C12.6355121,17 16,13.6355121 16,9.5 C16,5.36448791 12.6355121,2 8.5,2" id="Fill-1" fill="#4E2A81"></path>
    </g>
</svg>