<?xml version="1.0" encoding="UTF-8"?>
<svg width="56px" height="56px" viewBox="0 0 56 56" version="1.1" xmlns="http://www.w3.org/2000/svg" xmlns:xlink="http://www.w3.org/1999/xlink">
    <!-- Generator: Sketch 51.2 (57519) - http://www.bohemiancoding.com/sketch -->
    <title>My money</title>
    <desc>Created with Sketch.</desc>
    <defs></defs>
    <g id="My-money" stroke="none" stroke-width="1" fill="none" fill-rule="evenodd">
        <path d="M17.1521545,51.4872689 C17.1098284,52.5082592 17.0675021,53.5571228 17.0747286,54.6359245 L10.3562202,54.6359245 L10.3562202,51.7814876 C10.3562202,51.6266356 10.3128616,51.4748807 10.2313063,51.3437728 C9.10604901,49.5320053 7.76296679,48.0908502 6.46324301,46.6961507 C4.36654807,44.4477008 2.38650823,42.3221002 1.76710061,38.9824606 C1.29944779,36.5027652 2.20171833,31.0922393 2.68588865,28.1851527 C2.78499386,27.589489 2.87067855,27.073316 2.93261939,26.667604 C3.03275689,26.026517 3.25677606,26.0389052 3.33007263,26.0430346 C3.81733993,26.0698755 4.62566693,26.7821944 4.6638638,27.5771009 C4.72993391,28.9356683 4.72373985,29.9298176 4.71651339,31.3049026 C4.71341641,31.6672561 4.71135172,32.0543859 4.71031932,32.4828095 C4.42539182,32.6046264 4.16007889,32.7594783 3.9236716,32.9432359 C2.81906126,33.8042126 2.09538666,35.5478451 3.68932899,37.6300871 C4.99524683,39.3293288 6.28980884,41.0203118 7.38099866,42.4459817 C8.44225045,43.8324226 9.28051547,44.9277418 9.78842976,45.5832815 C10.0661309,45.9435704 10.5812716,46.0075758 10.937431,45.72781 C11.2946228,45.4470119 11.3586282,44.9287741 11.0809271,44.5695177 C10.5750775,43.9170749 9.73784486,42.8227881 8.67865775,41.4384119 C7.58643554,40.0117096 6.29084124,38.3196943 4.98492339,36.621485 C4.45636223,35.9298131 4.01658275,34.9573431 4.92607964,34.2481213 C5.118096,34.0984311 5.3534709,33.9828084 5.60329872,33.9084795 C5.68382174,33.9012531 5.76124768,33.8816385 5.83247956,33.8527328 C6.37549363,33.7505305 6.93812219,33.8486034 7.23130855,34.2285067 C7.60088845,34.7126771 7.91885096,35.2309148 8.25539587,35.7801229 C9.17005453,37.2708308 10.20653,38.9607813 12.5664732,40.2666991 C17.4979905,42.9714459 17.3452033,46.7291857 17.1521545,51.4872689 Z M13.3510562,38.8193499 C19.1765853,42.0134287 18.9876659,46.6486628 18.7884231,51.5543714 C18.7378382,52.8128012 18.6841561,54.112525 18.728547,55.4328957 C18.7357735,55.6569147 18.6531858,55.8737075 18.4993662,56.0337211 C18.3445143,56.1947672 18.131851,56.2856136 17.9098966,56.2856136 L9.53653735,56.2856136 C9.08540213,56.2856136 8.71788692,55.9160337 8.71788692,55.460769 L8.71788692,52.0209919 C7.69999366,50.4342759 6.4653077,49.1097758 5.26881861,47.8265697 C3.10398877,45.5027586 0.864830069,43.0994569 0.157673072,39.288035 C-0.364694126,36.5203151 0.53344704,31.1314684 1.07026695,27.911581 C1.16833987,27.3221114 1.25402456,26.8131647 1.3139007,26.4136468 C1.55753436,24.8537718 2.5599424,24.3489545 3.417822,24.3954102 C4.85175079,24.4738685 6.22477103,25.9511557 6.30013228,27.4965778 C6.36826718,28.8995362 6.36207311,29.9133001 6.35381436,31.3152261 C6.35278197,31.5836361 6.35071728,31.8675313 6.34968499,32.1700087 C7.18382063,32.1989143 7.99008294,32.5220387 8.52793525,33.2199046 C8.95016474,33.7742744 9.30529183,34.3523883 9.64803069,34.9129523 C10.5358484,36.3582368 11.373081,37.7240307 13.3510562,38.8193499 Z M43.0065313,28.1049383 C43.0065313,31.09831 41.8043498,33.8439961 39.6204873,35.8375635 C37.2825764,37.9710834 34.0153409,39.0997647 30.1731928,39.0997647 L25.2698224,39.0997647 C21.4276743,39.0997647 18.1604388,37.9710834 15.8225279,35.8375635 C13.6396722,33.8439961 12.4364838,31.09831 12.4364838,28.1049383 C12.4364838,24.7873602 13.3335891,21.8433243 15.1801561,19.1056931 C16.7468182,16.782885 18.7494473,14.9987428 20.3583972,13.5659921 C21.8002096,12.2812486 23.071864,11.147533 23.392043,10.1688726 C22.7204725,9.90709112 22.2432246,9.25364402 22.2432246,8.49145682 C22.2432246,7.76148902 22.6801984,7.13220632 23.3054537,6.85028772 L21.6159556,1.64284792 C21.4649278,1.11727112 21.5545376,0.648077916 21.858607,0.336960616 C22.1616695,0.0258432161 22.628849,-0.0758487839 23.139323,0.0570557161 C23.1926862,0.0731653161 25.6997483,0.868578616 26.5324151,1.10619572 C27.0680605,1.25823042 28.0084605,1.25722352 28.5441058,1.10418202 C29.367711,0.867571716 31.8485949,0.0751790161 31.8727593,0.0671242161 C32.4124321,-0.0748419839 32.8786047,0.0268501161 33.1826741,0.336960616 C33.4847298,0.646064216 33.5753465,1.11122992 33.4333803,1.61465612 L32.1023216,6.83417802 C32.7467071,7.10804192 33.1997906,7.74739302 33.1997906,8.49145682 C33.1997906,9.25364402 32.7225426,9.90709112 32.051979,10.1688726 C32.372158,11.147533 33.6428056,12.2812486 35.0856248,13.5659921 C36.6935678,14.9987428 38.6961969,16.782885 40.262859,19.1056931 C42.109426,21.8433243 43.0065313,24.7873602 43.0065313,28.1049383 Z M30.0866035,37.4384586 C33.5109079,37.4384586 36.4035944,36.4507365 38.4515318,34.5820188 C40.324277,32.8713768 41.3552937,30.5143357 41.3563005,27.9428351 C41.3563005,21.2231033 37.1547061,17.4796267 34.0868274,14.7470298 C32.4325692,13.2740049 31.084394,12.0718234 30.7793178,10.7619086 L29.6727872,10.7619086 L30.0211581,11.8060144 C30.1178159,12.0959878 29.9607469,12.4101257 29.6707735,12.5067835 C29.6123761,12.5259137 29.5539786,12.5349754 29.4955812,12.5349754 C29.2640052,12.5349754 29.0465251,12.3889818 28.9700043,12.156399 L28.5048386,10.7619086 L26.9391834,10.7619086 L26.4740176,12.156399 C26.39649,12.3889818 26.1810236,12.5349754 25.9484408,12.5349754 C25.8900434,12.5349754 25.8306391,12.5259137 25.7732485,12.5067835 C25.4822682,12.4101257 25.3251992,12.0959878 25.4228639,11.8060144 L25.7702279,10.7619086 L24.6636973,10.7619086 C24.359628,12.0718234 23.0114528,13.2740049 21.3571946,14.7470298 C18.2893158,17.4796267 14.0877215,21.2231033 14.0877215,27.9428351 C14.0877215,30.5143357 15.1187382,32.8713768 16.9924902,34.5820188 C19.0394208,36.4507365 21.9321072,37.4384586 25.3574185,37.4384586 L30.0866035,37.4384586 Z M32.0509722,8.49145682 C32.0509722,8.13201062 31.758985,7.84002342 31.3995388,7.84002342 L28.3366943,7.84002342 L28.3346806,7.84002342 L28.3326669,7.84002342 L27.1113551,7.84002342 L27.1083346,7.84002342 L27.1063209,7.84002342 L24.0454901,7.84002342 L24.0444832,7.84002342 L24.0434764,7.84002342 C23.685037,7.84103032 23.3930498,8.13301742 23.3930498,8.49145682 C23.3930498,8.85090312 23.685037,9.14289022 24.0444832,9.14289022 L28.9367782,9.14289022 L31.3995388,9.14289022 C31.758985,9.14289022 32.0509722,8.85090312 32.0509722,8.49145682 Z M22.907747,1.51598452 L24.5851629,6.69019822 L26.4186408,6.69019822 L26.001804,5.02285092 C25.9283037,4.72784322 26.1075234,4.42880812 26.403538,4.35430102 C26.6985457,4.28080082 26.9985877,4.46102732 27.0720879,4.75603502 L27.5553769,6.69019822 L27.8705217,6.69019822 L28.3548176,4.75603502 C28.4293247,4.46102732 28.7283598,4.28080082 29.0233675,4.35430102 C29.3193821,4.42880812 29.4986018,4.72784322 29.4251015,5.02285092 L29.0082647,6.69019822 L30.8145576,6.69019822 L32.1274929,1.54014902 C32.1284998,1.53511472 32.1305135,1.52907362 32.1315204,1.52403942 C32.1526642,1.45154602 32.1556848,1.40221022 32.154678,1.37502522 C32.1284998,1.37301152 32.0831914,1.37502522 32.0167392,1.39113492 C31.7912043,1.46262142 29.5882116,2.16540422 28.8068943,2.38993232 C28.0950497,2.59432332 26.9814712,2.59533012 26.2696266,2.39194602 C25.4802545,2.16741792 23.2520905,1.46161452 23.0255487,1.38912122 C22.9580896,1.37301152 22.9127813,1.37099782 22.8866031,1.37401842 C22.8855963,1.40019652 22.88761,1.44651172 22.907747,1.51598452 Z M54.4922822,27.4804645 C55.0445155,30.7592447 55.9693773,36.2462462 55.4357238,39.0780139 C54.7296909,42.887428 52.4908235,45.2897332 50.3252432,47.613579 C49.1289097,48.8978368 47.8943844,50.2223566 46.8776557,51.8090963 L46.8776557,55.2478926 C46.8776557,55.7041963 46.5101883,56.0737817 46.0580796,56.0737817 L37.6858096,56.0737817 C37.4638841,56.0737817 37.2512485,55.9829339 37.0974489,55.8218855 C36.9436493,55.6608371 36.8600402,55.4440412 36.8672657,55.2210511 C36.9116508,53.9006607 36.859008,52.6009175 36.8073973,51.3435012 C36.6081805,46.4356545 36.420318,41.8013836 42.2461214,38.6051923 C44.222807,37.5170832 45.0578663,36.1595278 45.9414397,34.7224806 C46.2903272,34.1536495 46.6516013,33.5672681 47.0830658,33.0077281 C47.5764631,32.3604374 48.3630085,31.9856902 49.2558717,31.9536869 C49.2538073,31.7317292 49.2507106,31.5211276 49.2486462,31.3187846 C49.233163,29.7826307 49.2228409,28.7678194 49.2950958,27.2832834 C49.369415,25.7347412 50.7494822,24.2563994 52.1894176,24.1831018 C53.0451212,24.1407749 54.0463667,24.6466321 54.2806788,26.2024009 C54.335386,26.5492744 54.4076409,26.9838986 54.4922822,27.4804645 Z M53.8265056,38.7724349 C54.3054519,36.2297284 53.3764612,30.7179502 52.877903,27.7571374 C52.7932616,27.2533449 52.7179101,26.8125266 52.6621707,26.4553294 C52.566175,25.8152654 52.3452816,25.8266213 52.2719946,25.8307507 C51.7827263,25.8555274 50.9693433,26.5678569 50.9301193,27.3638076 C50.8599289,28.7987901 50.8712832,29.7939867 50.8867664,31.3012345 C50.889863,31.6026841 50.8929596,31.9237485 50.8960563,32.2716543 C51.6867305,32.6205926 52.3215408,33.2255564 52.6219144,33.9626625 C52.8727419,34.5758853 53.1132473,35.8394958 51.9065916,37.4169442 C50.7102582,38.9809719 49.5180535,40.5398378 48.4837773,41.8901667 C47.3246035,43.404641 46.3646465,44.6579279 45.8258319,45.3671603 C45.5502314,45.7284869 45.0361898,45.7966228 44.6769802,45.5189175 C44.3188026,45.2422446 44.2506767,44.7239991 44.5262772,44.3626726 C45.0671562,43.6534402 46.0271132,42.399121 47.1873193,40.8825818 C48.2205633,39.532253 49.4138002,37.9744195 50.6091014,36.4093594 C50.9786333,35.9262141 51.3646804,35.2190465 51.1086919,34.5913707 C50.9074107,34.0999666 50.3231787,33.709734 49.6553377,33.6199185 C49.1020722,33.5455885 48.6241581,33.6942485 48.3784917,34.0163453 C47.9986378,34.5098142 47.6755554,35.0352862 47.3328612,35.5906967 C46.4214181,37.0742001 45.3871419,38.7559171 43.0306024,40.0535956 C38.0976621,42.7594151 38.2504295,46.5172111 38.4444853,51.2753654 C38.4857738,52.2963709 38.5280944,53.3452502 38.5208689,54.424068 L45.2395356,54.424068 L45.2395356,51.5695883 C45.2395356,51.4147342 45.2828885,51.262977 45.3644333,51.1318671 C46.4895441,49.3200726 47.8324517,47.8788959 49.1309741,46.4841755 C51.2273962,44.2346597 53.2071785,42.1100597 53.8265056,38.7724349 Z M27.7218096,14.8471109 C32.9916742,14.8471109 37.2798579,19.1352945 37.2798579,24.4051591 C37.2798579,29.6760306 32.9916742,33.9642142 27.7218096,33.9642142 C22.451945,33.9642142 18.1637614,29.6760306 18.1637614,24.4051591 C18.1637614,19.1352945 22.451945,14.8471109 27.7218096,14.8471109 Z M27.7218096,32.5334772 C32.2033089,32.5334772 35.8491209,28.8866584 35.8491209,24.4051591 C35.8491209,19.9246667 32.2033089,16.2778479 27.7218096,16.2778479 C23.2403103,16.2778479 19.5944984,19.9246667 19.5944984,24.4051591 C19.5944984,28.8866584 23.2403103,32.5334772 27.7218096,32.5334772 Z M29.9774607,23.9608352 C30.2472971,24.1581783 30.4677977,24.4088845 30.6349352,24.7069127 C30.8030795,25.0099753 30.8876551,25.386538 30.8876551,25.8255256 C30.8876551,26.2504172 30.8171754,26.6491307 30.6782298,27.0105906 C30.5392842,27.3841328 30.329859,27.7163941 30.0590157,27.9973058 C29.791193,28.2792245 29.4569181,28.5118073 29.0682731,28.6859928 C28.7410461,28.8350069 28.380593,28.9195825 27.9708042,28.9437469 L27.9113999,29.8710578 C27.8912629,30.0230925 27.8368928,30.1419011 27.7482898,30.2415795 C27.6264607,30.3613949 27.4875151,30.4187855 27.3334667,30.4187855 L26.6387387,30.4187855 L26.7394239,28.9286442 C26.2873472,28.8642056 25.8624556,28.7363354 25.4707901,28.5470472 C25.0126723,28.3225191 24.6159725,28.0365731 24.2897524,27.6972639 L24.1528205,27.5542909 L24.6028835,26.8555354 C24.6491987,26.7790146 24.7247126,26.7095418 24.8213704,26.6561787 C25.0680492,26.5273016 25.2935841,26.551466 25.5523451,26.7568639 C25.6520235,26.8353984 25.7758663,26.9270219 25.920853,27.0277071 C26.050737,27.1203375 26.213847,27.2139748 26.425286,27.3156669 C26.5430877,27.3720506 26.6810265,27.4163521 26.8370886,27.4505851 L27.0445001,24.4914464 C26.8018487,24.4139187 26.5622179,24.3283363 26.3276213,24.2357059 C26.0134834,24.1118631 25.7285443,23.948753 25.4818655,23.7534237 C25.2210907,23.5429916 25.0116655,23.28121 24.8576171,22.9751269 C24.6995413,22.6599821 24.6199999,22.2703303 24.6199999,21.81624 C24.6199999,21.4698828 24.6884659,21.1265462 24.8233841,20.7962987 C24.967364,20.4519552 25.1616864,20.1629886 25.4184338,19.9132892 C25.6751811,19.6565419 25.9953601,19.445103 26.3658817,19.288034 C26.6729717,19.1531158 27.0263768,19.0735745 27.4160286,19.0514237 L27.4653644,18.3355518 C27.4794603,18.1905651 27.5328235,18.068736 27.624447,17.9650302 C27.7261391,17.8472285 27.8731395,17.7817831 28.0392701,17.7817831 L28.7370187,17.7817831 L28.6423746,19.1007595 C29.0269922,19.1682186 29.3693219,19.2840066 29.6643296,19.4430893 C30.0066594,19.6263364 30.3218041,19.8548918 30.6007022,20.1227145 L30.7507232,20.2677012 L30.357044,20.8657715 C30.1899065,21.1225188 29.9875292,21.1768888 29.8475767,21.1768888 C29.7388367,21.1768888 29.6230487,21.1376216 29.4931648,21.0560665 C29.4106029,21.0067308 29.3048834,20.9443059 29.1800337,20.8738263 C29.0632389,20.8053603 28.926307,20.7389081 28.7732654,20.6724558 C28.7017789,20.6422503 28.6252581,20.6160721 28.5437031,20.5939214 L28.3624697,23.2389222 C28.6121691,23.3184635 28.8608616,23.4030391 29.1035129,23.4936558 C29.4257057,23.6144781 29.7197065,23.771547 29.9774607,23.9608352 Z M29.1981571,26.5705962 C29.2605819,26.4004382 29.293808,26.2061157 29.293808,25.9976973 C29.293808,25.822505 29.2625956,25.6755046 29.2011776,25.5597166 C29.1377459,25.43386 29.0531703,25.3281406 28.9404029,25.2334965 C28.8185738,25.1378455 28.6776144,25.0532699 28.5124907,24.9797697 C28.4269082,24.9415093 28.3393121,24.9052626 28.2486954,24.8710297 L28.07451,27.4475645 C28.2074145,27.4183658 28.3312573,27.3780917 28.4440247,27.3277491 C28.6343198,27.2431735 28.7883682,27.1394677 28.9172453,27.0095838 C29.0431018,26.8827204 29.1347254,26.7387405 29.1981571,26.5705962 Z M27.1572676,22.8291333 L27.3082954,20.5647226 C27.1753909,20.5909008 27.0555755,20.6261406 26.949856,20.6704421 C26.7786911,20.7419286 26.6357181,20.8335522 26.5269781,20.9412854 C26.418238,21.045998 26.3407104,21.1597723 26.2883541,21.29167 C26.2370046,21.4225607 26.2118333,21.5574789 26.2118333,21.7054862 C26.2118333,21.877658 26.2390183,22.0186173 26.2964089,22.1374258 C26.3517858,22.2572413 26.4313271,22.3629607 26.541074,22.463646 C26.6518278,22.5623175 26.7857391,22.6519273 26.9367669,22.7274412 C27.0072466,22.7626811 27.07974,22.796914 27.1572676,22.8291333 Z" fill="#3C1570"></path>
    </g>
</svg>