<?xml version="1.0" encoding="UTF-8"?>
<svg width="40px" height="40px" viewBox="0 0 40 40" version="1.1" xmlns="http://www.w3.org/2000/svg" xmlns:xlink="http://www.w3.org/1999/xlink">
    <!-- Generator: Sketch 50.2 (55047) - http://www.bohemiancoding.com/sketch -->
    <title>footer Dashboard Copy</title>
    <desc>Created with Sketch.</desc>
    <defs></defs>
    <g id="footer-Dashboard-Copy" stroke="none" stroke-width="1" fill="none" fill-rule="evenodd">
        <path d="M29.8548053,26.4886073 C29.1150035,25.3930343 28.5457479,24.1955475 28.1585619,22.9332064 C27.7805946,21.6893952 27.4279788,19.8433662 27.1214566,17.4460763 C26.953215,16.1327784 26.430053,14.8704374 25.6833372,13.9717432 C25.3491588,13.5640881 24.9688868,13.2073899 24.5540447,12.9039648 C23.7381885,12.3017471 23.0836598,12.0214842 22.3738189,11.7991269 C22.2401475,11.3057716 21.9635861,10.8865354 21.548744,10.5506832 C20.6407006,9.81875699 19.35469,9.81412455 18.451256,10.5506832 C18.043328,10.8865354 17.7690712,11.3057716 17.6353999,11.7991269 C16.9163402,12.0214842 16.2572021,12.3063795 15.4436506,12.9039648 C15.0265038,13.2120223 14.6462319,13.5687205 14.3166628,13.9717432 C13.5791657,14.8611725 13.0583084,16.1281459 12.8900668,17.4460763 C12.5858493,19.8063066 12.2332335,21.6523356 11.8437428,22.9332064 C11.4565568,24.2001799 10.8896059,25.3976667 10.1567181,26.4886073 C10.0483982,26.6461104 10,26.7966649 10,26.954168 C10,27.10009 10.0322655,27.2205335 10.1060152,27.3479257 C10.2627333,27.6281886 10.5116386,27.7741106 10.8273796,27.7741106 L17.4809864,27.7741106 C17.5593455,28.3161065 17.7575478,28.8094618 18.1654759,29.2217494 C18.6863333,29.7452156 19.2924637,30 19.9976953,30 C20.7213644,30 21.3182761,29.7359507 21.813782,29.2217494 C22.214796,28.8048294 22.4153031,28.3161065 22.4959668,27.7741106 L29.1818391,27.7741106 C29.4952754,27.7741106 29.7441807,27.6281886 29.9170316,27.3247635 C29.9746485,27.1996875 30,27.0722953 30,26.9449031 C30,26.7874 29.9539064,26.6368455 29.8548053,26.4886073" id="Fill-21" fill="#D8D8D8"></path>
    </g>
</svg>