<?xml version="1.0" encoding="UTF-8"?>
<svg width="25px" height="25px" viewBox="0 0 25 25" version="1.1" xmlns="http://www.w3.org/2000/svg" xmlns:xlink="http://www.w3.org/1999/xlink">
    <!-- Generator: Sketch 51.2 (57519) - http://www.bohemiancoding.com/sketch -->
    <title>Notification</title>
    <desc>Created with Sketch.</desc>
    <defs></defs>
    <g id="Symbols" stroke="none" stroke-width="1" fill="none" fill-rule="evenodd">
        <g id="Statusbar/Morning" transform="translate(-331.000000, -51.000000)" fill="#A1A1A1" fill-rule="nonzero">
            <path d="M349.327512,54.5324199 C349.878056,54.9351006 350.375587,55.4045879 350.804983,55.9284301 C351.789776,57.1136574 352.464816,58.743942 352.6816,60.4361583 C353.024307,63.116449 353.419351,65.2009808 353.838386,66.5799503 C354.256321,67.9425439 354.869564,69.2290923 355.661773,70.4022749 L354.833026,70.9618984 L355.664362,70.4061283 C355.884815,70.7358884 356,71.1013042 356,71.4866385 C356,71.780767 355.938362,72.0694124 355.773488,72.4184618 C355.402369,73.0699299 354.790195,73.4402272 354.059115,73.4402272 L347.148688,73.4402272 C346.967167,73.9461697 346.690405,74.399178 346.305925,74.7989071 C345.543139,75.5904734 344.595056,76 343.49735,76 C342.415041,76 341.464408,75.5972534 340.679442,74.8083504 C340.285542,74.4102409 340.004384,73.953405 339.821824,73.4402272 L332.951487,73.4402272 C332.224504,73.4402272 331.605266,73.0751015 331.25648,72.4511321 C331.083711,72.152697 331,71.8414159 331,71.4972932 C331,71.1033816 331.122671,70.7349101 331.350145,70.404255 C332.135972,69.2345113 332.74639,67.9473436 333.16356,66.5822579 C333.593217,65.1692956 333.98898,63.0947295 334.331627,60.4363595 C334.548198,58.7398359 335.219954,57.1043666 336.190039,55.9344703 C336.616913,55.4124548 337.112953,54.9436588 337.668203,54.5336182 C338.463157,53.949693 339.173855,53.5721483 340.003242,53.2741875 C340.241973,52.7302795 340.606553,52.2538187 341.087051,51.8582302 C342.491199,50.7134458 344.495357,50.7155638 345.910285,51.8560661 C346.396938,52.2500558 346.766587,52.7282035 347.007591,53.2757475 C347.835644,53.575353 348.537702,53.9494181 349.327512,54.5324199 Z M351.925547,67.1639378 C351.467549,65.6567616 351.053435,63.4715983 350.697781,60.6900555 C350.527822,59.3633519 350.000431,58.0896544 349.262478,57.2014722 C348.936384,56.8036795 348.561977,56.4503761 348.143275,56.1441156 C347.389982,55.5880787 346.775432,55.2878008 345.930965,55.023272 L345.408006,54.8594554 L345.264692,54.3305103 C345.1664,53.9677335 344.966701,53.6654251 344.653494,53.4118524 C343.973578,52.863808 343.019977,52.8628002 342.354552,53.4052981 C342.043826,53.6611224 341.844766,53.9656489 341.745909,54.3305103 L341.601972,54.8617554 L341.07614,55.0243601 C340.234348,55.2846706 339.609347,55.589342 338.854255,56.143983 C338.433042,56.4550429 338.058292,56.8092103 337.733954,57.2058003 C337.011083,58.0775894 336.485674,59.3567613 336.315372,60.6908234 C335.959553,63.4514011 335.54461,65.6265032 335.076644,67.165444 C334.61213,68.6854562 333.936778,70.1213753 333.063107,71.4402272 L341.468956,71.4402272 L341.592844,72.2971398 C341.660898,72.7678537 341.819836,73.1173506 342.099168,73.3996736 C342.510183,73.8127469 342.95217,74 343.49735,74 C344.047544,74 344.477104,73.8144509 344.865128,73.4117868 C345.150289,73.1153155 345.311513,72.7616373 345.381256,72.2930213 L345.508175,71.4402272 L353.94974,71.4402272 C353.072779,70.1244562 352.392451,68.6861939 351.925547,67.1639378 Z" id="Notification"></path>
        </g>
    </g>
</svg>