<?xml version="1.0" encoding="UTF-8"?>
<svg width="56px" height="56px" viewBox="0 0 56 56" version="1.1" xmlns="http://www.w3.org/2000/svg" xmlns:xlink="http://www.w3.org/1999/xlink">
    <!-- Generator: Sketch 51.2 (57519) - http://www.bohemiancoding.com/sketch -->
    <title>Payment</title>
    <desc>Created with Sketch.</desc>
    <defs></defs>
    <g id="Payment" stroke="none" stroke-width="1" fill="none" fill-rule="evenodd">
        <path d="M5.38089234,46.6545454 C2.57550141,46.6545454 0.28,44.5922994 0.28,42.0732793 L0.28,14.5814042 C0.28,12.062936 2.5765768,10 5.38089234,10 L46.3524124,10 L50.6191077,10 C53.424345,10 55.72,12.061004 55.72,14.5814042 L55.72,42.0732793 C55.72,44.5931274 53.424345,46.6545454 50.6191077,46.6545454 L5.38089234,46.6545454 Z M52.0507619,16.5038579 L52.0507619,14.7838476 C52.0507619,13.965794 51.3058224,13.2955364 50.3951189,13.2955364 L5.60457391,13.2955364 C4.69448487,13.2955364 3.94831633,13.964828 3.94831633,14.7838476 L3.94831633,16.5038579 L52.0507619,16.5038579 Z M3.94831633,25.767405 L3.94831633,41.8640739 C3.94831633,42.6825416 4.69448487,43.3519711 5.60457391,43.3519711 L50.3951189,43.3519711 C51.3052079,43.3519711 52.0507619,42.6825416 52.0507619,41.8640739 L52.0507619,25.767405 L3.94831633,25.767405 Z M8.26693766,36.6366999 L8.26693766,33.9494598 L10.4736424,33.9494598 L10.4736424,36.6366999 L8.26693766,36.6366999 Z M12.4022815,36.6366999 L12.4022815,33.9494598 L14.6096007,33.9494598 L14.6096007,36.6366999 L12.4022815,36.6366999 Z M16.5382398,36.6366999 L16.5382398,33.9494598 L18.7446373,33.9494598 L18.7446373,36.6366999 L16.5382398,36.6366999 Z M24.8081592,36.6366999 L24.8081592,33.9494598 L27.0153248,33.9494598 L27.0153248,36.6366999 L24.8081592,36.6366999 Z M28.9428885,36.6366999 L28.9428885,33.9494598 L31.1512831,33.9494598 L31.1512831,36.6366999 L28.9428885,36.6366999 Z M33.0790004,36.6366999 L33.0790004,33.9494598 L35.2853979,33.9494598 L35.2853979,36.6366999 L33.0790004,36.6366999 Z M41.3489199,36.6366999 L41.3489199,33.9494598 L43.5562391,33.9494598 L43.5562391,36.6366999 L41.3489199,36.6366999 Z M45.4833419,36.6366999 L45.4833419,33.9494598 L47.691122,33.9494598 L47.691122,36.6366999 L45.4833419,36.6366999 Z" fill="#4E2A81" fill-rule="nonzero"></path>
    </g>
</svg>