<?xml version="1.0" encoding="UTF-8"?>
<svg width="78px" height="86px" viewBox="0 0 78 86" version="1.1" xmlns="http://www.w3.org/2000/svg" xmlns:xlink="http://www.w3.org/1999/xlink">
    <!-- Generator: Sketch 50.2 (55047) - http://www.bohemiancoding.com/sketch -->
    <title>Fill 1</title>
    <desc>Created with Sketch.</desc>
    <defs></defs>
    <g id="Page-1" stroke="none" stroke-width="1" fill="none" fill-rule="evenodd">
        <g id="Payment" transform="translate(-61.000000, -1783.000000)" fill="#AEAEAE">
            <path d="M61.0008011,1848.61735 C61.0008011,1845.51513 63.5267504,1843 66.6423282,1843 C69.757906,1843 72.2838553,1845.51513 72.2838553,1848.61735 L72.2838553,1857.7645 L127.716145,1857.7645 L127.716145,1848.61735 C127.716145,1845.51513 130.242094,1843 133.357672,1843 C136.47325,1843 139,1845.51513 139,1848.61735 L139,1863.38265 C139,1866.48408 136.47325,1869 133.357672,1869 L66.6423282,1869 L66.6415271,1869 L66.4973244,1868.9984 L66.4965233,1868.9984 L66.3523207,1868.99202 L66.3507184,1868.99202 L66.2081181,1868.98325 L66.0655177,1868.97128 L66.0647166,1868.97128 L65.9245196,1868.95453 L65.9229173,1868.95453 L65.7835215,1868.93539 L65.7827203,1868.93539 L65.6441256,1868.91225 L65.6433245,1868.91225 L65.5055308,1868.88593 L65.5047297,1868.88593 L65.3685384,1868.85562 L65.3677372,1868.85562 L65.232347,1868.82291 L65.2315459,1868.82291 L65.0977579,1868.78622 L65.0969567,1868.78622 L64.964771,1868.74713 L64.9639699,1868.74713 L64.8333864,1868.70485 L64.8325853,1868.70485 L64.703604,1868.65939 L64.7020018,1868.65939 L64.5738217,1868.60993 L64.5730206,1868.60993 L64.4464427,1868.55808 L64.4456416,1868.55808 L64.3214671,1868.50384 L64.3198648,1868.50384 L64.1964915,1868.4456 L64.1956904,1868.4456 L64.0739193,1868.38498 L64.0731181,1868.38498 L63.9537504,1868.32196 L63.9529493,1868.32196 L63.8351838,1868.25575 C62.140803,1867.28576 61,1865.46223 61,1863.38265 L61.0008011,1863.28613 L61.0008011,1848.61735 Z M75.7921174,1825.71845 C73.5016574,1823.59994 73.3922405,1820.05687 75.5473478,1817.8053 C77.7016446,1815.55453 81.3051072,1815.44697 83.5955672,1817.56548 L95.2918265,1828.4138 L95.2918265,1788.6106 C95.2918265,1785.5129 97.848129,1783 101.000146,1783 C104.152162,1783 106.707654,1785.5129 106.707654,1788.6106 L106.707654,1828.4138 L118.404724,1817.56548 C120.694374,1815.44697 124.298647,1815.55453 126.452944,1817.8053 C128.608051,1820.05687 128.497823,1823.59994 126.208174,1825.71845 L104.901871,1845.47983 L104.877556,1845.50134 L104.795696,1845.57544 L104.790833,1845.57942 C104.6879,1845.67025 104.582535,1845.7555 104.473929,1845.83757 L104.457719,1845.85111 L104.391258,1845.90051 L104.341818,1845.93556 L104.276168,1845.98257 L104.225917,1846.01683 L104.202413,1846.03197 L104.106775,1846.09491 L104.105964,1846.09491 L104.009515,1846.15546 L103.986821,1846.1706 L103.921982,1846.20884 L103.864436,1846.24231 L103.800407,1846.27896 L103.742862,1846.31083 L103.678023,1846.34509 L103.618856,1846.37536 L103.588868,1846.3897 L103.509439,1846.42874 L103.492419,1846.43751 L103.42839,1846.46699 L103.41137,1846.47575 L103.3133,1846.51877 L103.292227,1846.52833 L103.188483,1846.57215 L103.156874,1846.58411 L103.072582,1846.61757 L103.047457,1846.62793 L102.980996,1846.65183 L102.916967,1846.67493 L102.898326,1846.68131 L102.797824,1846.71477 L102.771889,1846.72353 L102.679492,1846.75222 L102.634104,1846.76656 C102.466332,1846.81516 102.296938,1846.85659 102.125924,1846.89005 L102.123492,1846.89085 L102.051358,1846.90439 L101.98814,1846.91555 L101.970309,1846.91873 L101.868186,1846.93546 L101.836577,1846.93945 L101.740938,1846.9522 L101.718245,1846.95618 L101.6453,1846.96494 L101.582892,1846.97132 L101.548851,1846.9745 L101.455644,1846.98168 L101.445918,1846.98247 L101.372974,1846.98805 L101.309755,1846.99203 L101.283819,1846.99283 L101.200338,1846.99681 L101.173592,1846.99761 L101.099837,1846.9992 L101.086058,1846.9992 L101.000146,1847 L100.914233,1846.9992 L100.899644,1846.9992 L100.825889,1846.99761 L100.799143,1846.99681 L100.717283,1846.99283 L100.689726,1846.99203 L100.626507,1846.98805 L100.553563,1846.98247 L100.544647,1846.98168 L100.45063,1846.9745 L100.416589,1846.97132 L100.354181,1846.96494 L100.281236,1846.95618 L100.258542,1846.9522 L100.162904,1846.93945 L100.131295,1846.93546 L100.029172,1846.91873 L100.011341,1846.91555 L99.9481226,1846.90439 L99.8759885,1846.89085 L99.8743676,1846.89005 C99.7041635,1846.85659 99.53477,1846.81516 99.3669974,1846.76656 L99.3199887,1846.75222 L99.2284027,1846.72353 L99.2016564,1846.71477 L99.1011549,1846.68131 L99.0825135,1846.67493 L99.0192949,1846.65183 L98.9528343,1846.62793 L98.9277089,1846.61757 L98.8426069,1846.58411 L98.8118081,1846.57215 L98.7072542,1846.52833 L98.6869918,1846.51877 L98.5889218,1846.47575 L98.5710909,1846.46699 L98.5070618,1846.43751 L98.4908519,1846.42874 L98.4114233,1846.3897 L98.381435,1846.37536 L98.3222688,1846.34509 L98.2566187,1846.31083 L98.1990735,1846.27896 L98.1350444,1846.24231 L98.0791202,1846.20884 L98.0134701,1846.1706 L97.9899657,1846.15546 L97.8943273,1846.09491 L97.8927063,1846.09491 L97.7970678,1846.03197 L97.7751844,1846.01683 L97.7233127,1845.98257 L97.6576626,1845.93556 L97.6090329,1845.90051 L97.5425723,1845.85111 L97.5255518,1845.83757 C97.4169455,1845.7555 97.3115811,1845.67025 97.2086481,1845.57942 L97.2054062,1845.57544 L97.1219251,1845.50134 L97.0984208,1845.47983 L75.7921174,1825.71845 Z" id="Fill-1"></path>
        </g>
    </g>
</svg>