<?xml version="1.0" encoding="UTF-8"?>
<svg width="37px" height="58px" viewBox="0 0 37 58" version="1.1" xmlns="http://www.w3.org/2000/svg" xmlns:xlink="http://www.w3.org/1999/xlink">
    <!-- Generator: Sketch 50.2 (55047) - http://www.bohemiancoding.com/sketch -->
    <title>Icons/change payment</title>
    <desc>Created with Sketch.</desc>
    <defs>
        <path d="M48.1031746,44.484127 L48.1031746,12.2142857 L33.7777778,12.2142857 C33.1954976,12.2142857 32.7222222,12.687561 32.7222222,13.2698413 L32.7222222,31.3525421 C32.7222889,31.3603261 32.7222888,31.3681091 32.7222222,31.3758903 L32.7222222,37.0448587 L36.4371805,33.3299005 C38.2731028,31.4939781 40.6827408,32.5393301 41.935033,34.8877858 C43.0974992,37.0677885 43.0575564,39.7946143 41.4843617,41.7603913 L41.3844068,41.8720474 L38.7723273,44.484127 L48.1031746,44.484127 Z M50.8174603,44.484127 L53.0793651,44.484127 C53.6616453,44.484127 54.1349206,44.0108516 54.1349206,43.4285714 L54.1349206,13.2698413 C54.1349206,12.687561 53.6616453,12.2142857 53.0793651,12.2142857 L50.8174603,12.2142857 L50.8174603,44.484127 Z M43.2777778,47.1984127 L38.7539683,47.1984127 L38.7539683,47.5593867 C38.7539683,50.1478589 37.6920945,51.9510778 35.9044551,52.9348583 C35.2611018,53.288911 34.5685145,53.511721 33.8528609,53.6338021 C33.3754945,53.7152346 32.9688794,53.7419263 32.5714286,53.7419263 C31.8218993,53.7419263 31.2142857,53.1343128 31.2142857,52.3847835 C31.2142857,51.6352542 31.8218993,51.0276406 32.5714286,51.0276406 C33.2509662,51.0276406 33.9602362,50.9066485 34.5957988,50.5568832 C35.5149139,50.0510723 36.0396825,49.1599375 36.0396825,47.5593867 L36.0396825,43.940339 C36.0396825,43.5804024 36.1826668,43.2352078 36.4371805,42.9806941 L39.4068203,40.0110543 C40.2034715,38.9649073 40.2142875,37.4294648 39.5399829,36.164924 C39.0241646,35.1975968 38.5944731,35.0111875 38.3564703,35.2491903 L28.7056767,44.8999839 C28.1756794,45.4299812 27.3163841,45.4299812 26.7863868,44.8999839 C26.2563896,44.3699867 26.2563896,43.5106914 26.7863868,42.9806941 L30.0079365,39.7591444 L30.0079365,34.1873364 L26.2503241,37.1909584 C24.581634,38.7203943 24.2777778,39.2773466 24.2777778,41.015873 L24.2777778,49.2056125 L24.2788189,57.7539683 L39.6587302,57.7539683 L39.6587302,56.6984127 C39.6587302,56.2712421 39.8598508,55.8690008 40.2015873,55.6126984 C40.2833375,55.5513857 40.4497443,55.415685 40.6719236,55.2151065 C41.0499219,54.8738579 41.4288459,54.4854609 41.7798617,54.0613168 C42.7280428,52.915598 43.2777778,51.7474111 43.2777778,50.6666667 L43.2777778,47.1984127 Z M45.9920635,47.1984127 L45.9920635,50.6666667 C45.9920635,52.4887 45.1846556,54.2044417 43.870932,55.7918578 C43.3459113,56.4262577 42.8219807,56.9482727 42.3730159,57.3414068 L42.3730159,57.7539683 L43.4285714,57.7539683 C44.1781007,57.7539683 44.7857143,58.3615818 44.7857143,59.1111111 L44.7857143,65.1428571 C44.7857143,65.8923864 44.1781007,66.5 43.4285714,66.5 C42.6790421,66.5 42.0714286,65.8923864 42.0714286,65.1428571 L42.0714286,60.468254 L23.0714286,60.468254 L23.0714286,65.1428571 C23.0714286,65.8923864 22.463815,66.5 21.7142857,66.5 C20.9647564,66.5 20.3571429,65.8923864 20.3571429,65.1428571 L20.3571429,59.1111111 C20.3571429,58.4121939 20.8854685,57.8366737 21.5645341,57.7621364 L21.5634921,49.2057778 L21.5634921,41.015873 C21.5634921,38.4189092 22.2336579,37.190531 24.4855329,35.1307257 L30.0079365,30.7128028 L30.0079365,13.2698413 C30.0079365,11.1885024 31.696439,9.5 33.7777778,9.5 L53.0793651,9.5 C55.1607039,9.5 56.8492063,11.1885024 56.8492063,13.2698413 L56.8492063,43.4285714 C56.8492063,45.5099103 55.1607039,47.1984127 53.0793651,47.1984127 L45.9920635,47.1984127 Z" id="path-1"></path>
    </defs>
    <g id="Page-1" stroke="none" stroke-width="1" fill="none" fill-rule="evenodd">
        <g id="Policy-Dashboard" transform="translate(-86.000000, -1867.000000)">
            <g id="Icons/change-payment" transform="translate(66.000000, 1858.000000)">
                <mask id="mask-2" fill="white">
                    <use xlink:href="#path-1"></use>
                </mask>
                <use id="Mask" fill="#FFFFFF" fill-rule="nonzero" xlink:href="#path-1"></use>
                <g id="Fill/Primary/SCB-Purple" mask="url(#mask-2)" fill="#4E2683" fill-rule="evenodd">
                    <rect id="SCB-Purple" x="0" y="0" width="76" height="76"></rect>
                </g>
            </g>
        </g>
    </g>
</svg>