<?xml version="1.0" encoding="UTF-8"?>
<svg width="56px" height="56px" viewBox="0 0 56 56" version="1.1" xmlns="http://www.w3.org/2000/svg" xmlns:xlink="http://www.w3.org/1999/xlink">
    <!-- Generator: Sketch 51.2 (57519) - http://www.bohemiancoding.com/sketch -->
    <title>Passbook_icon</title>
    <desc>Created with Sketch.</desc>
    <defs>
        <path d="M43.6223696,21.5 L13.7927535,21.5 L13.7927535,19.7082118 C13.7927535,18.8550135 14.2554726,18.1577917 14.8198432,18.1577917 L42.595661,18.1577917 C43.1604126,18.1577917 43.6223696,18.8560198 43.6223696,19.7082118 L43.6223696,21.5 Z M13.7927535,23.3333333 L43.6223696,23.3333333 L43.6223696,36.6103388 C43.6223696,37.285435 43.1600316,37.8376001 42.595661,37.8376001 L14.8198432,37.8376001 C14.2554726,37.8376001 13.7927535,37.285435 13.7927535,36.6103388 L13.7927535,23.3333333 Z M15.0362454,40 C13.3663699,40 12,38.6497199 12,37.0003614 L12,18.9997289 C12,17.3507319 13.36701,16 15.0362454,16 L39.424055,16 L41.9637546,16 C43.6335387,16 45,17.3494669 45,18.9997289 L45,37.0003614 C45,38.650262 43.6335387,40 41.9637546,40 L15.0362454,40 Z M16.1666667,27 C15.8905243,27 15.6666667,27.2238576 15.6666667,27.5 L15.6666667,28.3333333 C15.6666667,28.6094757 15.8905243,28.8333333 16.1666667,28.8333333 L22.5,28.8333333 C22.7761424,28.8333333 23,28.6094757 23,28.3333333 L23,27.5 C23,27.2238576 22.7761424,27 22.5,27 L16.1666667,27 Z M16.1666667,30.6666667 C15.8905243,30.6666667 15.6666667,30.8905243 15.6666667,31.1666667 L15.6666667,32 C15.6666667,32.2761424 15.8905243,32.5 16.1666667,32.5 L22.5,32.5 C22.7761424,32.5 23,32.2761424 23,32 L23,31.1666667 C23,30.8905243 22.7761424,30.6666667 22.5,30.6666667 L16.1666667,30.6666667 Z M16.1666667,34.3333333 C15.8905243,34.3333333 15.6666667,34.557191 15.6666667,34.8333333 L15.6666667,35.6666667 C15.6666667,35.942809 15.8905243,36.1666667 16.1666667,36.1666667 L22.5,36.1666667 C22.7761424,36.1666667 23,35.942809 23,35.6666667 L23,34.8333333 C23,34.557191 22.7761424,34.3333333 22.5,34.3333333 L16.1666667,34.3333333 Z M25.3333333,27 C25.057191,27 24.8333333,27.2238576 24.8333333,27.5 L24.8333333,28.3333333 C24.8333333,28.6094757 25.057191,28.8333333 25.3333333,28.8333333 L31.6666667,28.8333333 C31.942809,28.8333333 32.1666667,28.6094757 32.1666667,28.3333333 L32.1666667,27.5 C32.1666667,27.2238576 31.942809,27 31.6666667,27 L25.3333333,27 Z M25.3333333,30.6666667 C25.057191,30.6666667 24.8333333,30.8905243 24.8333333,31.1666667 L24.8333333,32 C24.8333333,32.2761424 25.057191,32.5 25.3333333,32.5 L31.6666667,32.5 C31.942809,32.5 32.1666667,32.2761424 32.1666667,32 L32.1666667,31.1666667 C32.1666667,30.8905243 31.942809,30.6666667 31.6666667,30.6666667 L25.3333333,30.6666667 Z M25.3333333,34.3333333 C25.057191,34.3333333 24.8333333,34.557191 24.8333333,34.8333333 L24.8333333,35.6666667 C24.8333333,35.942809 25.057191,36.1666667 25.3333333,36.1666667 L31.6666667,36.1666667 C31.942809,36.1666667 32.1666667,35.942809 32.1666667,35.6666667 L32.1666667,34.8333333 C32.1666667,34.557191 31.942809,34.3333333 31.6666667,34.3333333 L25.3333333,34.3333333 Z M34.5,27 C34.2238576,27 34,27.2238576 34,27.5 L34,28.3333333 C34,28.6094757 34.2238576,28.8333333 34.5,28.8333333 L40.8333333,28.8333333 C41.1094757,28.8333333 41.3333333,28.6094757 41.3333333,28.3333333 L41.3333333,27.5 C41.3333333,27.2238576 41.1094757,27 40.8333333,27 L34.5,27 Z M34.5,30.6666667 C34.2238576,30.6666667 34,30.8905243 34,31.1666667 L34,32 C34,32.2761424 34.2238576,32.5 34.5,32.5 L40.8333333,32.5 C41.1094757,32.5 41.3333333,32.2761424 41.3333333,32 L41.3333333,31.1666667 C41.3333333,30.8905243 41.1094757,30.6666667 40.8333333,30.6666667 L34.5,30.6666667 Z M34.5,34.3333333 C34.2238576,34.3333333 34,34.557191 34,34.8333333 L34,35.6666667 C34,35.942809 34.2238576,36.1666667 34.5,36.1666667 L40.8333333,36.1666667 C41.1094757,36.1666667 41.3333333,35.942809 41.3333333,35.6666667 L41.3333333,34.8333333 C41.3333333,34.557191 41.1094757,34.3333333 40.8333333,34.3333333 L34.5,34.3333333 Z" id="path-1"></path>
    </defs>
    <g id="Passbook_icon" stroke="none" stroke-width="1" fill="none" fill-rule="evenodd">
        <circle id="Mask" fill="#4E2A81" cx="28" cy="28" r="28"></circle>
        <mask id="mask-2" fill="white">
            <use xlink:href="#path-1"></use>
        </mask>
        <use id="Passbook" fill="#FFFFFF" xlink:href="#path-1"></use>
    </g>
</svg>