<?xml version="1.0" encoding="UTF-8"?>
<svg width="56px" height="56px" viewBox="0 0 56 56" version="1.1" xmlns="http://www.w3.org/2000/svg" xmlns:xlink="http://www.w3.org/1999/xlink">
    <!-- Generator: Sketch 50.2 (55047) - http://www.bohemiancoding.com/sketch -->
    <title>Payment method</title>
    <desc>Created with Sketch.</desc>
    <defs></defs>
    <g id="Payment-method" stroke="none" stroke-width="1" fill="none" fill-rule="evenodd">
        <g id="Group-13" transform="translate(7.000000, 13.000000)" fill="#666666">
            <path d="M39.3299312,5.50053461 L2.78679748,5.50053461 L2.78679748,4.0458632 C2.78679748,3.35319032 3.35365716,2.78714761 4.04504623,2.78714761 L38.0721493,2.78714761 C38.7640052,2.78714761 39.3299312,3.35400729 39.3299312,4.0458632 L39.3299312,5.50053461 Z M2.78679748,13.3350325 L39.3299312,13.3350325 L39.3299312,26.9485347 C39.3299312,27.6407408 38.7635383,28.2069002 38.0721493,28.2069002 L4.04504623,28.2069002 C3.35365716,28.2069002 2.78679748,27.6407408 2.78679748,26.9485347 L2.78679748,13.3350325 Z M6.0676277,22.5275661 L7.7440478,22.5275661 L7.7440478,20.2548755 L6.0676277,20.2548755 L6.0676277,22.5275661 Z M9.20922309,22.5275661 L10.88611,22.5275661 L10.88611,20.2548755 L9.20922309,20.2548755 L9.20922309,22.5275661 Z M12.3512853,22.5275661 L14.027472,22.5275661 L14.027472,20.2548755 L12.3512853,20.2548755 L12.3512853,22.5275661 Z M18.6338925,22.5275661 L20.3106628,22.5275661 L20.3106628,20.2548755 L18.6338925,20.2548755 L18.6338925,22.5275661 Z M21.7750211,22.5275661 L23.452725,22.5275661 L23.452725,20.2548755 L21.7750211,20.2548755 L21.7750211,22.5275661 Z M24.9172,22.5275661 L26.5933867,22.5275661 L26.5933867,20.2548755 L24.9172,20.2548755 L24.9172,22.5275661 Z M31.1998072,22.5275661 L32.8766942,22.5275661 L32.8766942,20.2548755 L31.1998072,20.2548755 L31.1998072,22.5275661 Z M34.3407024,22.5275661 L36.0179394,22.5275661 L36.0179394,20.2548755 L34.3407024,20.2548755 L34.3407024,22.5275661 Z M38.2423122,31 L3.87511671,31 C1.74387838,31 0,29.2558882 0,27.1254668 L0,3.87464987 C0,1.74469535 1.74469535,0 3.87511671,0 L35.0009299,0 L38.2423122,0 C40.3734338,0 42.1174289,1.74306141 42.1174289,3.87464987 L42.1174289,27.1254668 C42.1174289,29.2565885 40.3734338,31 38.2423122,31 Z" id="Fill-1"></path>
        </g>
    </g>
</svg>