<?xml version="1.0" encoding="UTF-8"?>
<svg width="56px" height="56px" viewBox="0 0 56 56" version="1.1" xmlns="http://www.w3.org/2000/svg" xmlns:xlink="http://www.w3.org/1999/xlink">
    <!-- Generator: Sketch 51.2 (57519) - http://www.bohemiancoding.com/sketch -->
    <title>Cash_icon</title>
    <desc>Created with Sketch.</desc>
    <defs>
        <path d="M43.301297,28.7245279 L40.3135717,29.9085995 L40.3135717,23.7376173 C40.3135717,23.3844578 40.025449,23.0982698 39.6700815,23.0982698 L39.6597856,23.0982698 L38.2962297,19.6956624 C38.2811077,19.6672114 38.2634922,19.6402789 38.2434635,19.6151046 C38.1744492,19.3071789 37.8874525,19.0969934 37.5710162,19.122807 C36.2729355,19.2403671 35.0030879,18.6970016 34.1971967,17.6791604 C33.9966691,17.4331714 33.6441973,17.3720338 33.3715987,17.5359465 C33.3410329,17.5395429 33.3107085,17.5450572 33.2808666,17.5525696 L20.1266386,22.7568583 C19.9674552,22.8187951 19.8401245,22.9418694 19.7733624,23.0982698 L15.7785748,23.0982698 L37.5877469,14.4702752 L43.301297,28.7245279 Z M33.5112361,18.83574 C34.4728519,19.8399152 35.8052789,20.4107726 37.2003658,20.416207 L38.2749946,23.1014666 L22.7366351,23.1014666 L33.5112361,18.83574 Z M13.2869805,39.721305 L39.0265912,39.721305 L39.0265912,24.3769648 L13.2869805,24.3769648 L13.2869805,39.721305 Z M12.6434903,41 C12.2881228,41 12,40.7137322 12,40.3606525 L12,23.7376173 C12.0023327,23.5038559 12.1341677,23.2903938 12.3429803,23.1826637 C12.4091794,23.0933948 12.497981,23.0232264 12.6003764,22.9793512 L37.7087231,13.045809 C37.7089644,13.0456492 37.7092057,13.0455692 37.709447,13.0454893 C38.039638,12.9149026 38.413908,13.0750591 38.5452605,13.4032042 L44.7343498,28.8434465 C44.7344303,28.8435264 44.7344303,28.8436863 44.7345107,28.8438461 C44.8661849,29.1717515 44.7053928,29.5436919 44.3752823,29.6745983 L40.3135717,31.2819179 L40.3135717,40.3606525 C40.3135717,40.7137322 40.025449,41 39.6700815,41 L12.6434903,41 Z M18.5211413,27.1388994 L33.5681959,27.1388994 C34.0918123,28.4104552 35.1248493,29.4182644 36.4280902,29.9289764 L36.4280902,34.4807408 C35.1254171,34.9919278 34.0927857,35.9995787 33.5688449,37.2708179 L18.5211413,37.2708179 C17.9972004,35.9995787 16.964569,34.9919278 15.6618959,34.4807408 L15.6618959,29.9289764 C16.9649746,29.4182644 17.9977683,28.4104552 18.5211413,27.1388994 Z M14.8273544,35.5287611 C16.0872784,35.8920854 17.0731859,36.8529554 17.4471397,38.0820046 C17.5291499,38.3501838 17.7819945,38.5340623 18.0688276,38.5341414 C18.1024915,38.5320834 18.1359121,38.5271758 18.1687649,38.5195768 C18.1978862,38.5276507 18.2276565,38.5335874 18.2576702,38.5373077 L33.8323159,38.5373077 C33.8590849,38.533904 33.8855293,38.5286006 33.9114871,38.5214766 C34.2357155,38.5984158 34.5624586,38.4043262 34.6413863,38.0879413 C34.6416297,38.0868331 34.6419542,38.0856457 34.6421975,38.0845376 C35.0151778,36.854301 36.0012476,35.8920854 37.2619827,35.5281279 C37.5677163,35.4368615 37.7576945,35.1396321 37.707158,34.8315585 C37.7158376,34.800767 37.7220837,34.7695005 37.7259774,34.7378382 L37.7259774,29.671879 C37.7221648,29.6401376 37.7156754,29.608792 37.7065091,29.5781588 C37.75737,29.270006 37.5673107,28.9725392 37.2613338,28.8815894 C36.0005987,28.517711 35.0147723,27.5550204 34.6428465,26.3245464 C34.5489119,26.0241509 34.2412315,25.8382935 33.923817,25.8901404 C33.8938033,25.8819874 33.8632219,25.8760507 33.8323159,25.8724096 L18.2576702,25.8724096 C18.2249796,25.8761299 18.1926136,25.8824623 18.1609776,25.8914069 C17.8453477,25.8423304 17.5408309,26.0276337 17.4471397,26.3258129 C17.073916,27.5557328 16.0879273,28.517711 14.8273544,28.8815894 C14.5216209,28.9727766 14.3316427,29.2700851 14.3821792,29.5781588 C14.3737429,29.6088711 14.367659,29.6402168 14.3640087,29.671879 L14.3640087,34.7378382 C14.3677402,34.7675216 14.373824,34.7969675 14.3821792,34.8258593 C14.3289658,35.1359118 14.5193496,35.4364657 14.8273544,35.5287611 Z M26.5317007,29.4977941 C27.9652982,29.4977941 29.127475,30.648303 29.127475,32.0676869 C29.127475,33.4869905 27.9652982,34.6375797 26.5317007,34.6375797 C25.0981033,34.6375797 23.9359264,33.4869905 23.9359264,32.0676869 C23.9359264,30.648303 25.0981033,29.4977941 26.5317007,29.4977941 Z M26.5317007,35.9225261 C28.6821375,35.9225261 30.4253622,34.1966022 30.4253622,32.0676869 C30.4253622,29.9386913 28.6821375,28.2128477 26.5317007,28.2128477 C24.381264,28.2128477 22.6380393,29.9386913 22.6380393,32.0676869 C22.6401484,34.1957188 24.3821563,35.9203578 26.5317007,35.9225261 Z M19.7853659,33.5882353 C20.464272,33.5882353 21.0146341,33.0351753 21.0146341,32.3529412 C21.0146341,31.6707071 20.464272,31.1176471 19.7853659,31.1176471 C19.1064597,31.1176471 18.5560976,31.6707071 18.5560976,32.3529412 C18.5560976,33.0351753 19.1064597,33.5882353 19.7853659,33.5882353 Z M32.897561,33.5882353 C33.5764671,33.5882353 34.1268293,33.0351753 34.1268293,32.3529412 C34.1268293,31.6707071 33.5764671,31.1176471 32.897561,31.1176471 C32.2186548,31.1176471 31.6682927,31.6707071 31.6682927,32.3529412 C31.6682927,33.0351753 32.2186548,33.5882353 32.897561,33.5882353 Z" id="path-1"></path>
    </defs>
    <g id="Cash_icon" stroke="none" stroke-width="1" fill="none" fill-rule="evenodd">
        <circle id="Mask" fill="#4E2A81" cx="28" cy="28" r="28"></circle>
        <mask id="mask-2" fill="white">
            <use xlink:href="#path-1"></use>
        </mask>
        <use id="Mask" fill="#FFFFFF" xlink:href="#path-1"></use>
    </g>
</svg>