<?xml version="1.0" encoding="UTF-8"?>
<svg width="56px" height="56px" viewBox="0 0 56 56" version="1.1" xmlns="http://www.w3.org/2000/svg" xmlns:xlink="http://www.w3.org/1999/xlink">
    <!-- Generator: Sketch 51.2 (57519) - http://www.bohemiancoding.com/sketch -->
    <title>Credit card icon</title>
    <desc>Created with Sketch.</desc>
    <defs>
        <path d="M42.8159297,20.2584784 L14.1835216,20.2584784 L14.1835216,19.1322812 C14.1835216,18.5960183 14.6276696,18.1577917 15.1693892,18.1577917 L41.8304279,18.1577917 C42.3725133,18.1577917 42.8159297,18.5966508 42.8159297,19.1322812 L42.8159297,20.2584784 Z M14.1835216,26.3238962 L42.8159297,26.3238962 L42.8159297,36.8633817 C42.8159297,37.3992832 42.3721475,37.8376001 41.8304279,37.8376001 L15.1693892,37.8376001 C14.6276696,37.8376001 14.1835216,37.3992832 14.1835216,36.8633817 L14.1835216,26.3238962 Z M16.7541296,33.4406963 L18.0676443,33.4406963 L18.0676443,31.6811939 L16.7541296,31.6811939 L16.7541296,33.4406963 Z M19.2156437,33.4406963 L20.5295242,33.4406963 L20.5295242,31.6811939 L19.2156437,31.6811939 L19.2156437,33.4406963 Z M21.6775237,33.4406963 L22.9908555,33.4406963 L22.9908555,31.6811939 L21.6775237,31.6811939 L21.6775237,33.4406963 Z M26.6000948,33.4406963 L27.9138838,33.4406963 L27.9138838,31.6811939 L26.6000948,31.6811939 L26.6000948,33.4406963 Z M29.0612432,33.4406963 L30.3757638,33.4406963 L30.3757638,31.6811939 L29.0612432,31.6811939 L29.0612432,33.4406963 Z M31.5232145,33.4406963 L32.8365464,33.4406963 L32.8365464,31.6811939 L31.5232145,31.6811939 L31.5232145,33.4406963 Z M36.4457856,33.4406963 L37.7596661,33.4406963 L37.7596661,31.6811939 L36.4457856,31.6811939 L36.4457856,33.4406963 Z M38.9067511,33.4406963 L40.220906,33.4406963 L40.220906,31.6811939 L38.9067511,31.6811939 L38.9067511,33.4406963 Z M15.0362454,40 C13.3663699,40 12,38.6497199 12,37.0003614 L12,18.9997289 C12,17.3507319 13.36701,16 15.0362454,16 L39.424055,16 L41.9637546,16 C43.6335387,16 45,17.3494669 45,18.9997289 L45,37.0003614 C45,38.650262 43.6335387,40 41.9637546,40 L15.0362454,40 Z" id="path-1"></path>
    </defs>
    <g id="Credit-card-icon" stroke="none" stroke-width="1" fill="none" fill-rule="evenodd">
        <circle id="Mask" fill="#4E2A81" cx="28" cy="28" r="28"></circle>
        <mask id="mask-2" fill="white">
            <use xlink:href="#path-1"></use>
        </mask>
        <use id="Payment" fill="#FFFFFF" xlink:href="#path-1"></use>
    </g>
</svg>