<?xml version="1.0" encoding="UTF-8"?>
<svg width="56px" height="56px" viewBox="0 0 56 56" version="1.1" xmlns="http://www.w3.org/2000/svg" xmlns:xlink="http://www.w3.org/1999/xlink">
    <!-- Generator: Sketch 51.2 (57519) - http://www.bohemiancoding.com/sketch -->
    <title>Cheque_icon</title>
    <desc>Created with Sketch.</desc>
    <defs>
        <path d="M41.0708785,14.7499534 L40.5902171,16.0250965 L36.4549401,14.4692366 L36.9329532,13.1940935 C37.2997389,12.2248259 38.5642889,11.7375438 39.6871563,12.1586191 C40.2459417,12.3691567 40.6987963,12.7624252 40.9570028,13.2616245 C41.2099128,13.7489066 41.2496369,14.2745886 41.0708785,14.7499534 Z M38.0995171,22.6523977 L38.0611172,22.6378322 L36.0298924,21.8751298 L33.96424,21.0978619 L36.1027199,15.4027525 L40.2406452,16.9586125 L38.0995171,22.6523977 Z M34.732239,30.0715323 L31.6059536,28.8983477 L34.1165157,22.2233776 L35.6816446,22.8086458 L37.242801,23.3965622 L34.732239,30.0715323 Z M32.27067,32.7979286 L31.6628915,32.5662047 L31.5066434,29.9258773 L34.1297571,30.9097105 L32.27067,32.7979286 Z M42.5711247,14.4904228 C43.6648612,14.9035532 44.2236466,16.1310274 43.8118403,17.2287362 L42.048091,21.9227987 C42.3049734,22.2154328 42.4056077,22.6245909 42.2599527,23.015211 C42.0507392,23.5753206 41.4230987,23.8560374 40.8669616,23.6481481 C40.3055279,23.4349622 40.0208386,22.8126182 40.2300521,22.2538328 C40.3783553,21.8632126 40.7292514,21.623544 41.114575,21.5719027 L42.8783243,16.8778402 C43.0954826,16.2978686 42.8015244,15.6437453 42.2189045,15.4252629 L41.9249463,15.3153596 L38.856923,23.472038 C38.8105782,23.5938585 38.7178887,23.6931687 38.5987164,23.7501066 C38.5311855,23.7779134 38.4610063,23.7951272 38.3921512,23.7951272 C38.3325651,23.7951272 38.2729789,23.7845341 38.2160411,23.7620238 L38.1736687,23.7461341 L35.4896448,30.8898484 C35.4671345,30.953407 35.4300587,31.0143172 35.3810657,31.0619861 L31.6311122,34.864905 C31.5357744,34.9628911 31.4086574,35.0158565 31.2775679,35.0158565 C31.2179818,35.0158565 31.1583956,35.0026152 31.1014578,34.9840773 C30.9147546,34.913898 30.7876375,34.7457328 30.7783686,34.5431399 L30.4645483,29.2187887 C30.4645483,29.2148163 30.4671966,29.2134921 30.4671966,29.2095197 C30.4645483,29.1777404 30.4751414,29.1433129 30.480438,29.1128578 C30.4857345,29.0784302 30.4857345,29.0479751 30.4989759,29.0148717 L30.4989759,29.0122234 L33.1829997,21.8685091 L33.1445998,21.8565919 C32.8850691,21.7586059 32.7539796,21.4739166 32.8519657,21.2117376 L35.9994372,12.8445216 C36.4205125,11.7229783 37.5274903,11 38.818523,11 C39.2316535,11 39.6434598,11.0754758 40.0367282,11.2211307 C40.8272375,11.5217096 41.4720918,12.0844675 41.8468223,12.8034734 C42.0997323,13.2987003 42.1990425,13.8230582 42.1566701,14.336823 L42.5711247,14.4904228 Z M39.4493414,27.0311834 L38.5409841,27.0311834 L38.9170387,26.0314606 L39.4493414,26.0314606 C40.8277671,26.0314606 41.945338,27.1516798 41.945338,28.5274572 L41.945338,38.5101193 C41.945338,39.8858967 40.8277671,41.0047917 39.4493414,41.0047917 L14.4946724,41.0047917 C13.118895,41.0047917 12,39.8858967 12,38.5101193 L12,28.5274572 C12,27.1516798 13.118895,26.0314606 14.4946724,26.0314606 L30.01752,26.0314606 L29.6427895,27.0311834 L14.4946724,27.0311834 C13.6697356,27.0311834 12.9970745,27.7025204 12.9970745,28.5274572 L12.9970745,38.5101193 C12.9970745,39.3350561 13.6697356,40.0063931 14.4946724,40.0063931 L39.4493414,40.0063931 C40.2742782,40.0063931 40.9469394,39.3350561 40.9469394,38.5101193 L40.9469394,28.5274572 C40.9469394,27.7025204 40.2742782,27.0311834 39.4493414,27.0311834 Z M42.6769232,28.3656478 C43.4290325,28.7973161 43.9388249,29.5970943 43.9388249,30.5266379 L43.9388249,40.5053276 C43.9388249,41.881105 42.821254,43 41.4454766,43 L16.4921317,43 C15.5652365,43 14.7641341,42.4888835 14.335114,41.73545 C14.3894036,41.7394224 14.4383966,41.7539879 14.4953345,41.7539879 L15.6671949,41.7539879 C15.9042153,41.9115601 16.1862563,42.0029255 16.4921317,42.0029255 L41.4454766,42.0029255 C42.2730617,42.0029255 42.9430746,41.3315885 42.9430746,40.5053276 L42.9430746,30.5266379 C42.9430746,30.2181142 42.850385,29.9347491 42.6954611,29.7017011 L42.6954611,28.5285165 C42.6954611,28.4715787 42.6795715,28.4212615 42.6769232,28.3656478 Z M17.4802021,36.9504194 C17.0763406,36.9120194 16.7082307,36.8153575 16.3771967,36.6538129 C16.0461627,36.48962 15.7627976,36.2870272 15.5218048,36.0394137 L15.7879562,35.6276074 C15.8117906,35.5905316 15.844894,35.5627247 15.8885905,35.5375662 C15.9309629,35.5150558 15.9746593,35.5031386 16.0236524,35.5031386 C16.0858868,35.5031386 16.156066,35.536242 16.2355142,35.5971523 C16.3162865,35.6593867 16.4142725,35.73089 16.5307965,35.8156347 C16.6473205,35.896407 16.7863548,35.9745311 16.9465752,36.0526551 C17.109444,36.1281309 17.304092,36.178448 17.5291951,36.207579 L17.7145742,33.5566585 C17.4802021,33.4891276 17.2524507,33.405707 17.0299958,33.3196382 C16.8048927,33.2282728 16.5996516,33.1157212 16.4248656,32.9753628 C16.2461072,32.8323561 16.1017764,32.6535977 15.9945214,32.4390877 C15.8885905,32.2245776 15.8316526,31.9531297 15.8316526,31.6326888 C15.8316526,31.3890477 15.8806457,31.1493791 15.9746593,30.9203036 C16.0699971,30.6846073 16.2077073,30.4780421 16.3877898,30.301932 C16.5691965,30.1178771 16.7942996,29.9722221 17.060451,29.8556981 C17.3266023,29.7404983 17.6324777,29.6862087 17.9780773,29.6862087 L18.0283944,28.9526373 C18.0350151,28.8904029 18.0588496,28.8347892 18.1025461,28.7857962 C18.1462426,28.7368031 18.2058287,28.7103204 18.2760079,28.7103204 L18.6070419,28.7103204 L18.5368627,29.7020983 C18.8890829,29.7404983 19.1896618,29.8331878 19.4399235,29.9682497 C19.6928335,30.1033116 19.9179367,30.2688286 20.1205295,30.4621525 L19.9060194,30.7905382 C19.8384885,30.8898484 19.7603645,30.9401656 19.6756198,30.9401656 C19.629275,30.9401656 19.5723371,30.9229518 19.5048062,30.8779312 C19.434627,30.836883 19.3525305,30.7892141 19.2558686,30.7362486 C19.1578825,30.6779867 19.0466551,30.6250212 18.919538,30.5720558 C18.7963934,30.5124696 18.6507384,30.4740697 18.4878697,30.4515594 L18.3223527,32.8654595 C18.5633454,32.9409353 18.7990417,33.0230317 19.0307655,33.1091005 C19.2638134,33.1938452 19.4730269,33.3063968 19.6597301,33.444107 C19.8490816,33.5831413 19.998709,33.7526307 20.1125847,33.9578718 C20.2264604,34.164437 20.2833982,34.4186711 20.2833982,34.7258707 C20.2833982,35.0277738 20.2344052,35.3111389 20.135095,35.5733178 C20.0344606,35.8354968 19.8901298,36.0685447 19.6981301,36.2684893 C19.5048062,36.469758 19.2717582,36.6313026 18.9950138,36.7597438 C18.7156211,36.8828884 18.4004767,36.9437987 18.0429599,36.9437987 L17.9833738,37.8389147 C17.9767531,37.9024732 17.9529187,37.9554387 17.9065739,38.00708 C17.8602292,38.0534248 17.8032913,38.0785833 17.7331121,38.0785833 L17.4047263,38.0785833 L17.4802021,36.9504194 Z M19.4399235,34.8609326 C19.4399235,34.6940915 19.4094684,34.5497606 19.347234,34.4305884 C19.2876479,34.3087678 19.2042273,34.2054852 19.0956481,34.1180923 C18.9897173,34.0359958 18.8626002,33.9605201 18.7235659,33.8969615 C18.5818833,33.8307547 18.4256353,33.7738169 18.2627665,33.7221756 L18.0946012,36.207579 C18.3077872,36.1890411 18.501111,36.1373998 18.6692763,36.0619241 C18.8374416,35.9904207 18.9791242,35.8937588 19.0929999,35.7772348 C19.2095238,35.6593867 19.2955927,35.5243248 19.3551788,35.3680767 C19.4134408,35.2158011 19.4399235,35.0449875 19.4399235,34.8609326 Z M16.6698308,31.5439717 C16.6698308,31.7081645 16.6989618,31.8432264 16.7558996,31.9623987 C16.8128375,32.0775985 16.8896374,32.1848535 16.9902717,32.2748948 C17.0922302,32.3636119 17.2061059,32.4404118 17.3398437,32.5092669 C17.4722573,32.5741496 17.6165881,32.6337357 17.7741603,32.6867011 L17.9224636,30.4369939 C17.7066294,30.4555318 17.5212503,30.5005524 17.3610298,30.5654351 C17.2034577,30.6316419 17.0763406,30.7150625 16.973058,30.8156968 C16.8724236,30.9163311 16.7969479,31.0275586 16.7453066,31.1533515 C16.6989618,31.2778203 16.6698308,31.4115581 16.6698308,31.5439717 Z M27.4701469,33.020251 L21.9816028,33.020251 C21.7048583,33.020251 21.4810793,32.7991203 21.4810793,32.5184034 C21.4810793,32.2443072 21.7048583,32.0218524 21.9816028,32.0218524 L27.4701469,32.0218524 C27.7468914,32.0218524 27.9719945,32.2443072 27.9719945,32.5184034 C27.9719945,32.7991203 27.7468914,33.020251 27.4701469,33.020251 Z M37.9545242,37.0139779 L21.9814704,37.0139779 C21.7060501,37.0139779 21.4809469,36.7888748 21.4809469,36.5121303 C21.4809469,36.2380342 21.7060501,36.012931 21.9814704,36.012931 L37.9545242,36.012931 C38.2286204,36.012931 38.4510752,36.2380342 38.4510752,36.5121303 C38.4510752,36.7888748 38.2286204,37.0139779 37.9545242,37.0139779 Z" id="path-1"></path>
    </defs>
    <g id="Cheque_icon" stroke="none" stroke-width="1" fill="none" fill-rule="evenodd">
        <circle id="Mask" fill="#4E2A81" cx="28" cy="28" r="28"></circle>
        <mask id="mask-2" fill="white">
            <use xlink:href="#path-1"></use>
        </mask>
        <use id="Cheque" fill="#FFFFFF" xlink:href="#path-1"></use>
    </g>
</svg>