<?xml version="1.0" encoding="UTF-8"?>
<svg width="40px" height="40px" viewBox="0 0 40 40" version="1.1" xmlns="http://www.w3.org/2000/svg" xmlns:xlink="http://www.w3.org/1999/xlink">
    <!-- Generator: Sketch 50.2 (55047) - http://www.bohemiancoding.com/sketch -->
    <title>footer Dashboard Copy</title>
    <desc>Created with Sketch.</desc>
    <defs>
        <polygon id="path-1" points="0 0 40 0 40 40 0 40"></polygon>
        <polygon id="path-3" points="0 0 20 0 20 20 0 20"></polygon>
    </defs>
    <g id="footer-Dashboard-Copy" stroke="none" stroke-width="1" fill="none" fill-rule="evenodd">
        <g id="Group-5">
            <g id="Group-6">
                <mask id="mask-2" fill="white">
                    <use xlink:href="#path-1"></use>
                </mask>
                <g id="Clip-5"></g>
                <path d="M40,20.00565 C40,31.0503418 31.0465642,40 19.9977396,40 C8.9556962,40 0,31.0503418 0,20.00565 C0,8.95869823 8.9556962,0 19.9977396,0 C31.0465642,0 40,8.95869823 40,20.00565" id="Fill-4" fill="#4E2B81" mask="url(#mask-2)"></path>
            </g>
            <g id="icon" transform="translate(10.000000, 10.000000)">
                <g id="Group-3">
                    <mask id="mask-4" fill="white">
                        <use xlink:href="#path-3"></use>
                    </mask>
                    <g id="Clip-2"></g>
                    <path d="M9.99432173,20 C9.79583071,20 9.59733969,19.944186 9.43744414,19.8431894 C1.73488975,15.2159468 0.218638881,8.01860465 0.000850120439,4.14352159 C-0.0101771586,3.86710963 0.0863115329,3.59601329 0.276532096,3.39401993 C0.491564037,3.18671096 0.758975553,3.07508306 1.04017117,3.07508306 C1.59980558,3.07508306 2.11257405,2.86777409 2.4819879,2.48770764 C2.86794267,2.10232558 3.06092005,1.59734219 3.03886549,1.06312292 C3.02783821,0.781395349 3.1243269,0.512956811 3.31730429,0.31627907 C3.52130895,0.111627907 3.7942341,0 4.08370018,0 L15.9077001,0 C16.199923,0 16.4783618,0.116943522 16.674096,0.318936877 C16.8643166,0.518272425 16.9718325,0.792026578 16.9552916,1.06312292 C16.9304802,1.59734219 17.1234576,2.10232558 17.5121692,2.48770764 C17.8870967,2.86777409 18.3888379,3.07508306 18.9264177,3.07508306 C19.2351816,3.07508306 19.5053499,3.19202658 19.7010841,3.38870432 C19.9050888,3.59069767 20.0126047,3.86976744 19.9988206,4.14352159 C19.7755182,8.01594684 18.2592674,15.213289 10.5484425,19.8458472 C10.3968174,19.944186 10.1983264,20 9.99432173,20" id="Fill-1" fill="#FFFFFF" mask="url(#mask-4)"></path>
                </g>
                <path d="M9.99745069,4.28571429 C7.49700783,4.28571429 5.39137173,6.16810248 5.19945177,8.57131999 C4.99656496,11.1225905 6.98156566,13.3592484 9.62731934,13.5575337 C12.2812982,13.7558189 14.5953045,11.8073357 14.800933,9.28514698 C15.0010781,6.73652026 13.0133357,4.49986238 10.367582,4.2962895 C10.2442049,4.28835809 10.1208278,4.28571429 9.99745069,4.28571429 M10.0050289,14.2857143 C9.85734462,14.2857143 9.71771587,14.2831245 9.57540195,14.2701757 C6.51699532,14.0422757 4.23191714,11.462863 4.46015644,8.51829235 C4.69108091,5.60738877 7.3306013,3.3775952 10.4292855,3.58477695 C13.4823218,3.81785641 15.7727703,6.39985896 15.5391606,9.34442957 C15.3136065,12.1128957 12.8781589,14.2857143 10.0050289,14.2857143" id="Fill-4" fill="#4E2B81"></path>
                <path d="M11.7220115,7.27085654 L9.20931305,9.43127033 L8.34019474,8.41578955 C8.14801347,8.19140569 7.82101846,8.16263853 7.59154828,8.35825522 C7.36494647,8.54524177 7.35060459,8.88181756 7.53131236,9.10907813 L8.74463594,10.5272992 C8.85363427,10.6481212 8.99992151,10.7142857 9.14907713,10.7142857 C9.27241735,10.7142857 9.3928892,10.671135 9.49041402,10.5848335 L12.4075537,8.07921376 C12.6312871,7.89222722 12.6542341,7.55277471 12.4649212,7.33126757 C12.27274,7.10688372 11.9428766,7.07811656 11.7220115,7.27085654" id="Fill-6" fill="#4E2B81"></path>
            </g>
        </g>
    </g>
</svg>