<?xml version="1.0" encoding="UTF-8"?>
<svg width="56px" height="56px" viewBox="0 0 56 56" version="1.1" xmlns="http://www.w3.org/2000/svg" xmlns:xlink="http://www.w3.org/1999/xlink">
    <!-- Generator: Sketch 50.2 (55047) - http://www.bohemiancoding.com/sketch -->
    <title>policy dashboard</title>
    <desc>Created with Sketch.</desc>
    <defs>
        <path d="M19.9886435,40 C19.5916614,40 19.1946794,39.8883721 18.8748883,39.6863787 C3.46977949,30.4318937 0.437277762,16.0372093 0.00170024088,8.28704319 C-0.0203543172,7.73421927 0.172623066,7.19202658 0.553064192,6.78803987 C0.983128074,6.37342193 1.51795111,6.15016611 2.08034234,6.15016611 C3.19961116,6.15016611 4.22514811,5.73554817 4.9639758,4.97541528 C5.73588533,4.20465116 6.1218401,3.19468439 6.07773098,2.12624585 C6.05567642,1.5627907 6.24865381,1.02591362 6.63460857,0.63255814 C7.0426179,0.223255814 7.58846821,0 8.16740036,0 L31.8154002,0 C32.399846,0 32.9567236,0.233887043 33.348192,0.637873754 C33.7286331,1.03654485 33.9436651,1.58405316 33.9105832,2.12624585 C33.8609605,3.19468439 34.2469152,4.20465116 35.0243384,4.97541528 C35.7741934,5.73554817 36.7776758,6.15016611 37.8528355,6.15016611 C38.4703631,6.15016611 39.0106998,6.38405316 39.4021682,6.77740864 C39.8101775,7.18139535 40.0252095,7.73953488 39.9976413,8.28704319 C39.5510365,16.0318937 36.5185347,30.4265781 21.096885,39.6916944 C20.7936348,39.8883721 20.3966528,40 19.9886435,40, M20.1060125,8.42857143 C15.1051268,8.42857143 10.8938546,12.1933478 10.5100147,16.9997828 C10.104241,22.1023239 14.0742424,26.5756396 19.3657498,26.9722102 C24.6737075,27.3687807 29.3017201,23.4718142 29.7129772,18.4274368 C30.1132674,13.3301834 26.1377826,8.85686762 20.8462752,8.44972186 C20.5995209,8.43385904 20.3527667,8.42857143 20.1060125,8.42857143 M20.1211689,28.4285714 C19.8258003,28.4285714 19.5465429,28.4233919 19.261915,28.3974942 C13.1451017,27.9416943 8.57494539,22.7828688 9.03142399,16.8937276 C9.49327293,11.0719204 14.7723137,6.61233325 20.969682,7.02669675 C27.0757546,7.49285569 31.6566516,12.6568608 31.1894324,18.546002 C30.7383241,24.0829342 25.8674289,28.4285714 20.1211689,28.4285714, M23.6292082,14.2559988 L18.6038113,18.5768264 L16.8655747,16.5458648 C16.4812121,16.0970971 15.8272221,16.0395628 15.3682817,16.4307962 C14.9150781,16.8047693 14.8863944,17.4779208 15.2478099,17.932442 L17.6744571,20.768884 C17.8924537,21.0105282 18.1850282,21.1428571 18.4833394,21.1428571 C18.7300199,21.1428571 18.9709636,21.0565557 19.1660132,20.8839527 L25.0002926,15.8727132 C25.4477594,15.4987401 25.4936535,14.8198351 25.1150277,14.3768209 C24.7306651,13.9280532 24.0709383,13.8705188 23.6292082,14.2559988" id="path-1"></path>
    </defs>
    <g id="Camera" stroke="none" stroke-width="1" fill="none" fill-rule="evenodd">
        <mask id="mask-2" fill="white">
            <use xlink:href="#path-1"></use>
        </mask>
        <use id="Camera-Icon" fill="#4E2683" xlink:href="#path-1"></use>
    </g>
</svg>