<?xml version="1.0" encoding="UTF-8"?>
<svg width="55px" height="58px" viewBox="0 0 55 58" version="1.1" xmlns="http://www.w3.org/2000/svg" xmlns:xlink="http://www.w3.org/1999/xlink">
    <!-- Generator: Sketch 50.2 (55047) - http://www.bohemiancoding.com/sketch -->
    <title>Icons/insurance info</title>
    <desc>Created with Sketch.</desc>
    <defs>
        <path d="M63.1397249,23.2231953 C63.9556487,23.671291 64.4067503,24.5795059 64.2707073,25.5003008 L62.9240823,34.6180742 C60.8656253,48.5486738 51.0634065,59.7345898 38.6074593,66.2466172 C38.284385,66.415502 37.930139,66.5 37.5758929,66.5 C37.2216468,66.5 36.8674007,66.415502 36.5443265,66.2466172 C24.1042991,59.7428281 14.288721,48.566041 12.2278147,34.6181855 L10.8811897,25.5003008 C10.7451468,24.5795059 11.1962483,23.6711797 12.0121722,23.2231953 L36.5043597,9.77486914 C37.1717718,9.40837695 37.9802366,9.40837695 38.6476487,9.77486914 L63.1397249,23.2231953 Z M60.50463,33.5844054 L61.7312733,25.2790891 L37.5760042,12.0156424 L13.420735,25.2792109 L14.6473784,33.5845272 C16.5953328,46.7681397 25.7729749,57.4732355 37.5760042,63.9966037 C49.3796429,57.4728698 58.5566755,46.7676522 60.50463,33.5844054 Z M46.2907857,43.7180903 C47.8759286,44.5079474 48.8571429,46.1025903 48.8571429,47.8736617 L48.8571429,49.225376 C48.8571429,50.0953046 48.8571429,52.1364474 38,52.1364474 C27.1428571,52.1364474 27.1428571,50.0953046 27.1428571,49.225376 L27.1428571,47.7840903 C27.1428571,46.0822331 28.0711429,44.5174474 29.5653571,43.7072331 L33.6585,41.6878046 L33.6585,41.2793046 C31.8874286,40.314376 30.647,38.7238046 29.9521429,36.5401617 C28.9030714,35.982376 28.2299286,34.8966617 28.2299286,33.6765903 L28.2299286,32.5895188 C28.2299286,31.5988046 28.6913571,30.6705188 29.4595,30.0557331 C29.6074286,29.0270188 29.8625714,28.0620903 30.2235714,27.1826617 C30.3823571,26.7904474 30.5194286,26.4932331 30.6307143,26.254376 C30.9225,25.6246617 30.9225,25.6246617 30.7162143,24.563376 C30.6103571,24.0449474 30.5411429,23.5726617 30.4990714,23.1695903 C30.4298571,22.5805903 30.7474286,22.0404474 31.2943571,21.8124474 C31.8399286,21.589876 32.4492857,21.7540903 32.8157143,22.2209474 C33.0274286,22.4910188 33.3667143,22.7828046 33.8064286,23.0800188 C34.9993571,23.879376 36.3727857,23.9594474 37.3105714,23.8848046 C37.5331429,23.8644474 37.7665714,23.8590188 38,23.8590188 C42.978,23.8590188 45.8456429,25.9368046 46.5187857,30.0408046 C47.3032143,30.6555903 47.7700714,31.5879474 47.7700714,32.5895188 L47.7700714,33.6765903 C47.7700714,34.8966617 47.0969286,35.982376 46.0478571,36.5401617 C45.353,38.7238046 44.1125714,40.314376 42.3415,41.2793046 L42.3415,41.6973046 L46.2907857,43.7180903 Z M46.1428571,48.1435717 L46.1428571,47.108851 C46.1428571,46.2243112 45.6515875,45.4237708 44.861229,45.0305006 L41.0176171,43.0666949 C40.4118028,42.7586969 40.0388961,42.1427008 40.0388961,41.4617961 L40.0388961,39.6163533 L40.6498013,39.3529005 C42.196155,38.6872683 43.2003305,37.4196401 43.7221453,35.471107 L43.8659626,34.9289287 L44.4030501,34.759657 C44.8306837,34.6298397 45.1297727,34.2327513 45.1297727,33.7949359 L45.1297727,32.7754879 C45.1297727,32.407672 44.9159559,32.0653106 44.5723217,31.8807663 L44.1001429,31.6325861 L44.0352342,31.1005895 C43.6725093,28.0027911 41.8130666,26.6206181 38,26.6206181 C37.8358192,26.6206181 37.6716385,26.6307998 37.5176394,26.6409816 C35.9572858,26.7606172 34.515295,26.4717099 33.3163935,25.7857143 C33.4067566,26.570982 33.2820301,26.9540705 32.9345778,27.694793 C32.8391238,27.8984281 32.7245791,28.147881 32.5909436,28.4762426 C32.2727638,29.2564194 32.058947,30.1358684 31.9596749,31.0904077 L31.8998571,31.6325861 L31.4225874,31.8858572 C31.0840441,32.0653106 30.8702273,32.407672 30.8702273,32.7754879 L30.8702273,33.7949359 C30.8702273,34.2327513 31.1693163,34.6298397 31.5969499,34.759657 L32.1340374,34.9289287 L32.2778547,35.471107 C32.7996695,37.4196401 33.803845,38.6872683 35.3451078,39.3529005 L35.9611039,39.6163533 L35.9611039,41.4567052 C35.9611039,42.13761 35.5691064,42.7739695 34.9518376,43.0717858 L31.0293172,45.0063189 C30.3191399,45.3932256 29.8571429,46.1746751 29.8571429,47.0248515 L29.8571429,48.1435717 C30.4884116,48.5304783 33.0733042,49.0675658 38,49.0675658 C42.9266958,49.0675658 45.5115884,48.5304783 46.1428571,48.1435717 Z" id="path-1"></path>
    </defs>
    <g id="Page-1" stroke="none" stroke-width="1" fill="none" fill-rule="evenodd">
        <g id="Policy-Dashboard" transform="translate(-76.000000, -1662.000000)">
            <g id="Icons/insurance-info" transform="translate(66.000000, 1653.000000)">
                <mask id="mask-2" fill="white">
                    <use xlink:href="#path-1"></use>
                </mask>
                <use id="Mask" fill="#D8D8D8" fill-rule="evenodd" xlink:href="#path-1"></use>
                <g id="Fill/Primary/SCB-Purple" mask="url(#mask-2)" fill="#4E2683" fill-rule="evenodd">
                    <rect id="SCB-Purple" x="0" y="0" width="76" height="76"></rect>
                </g>
            </g>
        </g>
    </g>
</svg>