<?xml version="1.0" encoding="UTF-8"?>
<svg width="22px" height="22px" viewBox="0 0 22 22" version="1.1" xmlns="http://www.w3.org/2000/svg" xmlns:xlink="http://www.w3.org/1999/xlink">
    <!-- Generator: Sketch 51.2 (57519) - http://www.bohemiancoding.com/sketch -->
    <title>Policy</title>
    <desc>Created with Sketch.</desc>
    <defs></defs>
    <g id="Symbols" stroke="none" stroke-width="1" fill="none" fill-rule="evenodd">
        <g id="Navigation/policy" transform="translate(-101.000000, -11.000000)" fill="#4E2A81">
            <path d="M111.993754,33 C111.775414,33 111.557074,32.9386047 111.381189,32.8275083 C102.908379,27.7375415 101.240503,19.8204651 101.000935,15.5578738 C100.988805,15.2538206 101.094943,14.9556146 101.304185,14.7334219 C101.54072,14.5053821 101.834873,14.3825914 102.144188,14.3825914 C102.759786,14.3825914 103.323831,14.1545515 103.730187,13.7364784 C104.154737,13.3125581 104.367012,12.7570764 104.342752,12.1694352 C104.330622,11.8595349 104.43676,11.5642525 104.649035,11.347907 C104.87344,11.1227907 105.173658,11 105.49207,11 L118.49847,11 C118.819915,11 119.126198,11.1286379 119.341506,11.3508306 C119.550748,11.5700997 119.669016,11.8712292 119.650821,12.1694352 C119.623528,12.7570764 119.835803,13.3125581 120.263386,13.7364784 C120.675806,14.1545515 121.227722,14.3825914 121.81906,14.3825914 C122.1587,14.3825914 122.455885,14.5112292 122.671193,14.7275748 C122.895598,14.9497674 123.013865,15.2567442 122.998703,15.5578738 C122.75307,19.8175415 121.085194,27.7346179 112.603287,32.8304319 C112.436499,32.9386047 112.218159,33 111.993754,33 Z M112.05553,15.9387755 C112.184783,15.9387755 112.314035,15.9415452 112.443287,15.9498543 C115.215029,16.1631211 117.297426,18.5062865 117.08775,21.1762764 C116.87233,23.8185693 114.448132,25.8598375 111.667774,25.6521101 C108.896032,25.4443827 106.816507,23.1012173 107.029055,20.4284577 C107.230114,17.9108012 109.436019,15.9387755 112.05553,15.9387755 Z M112.063469,26.414966 C115.073415,26.414966 117.624836,24.1386798 117.861131,21.238382 C118.105865,18.1535937 115.706348,15.4486387 112.507929,15.2044602 C109.261688,14.9874127 106.496476,17.3233869 106.254555,20.3729049 C106.015448,23.4576932 108.409339,26.1599351 111.613384,26.3986874 C111.762475,26.4122529 111.908753,26.414966 112.063469,26.414966 Z M113.901014,18.4674279 L111.268663,20.7307186 L110.358158,19.6668816 C110.156825,19.4318128 109.814259,19.4016757 109.573862,19.6066075 C109.336469,19.8024982 109.321445,20.1551014 109.510758,20.3931839 L110.781858,21.8789393 C110.896047,22.0055148 111.0493,22.0748299 111.205559,22.0748299 C111.334772,22.0748299 111.460981,22.0296244 111.56315,21.9392133 L114.619201,19.3142784 C114.853588,19.1183877 114.877628,18.7627708 114.6793,18.5307157 C114.477967,18.2956469 114.132396,18.2655099 113.901014,18.4674279 Z" id="Policy"></path>
        </g>
    </g>
</svg>