<?xml version="1.0" encoding="UTF-8"?>
<svg width="56px" height="56px" viewBox="0 0 56 56" version="1.1" xmlns="http://www.w3.org/2000/svg" xmlns:xlink="http://www.w3.org/1999/xlink">
    <!-- Generator: Sketch 50.2 (55047) - http://www.bohemiancoding.com/sketch -->
    <title>policy i have</title>
    <desc>Created with Sketch.</desc>
    <defs>
        <polygon id="path-1" points="0 0 45.4736842 0 45.4736842 35.6957577 0 35.6957577"></polygon>
    </defs>
    <g id="policy-i-have" stroke="none" stroke-width="1" fill="none" fill-rule="evenodd">
        <g id="Group" transform="translate(5.000000, 10.000000)">
            <g id="Page-1">
                <mask id="mask-2" fill="white">
                    <use xlink:href="#path-1"></use>
                </mask>
                <g id="Clip-2"></g>
                <path d="M18.6987493,1.81565378 C18.2612919,1.81565378 17.8158007,1.88261438 17.3709159,2.01955183 C15.5360502,2.58434339 14.2276189,4.16575977 14.0375386,6.04849884 C13.6898161,9.49274709 16.856911,13.3358935 22.7439423,16.6367194 C28.6259716,13.3354411 31.7885191,9.49169141 31.4379165,6.04699072 C31.2461689,4.16198946 29.9359187,2.58012065 28.0998403,2.01728965 C26.3741116,1.48869301 24.6320123,2.01502747 23.4406001,3.42647853 C23.2679515,3.63097982 23.0131469,3.74906575 22.7447002,3.74936737 L22.7440939,3.74936737 C22.4759504,3.74936737 22.221449,3.63158307 22.0486487,3.42753421 C21.1584243,2.37637342 19.9639806,1.81565378 18.6987493,1.81565378 Z M22.7440939,18.5767671 C22.593879,18.5767671 22.4438156,18.5398181 22.3078491,18.4657693 C12.9446529,13.3734457 11.9731821,8.38684148 12.2276835,5.86767506 C12.4909765,3.25983108 14.2988611,1.07064168 16.8334162,0.290490349 C18.9665897,-0.36599501 21.1123443,0.105745445 22.743336,1.54841463 C24.3679614,0.10815844 26.5073497,-0.364788512 28.6353695,0.28777573 C31.1717435,1.06521245 32.982205,3.25425103 33.2477717,5.86480963 C33.504092,8.3845793 32.5371686,13.3722392 23.1806419,18.4656185 C23.0446754,18.5396673 22.8943089,18.5767671 22.7440939,18.5767671 Z M11.5011646,33.8858609 L18.963255,33.8858609 C18.9553729,32.7025886 19.0026656,31.552495 19.0487456,30.4327147 C19.2635333,25.2138597 19.4331504,21.09156 13.9555343,18.1246322 C11.335337,16.6928215 10.1840933,14.8390384 9.16820976,13.2034804 C8.79456714,12.6018907 8.44169086,12.0334797 8.03136608,11.5021684 C7.70562247,11.0851728 7.08035844,10.9776437 6.47798286,11.0898479 C6.39825223,11.1216693 6.31276158,11.1426322 6.22348146,11.1506252 C5.94594002,11.2322146 5.68370807,11.3596509 5.47073936,11.5235837 C4.46061585,12.3013221 4.94885232,13.3683181 5.53637313,14.1264509 C6.98698568,15.9894336 8.42532031,17.8453281 9.63825673,19.4101551 C10.8154205,20.9288336 11.7450555,22.1285444 12.3060499,22.8447514 C12.6146651,23.2391252 12.543726,23.8076871 12.1474981,24.1148915 C11.7512702,24.421945 11.1798168,24.3513649 10.87105,23.9571419 C10.3073271,23.2373155 9.37632795,22.0360966 8.19764841,20.5153067 C6.98562146,18.9513845 5.54804473,17.0966965 4.09712902,15.2331106 C2.32698761,12.9489095 3.13126663,11.0364604 4.35739044,10.0923763 C4.61962238,9.89043877 4.91535332,9.72047346 5.23109271,9.58670307 C5.23245692,9.11752642 5.23503377,8.69193449 5.23745903,8.29499687 C5.24670536,6.78612115 5.25337484,5.6959 5.17970737,4.20572499 C5.13696205,3.33403067 4.23946185,2.55252203 3.69847584,2.52356609 C3.61722941,2.51858929 3.36773012,2.50592107 3.25647101,3.20765007 C3.18826039,3.65375246 3.0929171,4.21884565 2.98256747,4.8727672 C2.44461304,8.06123801 1.44312954,13.9963 1.96243974,16.7161974 C2.65030596,20.3797265 4.84956797,22.7103778 7.17797542,25.1778156 C8.621009,26.7069001 10.1130027,28.2881657 11.3626212,30.2748144 C11.453114,30.4186892 11.5011646,30.585035 11.5011646,30.7546987 L11.5011646,33.8858609 Z M19.8907678,35.6957577 L10.5915381,35.6957577 C10.0893563,35.6957577 9.68206311,35.2905254 9.68206311,34.7907339 L9.68206311,31.0180167 C8.55204049,29.2780968 7.1802491,27.8244183 5.85180936,26.4165867 C3.44685444,23.8680119 0.959895187,21.2325693 0.174866726,17.051302 C-0.404771975,14.0159056 0.592618886,8.10497354 1.18862814,4.57325424 C1.29776513,3.92627005 1.39204737,3.36766178 1.45904535,2.93045731 C1.73006889,1.21919167 2.84341781,0.665258581 3.7962444,0.716383905 C5.38812872,0.801592779 6.91346979,2.42252194 6.99653516,4.11719825 C7.0726279,5.65699046 7.06595842,6.7681745 7.05656051,8.30600616 C7.05474156,8.60084394 7.05277103,8.911517 7.05140682,9.24420864 C7.97816179,9.2758792 8.87308514,9.63028779 9.47076176,10.3956595 C9.940354,11.0037342 10.3344598,11.6383518 10.7156814,12.2521573 C11.7006428,13.838098 12.6308841,15.3359645 14.8281755,16.5365801 C21.2969677,20.04055 21.0877885,25.1244281 20.8663313,30.5069143 C20.8094891,31.8862424 20.750828,33.3126238 20.7997881,34.7604206 C20.8081249,35.0054904 20.7161164,35.243472 20.5446803,35.4199222 C20.3732443,35.5962216 20.1373871,35.6957577 19.8907678,35.6957577 Z M26.5078044,33.8858609 L33.9700464,33.8858609 L33.9700464,30.7546987 C33.9700464,30.585035 34.0179454,30.4186892 34.1085897,30.2748144 C35.3580567,28.2881657 36.850202,26.7069001 38.293084,25.1778156 C40.6213398,22.7102269 42.8206018,20.3795757 43.5080133,16.718912 C44.0406625,13.9297918 43.0084084,7.88418453 42.4539319,4.63644454 C42.3596496,4.08386876 42.277039,3.59991252 42.21474,3.20855495 C42.1078766,2.50697675 41.8632279,2.51919254 41.7816783,2.52356609 C41.237206,2.5510139 40.3342489,3.3319193 40.291352,4.20542336 C40.2135919,5.77944994 40.2252635,6.87117921 40.2426951,8.52362811 C40.246333,8.85451 40.2501225,9.20680722 40.2534572,9.58866363 C41.1318584,9.97067084 41.8359436,10.6351492 42.170782,11.4433516 C42.4492329,12.1153707 42.7160122,13.5013345 41.375143,15.2316024 C40.0468548,16.9478449 38.7222046,18.6569992 37.5739924,20.1385779 C36.2863275,21.7997739 35.220726,23.1744268 34.6210789,23.9518635 C34.3154953,24.3483487 33.7444966,24.4231515 33.3458434,24.1188126 C32.9473418,23.8146244 32.8723101,23.246515 33.1781969,22.8500298 C33.7782987,22.0719899 34.8446581,20.6961305 36.1335357,19.0332755 C37.2814447,17.5521492 38.6060949,15.8432966 39.9342315,14.1269033 C40.3448595,13.5969494 40.7741316,12.8214732 40.4888597,12.1328649 C40.2655836,11.5934098 39.6168248,11.1651032 38.8748448,11.0669245 C38.260646,10.9859383 37.7302706,11.148363 37.4569733,11.5021684 C37.0342191,12.0435841 36.6757344,12.6195357 36.2961801,13.2291185 C35.2831766,14.8563818 34.1346613,16.7008146 31.5167377,18.1238782 C26.0377574,21.09156 26.2075261,25.2140105 26.4223138,30.4328655 C26.4683938,31.5526459 26.5156865,32.7025886 26.5078044,33.8858609 Z M34.8795213,35.6957577 L25.5802915,35.6957577 C25.3336723,35.6957577 25.0978151,35.5962216 24.9263791,35.4199222 C24.7550946,35.243472 24.6629345,35.0054904 24.6712713,34.7604206 C24.7202314,33.3127746 24.6615703,31.8863932 24.6047281,30.5070651 C24.3832709,25.1245789 24.1740917,20.04055 30.6459154,16.535072 C32.8412364,15.3416953 33.7681429,13.852576 34.7497696,12.2759856 C35.1376606,11.6531314 35.5387391,11.0090126 36.0175776,10.3956595 C36.565991,9.68593748 37.4393902,9.27482351 38.431021,9.23923184 C38.4287473,8.995821 38.426322,8.76447514 38.4238968,8.54278126 C38.4058589,6.85790774 38.3940357,5.74461233 38.4745242,4.11689662 C38.5577412,2.41814839 40.0900549,0.796917602 41.689215,0.715931469 C42.6397679,0.669933758 43.7523589,1.22447009 44.0123172,2.93121137 C44.0727973,3.31110722 44.1543469,3.78842773 44.2472649,4.33331208 C44.8611605,7.92927737 45.8887156,13.9477385 45.2955863,17.0540167 C44.5111642,21.2325693 42.024205,23.8678611 39.61925,26.4165867 C38.2908103,27.8242675 36.9190189,29.2780968 35.7889963,31.0180167 L35.7889963,34.7907339 C35.7889963,35.2905254 35.3817031,35.6957577 34.8795213,35.6957577 Z" id="Fill-1" fill="#4E2683" mask="url(#mask-2)"></path>
            </g>
        </g>
    </g>
</svg>