<?xml version="1.0" encoding="UTF-8"?>
<svg width="17px" height="19px" viewBox="0 0 17 19" version="1.1" xmlns="http://www.w3.org/2000/svg" xmlns:xlink="http://www.w3.org/1999/xlink">
    <!-- Generator: Sketch 50.2 (55047) - http://www.bohemiancoding.com/sketch -->
    <title>LM1.2.Menu-Registered-NotSCBCustomer Copy</title>
    <desc>Created with Sketch.</desc>
    <defs></defs>
    <g id="LM1.2.Menu-Registered-NotSCBCustomer-Copy" stroke="none" stroke-width="1" fill="none" fill-rule="evenodd">
        <g id="icon_privacy" transform="translate(3.000000, 3.000000)" fill="#4E2683">
            <path d="M1.18918919,12.8333333 L9.81081081,12.8333333 L9.81081081,7 L1.18918919,7 L1.18918919,12.8333333 Z M2.82432432,3.79166667 C2.82432432,2.34441667 4.02481081,1.16666667 5.5,1.16666667 C6.97518919,1.16666667 8.17567568,2.34441667 8.17567568,3.79166667 L8.17567568,5.83333333 L2.82432432,5.83333333 L2.82432432,3.79166667 Z M10.4054054,5.83333333 L9.36486486,5.83333333 L9.36486486,3.79166667 C9.36486486,1.701 7.63102703,0 5.5,0 C3.36897297,0 1.63513514,1.701 1.63513514,3.79166667 L1.63513514,5.83333333 L0.594594595,5.83333333 C0.266378378,5.83333333 0,6.09466667 0,6.41666667 L0,13.4166667 C0,13.7386667 0.266378378,14 0.594594595,14 L10.4054054,14 C10.7336216,14 11,13.7386667 11,13.4166667 L11,6.41666667 C11,6.09466667 10.7336216,5.83333333 10.4054054,5.83333333 Z" id="Fill-1"></path>
            <path d="M5,10.5714286 L5,9.42857143 C5,9.19171429 5.22366667,9 5.5,9 C5.77633333,9 6,9.19171429 6,9.42857143 L6,10.5714286 C6,10.8082857 5.77633333,11 5.5,11 C5.22366667,11 5,10.8082857 5,10.5714286 Z" id="Fill-3"></path>
        </g>
    </g>
</svg>