<?xml version="1.0" encoding="UTF-8"?>
<svg width="40px" height="40px" viewBox="0 0 40 40" version="1.1" xmlns="http://www.w3.org/2000/svg" xmlns:xlink="http://www.w3.org/1999/xlink">
    <!-- Generator: Sketch 50.2 (55047) - http://www.bohemiancoding.com/sketch -->
    <title>footer Dashboard Copy 2</title>
    <desc>Created with Sketch.</desc>
    <defs></defs>
    <g id="footer-Dashboard-Copy-2" stroke="none" stroke-width="1" fill="none" fill-rule="evenodd">
        <g id="Group-27" transform="translate(11.000000, 11.000000)" fill="#4E2683">
            <path d="M10.9303672,8.58021201 C12.3117006,7.76784452 13.2432975,6.30647821 13.2432975,4.62803298 C13.2432975,2.07679623 11.1162276,0 8.49811895,0 C5.88230483,0 3.75523493,2.07679623 3.75523493,4.62803298 C3.75523493,6.30647821 4.68912646,7.76784452 6.06816531,8.58021201 C2.92459922,9.68574794 0.515296742,12.8591284 0.0127850818,16.9724382 C-0.0491684105,17.4759717 0.116040902,17.9862191 0.464816118,18.3711425 C0.829653351,18.7694935 1.35281617,19 1.89892474,19 L15.0950186,19 C15.6434217,19 16.1665846,18.7694935 16.5291272,18.3711425 C16.8824916,17.9862191 17.0477009,17.4759717 16.988042,16.9724382 C16.4855303,12.8591284 14.0739333,9.68574794 10.9303672,8.58021201" id="Fill-25"></path>
        </g>
    </g>
</svg>