<?xml version="1.0" encoding="UTF-8"?>
<svg width="40px" height="36px" viewBox="0 0 40 36" version="1.1" xmlns="http://www.w3.org/2000/svg" xmlns:xlink="http://www.w3.org/1999/xlink">
    <!-- Generator: Sketch 50.2 (55047) - http://www.bohemiancoding.com/sketch -->
    <title>Icons/Computer</title>
    <desc>Created with Sketch.</desc>
    <defs></defs>
    <g id="Icons/Computer" stroke="none" stroke-width="1" fill="none" fill-rule="evenodd">
        <g id="Group" transform="translate(4.000000, 2.000000)" fill="#4E2683">
            <path d="M3.3333125,1.3333125 C2.22875,1.3333125 1.3333125,2.22875 1.3333125,3.3333125 L1.3333125,28.6666875 C1.3333125,29.77125 2.22875,30.6666875 3.3333125,30.6666875 L28.6666875,30.6666875 C29.77125,30.6666875 30.6666875,29.77125 30.6666875,28.6666875 L30.6666875,3.3333125 C30.6666875,2.22875 29.77125,1.3333125 28.6666875,1.3333125 L3.3333125,1.3333125 Z M28.6666875,32 L3.3333125,32 C1.4933125,31.9978125 0.0021875,30.5066875 0,28.6666875 L0,3.3333125 C0.0021875,1.4933125 1.4933125,0.0021875 3.3333125,0 L28.6666875,0 C30.5066875,0.0021875 31.9978125,1.4933125 32,3.3333125 L32,28.6666875 C31.9978125,30.5066875 30.5066875,31.9978125 28.6666875,32 Z" id="Fill-1"></path>
            <path d="M5.672715,10.3272973 L9.60001227,10.3272973 L9.60001227,6.40003682 L5.672715,6.40003682 L5.672715,10.3272973 Z M10.2545823,11.6363636 L5.018145,11.6363636 C4.65664956,11.6363636 4.36363636,11.3432918 4.36363636,10.9817998 L4.36363636,5.74547295 C4.36363636,5.3839809 4.65664956,5.09090909 5.018145,5.09090909 L10.2545823,5.09090909 C10.6160777,5.09090909 10.9090909,5.3839809 10.9090909,5.74547295 L10.9090909,10.9817998 C10.9090909,11.3432918 10.6160777,11.6363636 10.2545823,11.6363636 Z" id="Fill-4"></path>
            <path d="M5.672715,24.8726905 L9.60001227,24.8726905 L9.60001227,20.94543 L5.672715,20.94543 L5.672715,24.8726905 Z M10.2545823,26.1818182 L5.018145,26.1818182 C4.65664956,26.1818182 4.36363636,25.8887464 4.36363636,25.5272543 L4.36363636,20.2909275 C4.36363636,19.9294354 4.65664956,19.6363636 5.018145,19.6363636 L10.2545823,19.6363636 C10.6160777,19.6363636 10.9090909,19.9294354 10.9090909,20.2909275 L10.9090909,25.5272543 C10.9090909,25.8887464 10.6160777,26.1818182 10.2545823,26.1818182 Z" id="Fill-5"></path>
            <path d="M21.672715,10.3272973 L25.6000123,10.3272973 L25.6000123,6.40003682 L21.672715,6.40003682 L21.672715,10.3272973 Z M26.2545823,11.6363636 L21.018145,11.6363636 C20.6566496,11.6363636 20.3636364,11.3432918 20.3636364,10.9817998 L20.3636364,5.74547295 C20.3636364,5.3839809 20.6566496,5.09090909 21.018145,5.09090909 L26.2545823,5.09090909 C26.6160777,5.09090909 26.9090909,5.3839809 26.9090909,5.74547295 L26.9090909,10.9817998 C26.9090909,11.3432918 26.6160777,11.6363636 26.2545823,11.6363636 Z" id="Fill-6"></path>
            <polygon id="Fill-7" points="7.27272727 9.45454545 8.72727273 9.45454545 8.72727273 8 7.27272727 8"></polygon>
            <polygon id="Fill-8" points="7.27272727 24 8.72727273 24 8.72727273 22.5454545 7.27272727 22.5454545"></polygon>
            <polygon id="Fill-9" points="23.2727273 9.45454545 24.7272727 9.45454545 24.7272727 8 23.2727273 8"></polygon>
            <path d="M27.6922883,26.1818182 L22.3216928,26.1818182 L22.3216928,24.9350315 L27.0210032,24.9350315 L27.0210032,23.06491 L19.6363636,23.06491 L19.6363636,21.8181818 L27.6922883,21.8181818 C28.0630497,21.8181818 28.3636364,22.0972975 28.3636364,22.4415751 L28.3636364,25.5584249 C28.3636364,25.9027025 28.0630497,26.1818182 27.6922883,26.1818182" id="Fill-10"></path>
            <polygon id="Fill-11" points="16.7272727 26.1818182 18.1818182 26.1818182 18.1818182 21.8181818 16.7272727 21.8181818"></polygon>
            <polygon id="Fill-12" points="19.6363636 26.9090909 21.0909091 26.9090909 21.0909091 25.4545455 19.6363636 25.4545455"></polygon>
            <path d="M18.9090909,9.45454545 L17.6000123,9.45454545 L17.6000123,6.33769573 L16.2909336,6.33769573 L16.2909336,8.83115213 C16.2909336,9.17542982 15.9978591,9.45454545 15.6363636,9.45454545 L13.018145,9.45454545 C12.6566496,9.45454545 12.3636364,9.17542982 12.3636364,8.83115213 L12.3636364,5.09090909 L13.672715,5.09090909 L13.672715,8.20781725 L14.9817936,8.20781725 L14.9817936,5.71430241 C14.9817936,5.37002473 15.2748682,5.09090909 15.6363636,5.09090909 L18.2545823,5.09090909 C18.6160777,5.09090909 18.9090909,5.37002473 18.9090909,5.71430241 L18.9090909,9.45454545" id="Fill-13"></path>
            <path d="M27.6363636,17.4545455 L18.8571655,17.4545455 C18.4841955,17.4545455 18.1818182,17.1696722 18.1818182,16.8182191 L18.1818182,12.3636364 L19.5324494,12.3636364 L19.5324494,16.1818331 L27.6363636,16.1818331 L27.6363636,17.4545455" id="Fill-14"></path>
            <path d="M13.8181545,15.2727273 L10.9090909,15.2727273 L10.9090909,13.8181477 L13.0909227,13.8181477 L13.0909227,12.3636364 L14.5454545,12.3636364 L14.5454545,14.5454375 C14.5454545,14.9470935 14.2198161,15.2727273 13.8181545,15.2727273" id="Fill-15"></path>
            <polygon id="Fill-16" points="4.36363636 14.5454545 6.54545455 14.5454545 6.54545455 13.0909091 4.36363636 13.0909091"></polygon>
            <polygon id="Fill-17" points="8 14.5454545 9.45454545 14.5454545 9.45454545 13.0909091 8 13.0909091"></polygon>
            <polygon id="Fill-18" points="26.1818182 14.5454545 27.6363636 14.5454545 27.6363636 13.0909091 26.1818182 13.0909091"></polygon>
            <polygon id="Fill-19" points="20.3636364 14.5454545 24.7272727 14.5454545 24.7272727 13.0909091 20.3636364 13.0909091"></polygon>
            <path d="M14.4132626,26.9090909 L13.0909091,26.9090909 L13.0909091,20.2975376 C13.0909091,19.932395 13.3869417,19.6363636 13.7520858,19.6363636 L27.6363636,19.6363636 L27.6363636,20.9587115 L14.4132626,20.9587115 L14.4132626,26.9090909" id="Fill-20"></path>
            <polygon id="Fill-21" points="15.2727273 16 16.7272727 16 16.7272727 12.3636364 15.2727273 12.3636364"></polygon>
            <path d="M12.3636364,18.9090909 L11.0302614,18.9090909 L11.0302614,17.4545114 L4.36363636,17.4545114 L4.36363636,16 L11.6969489,16 C12.0651364,16 12.3636364,16.3256338 12.3636364,16.7272898 L12.3636364,18.9090909" id="Fill-22"></path>
            <polygon id="Fill-23" points="15.2727273 18.1818182 16.7272727 18.1818182 16.7272727 16.7272727 15.2727273 16.7272727"></polygon>
        </g>
    </g>
</svg>