<?xml version="1.0" encoding="UTF-8"?>
<svg width="21px" height="21px" viewBox="0 0 21 21" version="1.1" xmlns="http://www.w3.org/2000/svg" xmlns:xlink="http://www.w3.org/1999/xlink">
    <!-- Generator: Sketch 50.2 (55047) - http://www.bohemiancoding.com/sketch -->
    <title>Artboard</title>
    <desc>Created with Sketch.</desc>
    <defs></defs>
    <g id="Artboard" stroke="none" stroke-width="1" fill="none" fill-rule="evenodd">
        <path d="M17.0769231,7 L21,10.984375 L18.0461538,10.984375 C18.0461538,13.2031361 17.2769308,15.0937422 15.7384615,16.65625 C14.1999923,18.2187578 12.3538569,19 10.2,19 C8.69230015,19 7.29231415,18.5781292 6,17.734375 L7.43076923,16.28125 C8.26154262,16.7500023 9.18461031,16.984375 10.2,16.984375 C11.8307774,16.984375 13.2230712,16.3984434 14.3769231,15.2265625 C15.530775,14.0546816 16.1076923,12.6406333 16.1076923,10.984375 L13.1538462,10.984375 L17.0769231,7 Z M4.92331288,11.015625 L7.86809816,11.015625 L3.91104294,15 L0,11.015625 L2.94478528,11.015625 C2.94478528,8.79686391 3.71164877,6.90625781 5.24539877,5.34375 C6.77914877,3.78124219 8.63495844,3 10.8128834,3 C12.3159584,3 13.71165,3.42187078 15,4.265625 L13.5276074,5.71875 C12.6993824,5.24999766 11.7944834,5.015625 10.8128834,5.015625 C9.18710844,5.015625 7.79908551,5.60155664 6.64877301,6.7734375 C5.49846051,7.94531836 4.92331288,9.35936672 4.92331288,11.015625 Z" id="" fill="#A1A1A1"></path>
    </g>
</svg>