<?xml version="1.0" encoding="UTF-8"?>
<svg width="56px" height="56px" viewBox="0 0 56 56" version="1.1" xmlns="http://www.w3.org/2000/svg" xmlns:xlink="http://www.w3.org/1999/xlink">
    <!-- Generator: Sketch 50.2 (55047) - http://www.bohemiancoding.com/sketch -->
    <title>Reward</title>
    <desc>Created with Sketch.</desc>
    <defs>
        <polygon id="path-1" points="0 0 14.4144144 0 14.4144144 18.018018 0 18.018018"></polygon>
        <polygon id="path-3" points="0 0 14.4144144 0 14.4144144 18.018018 0 18.018018"></polygon>
        <polygon id="path-5" points="0 0 16.2162162 0 16.2162162 7.20720721 0 7.20720721"></polygon>
    </defs>
    <g id="Reward" stroke="none" stroke-width="1" fill="none" fill-rule="evenodd">
        <g id="Group" transform="translate(10.000000, 8.000000)">
            <path d="M8.05149082,7.09248533 C7.38963054,7.05613039 6.07068913,6.51313568 5.41700652,5.62680726 C4.88067879,4.89904294 4.92390362,4.13567242 5.5495485,3.29318622 C6.25346538,2.34537885 7.54628072,1.8018018 9.09653338,1.8018018 C9.46431614,1.8018018 9.8443123,1.83266606 10.2260077,1.89364586 C12.5232959,2.26093889 15.310076,3.87261906 15.8558559,7.20720721 C11.872587,7.19406286 9.18022174,7.15454662 8.05149082,7.09248533 M25.089275,1.89364586 C25.4710744,1.83266606 25.8510683,1.8018018 26.218849,1.8018018 C27.7689864,1.8018018 29.0617943,2.34537885 29.7657071,3.29326941 C30.3914545,4.13567242 30.4346791,4.89904294 29.8981421,5.62672407 C29.2446757,6.51321887 27.9257419,7.05613039 27.2637792,7.09248533 C26.1351611,7.15454662 23.4429177,7.19406286 19.4594595,7.20720721 C20.0053423,3.87253587 22.7920001,2.2608557 25.089275,1.89364586 M31.2833218,2.88543373 C30.1967043,1.07864531 28.1517617,0 25.8128573,0 C25.3030592,0 24.7833467,0.0515923875 24.2681949,0.153242817 C21.8193399,0.636561837 18.9431745,2.41736228 17.6575752,5.88862853 C16.372075,2.41736228 13.4960089,0.636561837 11.0470547,0.153242817 C10.5319029,0.0515923875 10.0121904,0 9.50239231,0 C7.16348791,0 5.11854526,1.07864531 4.03202696,2.88543373 C2.76010951,5.00024214 3.2606872,6.72964198 3.90462701,7.8080955 C4.94950486,9.55811312 6.92177502,10.5705897 8.32981707,10.6661028 C9.31937262,10.7334222 11.2627919,10.770726 13.4318627,10.7905766 L13.4318627,10.803235 L13.9076544,10.8054406 C14.0446713,10.806016 15.1833394,10.8108108 16.7514989,10.8108108 C17.0471461,10.8108108 17.3503282,10.810619 17.6576744,10.8102354 C17.9651197,10.810619 18.2681035,10.8108108 18.5638499,10.8108108 C20.1319102,10.8108108 21.2705782,10.806016 21.4075951,10.8054406 L21.8833868,10.803235 L21.8833868,10.7905766 C24.0524577,10.770726 25.995877,10.7334222 26.9853334,10.6661028 C28.3933754,10.5705897 30.3655464,9.55811312 31.4107217,7.8080955 C32.0545624,6.72964198 32.5552392,5.00024214 31.2833218,2.88543373" id="Fill-1" fill="#4E2B81"></path>
            <g id="Group-5" transform="translate(19.819820, 21.621622)">
                <mask id="mask-2" fill="white">
                    <use xlink:href="#path-1"></use>
                </mask>
                <g id="Clip-4"></g>
                <path d="M0,0 L14.4134722,0 L14.4134722,0.931446978 C14.4134722,5.58323307 14.4161837,10.2351182 14.412407,14.8869043 C14.4107607,17.0330366 13.44759,18.0121358 11.3386085,18.0150088 C7.8741574,18.0196651 4.40960949,18.018179 0.94525526,18.0155042 C0.644276533,18.015207 0.343491487,17.9862788 0,17.9684464 L0,0 Z" id="Fill-3" fill="#4E2B81" mask="url(#mask-2)"></path>
            </g>
            <g id="Group-8" transform="translate(1.801802, 21.621622)">
                <mask id="mask-4" fill="white">
                    <use xlink:href="#path-3"></use>
                </mask>
                <g id="Clip-7"></g>
                <path d="M14.4144144,0 L0.000990900349,0 L0.000990900349,0.931446978 C0.000894060024,5.58323307 -0.00172062876,10.2351182 0.0019593036,14.8869043 C0.00370242946,17.0330366 0.966779466,18.0121358 3.07576807,18.0150088 C6.54023071,18.0196651 10.0047902,18.018179 13.4692528,18.0155042 C13.7701357,18.015207 14.0709218,17.9862788 14.4144144,17.9684464 L14.4144144,0 Z" id="Fill-6" fill="#4E2B81" mask="url(#mask-4)"></path>
            </g>
            <g id="Group-11" transform="translate(0.000000, 12.612613)">
                <mask id="mask-6" fill="white">
                    <use xlink:href="#path-5"></use>
                </mask>
                <g id="Clip-10"></g>
                <path d="M16.2162162,0 L1.8771513,0 C0.844722976,0 0,0.863457098 0,1.91868246 L0,5.28852475 C0,6.34385009 0.844722976,7.20720721 1.8771513,7.20720721 L16.2162162,7.20720721 L16.2162162,0 Z" id="Fill-9" fill="#4E2B81" mask="url(#mask-6)"></path>
            </g>
            <path d="M33.803557,12.972973 L19.4594595,12.972973 L19.4594595,20.1801802 L33.803557,20.1801802 C34.833271,20.1801802 35.6756757,19.3168231 35.6756757,18.2614977 L35.6756757,14.8916554 C35.6756757,13.8364301 34.833271,12.972973 33.803557,12.972973" id="Fill-12" fill="#4E2B81"></path>
        </g>
    </g>
</svg>