<?xml version="1.0" encoding="UTF-8"?>
<svg width="20px" height="22px" viewBox="0 0 20 22" version="1.1" xmlns="http://www.w3.org/2000/svg" xmlns:xlink="http://www.w3.org/1999/xlink">
    <!-- Generator: Sketch 51.2 (57519) - http://www.bohemiancoding.com/sketch -->
    <title>Reward</title>
    <desc>Created with Sketch.</desc>
    <defs></defs>
    <g id="Symbols" stroke="none" stroke-width="1" fill="none" fill-rule="evenodd">
        <g id="Navigation/rewards" transform="translate(-250.000000, -11.000000)" fill="#4E2A81">
            <g id="Group" transform="translate(250.000000, 11.000000)">
                <path d="M11,12 L18.9994771,12 L18.9994771,12.5169531 C18.9994771,15.0986944 19.000982,17.6804906 18.9988859,20.2622319 C18.9979722,21.4533353 18.4634125,21.9967354 17.2929277,21.9983299 C15.3701574,22.0009141 13.4473333,22.0000894 11.5246167,21.9986048 C11.3575735,21.9984399 11.1906378,21.9823847 11,21.9724877 L11,12 Z M9,12 L9,21.9724877 C8.80936159,21.9823847 8.64242533,21.9984399 8.47543533,21.9986048 C6.55265856,22.0000894 4.62982805,22.0009141 2.70705128,21.9983299 C1.5365626,21.9967354 1.00205485,21.4533353 1.00108741,20.2622319 C0.999045051,17.6804906 1.0004962,15.0986944 1.00054995,12.5169531 L1.00054995,12 L9,12 Z M9,7 L9,11 L1.04181897,11 C0.468821251,11 0,10.5208368 0,9.93513124 L0,8.06486876 C0,7.47921869 0.468821251,7 1.04181897,7 L9,7 Z M18.9609741,7 C19.5324654,7 20,7.47921869 20,8.06486876 L20,9.93513124 C20,10.5208368 19.5324654,11 18.9609741,11 L11,11 L11,7 L18.9609741,7 Z M17.5622436,1.60141572 C18.2681578,2.77513439 17.9902821,3.7349513 17.6329505,4.333493 C17.0528783,5.30475278 15.9583234,5.86667731 15.17686,5.91968705 C14.6277117,5.95704934 13.549114,5.97775294 12.3452797,5.98877003 L12.3452797,5.99579541 L12.0812153,5.99701953 C12.0051709,5.99733887 11.3732102,6 10.5029367,6 C10.3387975,6 10.1706414,5.99989355 10.0000093,5.99968066 C9.82943214,5.99989355 9.66116606,6 9.49708187,6 C8.62675334,6 7.9947926,5.99733887 7.91874821,5.99701953 L7.65468382,5.99579541 L7.65468382,5.98877003 C6.4508495,5.97775294 5.3722518,5.95704934 4.82304848,5.91968705 C4.04158513,5.86667731 2.9469752,5.30475278 2.36706799,4.333493 C2.0096814,3.7349513 1.73186078,2.77513439 2.43777496,1.60141572 C3.04079262,0.598648145 4.17573579,0 5.47382773,0 C5.75676566,0 6.04520608,0.0286337751 6.33111536,0.0850497632 C7.69028491,0.35329182 9.28650165,1.34163606 9.99995424,3.26818883 C10.7134619,1.34163606 12.3097336,0.35329182 13.6688482,0.0850497632 C13.9547574,0.0286337751 14.2431979,0 14.5261358,0 C15.8242277,0 16.9591709,0.598648145 17.5622436,1.60141572 Z M4.66857741,3.93632936 C5.29502307,3.97077337 6.78928576,3.99270489 9,4 C8.69709219,2.14930358 7.15042921,1.25482109 5.87543428,1.05097345 C5.66359333,1.01712967 5.45269546,1 5.24857602,1 C4.3881858,1 3.67067328,1.30168526 3.27999942,1.82771835 C2.93276651,2.29529819 2.90877673,2.71896883 3.20643862,3.12287803 C3.56923247,3.6147903 4.30124495,3.91615237 4.66857741,3.93632936 Z M14.1245476,1.05097345 C12.8495601,1.25477491 11.302965,2.14925741 11,4 C13.2108193,3.99270489 14.7050144,3.97077337 15.3313975,3.93632936 C15.6987868,3.91615237 16.430795,3.61483648 16.7934688,3.12283186 C17.0912469,2.71896883 17.0672573,2.29529819 16.7199674,1.82776452 C16.3292958,1.30168526 15.6117875,1 14.7514612,1 C14.5473429,1 14.3364463,1.01712967 14.1245476,1.05097345 Z" id="Reward"></path>
            </g>
        </g>
    </g>
</svg>