<?xml version="1.0" encoding="UTF-8"?>
<svg width="32px" height="33px" viewBox="0 0 32 33" version="1.1" xmlns="http://www.w3.org/2000/svg" xmlns:xlink="http://www.w3.org/1999/xlink">
    <!-- Generator: Sketch 51.3 (57544) - http://www.bohemiancoding.com/sketch -->
    <title>Group 2</title>
    <desc>Created with Sketch.</desc>
    <defs></defs>
    <g id="Screens" stroke="none" stroke-width="1" fill="none" fill-rule="evenodd">
        <g id="1.2.1---Product-detail-App-product" transform="translate(-60.000000, -393.000000)" fill="#4E2A81">
            <g id="Group" transform="translate(33.000000, 393.000000)">
                <g id="Group-6" transform="translate(27.000000, 0.000000)">
                    <g id="Group-2" transform="translate(0.000000, 0.557491)">
                        <path d="M21.3038204,26.3698298 C19.8173734,26.3698298 18.6617257,27.5900633 18.6617257,29.0765915 C18.6617257,30.5630385 19.8819592,31.7832719 21.3038204,31.7832719 C22.725276,31.7832719 23.9455094,30.5630385 23.9455094,29.0765915 C23.9455094,27.5900633 22.725276,26.3698298 21.3038204,26.3698298 Z M21.3038204,30.4267267 C20.557108,30.4267267 20.0182709,29.8166506 20.0182709,29.0699382 C20.0182709,28.3234691 20.6287528,27.713393 21.3038204,27.713393 C21.9785635,27.713393 22.5890454,28.3234691 22.5890454,29.0699382 C22.5890454,29.8166506 21.9785635,30.4267267 21.3038204,30.4267267 Z" id="Fill-1"></path>
                        <path d="M6.86086176,26.3698298 C5.37473929,26.3698298 4.21917278,27.5900633 4.21917278,29.0765915 C4.21917278,30.5630385 5.43940623,31.7832719 6.86086176,31.7832719 C8.34738992,31.7832719 9.50295644,30.5630385 9.50295644,29.0765915 C9.50295644,27.5900633 8.28272299,26.3698298 6.86086176,26.3698298 Z M6.86086176,30.4267267 C6.11447387,30.4267267 5.57563682,29.8166506 5.57563682,29.0699382 C5.57563682,28.3234691 6.18611867,27.713393 6.86086176,27.713393 C7.6075742,27.713393 8.1460867,28.3234691 8.1460867,29.0699382 C8.1460867,29.8229794 7.54266385,30.4267267 6.86086176,30.4267267 Z" id="Fill-2"></path>
                        <path d="M27.6128631,0 L26.5612342,4.12821715 L0,4.12821715 L4.90056918,18.6487437 C3.25849959,18.8889931 2.03161283,20.2781557 2.03161283,22.0631904 C2.03161283,24.0231584 3.51805985,25.5812502 5.41344209,25.5812502 L23.8222609,25.5812502 L23.8222609,24.2960253 L5.41344209,24.2960253 C4.26452888,24.2960253 3.38182926,23.3484153 3.38182926,22.1278573 C3.38182926,20.9076239 4.32943923,19.9599327 5.41344209,19.9599327 L23.8868467,19.9599327 L28.6905372,1.35021643 L31.3972176,1.35021643 L31.3972176,0 L27.6128631,0 Z M22.8745698,18.6097163 L6.29646626,18.6097163 L1.89530109,5.47843357 L26.1914075,5.47843357 L22.8745698,18.6097163 Z" id="Fill-4"></path>
                    </g>
                </g>
            </g>
        </g>
    </g>
</svg>