<?xml version="1.0" encoding="UTF-8"?>
<svg width="24px" height="24px" viewBox="0 0 24 24" version="1.1" xmlns="http://www.w3.org/2000/svg" xmlns:xlink="http://www.w3.org/1999/xlink">
    <!-- Generator: Sketch 51.3 (57544) - http://www.bohemiancoding.com/sketch -->
    <title>Combined Shape</title>
    <desc>Created with Sketch.</desc>
    <defs></defs>
    <g id="Symbols" stroke="none" stroke-width="1" fill="none" fill-rule="evenodd">
        <g id="Header/Policy" transform="translate(-18.000000, -15.000000)" fill="#4E2A81" fill-rule="nonzero">
            <path d="M29.0558933,24.851993 C27.1938873,24.8705777 25.3337051,24.978213 23.4936344,25.1750198 C23.3633496,25.188831 23.2499431,25.1034234 23.2512706,24.9934094 C23.2653041,23.8583447 23.5217015,22.332913 24.4915361,20.7328686 C25.6252222,18.8612025 27.2366191,17.7016903 28.4435075,17.038749 C28.4787811,17.0192227 28.519744,17.0093802 28.562224,17.0093802 L29.0558933,17.0093802 L29.0558933,15.5921752 C29.0558933,15.2651259 29.3210192,15 29.6480685,15 C29.9751178,15 30.2402437,15.2651259 30.2402437,15.5921752 L30.2402437,17.0093802 L30.4605509,17.0093802 C30.5094788,17.0093802 30.5574585,17.0230327 30.595956,17.048274 C32.0209339,17.9820433 33.0277488,19.1079005 33.9613615,20.400128 C34.9607803,21.7834782 35.6305996,23.3479625 35.9270116,24.9581668 C35.9488206,25.0767533 35.8270698,25.1791473 35.6846478,25.1642247 C33.8832465,24.9749946 32.0627287,24.8709417 30.2402437,24.8521794 L30.2402437,35.7430365 C30.2402437,37.9526932 29.7165903,39 28.1676306,39 C26.6941484,39 26.0950175,38.0014484 26.0950175,36.3352117 C26.0950175,36.0081624 26.3601433,35.7430365 26.6871927,35.7430365 C27.014242,35.7430365 27.2793678,36.0081624 27.2793678,36.3352117 C27.2793678,37.4324592 27.5092821,37.8156497 28.1676306,37.8156497 C28.8393278,37.8156497 29.0558933,37.3825185 29.0558933,35.7430365 L29.0558933,24.851993 Z M41.098826,23.8862715 C40.3477575,23.8137618 39.5824328,23.8513762 38.8488688,23.999568 C38.2317005,24.124043 37.6374505,24.3306958 37.0892174,24.6029095 C36.9661447,24.6640896 36.810048,24.5997372 36.7862275,24.4813046 C36.4722296,22.9327684 35.8122927,21.4315146 34.8484635,20.0980906 C34.1621796,19.148364 33.3329726,18.2891235 32.3774445,17.5288286 C32.242642,17.4215747 32.3348563,17.2316898 32.5209091,17.2316898 L32.8883227,17.2316898 C37.31064,17.2316898 40.9526546,20.0813227 41.3328808,23.7018248 C41.3442497,23.8113448 41.2292976,23.8988096 41.098826,23.8862715 Z M22.5010214,24.4457538 C22.4931743,24.5730053 22.3294803,24.6489285 22.1966272,24.586754 C21.6745218,24.3421806 21.1135459,24.1564208 20.5345034,24.0397099 C19.7861098,23.8883219 19.0048678,23.8499784 18.2387726,23.9240684 C18.1062845,23.9369005 17.9891256,23.8479925 18.000805,23.7366283 C18.3882324,20.0432789 22.103192,17.1365059 26.6143578,17.1365059 C26.7369915,17.1365059 26.7926511,17.2634519 26.6992159,17.3299037 C25.6929632,18.0454453 24.6102469,19.0513892 23.7766301,20.4274777 C22.8824266,21.9030148 22.5705502,23.3206548 22.5010214,24.4457538 Z" id="Combined-Shape"></path>
        </g>
    </g>
</svg>