<?xml version="1.0" encoding="UTF-8"?>
<svg width="34px" height="33px" viewBox="0 0 34 33" version="1.1" xmlns="http://www.w3.org/2000/svg" xmlns:xlink="http://www.w3.org/1999/xlink">
    <!-- Generator: Sketch 51.3 (57544) - http://www.bohemiancoding.com/sketch -->
    <title>Group 4</title>
    <desc>Created with Sketch.</desc>
    <defs></defs>
    <g id="Screens" stroke="none" stroke-width="1" fill="none" fill-rule="evenodd">
        <g id="1.2.1---Product-detail-App-product" transform="translate(-283.000000, -393.000000)" fill="#4E2A81">
            <g id="Group-8" transform="translate(256.000000, 393.000000)">
                <g id="Group-4" transform="translate(27.000000, 0.000000)">
                    <path d="M24.2559525,31.4453066 C22.742789,29.0240916 20.9608574,27.943928 19.5152695,27.0671189 C18.5011473,26.4525227 17.6258026,25.9215416 17.0032563,25.0657932 C15.778527,23.381215 15.7428911,22.6141029 15.6978407,21.6421022 C15.6876591,21.4234752 15.67678,21.2019193 15.6542548,20.9694146 C15.5111535,19.4628064 14.5849703,17.2805817 13.2948272,15.4107809 C12.1477854,13.7479608 11.3995722,11.4735432 12.464533,10.4078153 C12.5509377,10.3206434 12.6664927,10.2495112 12.9359582,10.3018143 C14.1018989,10.5393401 15.9826485,12.7069897 16.4555383,13.8794857 C17.0250841,15.2894377 18.566561,18.6593611 20.5794632,19.4955133 C20.8083415,19.5884734 21.0705544,19.5644837 21.2776049,19.4272403 C22.0214247,18.9318254 22.3606975,18.1566935 22.6091023,17.590774 C22.6810714,17.4280765 22.7784249,17.2043587 22.7761933,17.1883888 C23.0805973,16.9777119 23.183739,16.575257 23.0181125,16.2440041 C22.7914658,15.7914079 22.4427784,14.5804866 22.3272932,14.1518802 C22.2662729,13.9259308 22.1028083,13.7414055 21.8848787,13.6542336 L18.6333695,12.3536997 L18.6333695,9.25644973 C21.336812,9.67487451 24.8451643,10.4514012 25.5460956,11.1517048 C26.5020567,12.1076659 27.7283203,16.493176 28.461261,19.1134218 C28.7024132,19.9764229 28.91309,20.7297269 29.0823429,21.263637 C29.7056563,23.2395085 31.2703558,25.4798245 31.9074772,26.3428256 C31.3212641,27.5312915 29.1063325,31.2433469 24.2559525,31.4453066 Z M2.2682882,24.0153378 L2.2682882,3.18712856 C2.2682882,2.36694625 2.93588494,1.69934952 3.75606725,1.69934952 L3.75606725,25.5031168 C2.93588494,25.5031168 2.2682882,24.8355201 2.2682882,24.0153378 Z M5.24377655,25.5031168 L6.73148586,25.5031168 L6.73148586,1.69934952 L5.24377655,1.69934952 L5.24377655,25.5031168 Z M17.1456602,3.18712856 L17.1456602,12.1064106 C16.2172454,10.7440893 14.651988,9.13322363 13.2331096,8.84458027 C12.5211598,8.69638816 11.8920581,8.87582266 11.4126131,9.35596509 C9.62126686,11.1473811 10.6469655,14.1918398 12.0700282,16.2548831 C13.2091199,17.906057 14.0539195,19.8572415 14.1737982,21.110354 C14.1933944,21.318869 14.2021116,21.5164353 14.2115959,21.7111423 C14.2579016,22.704413 14.3205258,23.7386195 15.5026456,25.5031168 L8.2192649,25.5031168 L8.2192649,1.69934952 L15.6578812,1.69934952 C16.4780635,1.69934952 17.1456602,2.36694625 17.1456602,3.18712856 Z M18.6333695,13.9559876 L20.9906352,14.8993961 C21.1061205,15.3032457 21.3015249,15.9570344 21.4976963,16.4670245 C21.4075955,16.626793 21.329908,16.8040657 21.2470599,16.9929147 C21.1119784,17.3009451 20.9644837,17.6372889 20.7582003,17.8988044 C20.0136831,17.368172 19.2577988,16.2431672 18.6333695,15.0479369 L18.6333695,13.9559876 Z M33.3530651,25.7885523 C33.3312373,25.761006 31.1948301,23.0128618 30.5003844,20.8161317 C30.3354553,20.2931007 30.1298693,19.5565336 29.893808,18.7131287 C28.7642006,14.674144 27.7370375,11.2388766 26.5979457,10.0998546 C25.3638716,8.86571073 20.5940383,8.04218102 18.6333695,7.74900472 L18.6333695,3.18712856 C18.6333695,1.54606657 17.2989432,0.211640212 15.6578812,0.211640212 L3.75606725,0.211640212 C2.11500526,0.211640212 0.780578898,1.54606657 0.780578898,3.18712856 L0.780578898,24.0153378 C0.780578898,25.6563998 2.11500526,26.9908261 3.75606725,26.9908261 L15.6578812,26.9908261 C15.9792314,26.9908261 16.2895631,26.9194847 16.5932,26.8149483 C17.2409216,27.415876 17.9745597,27.8731445 18.7437639,28.3390605 C20.2598564,29.2587582 21.8282519,30.2096285 23.1968496,32.5712877 C23.3297692,32.8008634 23.5753149,32.9417331 23.8404567,32.9417331 C30.9188092,32.9417331 33.4366106,26.5774922 33.4612977,26.5128456 C33.5550248,26.2694618 33.5136008,25.9941383 33.3530651,25.7885523 Z" id="Fill-1"></path>
                </g>
            </g>
        </g>
    </g>
</svg>