<?xml version="1.0" encoding="UTF-8"?>
<svg width="34px" height="34px" viewBox="0 0 34 34" version="1.1" xmlns="http://www.w3.org/2000/svg" xmlns:xlink="http://www.w3.org/1999/xlink">
    <!-- Generator: Sketch 51.3 (57544) - http://www.bohemiancoding.com/sketch -->
    <title>Group 3</title>
    <desc>Created with Sketch.</desc>
    <defs></defs>
    <g id="Screens" stroke="none" stroke-width="1" fill="none" fill-rule="evenodd">
        <g id="1.2.1---Product-detail-App-product" transform="translate(-171.000000, -391.000000)" fill="#4E2A81">
            <g id="Group-7" transform="translate(147.000000, 391.000000)">
                <g id="Group-5" transform="translate(24.000000, 0.000000)">
                    <g id="Group-3" transform="translate(0.142857, 0.142857)">
                        <path d="M5.82352941,16.5 C5.82352941,10.6035551 10.6035551,5.82352941 16.5,5.82352941 C22.3964449,5.82352941 27.1764706,10.6035551 27.1764706,16.5 C27.1764706,22.3964449 22.3964449,27.1764706 16.5,27.1764706 C10.6064669,27.1695551 5.83044485,22.3935331 5.82352941,16.5 Z M33,16.5 C32.9898088,25.6084853 25.6084853,32.9898088 16.5,33 C7.38726838,33 0,25.6127316 0,16.5 C0,7.38726838 7.38726838,0 16.5,0 C25.6127316,0 33,7.38726838 33,16.5 Z M1.94117647,16.5 C1.95027574,24.5368346 8.46316544,31.0497243 16.5,31.0588235 C24.5405956,31.0588235 31.0588235,24.5405956 31.0588235,16.5 C31.0588235,8.45940441 24.5405956,1.94117647 16.5,1.94117647 C8.45940441,1.94117647 1.94117647,8.45940441 1.94117647,16.5 Z M29.1176471,16.5 C29.1096397,23.4651838 23.4651838,29.1096397 16.5,29.1176471 C9.53141912,29.1176471 3.88235294,23.4685809 3.88235294,16.5 C3.88235294,9.53141912 9.53141912,3.88235294 16.5,3.88235294 C23.4685809,3.88235294 29.1176471,9.53141912 29.1176471,16.5 Z M17.4705882,25.2352941 L17.4705882,23.2155 C19.6825588,22.8544412 21.3529412,21.2869412 21.3529412,19.4117647 C21.3529412,17.2706471 19.1759118,15.5294118 16.5,15.5294118 C14.9218235,15.5294118 13.5882353,14.6403529 13.5882353,13.5882353 C13.5882353,12.5361176 14.9218235,11.6470588 16.5,11.6470588 C18.0781765,11.6470588 19.4117647,12.5361176 19.4117647,13.5882353 C19.4117647,14.1242426 19.8463456,14.5588235 20.3823529,14.5588235 C20.9183603,14.5588235 21.3529412,14.1242426 21.3529412,13.5882353 C21.3529412,11.7130588 19.6825588,10.1455588 17.4705882,9.7845 L17.4705882,7.76470588 L15.5294118,7.76470588 L15.5294118,9.7845 C13.3174412,10.1455588 11.6470588,11.7130588 11.6470588,13.5882353 C11.6470588,15.7293529 13.8240882,17.4705882 16.5,17.4705882 C18.0781765,17.4705882 19.4117647,18.3596471 19.4117647,19.4117647 C19.4117647,20.4638824 18.0781765,21.3529412 16.5,21.3529412 C14.9218235,21.3529412 13.5882353,20.4638824 13.5882353,19.4117647 C13.5882353,18.8757574 13.1536544,18.4411765 12.6176471,18.4411765 C12.0816397,18.4411765 11.6470588,18.8757574 11.6470588,19.4117647 C11.6470588,21.2869412 13.3174412,22.8544412 15.5294118,23.2155 L15.5294118,25.2352941 L17.4705882,25.2352941 Z" id="Combined-Shape"></path>
                    </g>
                </g>
            </g>
        </g>
    </g>
</svg>