<?xml version="1.0" encoding="UTF-8"?>
<svg width="94px" height="20px" viewBox="0 0 94 20" version="1.1" xmlns="http://www.w3.org/2000/svg" xmlns:xlink="http://www.w3.org/1999/xlink">
    <!-- Generator: Sketch 50.2 (55047) - http://www.bohemiancoding.com/sketch -->
    <title>Group 15</title>
    <desc>Created with Sketch.</desc>
    <defs></defs>
    <g id="Symbols" stroke="none" stroke-width="1" fill="none" fill-rule="evenodd">
        <g id="Status-bar-policy" transform="translate(-139.000000, -55.000000)">
            <g id="logo" transform="translate(139.000000, 52.000000)">
                <g id="Group-15">
                    <g transform="translate(0.000000, 3.000000)">
                        <path d="M94,17.5263293 L91.1228137,6.66324172 L83.5026616,0 L75.8771863,6.66324172 L73,17.5263293 L78.4456274,20 L82.7441065,20 L82.7441065,16.2882096 C82.7441065,16.2882096 74.7593156,20.3570511 76.8460076,11.2432571 C77.5353612,8.21731313 81.2057034,4.18186489 83.3057034,3.05933727 C83.3749049,3.02337529 83.4361217,2.99511945 83.5026616,2.9668636 C85.560076,3.930131 89.4406844,8.12483946 90.156654,11.2432571 C92.243346,20.3570511 84.2558935,16.2882096 84.2558935,16.2882096 L84.2558935,20 L88.5543726,20 L94,17.5263293 Z" id="Fill-2" fill="#F8B100"></path>
                        <path d="M7.33292002,9.31618829 L7.60570366,7.56326062 C7.60570366,7.56326062 6.20954743,7 4.31742095,7 C2.43025418,7 0.0892746435,7.56326062 0.0892746435,10.2507463 C0.0892746435,12.665442 2.80471172,13.0847302 3.42467452,13.2514351 C4.04463732,13.4130884 5.97396156,13.7894374 5.97396156,14.8427095 C5.97396156,15.8934558 4.54804712,16.2167623 3.67017979,16.2016073 C1.72101674,16.1510907 0.272783633,15.2847302 0.272783633,15.2847302 L0,17.1614237 C0,17.1614237 1.44575325,18 3.65778053,18 C5.85988841,18 8,17.0452354 8,14.8427095 C8,12.7791045 6.77247365,12.0289323 4.82579045,11.5641791 C2.56912585,11.023651 2.13267204,10.6978186 2.13267204,10.0663605 C2.13267204,9.40964409 2.77991321,8.82617681 4.40917545,8.82617681 C5.81525108,8.82617681 7.33292002,9.31618829 7.33292002,9.31618829" id="Fill-4" fill="#4E2A81"></path>
                        <path d="M18.7037908,9.30665447 L18.9761975,7.53578779 C18.9761975,7.53578779 17.6511901,7 15.8580664,7 C14.0702321,7 10,7.34713012 10,12.5465356 C10,17.7434256 14.1231267,18 15.7390538,18 C17.3549809,18 19,17.3711411 19,17.3711411 L18.7275933,15.6480677 C18.7275933,15.6480677 17.5771378,16.1587011 15.9612107,16.1587011 C14.4193359,16.1587011 12.4305025,15.9021267 12.4305025,12.5188658 C12.4305025,9.09032701 14.3928886,8.88657672 16.0088158,8.88657672 C17.2597708,8.88657672 18.7037908,9.30665447 18.7037908,9.30665447" id="Fill-6" fill="#4E2A81"></path>
                        <path d="M26.0965909,16 C25.0557851,16 23.0129132,15.987013 23.0129132,15.987013 L23,13 C23,13 25.3915289,13.012987 26.1714876,13.012987 C26.946281,13.012987 28,13.1688312 28,14.4571429 C28,15.8207792 27.1399793,16 26.0965909,16 Z M23,9 C23,9 24.6636771,9.01131008 25.4955157,9.01131008 C26.32287,9.01131008 27,9.32233742 27,10.4901037 C27,11.5249764 26.5515695,12 25.5022422,12 C24.4506726,12 23,11.9830349 23,11.9830349 L23,9 Z M27.9505934,12.2357396 C27.9481093,12.2461538 27.9505934,12.1420118 27.9505934,12.1420118 C27.9505934,12.1420118 29.4932376,11.9259172 29.4932376,9.74934911 C29.4932376,7.50769231 27.5133867,7 25.7372343,7 L21,7 L21,18 C21,18 23.6207563,17.976568 25.9508694,17.976568 C28.2710461,17.976568 30,17.1590533 30,14.8653254 C30,12.6939645 28.2635937,12.3190533 27.9505934,12.2357396 Z" id="Fill-8" fill="#4E2A81"></path>
                        <polygon id="Fill-10" fill="#4E2A81" points="42 18 43.67 18 43.67 7 42 7"></polygon>
                        <polygon id="Fill-12" fill="#4E2A81" points="40 16.1002132 34.1655307 16.1002132 34.1655307 7 32 7 32 18 40 18"></polygon>
                        <polygon id="Fill-13" fill="#4E2A81" points="55 8.89978678 55 7 49.1367576 7 47 7 47 18 49.1367576 18 49.1367576 13.3795309 54.3219904 13.3795309 54.3219904 11.4797441 49.1367576 11.4797441 49.1367576 8.89978678"></polygon>
                        <polygon id="Fill-14" fill="#4E2A81" points="58.0817473 16.1015625 58.0817473 13.3723958 63.1163807 13.3723958 63.1163807 11.4765625 58.0817473 11.4765625 58.0817473 8.89583333 63.775351 8.89583333 63.775351 7 58.0817473 7 56 7 56 17.9921875 56 18 64 18 64 16.1015625"></polygon>
                    </g>
                </g>
            </g>
        </g>
    </g>
</svg>