<?xml version="1.0" encoding="UTF-8"?>
<svg width="17px" height="19px" viewBox="0 0 17 19" version="1.1" xmlns="http://www.w3.org/2000/svg" xmlns:xlink="http://www.w3.org/1999/xlink">
    <!-- Generator: Sketch 50.2 (55047) - http://www.bohemiancoding.com/sketch -->
    <title>LM1.2.Menu-Registered-NotSCBCustomer Copy</title>
    <desc>Created with Sketch.</desc>
    <defs></defs>
    <g id="LM1.2.Menu-Registered-NotSCBCustomer-Copy" stroke="none" stroke-width="1" fill="none" fill-rule="evenodd">
        <path d="M15.2317874,12.7655471 L12.6691448,10.2064333 C12.5529566,10.0904051 12.5174065,9.91982641 12.5681304,9.76353474 C13.3246541,7.43387963 12.6041141,4.72323651 10.4030421,3.11009863 C8.74519306,1.8952664 6.54888997,1.69048534 4.63091822,2.43211314 C4.11414102,2.63169891 3.98451318,3.30665381 4.37599792,3.69759946 L7.02014568,6.33810615 C7.12983078,6.44764021 7.17231749,6.60696247 7.132432,6.75632709 L6.90785936,7.59320189 C6.86754034,7.74256651 6.75091864,7.85946056 6.60134805,7.89972406 L5.76288572,8.12398746 C5.61331514,8.16381803 5.45377319,8.12095688 5.34452163,8.01185576 L2.70037387,5.37134907 C2.30845559,4.97997048 1.63256998,5.10985276 1.432709,5.62548539 C0.690058545,7.54081604 0.89512198,9.7345277 2.11162938,11.3896608 C3.7274252,13.5877019 6.44137256,14.3072497 8.77467364,13.5522008 C8.93074729,13.5015467 9.10156123,13.5370478 9.21774939,13.653076 L11.854527,16.2862227 C12.8638033,17.2936762 14.5363926,17.2347963 15.467632,16.1087169 C16.279215,15.1272398 16.1331127,13.6656313 15.2317874,12.7655471 L15.2317874,12.7655471 Z M14.292197,14.2794101 C14.4640045,14.4512112 14.4640045,14.7293445 14.292197,14.9011456 L13.9011263,15.2922018 C13.7293188,15.4640029 13.4511753,15.4640029 13.2798072,15.2922018 L9.81597522,11.7986197 C9.54002869,11.5200471 9.11951781,11.4712749 8.76931179,11.6474699 C7.17163411,12.4519912 5.16750653,12.1883578 3.8308356,10.8517364 C2.99904136,10.0204124 2.5627119,8.89953103 2.5794093,7.76371043 L4.7175555,9.90177737 C4.82872504,10.0129428 4.99042619,10.0564423 5.14202102,10.0155791 L7.70682977,9.32837471 C8.01045883,9.24708774 8.24729829,9.01025706 8.32814886,8.70707864 L9.01581816,6.14236496 C9.05624345,5.99077575 9.01274232,5.82864121 8.90201219,5.71791517 L6.76342658,3.57940884 C7.89928929,3.56271206 9.02021221,3.99946474 9.85200645,4.83078875 C11.1856015,6.1647738 11.4518812,8.16311504 10.6539211,9.75897594 C10.4825531,10.1016994 10.5370393,10.5125281 10.8072736,10.7840705 L14.292197,14.2794101 L14.292197,14.2794101 Z" id="icon_settings" fill="#4E2A81"></path>
    </g>
</svg>