<?xml version="1.0" encoding="UTF-8"?>
<svg width="56px" height="56px" viewBox="0 0 56 56" version="1.1" xmlns="http://www.w3.org/2000/svg" xmlns:xlink="http://www.w3.org/1999/xlink">
    <!-- Generator: Sketch 50.2 (55047) - http://www.bohemiancoding.com/sketch -->
    <title>Story</title>
    <desc>Created with Sketch.</desc>
    <defs></defs>
    <g id="Story" stroke="none" stroke-width="1" fill="none" fill-rule="evenodd">
        <path d="M18.8956679,41.5981893 C18.8874538,41.6050138 18.8730291,41.6196064 18.8479194,41.6493726 C18.8257481,41.6755813 18.8131933,41.6916986 18.806248,41.7013544 C18.8067155,41.6935862 18.7940939,41.6910452 18.7311861,41.7272727 C18.82488,41.6733307 18.6271412,41.7113007 18.68484,41.7134787 C18.6314819,41.7149307 18.5778567,41.7131883 18.5246322,41.7131883 L13.6685121,41.7131883 C13.7165277,41.7131883 13.5736161,41.6858179 13.5841008,41.7070172 C13.5584568,41.6755087 13.4397868,41.513247 13.4944138,41.6053042 C13.4756483,41.573723 13.4642287,41.5561538 13.4574838,41.5467157 C13.4644958,41.5498375 13.4711072,41.5387297 13.4545455,41.4595227 C13.4731106,41.5480951 13.4670335,41.4350564 13.4670335,41.4158173 L13.4670335,29.2458973 C13.4670335,29.2326114 13.4642955,29.1893416 13.4545455,29.26775 C13.4608897,29.217075 13.4610232,29.1944963 13.4592201,29.1854938 C13.4654976,29.1773626 13.4761157,29.1595029 13.4944138,29.1219685 C13.4469324,29.2194708 13.6526849,28.9832293 13.5662702,29.043778 C13.6715172,28.9700887 13.6130838,29.0140845 13.7382983,29.0140845 L18.7062768,29.0140845 C18.5874732,29.0140845 18.8379691,29.0490778 18.7311861,29 C18.8251471,29.0431972 18.8025751,29.0242485 18.9056851,29.1462897 C18.8779041,29.1134017 18.90662,29.2835769 18.90662,29.2324662 L18.90662,41.4624993 C18.903281,41.4370892 18.8849162,41.5841049 18.9088238,41.5452637 C18.9088906,41.5470061 18.9089573,41.5487485 18.9090909,41.5505635 C18.8998083,41.5766271 18.8962022,41.5910019 18.8956679,41.5981893 Z M19.2445418,27.2560075 C18.9440489,27.1845458 18.621365,27.2069005 18.3153244,27.2069005 L15.1601144,27.2069005 C14.3328638,27.2069005 13.3304719,27.0600193 12.5754828,27.4771355 C11.712628,27.9536932 11.6363636,28.906442 11.6363636,29.7919802 L11.6363636,41.34832 C11.6363636,41.6313082 11.6477401,41.9105584 11.7323612,42.183945 C11.9886825,43.0120207 12.7527307,43.5454545 13.5749252,43.5454545 L18.7565481,43.5454545 C19.8007239,43.5454545 20.6031851,42.7741084 20.7155451,41.716769 C20.7224974,41.6688347 20.7272727,41.6193613 20.7272727,41.5665163 L20.7272727,29.1949272 C20.7272727,28.2750141 20.1023403,27.4599847 19.2445418,27.2560075 Z M13.4679546,24.1147324 C13.4673227,24.0808134 13.4681652,24.0467529 13.4681652,24.012834 L13.4681652,15.5014499 C13.4681652,15.5495312 13.4938601,15.3995515 13.473922,15.4103149 C13.5038292,15.3834772 13.6616494,15.257007 13.5724894,15.3149312 C13.6030284,15.2951038 13.620018,15.2829242 13.6290744,15.275843 C13.6260556,15.2832783 13.6366565,15.2903594 13.7134605,15.2727273 C13.6480297,15.2877394 13.6760413,15.2859691 13.6919076,15.2859691 L25.9559696,15.2859691 C25.9068965,15.2859691 26.0565028,15.312382 26.0455508,15.2918465 C26.072369,15.3223665 26.1974036,15.481056 26.1399762,15.3911957 C26.1596335,15.4219989 26.1716385,15.4391354 26.1787292,15.4483409 C26.1713577,15.445296 26.1644074,15.4561302 26.1818182,15.5333861 C26.1663029,15.4645568 26.1686899,15.5005293 26.1686899,15.5174534 L26.1686899,24.1053852 C26.1651797,24.080601 26.1459436,24.2239244 26.1710769,24.1861108 C26.1711471,24.1878103 26.1712173,24.1895806 26.1712875,24.1912801 C26.161529,24.2167724 26.1578082,24.2307223 26.1572465,24.2378035 C26.1486114,24.2444598 26.1334471,24.2586222 26.1070502,24.2876551 C26.0837422,24.3132183 26.0705437,24.3288677 26.0632424,24.3383565 C26.0637338,24.3307088 26.0505354,24.3283012 25.9843323,24.3636364 C26.0799511,24.3126518 25.8867478,24.3459334 25.9308363,24.3498988 C25.9108982,24.3499697 25.8908898,24.3498988 25.8710219,24.3498988 L13.6787793,24.3498988 C13.8036735,24.3498988 13.5402654,24.3157675 13.6525228,24.3636364 C13.6093469,24.3452253 13.5884961,24.3391354 13.5793694,24.3383565 C13.5727702,24.3296466 13.558659,24.3143512 13.5298751,24.2876551 C13.5045312,24.2641456 13.4889458,24.2509037 13.4796085,24.2435393 C13.4871204,24.2439642 13.4895074,24.2305807 13.4545455,24.1638758 C13.5066374,24.2631542 13.4700607,24.0536216 13.4679546,24.1147324 Z M13.4689062,26.1533237 C14.8233507,26.2147141 16.1922353,26.1577963 17.547752,26.1577963 L26.0698791,26.1577963 C27.1006352,26.1577963 27.8741132,25.350487 27.987347,24.3625412 C27.9949245,24.3139915 28,24.2637105 28,24.210039 L28,15.4580441 C28,14.7178242 27.6154055,14.03243 26.9625243,13.6837093 C26.4203033,13.3940706 25.7699955,13.4613043 25.1765191,13.4613043 L13.7723641,13.4613043 C13.4987873,13.4613043 13.2284274,13.4737844 12.9642868,13.5599185 C12.1666465,13.8199802 11.6363636,14.5989388 11.6363636,15.4368352 L11.6363636,24.206937 C11.6363636,25.2255419 12.4568795,26.1075153 13.4689062,26.1533237 Z M46.1681107,15.5209067 L46.1681107,44.2902118 C46.1455814,45.3402413 45.3644558,46.1626692 44.3785314,46.1815217 C43.3861605,46.2005186 42.6060527,45.303981 42.5886808,44.2762711 C42.5869164,44.1744247 42.5715124,44.0821128 42.5454545,43.9988299 C42.5455224,43.9969519 42.545726,43.9952183 42.545726,43.9934125 L42.545726,15.2812426 L45.9029853,15.2812426 C46.0412821,15.2812426 46.0036203,15.2389149 46.1100912,15.3430005 C46.1332311,15.365609 46.1476851,15.3786829 46.1569139,15.3864117 C46.150128,15.3867728 46.149178,15.4020859 46.1818182,15.4675999 C46.1320096,15.3675592 46.1642427,15.5671349 46.1681107,15.5209067 Z M12.0898606,46.1634726 C12.0234925,46.1634726 11.9614869,46.1700712 11.9030572,46.1818182 C11.8413377,46.1674608 11.7753272,46.1589768 11.704525,46.1577441 C10.6379866,46.1393985 9.81703874,45.3530037 9.81818301,44.2740947 C9.81846908,44.0154436 9.81889819,43.7567926 9.81932729,43.4981416 C9.82111522,42.1891513 9.82311771,40.8803061 9.8251202,39.5713884 C9.83169979,35.1466213 9.83842243,30.7219993 9.84514506,26.2973047 C9.85158162,22.0532381 9.8580897,17.8090989 9.86452627,13.5649598 C9.86617116,12.481845 9.86781606,11.3985853 9.86946096,10.3154705 C9.869604,10.2185942 9.86974703,10.1217904 9.86989007,10.0249141 C9.86996158,10.0071486 9.86996158,9.98931061 9.8700331,9.97147261 C9.8700331,9.95682515 9.8683882,9.92782027 9.85723149,10.0061334 C9.8770418,9.86647494 9.87418111,9.88474802 9.99025379,9.81818182 C9.88312078,9.87952714 10.1294266,9.82862358 10.0078471,9.82862358 L40.0153889,9.82862358 C40.1100779,9.82862358 40.1656469,9.87503138 40.1656469,10.0209259 L40.1656469,44.0336442 C40.1656469,44.142485 40.1821674,44.240449 40.2113465,44.3281888 C40.2250778,45.0005219 40.4115236,45.6264472 40.7272727,46.1634726 L12.0898606,46.1634726 Z M47.9767594,17.4468381 C47.9767594,16.6544481 48.0479545,15.8250556 47.9411255,15.0371726 C47.8086254,14.0594796 46.8950152,13.4108829 45.9472982,13.4108829 L42.3494351,13.4108829 L42.3494351,10.2576792 C42.3494351,9.75934585 42.3220915,9.27722374 42.0242937,8.84707951 C41.3091426,7.81406455 40.0039228,8.01594228 38.9145427,8.01594228 L10.3620953,8.01594228 C9.92823407,8.01594228 9.53982426,8.01834126 9.12370727,8.20567972 C8.35430534,8.55200507 8.05359863,9.32905623 8.05236235,10.116721 C8.04792629,12.9611833 8.04356295,15.8057183 8.03919961,18.6502533 C8.03185466,23.3738432 8.02458243,28.0973605 8.01738292,32.8208777 C8.01200147,36.3079029 8.00662002,39.7949281 8.00145674,43.2818807 C8.00094768,43.6211545 8.00043863,43.9603556 8.00000229,44.2995567 C7.9977479,46.3374531 9.65901611,47.8927913 11.6634609,47.9267404 C11.730729,47.9279036 11.7935611,47.922306 11.852757,47.9116923 C11.9157345,47.9250684 11.9830754,47.9324835 12.0552886,47.9324835 L43.1103285,47.9324835 C43.2285023,47.9324835 43.3334406,47.9123466 43.426816,47.8778885 C43.7102875,47.951748 44.0071399,47.9939119 44.3135917,47.9994368 C46.1933177,48.0333133 47.7134319,46.5343875 47.946216,44.7435859 C47.9654147,44.6724162 47.9767594,44.5982659 47.9767594,44.5217167 L47.9767594,44.3512438 C47.9769048,44.3465912 47.9770503,44.341866 47.977123,44.3372134 C47.9772684,44.3332878 47.9767594,44.3295076 47.9767594,44.325582 L47.9767594,17.4468381 Z M36.2289638,40.7272727 L23.4073998,40.7272727 C22.2581394,40.7272727 22.2581394,42.5454545 23.4073998,42.5454545 L36.2289638,42.5454545 C37.3782242,42.5454545 37.3782242,40.7272727 36.2289638,40.7272727 Z M38.0168381,34.4545455 L23.4377073,34.4545455 C22.248037,34.4545455 22.248037,36.2727273 23.4377073,36.2727273 L38.0168381,36.2727273 C39.2065085,36.2727273 39.2065085,34.4545455 38.0168381,34.4545455 Z M38.0168381,28 L23.4377073,28 C22.248037,28 22.248037,29.8181818 23.4377073,29.8181818 L38.0168381,29.8181818 C39.2065085,29.8181818 39.2065085,28 38.0168381,28 Z M38.0663438,19.9090909 L30.6609289,19.9090909 C29.5372661,19.9090909 29.5372661,21.7272727 30.6609289,21.7272727 L38.0663438,21.7272727 C39.1900066,21.7272727 39.1900066,19.9090909 38.0663438,19.9090909 Z M38.0663438,13.4545455 L30.6609289,13.4545455 C29.5372661,13.4545455 29.5372661,15.2727273 30.6609289,15.2727273 L38.0663438,15.2727273 C39.1900066,15.2727273 39.1900066,13.4545455 38.0663438,13.4545455 Z" id="Fill-1" fill="#4E2A81"></path>
    </g>
</svg>