<?xml version="1.0" encoding="utf-8"?>
<!-- Generator: Adobe Illustrator 22.1.0, SVG Export Plug-In . SVG Version: 6.00 Build 0)  -->
<svg version="1.1" id="Layer_1" xmlns="http://www.w3.org/2000/svg" xmlns:xlink="http://www.w3.org/1999/xlink" x="0px" y="0px"
	 viewBox="0 0 85.6 85.6" style="enable-background:new 0 0 85.6 85.6;" xml:space="preserve">
<style type="text/css">
	.st0{fill:none;}
	.st1{fill:#4E2A81;}
</style>
<title>Icons/sucess</title>
<desc>Created with Sketch.</desc>
<path class="st0" d="M57.8,25.3c-5.3,8.3-5.3,8.3-8.7,13.6l-9.4,14.7c-0.2,0.4-0.5,0.6-0.7,0.6c0,0,0,0,0,0c-0.2,0-0.5-0.1-0.8-0.5
	L27.4,41.1c0.9,1,0.8,2.6-0.3,3.5c-1,0.9-2.6,0.8-3.5-0.3l10.8,12.6c1.2,1.4,3,2.3,4.9,2.2c2-0.1,3.5-1.2,4.6-2.8L62,28
	c-0.7,1.2-2.3,1.5-3.4,0.7l0,0C57.4,28,57.1,26.4,57.8,25.3L57.8,25.3z M62,28L62,28C62,28,62,28,62,28z"/>
<g>
	<path id="path-1_1_" class="st1" d="M42.8,85.6C19.2,85.6,0,66.4,0,42.8S19.2,0,42.8,0s42.8,19.2,42.8,42.8S66.4,85.6,42.8,85.6z
		 M60.7,25.3c-0.7-0.5-1.6-0.2-2.1,0.5L40.4,54.1c-0.4,0.6-0.9,1-1.5,1c-0.6,0-1.1-0.2-1.6-0.8L26.6,41.7c-0.5-0.6-1.5-0.7-2.1-0.2
		c-0.6,0.5-0.7,1.5-0.2,2.1l10.8,12.6c1,1.2,2.4,1.9,3.8,1.9c0.1,0,0.2,0,0.3,0c1.5-0.1,2.9-1,3.8-2.4c4.2-6.5,7.3-11.4,9.4-14.7
		c1.9-3,4.9-7.6,8.7-13.6C61.6,26.7,61.4,25.8,60.7,25.3z"/>
</g>
</svg>
