<?xml version="1.0" encoding="UTF-8"?>
<svg width="123px" height="123px" viewBox="0 0 123 123" version="1.1" xmlns="http://www.w3.org/2000/svg" xmlns:xlink="http://www.w3.org/1999/xlink">
    <!-- Generator: Sketch 52.2 (67145) - http://www.bohemiancoding.com/sketch -->
    <title>Tax saving</title>
    <desc>Created with Sketch.</desc>
    <g id="Tax-saving" stroke="none" stroke-width="1" fill="none" fill-rule="evenodd" stroke-linecap="round">
        <path d="M84.6375,28 C87.8011575,28 90.375,30.5420667 90.375,33.6666667 L90.375,85.8 C90.375,88.5721333 88.34622,90.8762 85.67943,91.3624 C85.1871525,93.9962667 82.854285,96 80.0475,96 L38.7375,96 C35.5738425,96 33,93.4579333 33,90.3333333 L33,38.2 C33,35.4278667 35.02878,33.1238 37.69557,32.6376 C38.1878475,30.0037333 40.520715,28 43.3275,28 L84.6375,28 Z M83.49,90.3333333 L83.49,45 L74.31,45 C73.67658,45 73.1625,44.4934 73.1625,43.8666667 L73.1625,34.8 L38.7375,34.8 C36.839535,34.8 35.295,36.3254667 35.295,38.2 L35.295,90.3333333 C35.295,92.2078667 36.839535,93.7333333 38.7375,93.7333333 L80.0475,93.7333333 C81.945465,93.7333333 83.49,92.2078667 83.49,90.3333333 Z M81.867435,42.7333333 L75.4575,36.4025333 L75.4575,42.7333333 L81.867435,42.7333333 Z M88.08,85.8 L88.08,33.6666667 C88.08,31.7921333 86.535465,30.2666667 84.6375,30.2666667 L43.3275,30.2666667 C41.833455,30.2666667 40.571205,31.2175333 40.09614,32.5333333 L74.31,32.5333333 C74.6278575,32.5333333 74.9147325,32.6602667 75.12243,32.8665333 L85.447635,43.0642667 C85.65648,43.2694 85.785,43.5527333 85.785,43.8666667 L85.785,88.9914667 C87.1172475,88.5222667 88.08,87.2756 88.08,85.8 Z M59.3925,45 C68.2512,45 75.4575,52.1173333 75.4575,60.8666667 C75.4575,69.616 68.2512,76.7333333 59.3925,76.7333333 C50.5338,76.7333333 43.3275,69.616 43.3275,60.8666667 C43.3275,52.1173333 50.5338,45 59.3925,45 Z M59.3925,74.4666667 C66.9855075,74.4666667 73.1625,68.3659333 73.1625,60.8666667 C73.1625,53.3674 66.9855075,47.2666667 59.3925,47.2666667 C51.7994925,47.2666667 45.6225,53.3674 45.6225,60.8666667 C45.6225,68.3659333 51.7994925,74.4666667 59.3925,74.4666667 Z M64.9369415,54.6935997 L55.7566775,68.2948081 L53.8468886,67.0374095 L63.0271527,53.4362011 L64.9369415,54.6935997 Z M65.13,60.8666667 C67.027965,60.8666667 68.5725,62.3921333 68.5725,64.2666667 C68.5725,66.1412 67.027965,67.6666667 65.13,67.6666667 C63.232035,67.6666667 61.6875,66.1412 61.6875,64.2666667 C61.6875,62.3921333 63.232035,60.8666667 65.13,60.8666667 Z M65.13,65.4 C65.7622725,65.4 66.2775,64.8922667 66.2775,64.2666667 C66.2775,63.6410667 65.7622725,63.1333333 65.13,63.1333333 C64.4977275,63.1333333 63.9825,63.6410667 63.9825,64.2666667 C63.9825,64.8922667 64.4977275,65.4 65.13,65.4 Z M57.0975,57.4666667 C57.0975,59.3412 55.552965,60.8666667 53.655,60.8666667 C51.757035,60.8666667 50.2125,59.3412 50.2125,57.4666667 C50.2125,55.5921333 51.757035,54.0666667 53.655,54.0666667 C55.552965,54.0666667 57.0975,55.5921333 57.0975,57.4666667 Z M53.655,58.6 C54.2872725,58.6 54.8025,58.0922667 54.8025,57.4666667 C54.8025,56.8410667 54.2872725,56.3333333 53.655,56.3333333 C53.0227275,56.3333333 52.5075,56.8410667 52.5075,57.4666667 C52.5075,58.0922667 53.0227275,58.6 53.655,58.6 Z M59.3925,84.1974667 L65.4662175,78.1987333 L67.0887825,79.8012667 L60.2037825,86.6012667 C59.98002,86.8222667 59.68626,86.9333333 59.3925,86.9333333 C59.09874,86.9333333 58.80498,86.8222667 58.5812175,86.6012667 L55.1387175,83.2012667 L56.7612825,81.5987333 L59.3925,84.1974667 Z" id="Tax-saving--" stroke="#000000" fill="#000000" fill-rule="nonzero"></path>
    </g>
</svg>