<?xml version="1.0" encoding="UTF-8"?>
<svg width="17px" height="19px" viewBox="0 0 17 19" version="1.1" xmlns="http://www.w3.org/2000/svg" xmlns:xlink="http://www.w3.org/1999/xlink">
    <!-- Generator: Sketch 50.2 (55047) - http://www.bohemiancoding.com/sketch -->
    <title>LM1.2.Menu-Registered-NotSCBCustomer Copy</title>
    <desc>Created with Sketch.</desc>
    <defs></defs>
    <g id="LM1.2.Menu-Registered-NotSCBCustomer-Copy" stroke="none" stroke-width="1" fill="none" fill-rule="evenodd">
        <g id="icon_terms" transform="translate(4.000000, 3.000000)" fill="#4E2A81">
            <path d="M1.17647059,12.8333333 L1.17647059,1.16666667 L5.29411765,1.16666667 L5.29411765,4.08858333 C5.29411765,4.41058333 5.55764706,4.67191667 5.88235294,4.67191667 L8.82352941,4.67191667 L8.82352941,12.8333333 L1.17647059,12.8333333 Z M6.47058824,1.99179167 L7.99676471,3.50525 L6.47058824,3.50525 L6.47058824,1.99179167 Z M9.82764706,3.67091667 L6.29823529,0.170916667 C6.18794118,0.0615416667 6.03823529,0 5.88235294,0 L0.588235294,0 C0.263529412,0 0,0.261333333 0,0.583333333 L0,13.4166667 C0,13.7386667 0.263529412,14 0.588235294,14 L9.41176471,14 C9.73647059,14 10,13.7386667 10,13.4166667 L10,4.08333333 C10,3.92875 9.93794118,3.78029167 9.82764706,3.67091667 Z" id="Fill-1"></path>
            <path d="M2.375,7 L4.625,7 C4.83225,7 5,6.77633333 5,6.5 C5,6.22366667 4.83225,6 4.625,6 L2.375,6 C2.16775,6 2,6.22366667 2,6.5 C2,6.77633333 2.16775,7 2.375,7" id="Fill-3"></path>
            <path d="M5.64705882,8 L2.35294118,8 C2.15788235,8 2,8.22366667 2,8.5 C2,8.77633333 2.15788235,9 2.35294118,9 L5.64705882,9 C5.84211765,9 6,8.77633333 6,8.5 C6,8.22366667 5.84211765,8 5.64705882,8" id="Fill-5"></path>
            <path d="M5.64705882,10 L2.35294118,10 C2.15788235,10 2,10.2236667 2,10.5 C2,10.7763333 2.15788235,11 2.35294118,11 L5.64705882,11 C5.84211765,11 6,10.7763333 6,10.5 C6,10.2236667 5.84211765,10 5.64705882,10" id="Fill-7"></path>
        </g>
    </g>
</svg>