<?xml version="1.0" encoding="UTF-8"?>
<svg width="99px" height="102px" viewBox="0 0 99 102" version="1.1" xmlns="http://www.w3.org/2000/svg" xmlns:xlink="http://www.w3.org/1999/xlink">
    <!-- Generator: Sketch 50.2 (55047) - http://www.bohemiancoding.com/sketch -->
    <title>TIme</title>
    <desc>Created with Sketch.</desc>
    <defs>
        <path d="M101.003403,227 C79.493003,227 62,209.058404 62,187.003475 C62,164.947174 79.493003,147 101.003403,147 C122.506967,147 140,164.947174 140,187.003475 C140,209.058404 122.506967,227 101.003403,227 M100.503361,136 C127.795002,136 150,158.877846 150,187.003462 C150,215.122154 127.795002,238 100.503361,238 C73.2049686,238 51,215.122154 51,187.003462 C51,158.877846 73.2049686,136 100.503361,136 Z M102.689553,182.679985 L102.689553,162.151264 C102.689553,159.856142 100.965494,158 98.8447764,158 C96.7240589,158 95,159.856142 95,162.151264 L95,184.002204 C95,184.070458 95.0148311,184.132032 95.0198289,184.194918 C94.9665286,185.324395 95.3296889,186.469972 96.1291115,187.331744 L110.439862,202.784543 C111.940859,204.405152 114.376408,204.405152 115.872407,202.784543 C117.373378,201.163904 117.378349,198.534253 115.872407,196.913615 L102.689553,182.679985 Z" id="path-1"></path>
    </defs>
    <g id="Page-1" stroke="none" stroke-width="1" fill="none" fill-rule="evenodd">
        <g id="Payment" transform="translate(-51.000000, -136.000000)">
            <mask id="mask-2" fill="white">
                <use xlink:href="#path-1"></use>
            </mask>
            <use id="TIme" fill="#A1A1A1" xlink:href="#path-1"></use>
        </g>
    </g>
</svg>