<?xml version="1.0" encoding="UTF-8"?>
<svg width="56px" height="56px" viewBox="0 0 56 56" version="1.1" xmlns="http://www.w3.org/2000/svg" xmlns:xlink="http://www.w3.org/1999/xlink">
    <!-- Generator: Sketch 50.2 (55047) - http://www.bohemiancoding.com/sketch -->
    <title>trash</title>
    <desc>Created with Sketch.</desc>
    <defs></defs>
    <g id="trash" stroke="none" stroke-width="1" fill="none" fill-rule="evenodd">
        <g id="Group-13" transform="translate(11.000000, 8.000000)" fill="#4E2683">
            <path d="M22.9666667,15 C23.6841667,15 24.2666667,15.5558209 24.2666667,16.241791 L24.2666667,32.9367164 C24.2666667,33.6232836 23.6841667,34.1791045 22.9666667,34.1791045 C22.2485417,34.1791045 21.6666667,33.6232836 21.6666667,32.9367164 L21.6666667,16.241791 C21.6666667,15.5558209 22.2485417,15 22.9666667,15" id="Fill-4"></path>
            <path d="M16.30125,15 C17.02,15 17.6025,15.5564179 17.6025,16.2429851 L17.6025,32.9355224 C17.6025,33.6226866 17.02,34.1791045 16.30125,34.1791045 C15.583125,34.1791045 15,33.6226866 15,32.9355224 L15,16.2429851 C15,15.5564179 15.583125,15 16.30125,15" id="Fill-6"></path>
            <path d="M9.63333333,15 C10.3508333,15 10.9333333,15.5558209 10.9333333,16.241791 L10.9333333,32.9367164 C10.9333333,33.6232836 10.3508333,34.1791045 9.63333333,34.1791045 C8.91520833,34.1791045 8.33333333,33.6232836 8.33333333,32.9367164 L8.33333333,16.241791 C8.33333333,15.5558209 8.91520833,15 9.63333333,15" id="Fill-8"></path>
            <path d="M29.6425,9.35880597 L3.240625,9.35880597 C2.888125,9.35880597 2.6025,9.08597015 2.6025,8.74925373 L2.6025,7.99761194 C2.6025,7.52477612 3.004375,7.14089552 3.499375,7.14089552 L29.38375,7.14089552 C29.879375,7.14089552 30.280625,7.52477612 30.280625,7.99761194 L30.280625,8.74925373 C30.280625,9.08597015 29.995,9.35880597 29.6425,9.35880597 Z M26.594375,37.0525373 C26.594375,37.2089552 26.52375,37.2764179 26.36,37.2764179 L6.52375,37.2764179 C6.36,37.2764179 6.28875,37.2089552 6.28875,37.0525373 L5.070625,12.4602985 C5.053125,12.1122388 5.34375,11.8214925 5.708125,11.8214925 L27.175625,11.8214925 C27.54,11.8214925 27.830625,12.1122388 27.8125,12.4602985 L26.594375,37.0525373 Z M12.32875,2.46268657 L20.244375,2.46268657 C21.153125,2.46268657 21.89,3.16656716 21.89,4.03462687 L21.89,4.06865672 C21.89,4.40537313 21.60375,4.67820896 21.25125,4.67820896 L11.629375,4.67820896 C11.276875,4.67820896 10.99125,4.40537313 10.99125,4.06865672 L10.99125,3.73970149 C10.99125,3.03462687 11.59,2.46268657 12.32875,2.46268657 Z M30.04625,4.67820896 L25.130625,4.67820896 C24.77875,4.67820896 24.4925,4.40537313 24.4925,4.06865672 L24.4925,1.5241791 C24.4925,0.68238806 23.778125,0 22.896875,0 L11.039375,0 C9.58875,0 8.413125,1.12298507 8.413125,2.5080597 L8.413125,4.06865672 C8.413125,4.40537313 8.1275,4.67820896 7.775,4.67820896 L3.475,4.67820896 C1.55625,4.67820896 0,6.1641791 0,7.99761194 L0,10.0519403 C0,11.0256716 0.83375,11.8214925 1.8525,11.8214925 C2.19375,11.8214925 2.474375,12.0776119 2.49,12.4023881 L3.71125,37.0525373 C3.71125,38.5755224 4.929375,39.7391045 6.52375,39.7391045 L26.36,39.7391045 C27.954375,39.7391045 29.194375,38.5755224 29.194375,37.0525373 L30.415625,12.4023881 C30.431875,12.0776119 30.7125,11.8214925 31.053125,11.8214925 C32.06375,11.8214925 32.88375,11.038806 32.88375,10.0734328 L32.88375,7.3880597 C32.88375,5.86567164 31.640625,4.67820896 30.04625,4.67820896 Z" id="Fill-1"></path>
        </g>
    </g>
</svg>