<?xml version="1.0" encoding="UTF-8"?>
<svg width="32px" height="32px" viewBox="0 0 32 32" version="1.1" xmlns="http://www.w3.org/2000/svg" xmlns:xlink="http://www.w3.org/1999/xlink">
    <!-- Generator: Sketch 50.2 (55047) - http://www.bohemiancoding.com/sketch -->
    <title>Group 9</title>
    <desc>Created with Sketch.</desc>
    <defs>
        <path d="M14.4806646,10.6666667 L18.4895172,10.6666667 C18.7644349,10.6666667 19.1251734,10.8455683 19.2943908,11.0661652 L20.396001,12.6903399 C20.5036407,12.8483939 20.6825554,12.9443899 20.8735917,12.9443899 L23.2426354,12.9443899 C23.79538,12.9443899 24.2424242,13.3952802 24.2424242,13.9542873 L24.2424242,21.2926482 C24.2424242,21.8506855 23.79538,22.3030303 23.2426354,22.3030303 L9.72754641,22.3030303 C9.17480186,22.3030303 8.72727273,21.8516552 8.72727273,21.2926482 L8.72727273,13.9542873 C8.72727273,13.3962499 9.17480186,12.9443899 9.72754641,12.9443899 L12.1062874,12.9443899 C12.2910205,12.9443899 12.4641168,12.8522726 12.5688473,12.6990668 L13.6753061,11.0661652 C13.8450084,10.8460531 14.2072016,10.6666667 14.4806646,10.6666667 Z M20.3636364,14.0608384 C20.3636364,14.3284692 20.5806906,14.5454545 20.8484848,14.5454545 C21.1167489,14.5454545 21.3333333,14.3284692 21.3333333,14.0608384 C21.3333333,13.7932076 21.1167489,13.5757576 20.8484848,13.5757576 C20.5806906,13.5757576 20.3636364,13.7932076 20.3636364,14.0608384 Z M12.6060606,17.4545455 C12.6060606,19.5968004 14.3426711,21.3333333 16.4851169,21.3333333 C18.6275627,21.3333333 20.3636364,19.5968004 20.3636364,17.4545455 C20.3636364,15.3117594 18.6275627,13.5757576 16.4851169,13.5757576 C14.3426711,13.5757576 12.6060606,15.3117594 12.6060606,17.4545455 Z M10.1817008,11.6363636 L11.1521023,11.6363636 C11.4198316,11.6363636 11.6363636,11.8519551 11.6363636,12.1214444 L11.6363636,12.6060606 L9.6969697,12.6060606 L9.6969697,12.1214444 C9.6969697,11.853349 9.91256229,11.6363636 10.1817008,11.6363636 Z M13.5757576,17.4545455 C13.5757576,15.8471701 14.8778538,14.5454545 16.4848485,14.5454545 C18.0918432,14.5454545 19.3939394,15.8471701 19.3939394,17.4545455 C19.3939394,19.0614139 18.0918432,20.3636364 16.4848485,20.3636364 C14.8778538,20.3636364 13.5757576,19.0614139 13.5757576,17.4545455 Z" id="path-1"></path>
    </defs>
    <g id="Page-1" stroke="none" stroke-width="1" fill="none" fill-rule="evenodd">
        <g id="PL3.5" transform="translate(-299.000000, -385.000000)">
            <g id="Group-2" transform="translate(31.000000, 354.000000)">
                <g id="Group-9" transform="translate(268.000000, 31.000000)">
                    <circle id="Oval" fill="#4E2683" cx="16" cy="16" r="16"></circle>
                    <mask id="mask-2" fill="white">
                        <use xlink:href="#path-1"></use>
                    </mask>
                    <use id="Camera-Icon" fill="#FFFFFF" xlink:href="#path-1"></use>
                </g>
            </g>
        </g>
    </g>
</svg>