<?xml version="1.0" encoding="UTF-8"?>
<svg width="17px" height="18px" viewBox="0 0 17 18" version="1.1" xmlns="http://www.w3.org/2000/svg" xmlns:xlink="http://www.w3.org/1999/xlink">
    <!-- Generator: Sketch 51 (57462) - http://www.bohemiancoding.com/sketch -->
    <title>Zoom-out-btn</title>
    <desc>Created with Sketch.</desc>
    <defs></defs>
    <g id="Page-1" stroke="none" stroke-width="1" fill="none" fill-rule="evenodd">
        <g id="HP.8Home-Fitsense-Dash-Expand" transform="translate(-341.000000, -153.000000)" fill="#333333">
            <g id="Zoom-out-btn" transform="translate(341.000000, 153.000000)">
                <path d="M16.0181279,0.0582065589 L11.548321,1.27425581 C11.4663588,1.30997506 11.3931669,1.36020526 11.3317751,1.42159773 C11.2333886,1.51998514 11.16514,1.6467566 11.1385103,1.78708224 C11.0952968,2.01527087 11.1676913,2.25015686 11.3317751,2.41424218 L12.0652884,3.14776258 L9,6.21308053 L10.7869022,8 L13.8521906,4.93484151 L14.5858634,5.6683619 C14.7501066,5.83260669 14.9849903,5.90500196 15.2130173,5.86162858 C15.353501,5.83515806 15.4801118,5.76674931 15.5783388,5.66852137 C15.6398902,5.60696944 15.6899604,5.53393632 15.7256793,5.45197339 L16.9417168,0.981963876 C17.0568465,0.717577611 16.9981655,0.409499044 16.7943763,0.205707943 C16.5904278,0.00175738054 16.2823522,-0.0567647902 16.0181279,0.0582065589" id="Fill-1" transform="translate(13.000000, 4.000000) rotate(-180.000000) translate(-13.000000, -4.000000) "></path>
                <path d="M6.21308194,10 L3.1477664,13.0651856 L2.41424659,12.3316587 C2.24984247,12.1674125 2.01511613,12.0950166 1.78692768,12.1383904 C1.64644269,12.1648611 1.51983079,12.2332705 1.42160292,12.3314993 C1.36005104,12.3930518 1.30998034,12.4660855 1.27426111,12.5480492 L0.0582128226,17.0180983 C-0.0567584359,17.2824869 0.00176368876,17.5905682 0.205554629,17.7943611 C0.409505031,17.9983135 0.717583355,18.0566767 0.98180995,17.9418638 L5.45181594,16.7258038 C5.53361934,16.6900842 5.60681186,16.6398535 5.66820428,16.5784605 C5.76659161,16.4800722 5.83484085,16.3532997 5.86147081,16.2129728 C5.90468469,15.9846227 5.83228948,15.7498941 5.66820428,15.5856478 L4.93468446,14.8522804 L8,11.7869353 L6.21308194,10 Z" id="Fill-4" transform="translate(4.000000, 14.000000) rotate(-180.000000) translate(-4.000000, -14.000000) "></path>
                <polygon id="Fill-6" points="1.64936087 1.64932996 8 1.64932996 8 0 0 0 0 8 1.64936087 8"></polygon>
                <polygon id="Fill-8" points="17 9 15.3506391 9 15.3506391 15.35067 9 15.35067 9 17 17 17"></polygon>
            </g>
        </g>
    </g>
</svg>